<svg width="900" height="1167" viewBox="0 0 900 1167" fill="none" xmlns="http://www.w3.org/2000/svg">
<rect x="320.5" y="200.5" width="229" height="416" rx="14.5" fill="white" fill-opacity="0.4" stroke="#ED1B24"/>
<rect x="0.5" y="0.5" width="265" height="253" rx="14.5" fill="white" fill-opacity="0.4" stroke="#ED1B24"/>
<rect x="0.5" y="290.5" width="265" height="253" rx="14.5" fill="white" fill-opacity="0.4" stroke="#ED1B24"/>
<rect x="604.5" y="0.5" width="265" height="253" rx="14.5" fill="white" fill-opacity="0.4" stroke="#ED1B24"/>
<rect x="326.5" y="255.5" width="217" height="29" rx="14.5" fill="black" fill-opacity="0.1" stroke="#ED1B24"/>
<rect x="12.5" y="12.5" width="241" height="29" rx="14.5" fill="white" fill-opacity="0.2" stroke="#ED1B24"/>
<rect x="12.5" y="302.5" width="241" height="29" rx="14.5" fill="white" fill-opacity="0.2" stroke="#ED1B24"/>
<rect x="616.5" y="12.5" width="241" height="29" rx="14.5" fill="white" fill-opacity="0.2" stroke="#ED1B24"/>
<rect x="326.5" y="295.5" width="217" height="29" rx="14.5" fill="black" fill-opacity="0.1" stroke="#ED1B24"/>
<rect x="12.5" y="52.5" width="241" height="29" rx="14.5" fill="white" fill-opacity="0.2" stroke="#ED1B24"/>
<rect x="12.5" y="342.5" width="241" height="29" rx="14.5" fill="white" fill-opacity="0.2" stroke="#ED1B24"/>
<rect x="616.5" y="52.5" width="241" height="29" rx="14.5" fill="white" fill-opacity="0.2" stroke="#ED1B24"/>
<rect x="326.5" y="335.5" width="217" height="29" rx="14.5" fill="black" fill-opacity="0.1" stroke="#ED1B24"/>
<rect x="12.5" y="92.5" width="241" height="29" rx="14.5" fill="white" fill-opacity="0.2" stroke="#ED1B24"/>
<rect x="12.5" y="382.5" width="241" height="29" rx="14.5" fill="white" fill-opacity="0.2" stroke="#ED1B24"/>
<rect x="616.5" y="92.5" width="241" height="29" rx="14.5" fill="white" fill-opacity="0.2" stroke="#ED1B24"/>
<rect x="326.5" y="375.5" width="217" height="29" rx="14.5" fill="black" fill-opacity="0.1" stroke="#ED1B24"/>
<rect x="12.5" y="132.5" width="241" height="29" rx="14.5" fill="white" fill-opacity="0.2" stroke="#ED1B24"/>
<rect x="12.5" y="422.5" width="241" height="29" rx="14.5" fill="white" fill-opacity="0.2" stroke="#ED1B24"/>
<rect x="616.5" y="132.5" width="241" height="29" rx="14.5" fill="white" fill-opacity="0.2" stroke="#ED1B24"/>
<rect x="326.5" y="415.5" width="217" height="29" rx="14.5" fill="black" fill-opacity="0.1" stroke="#ED1B24"/>
<rect x="12.5" y="172.5" width="241" height="29" rx="14.5" fill="white" fill-opacity="0.2" stroke="#ED1B24"/>
<rect x="12.5" y="462.5" width="241" height="29" rx="14.5" fill="white" fill-opacity="0.2" stroke="#ED1B24"/>
<rect x="616.5" y="172.5" width="241" height="29" rx="14.5" fill="white" fill-opacity="0.2" stroke="#ED1B24"/>
<rect x="326.5" y="455.5" width="217" height="29" rx="14.5" fill="black" fill-opacity="0.1" stroke="#ED1B24"/>
<rect x="12.5" y="212.5" width="241" height="29" rx="14.5" fill="white" fill-opacity="0.2" stroke="#ED1B24"/>
<rect x="12.5" y="502.5" width="241" height="29" rx="14.5" fill="white" fill-opacity="0.2" stroke="#ED1B24"/>
<rect x="616.5" y="212.5" width="241" height="29" rx="14.5" fill="white" fill-opacity="0.2" stroke="#ED1B24"/>
<rect x="326.5" y="495.5" width="217" height="29" rx="14.5" fill="black" fill-opacity="0.1" stroke="#ED1B24"/>
<rect x="326.5" y="535.5" width="217" height="29" rx="14.5" fill="black" fill-opacity="0.1" stroke="#ED1B24"/>
<rect x="326.5" y="575.5" width="217" height="29" rx="14.5" fill="black" fill-opacity="0.1" stroke="#ED1B24"/>
<path d="M335 200.5H535C543.008 200.5 549.5 206.992 549.5 215V244.5H320.5V215C320.5 206.992 326.992 200.5 335 200.5Z" fill="black" fill-opacity="0.05" stroke="#ED1B23"/>
<rect x="604.5" y="290.5" width="265" height="293" rx="14.5" fill="white" fill-opacity="0.4" stroke="#ED1B24"/>
<rect x="616.5" y="302.5" width="241" height="29" rx="14.5" fill="white" fill-opacity="0.2" stroke="#ED1B24"/>
<rect x="616.5" y="342.5" width="241" height="29" rx="14.5" fill="white" fill-opacity="0.2" stroke="#ED1B24"/>
<rect x="616.5" y="382.5" width="241" height="29" rx="14.5" fill="white" fill-opacity="0.2" stroke="#ED1B24"/>
<rect x="616.5" y="422.5" width="241" height="29" rx="14.5" fill="white" fill-opacity="0.2" stroke="#ED1B24"/>
<rect x="616.5" y="462.5" width="241" height="29" rx="14.5" fill="white" fill-opacity="0.2" stroke="#ED1B24"/>
<rect x="616.5" y="502.5" width="241" height="29" rx="14.5" fill="white" fill-opacity="0.2" stroke="#ED1B24"/>
<rect x="616.5" y="542.5" width="241" height="29" rx="14.5" fill="white" fill-opacity="0.2" stroke="#ED1B24"/>
<rect x="118.5" y="580.5" width="147" height="93" rx="14.5" fill="white" fill-opacity="0.4" stroke="#ED1B24"/>
<rect x="604.5" y="620.5" width="147" height="93" rx="14.5" fill="white" fill-opacity="0.4" stroke="#ED1B24"/>
<rect x="128.5" y="592.5" width="127" height="29" rx="14.5" fill="white" fill-opacity="0.2" stroke="#ED1B24"/>
<rect x="614.5" y="632.5" width="127" height="29" rx="14.5" fill="white" fill-opacity="0.2" stroke="#ED1B24"/>
<rect x="128.5" y="632.5" width="127" height="29" rx="14.5" fill="white" fill-opacity="0.2" stroke="#ED1B24"/>
<rect x="614.5" y="672.5" width="127" height="29" rx="14.5" fill="white" fill-opacity="0.2" stroke="#ED1B24"/>
<rect x="0.5" y="710.5" width="265" height="173" rx="14.5" fill="white" fill-opacity="0.4" stroke="#ED1B24"/>
<rect x="12.5" y="722.5" width="241" height="29" rx="14.5" fill="white" fill-opacity="0.2" stroke="#ED1B24"/>
<rect x="12.5" y="762.5" width="241" height="29" rx="14.5" fill="white" fill-opacity="0.2" stroke="#ED1B24"/>
<rect x="12.5" y="802.5" width="241" height="29" rx="14.5" fill="white" fill-opacity="0.2" stroke="#ED1B24"/>
<rect x="12.5" y="842.5" width="241" height="29" rx="14.5" fill="white" fill-opacity="0.2" stroke="#ED1B24"/>
<rect x="303.5" y="757.5" width="265" height="289" rx="14.5" fill="white" fill-opacity="0.4" stroke="#ED1B24"/>
<rect x="315.5" y="807.5" width="241" height="29" rx="14.5" fill="white" fill-opacity="0.2" stroke="#ED1B24"/>
<rect x="315.5" y="847.5" width="241" height="29" rx="14.5" fill="white" fill-opacity="0.2" stroke="#ED1B24"/>
<rect x="315.5" y="887.5" width="241" height="29" rx="14.5" fill="white" fill-opacity="0.2" stroke="#ED1B24"/>
<rect x="315.5" y="927.5" width="241" height="29" rx="14.5" fill="white" fill-opacity="0.2" stroke="#ED1B24"/>
<rect x="315.5" y="967.5" width="241" height="29" rx="14.5" fill="white" fill-opacity="0.2" stroke="#ED1B24"/>
<rect x="315.5" y="1007.5" width="241" height="29" rx="14.5" fill="white" fill-opacity="0.2" stroke="#ED1B24"/>
<path d="M318 757.5H554C562.008 757.5 568.5 763.992 568.5 772V796.5H303.5V772C303.5 763.992 309.992 757.5 318 757.5Z" fill="black" fill-opacity="0.2" stroke="#ED1B24"/>
<rect x="634.5" y="828.5" width="265" height="213" rx="14.5" fill="white" fill-opacity="0.4" stroke="#ED1B24"/>
<rect x="646.5" y="840.5" width="241" height="29" rx="14.5" fill="white" fill-opacity="0.2" stroke="#ED1B24"/>
<rect x="646.5" y="880.5" width="241" height="29" rx="14.5" fill="white" fill-opacity="0.2" stroke="#ED1B24"/>
<rect x="646.5" y="920.5" width="241" height="29" rx="14.5" fill="white" fill-opacity="0.2" stroke="#ED1B24"/>
<rect x="646.5" y="960.5" width="241" height="29" rx="14.5" fill="white" fill-opacity="0.2" stroke="#ED1B24"/>
<rect x="646.5" y="1000.5" width="241" height="29" rx="14.5" fill="white" fill-opacity="0.2" stroke="#ED1B24"/>
<rect x="118.5" y="920.5" width="147" height="93" rx="14.5" fill="white" fill-opacity="0.4" stroke="#ED1B24"/>
<rect x="128.5" y="932.5" width="127" height="29" rx="14.5" fill="white" fill-opacity="0.2" stroke="#ED1B24"/>
<rect x="128.5" y="972.5" width="127" height="29" rx="14.5" fill="white" fill-opacity="0.2" stroke="#ED1B24"/>
<path d="M265.5 30.5C271.959 30.5 277.364 30.5 282.251 30.5C290.535 30.5 297.25 37.2149 297.25 45.4991C297.25 95.9264 297.25 201.114 297.25 254.543C297.25 262.827 303.963 269.5 312.248 269.5C315.681 269.5 320.023 269.5 326 269.5" stroke="black" stroke-opacity="0.5"/>
<path d="M266 607C268.373 607 270.054 607 271.263 607C279.547 607 286.254 600.316 286.254 592.031C286.254 553.28 286.254 486.117 286.254 444.972C286.254 436.688 292.969 430 301.254 430C309.095 430 316.86 430 327 430" stroke="black" stroke-opacity="0.5"/>
<path d="M266 741C276.596 741 281.988 741 290.249 741C298.533 741 305.253 734.307 305.231 726.022C305.096 674.69 304.396 578.963 304.272 523.958C304.254 515.674 310.968 509 319.253 509C320.998 509 323.417 509 327 509" stroke="black" stroke-opacity="0.5"/>
<path d="M544 470C551.412 470 554.508 470 557.999 470C566.283 470 573 476.703 573 484.987C573 522.012 573 588.443 573 632.008C573 640.293 579.713 647 587.997 647C592.583 647 597.893 647 604 647" stroke="black" stroke-opacity="0.5"/>
<path d="M265.5 366.5C270.925 366.5 274.553 366.5 277.787 366.5C281.163 366.5 284.449 365.354 287.098 363.259C293.768 357.985 297.882 354.733 300.419 352.727C303.067 350.633 306.336 349.5 309.713 349.5C314.436 349.5 319.863 349.5 327 349.5" stroke="black" stroke-opacity="0.5"/>
<path d="M544 391C549.425 391 553.053 391 556.287 391C559.663 391 562.949 389.854 565.598 387.759C572.268 382.485 576.382 379.233 578.919 377.227C581.567 375.133 584.836 374 588.213 374C592.936 374 598.363 374 605.5 374" stroke="black" stroke-opacity="0.5"/>
<path d="M557 862C562.83 862 571.908 862 579.912 862C588.197 862 594.905 868.726 594.956 877.01C595.114 902.28 595.628 919.416 595.784 944.991C595.834 953.275 602.54 960 610.824 960C617.938 960 626.503 960 634 960" stroke="black" stroke-opacity="0.5"/>
<path d="M266 939C267.94 939 269.52 939 270.874 939C277.242 939 282.912 934.98 285.023 928.972L290.977 912.028C293.087 906.02 298.758 902 305.125 902C307.664 902 310.792 902 315 902" stroke="black" stroke-opacity="0.5"/>
<path d="M447.12 1037C465 1097 390.499 1098 414 1166" stroke="black" stroke-opacity="0.5"/>
<path d="M605 52C595.741 52 589.317 52 583.997 52C575.712 52 569 58.6656 569 66.9499C569 127.076 569 237.117 569 296.052C569 304.337 562.284 311 553.999 311C551.611 311 549.492 311 544 311" stroke="black" stroke-opacity="0.5"/>
<line x1="435" y1="605" x2="435" y2="757" stroke="black" stroke-opacity="0.5" stroke-width="2"/>
</svg>
