<svg width="298" height="748" viewBox="0 0 298 748" fill="none" xmlns="http://www.w3.org/2000/svg">
<rect x="13.5" y="0.5" width="271" height="45" rx="22.5" fill="black" fill-opacity="0.1" stroke="#ED1B24"/>
<line x1="145.5" y1="46" x2="145.5" y2="114" stroke="#ED1B24" stroke-opacity="0.8"/>
<rect x="0.5" y="114.5" width="297" height="489" rx="14.5" stroke="#ED1B24" stroke-opacity="0.8"/>
<rect x="10.5" y="124.5" width="277" height="29" rx="14.5" stroke="#ED1B24" stroke-opacity="0.8"/>
<rect x="10.5" y="164.5" width="277" height="29" rx="14.5" stroke="#ED1B24" stroke-opacity="0.8"/>
<rect x="10.5" y="324.5" width="277" height="29" rx="14.5" stroke="#ED1B24" stroke-opacity="0.8"/>
<rect x="10.5" y="484.5" width="277" height="29" rx="14.5" stroke="#ED1B24" stroke-opacity="0.8"/>
<rect x="10.5" y="204.5" width="277" height="29" rx="14.5" stroke="#ED1B24" stroke-opacity="0.8"/>
<rect x="10.5" y="364.5" width="277" height="29" rx="14.5" stroke="#ED1B24" stroke-opacity="0.8"/>
<rect x="10.5" y="524.5" width="277" height="29" rx="14.5" stroke="#ED1B24" stroke-opacity="0.8"/>
<rect x="10.5" y="244.5" width="277" height="29" rx="14.5" stroke="#ED1B24" stroke-opacity="0.8"/>
<rect x="10.5" y="404.5" width="277" height="29" rx="14.5" stroke="#ED1B24" stroke-opacity="0.8"/>
<rect x="10.5" y="564.5" width="277" height="29" rx="14.5" stroke="#ED1B24" stroke-opacity="0.8"/>
<rect x="10.5" y="284.5" width="277" height="29" rx="14.5" stroke="#ED1B24" stroke-opacity="0.8"/>
<rect x="10.5" y="444.5" width="277" height="29" rx="14.5" stroke="#ED1B24" stroke-opacity="0.8"/>
<line x1="145.5" y1="594" x2="145.5" y2="704" stroke="black" stroke-opacity="0.7"/>
<path d="M35 705H269.5C277.508 705 284 711.492 284 719.5V733C284 741.008 277.508 747.5 269.5 747.5H153H35C26.9919 747.5 20.5 741.008 20.5 733V719.5C20.5 711.492 26.9919 705 35 705Z" stroke="black"/>
</svg>
