<svg width="904" height="1452" viewBox="0 0 904 1452" fill="none" xmlns="http://www.w3.org/2000/svg">
<path d="M323 1417.5H503C511.008 1417.5 517.5 1423.99 517.5 1432V1437C517.5 1445.01 511.008 1451.5 503 1451.5H323C314.992 1451.5 308.5 1445.01 308.5 1437V1432C308.5 1423.99 314.992 1417.5 323 1417.5Z" fill="black" fill-opacity="0.1" stroke="#ED1B24"/>
<rect x="333.5" y="0.5" width="229" height="45" rx="22.5" fill="black" fill-opacity="0.1" stroke="#ED1B24"/>
<rect x="278" y="106" width="340" height="350" rx="15" fill="white" fill-opacity="0.3"/>
<rect x="278.5" y="106.5" width="339" height="349" rx="14.5" stroke="#ED1B24" stroke-opacity="0.8"/>
<path d="M293 106.5H603C611.008 106.5 617.5 112.992 617.5 121V165.5H278.5V121C278.5 112.992 284.992 106.5 293 106.5Z" fill="black" fill-opacity="0.1" stroke="#ED1B24"/>
<rect x="294" y="176" width="308" height="30" rx="10" fill="white" fill-opacity="0.3"/>
<rect x="294.5" y="176.5" width="307" height="29" rx="9.5" stroke="#ED1B24" stroke-opacity="0.8"/>
<rect x="294" y="216" width="308" height="30" rx="10" fill="white" fill-opacity="0.3"/>
<rect x="294.5" y="216.5" width="307" height="29" rx="9.5" stroke="#ED1B24" stroke-opacity="0.8"/>
<rect x="294" y="256" width="308" height="30" rx="10" fill="white" fill-opacity="0.3"/>
<rect x="294.5" y="256.5" width="307" height="29" rx="9.5" stroke="#ED1B24" stroke-opacity="0.8"/>
<rect x="294" y="296" width="308" height="30" rx="10" fill="white" fill-opacity="0.3"/>
<rect x="294.5" y="296.5" width="307" height="29" rx="9.5" stroke="#ED1B24" stroke-opacity="0.8"/>
<rect x="294" y="336" width="308" height="30" rx="10" fill="white" fill-opacity="0.3"/>
<rect x="294.5" y="336.5" width="307" height="29" rx="9.5" stroke="#ED1B24" stroke-opacity="0.8"/>
<rect x="294" y="376" width="308" height="30" rx="10" fill="white" fill-opacity="0.3"/>
<rect x="294.5" y="376.5" width="307" height="29" rx="9.5" stroke="#ED1B24" stroke-opacity="0.8"/>
<rect x="294" y="416" width="308" height="30" rx="10" fill="white" fill-opacity="0.3"/>
<rect x="294.5" y="416.5" width="307" height="29" rx="9.5" stroke="#ED1B24" stroke-opacity="0.8"/>
<rect x="349.5" y="539.5" width="199" height="29" rx="14.5" stroke="#ED1B24"/>
<path d="M354 499.5H544C552.008 499.5 558.5 505.992 558.5 514V528.5H339.5V514C339.5 505.992 345.992 499.5 354 499.5Z" fill="black" fill-opacity="0.1" stroke="#ED1B24"/>
<rect x="349.5" y="579.5" width="199" height="29" rx="14.5" stroke="#ED1B24"/>
<rect x="349.5" y="619.5" width="199" height="29" rx="14.5" stroke="#ED1B24"/>
<rect x="339.5" y="499.5" width="219" height="199" rx="14.5" stroke="#ED1B24"/>
<rect x="349.5" y="659.5" width="199" height="29" rx="14.5" stroke="#ED1B24"/>
<path d="M0 406C0 397.716 6.71573 391 15 391H183C191.284 391 198 397.716 198 406V431H0V406Z" fill="black" fill-opacity="0.1"/>
<rect x="0.5" y="391.5" width="197" height="129" rx="14.5" stroke="#ED1B24"/>
<rect x="11.5" y="441.5" width="175" height="29" rx="14.5" stroke="#ED1B24"/>
<rect x="11.5" y="481.5" width="175" height="29" rx="14.5" stroke="#ED1B24"/>
<rect x="0.5" y="579.5" width="237" height="339" rx="14.5" stroke="#ED1B24" stroke-opacity="0.8"/>
<path d="M0 594C0 585.716 6.71573 579 15 579H223C231.284 579 238 585.716 238 594V629H0V594Z" fill="black" fill-opacity="0.1"/>
<rect x="10.5" y="639.5" width="217" height="29" rx="14.5" stroke="#ED1B24" stroke-opacity="0.8"/>
<rect x="10.5" y="719.5" width="217" height="29" rx="14.5" stroke="#ED1B24" stroke-opacity="0.8"/>
<rect x="10.5" y="799.5" width="217" height="29" rx="14.5" stroke="#ED1B24" stroke-opacity="0.8"/>
<rect x="10.5" y="679.5" width="217" height="29" rx="14.5" stroke="#ED1B24" stroke-opacity="0.8"/>
<rect x="10.5" y="759.5" width="217" height="29" rx="14.5" stroke="#ED1B24" stroke-opacity="0.8"/>
<rect x="10.5" y="839.5" width="217" height="29" rx="14.5" stroke="#ED1B24" stroke-opacity="0.8"/>
<rect x="10.5" y="879.5" width="217" height="29" rx="14.5" stroke="#ED1B24" stroke-opacity="0.8"/>
<rect x="1.5" y="941.5" width="269" height="39" rx="14.5" fill="black" fill-opacity="0.1" stroke="#ED1B24"/>
<rect x="344.5" y="1188.5" width="211" height="79" rx="14.5" stroke="#ED1B24" stroke-opacity="0.8"/>
<rect x="351.5" y="1228.5" width="197" height="29" rx="14.5" stroke="#ED1B24" stroke-opacity="0.8"/>
<path d="M345 1203C345 1194.72 351.716 1188 360 1188H541C549.284 1188 556 1194.72 556 1203V1218H345V1203Z" fill="black" fill-opacity="0.1"/>
<rect x="316.5" y="941.5" width="265" height="203" rx="14.5" stroke="#ED1B24" stroke-opacity="0.8"/>
<rect x="327.5" y="985.5" width="243" height="29" rx="14.5" stroke="#ED1B24" stroke-opacity="0.8"/>
<path d="M316 956C316 947.716 322.716 941 331 941H567C575.284 941 582 947.716 582 956V975H316V956Z" fill="black" fill-opacity="0.1"/>
<rect x="327.5" y="1025.5" width="243" height="29" rx="14.5" stroke="#ED1B24" stroke-opacity="0.8"/>
<rect x="327.5" y="1065.5" width="243" height="29" rx="14.5" stroke="#ED1B24" stroke-opacity="0.8"/>
<rect x="327.5" y="1105.5" width="243" height="29" rx="14.5" stroke="#ED1B24" stroke-opacity="0.8"/>
<rect x="60" y="1211" width="180" height="30" rx="15" fill="white" fill-opacity="0.2"/>
<rect x="60.5" y="1211.5" width="179" height="29" rx="14.5" stroke="#ED1B24" stroke-opacity="0.8"/>
<rect x="60" y="1171" width="180" height="30" rx="15" fill="white" fill-opacity="0.2"/>
<rect x="60.5" y="1171.5" width="179" height="29" rx="14.5" stroke="#ED1B24" stroke-opacity="0.8"/>
<rect x="431.5" y="732.5" width="117" height="29" rx="14.5" stroke="#ED1B24" stroke-opacity="0.8"/>
<rect x="431.5" y="812.5" width="117" height="29" rx="14.5" stroke="#ED1B24" stroke-opacity="0.8"/>
<rect x="431.5" y="772.5" width="117" height="29" rx="14.5" stroke="#ED1B24" stroke-opacity="0.8"/>
<rect x="592.5" y="940.5" width="311" height="329" rx="14.5" stroke="#ED1B24"/>
<path d="M592 955C592 946.716 598.716 940 607 940H889C897.284 940 904 946.716 904 955V980H592V955Z" fill="black" fill-opacity="0.1"/>
<rect x="607.5" y="990.5" width="281" height="29" rx="14.5" stroke="#ED1B24" stroke-opacity="0.8"/>
<rect x="607.5" y="1070.5" width="281" height="29" rx="14.5" stroke="#ED1B24" stroke-opacity="0.8"/>
<rect x="607.5" y="1150.5" width="281" height="29" rx="14.5" stroke="#ED1B24" stroke-opacity="0.8"/>
<rect x="607.5" y="1230.5" width="281" height="29" rx="14.5" stroke="#ED1B24" stroke-opacity="0.8"/>
<rect x="607.5" y="1030.5" width="281" height="29" rx="14.5" stroke="#ED1B24" stroke-opacity="0.8"/>
<rect x="607.5" y="1110.5" width="281" height="29" rx="14.5" stroke="#ED1B24" stroke-opacity="0.8"/>
<rect x="607.5" y="1190.5" width="281" height="29" rx="14.5" stroke="#ED1B24" stroke-opacity="0.8"/>
<rect x="684.5" y="749.5" width="219" height="169" rx="14.5" stroke="#ED1B24" stroke-opacity="0.8"/>
<path d="M684 764C684 755.716 690.716 749 699 749H889C897.284 749 904 755.716 904 764V789H684V764Z" fill="black" fill-opacity="0.1"/>
<rect x="697.5" y="799.5" width="193" height="29" rx="14.5" stroke="#ED1B24" stroke-opacity="0.8"/>
<rect x="697.5" y="879.5" width="193" height="29" rx="14.5" stroke="#ED1B24" stroke-opacity="0.8"/>
<rect x="697.5" y="839.5" width="193" height="29" rx="14.5" stroke="#ED1B24" stroke-opacity="0.8"/>
<rect x="684.5" y="344.5" width="219" height="369" rx="14.5" stroke="#ED1B24" stroke-opacity="0.8"/>
<path d="M684 359C684 350.716 690.716 344 699 344H889C897.284 344 904 350.716 904 359V384H684V359Z" fill="black" fill-opacity="0.1"/>
<rect x="697.5" y="394.5" width="193" height="29" rx="14.5" stroke="#ED1B24" stroke-opacity="0.8"/>
<rect x="697.5" y="474.5" width="193" height="29" rx="14.5" stroke="#ED1B24" stroke-opacity="0.8"/>
<rect x="697.5" y="554.5" width="193" height="29" rx="14.5" stroke="#ED1B24" stroke-opacity="0.8"/>
<rect x="697.5" y="634.5" width="193" height="29" rx="14.5" stroke="#ED1B24" stroke-opacity="0.8"/>
<rect x="697.5" y="434.5" width="193" height="29" rx="14.5" stroke="#ED1B24" stroke-opacity="0.8"/>
<rect x="697.5" y="514.5" width="193" height="29" rx="14.5" stroke="#ED1B24" stroke-opacity="0.8"/>
<rect x="697.5" y="594.5" width="193" height="29" rx="14.5" stroke="#ED1B24" stroke-opacity="0.8"/>
<rect x="697.5" y="674.5" width="193" height="29" rx="14.5" stroke="#ED1B24" stroke-opacity="0.8"/>
<path d="M601.5 191.5H715" stroke="black" stroke-opacity="0.4"/>
<rect x="714.5" y="178.5" width="189" height="29" rx="14.5" stroke="#ED1B24" stroke-opacity="0.8"/>
<rect x="714.5" y="218.5" width="189" height="29" rx="14.5" stroke="#ED1B24" stroke-opacity="0.8"/>
<rect x="714.5" y="258.5" width="189" height="29" rx="14.5" stroke="#ED1B24" stroke-opacity="0.8"/>
<path d="M675 192V224.5C675 230.023 679.477 234.5 685 234.5H714.5" stroke="black" stroke-opacity="0.4"/>
<path d="M675 226V263C675 268.523 679.477 273 685 273H715" stroke="black" stroke-opacity="0.4"/>
<line x1="448.5" y1="499.019" x2="448.5" y2="445.981" stroke="black" stroke-opacity="0.7"/>
<path d="M349.5 554.5H252.5M252.5 554.5V428C252.5 422.477 248.023 418 242.5 418H198.5M252.5 554.5H125.5C119.977 554.5 115.5 558.977 115.5 564.5V578.5" stroke="black" stroke-opacity="0.7"/>
<path d="M349.5 675H316.5C310.977 675 306.5 679.477 306.5 685V951C306.5 956.523 302.023 961 296.5 961H272" stroke="black" stroke-opacity="0.7"/>
<path d="M549 596H621.5C632.546 596 641.5 587.046 641.5 576V386C641.5 374.954 650.454 366 661.5 366H684.5" stroke="black" stroke-opacity="0.7"/>
<path d="M624 596H650C655.523 596 660 600.477 660 606V760.5C660 766.023 664.477 770.5 670 770.5H684.5" stroke="black" stroke-opacity="0.7"/>
<path d="M602 596V872.5C602 878.023 606.477 882.5 612 882.5H645C650.523 882.5 655 886.977 655 892.5V940" stroke="black" stroke-opacity="0.7"/>
<path d="M549 830H564.5C575.546 830 584.5 821.046 584.5 810V654C584.5 642.954 575.546 634 564.5 634H550" stroke="black" stroke-opacity="0.7"/>
<path d="M549 789H565C576.046 789 585 780.046 585 769V654C585 642.954 576.046 634 565 634H550.014" stroke="black" stroke-opacity="0.7"/>
<path d="M549 749H570.5C578.508 749 585 742.508 585 734.5V734.5" stroke="black" stroke-opacity="0.7"/>
<path d="M306.5 815H377C388.046 815 397 823.954 397 835V940.5" stroke="black" stroke-opacity="0.7"/>
<line x1="449.5" y1="1188" x2="449.5" y2="1135" stroke="black" stroke-opacity="0.7"/>
<path d="M240 1185H264C269.523 1185 274 1189.48 274 1195V1233.5C274 1239.02 278.477 1243.5 284 1243.5H351.5" stroke="black" stroke-opacity="0.7"/>
<path d="M240 1227.5H274" stroke="black" stroke-opacity="0.7"/>
<path d="M447 1257V1295.47C447 1310.54 441.016 1324.98 430.364 1335.64V1335.64C421.487 1344.51 416.5 1356.55 416.5 1369.11V1417" stroke="black" stroke-opacity="0.7"/>
<line x1="448.5" y1="45.9958" x2="448.5" y2="105.996" stroke="black"/>
</svg>
