<svg width="933" height="1590" viewBox="0 0 933 1590" fill="none" xmlns="http://www.w3.org/2000/svg">
<rect x="334.5" y="1125.5" width="287" height="464" rx="14.5" fill="white" fill-opacity="0.4" stroke="#ED1B24"/>
<rect x="342.5" y="1200.5" width="271" height="39" rx="14.5" fill="white" fill-opacity="0.2" stroke="#ED1B24"/>
<rect x="342.5" y="1250.5" width="271" height="39" rx="14.5" fill="white" fill-opacity="0.2" stroke="#ED1B24"/>
<rect x="342.5" y="1300.5" width="271" height="29" rx="14.5" fill="white" fill-opacity="0.2" stroke="#ED1B24"/>
<rect x="342.5" y="1340.5" width="271" height="39" rx="14.5" fill="white" fill-opacity="0.2" stroke="#ED1B24"/>
<rect x="342.5" y="1390.5" width="271" height="29" rx="14.5" fill="white" fill-opacity="0.2" stroke="#ED1B24"/>
<rect x="342.5" y="1430.5" width="271" height="29" rx="14.5" fill="white" fill-opacity="0.2" stroke="#ED1B24"/>
<rect x="342.5" y="1470.5" width="271" height="29" rx="14.5" fill="white" fill-opacity="0.2" stroke="#ED1B24"/>
<rect x="342.5" y="1510.5" width="271" height="29" rx="14.5" fill="white" fill-opacity="0.2" stroke="#ED1B24"/>
<rect x="342.5" y="1550.5" width="271" height="29" rx="14.5" fill="white" fill-opacity="0.2" stroke="#ED1B24"/>
<path d="M349 1125.5H607C615.008 1125.5 621.5 1131.99 621.5 1140V1189.5H334.5V1140C334.5 1131.99 340.992 1125.5 349 1125.5Z" fill="black" fill-opacity="0.05" stroke="#ED1B23"/>
<rect x="645.5" y="128.5" width="287" height="135" rx="14.5" fill="white" fill-opacity="0.4" stroke="#ED1B24"/>
<rect x="103.5" y="205.5" width="147" height="135" rx="14.5" fill="white" fill-opacity="0.4" stroke="#ED1B24"/>
<rect x="360.5" y="92.5" width="235" height="451" rx="9.5" stroke="#ED1B24"/>
<path d="M370 92.5H586C591.247 92.5 595.5 96.7533 595.5 102V131.5H360.5V102C360.5 96.7533 364.753 92.5 370 92.5Z" fill="black" fill-opacity="0.05" stroke="#ED1B24"/>
<rect x="370.5" y="142.5" width="215" height="39" rx="14.5" fill="white" fill-opacity="0.3" stroke="#ED1B24"/>
<rect x="370.5" y="192.5" width="215" height="39" rx="14.5" fill="white" fill-opacity="0.3" stroke="#ED1B24"/>
<rect x="370.5" y="242.5" width="215" height="39" rx="14.5" fill="white" fill-opacity="0.3" stroke="#ED1B24"/>
<rect x="370.5" y="292.5" width="215" height="39" rx="14.5" fill="white" fill-opacity="0.3" stroke="#ED1B24"/>
<rect x="370.5" y="342.5" width="215" height="39" rx="14.5" fill="white" fill-opacity="0.3" stroke="#ED1B24"/>
<rect x="370.5" y="392.5" width="215" height="39" rx="14.5" fill="white" fill-opacity="0.3" stroke="#ED1B24"/>
<rect x="653.5" y="141.5" width="271" height="29" rx="14.5" fill="white" fill-opacity="0.2" stroke="#ED1B24"/>
<rect x="113.5" y="218.5" width="127" height="29" rx="14.5" fill="white" fill-opacity="0.2" stroke="#ED1B24"/>
<rect x="370.5" y="442.5" width="215" height="39" rx="14.5" fill="white" fill-opacity="0.3" stroke="#ED1B24"/>
<rect x="653.5" y="181.5" width="271" height="29" rx="14.5" fill="white" fill-opacity="0.2" stroke="#ED1B24"/>
<rect x="113.5" y="258.5" width="127" height="29" rx="14.5" fill="white" fill-opacity="0.2" stroke="#ED1B24"/>
<rect x="370.5" y="492.5" width="215" height="39" rx="14.5" fill="white" fill-opacity="0.3" stroke="#ED1B24"/>
<rect x="653.5" y="221.5" width="271" height="29" rx="14.5" fill="white" fill-opacity="0.2" stroke="#ED1B24"/>
<rect x="113.5" y="298.5" width="127" height="29" rx="14.5" fill="white" fill-opacity="0.2" stroke="#ED1B24"/>
<rect x="354.5" y="0.5" width="247" height="41" rx="20.5" fill="black" fill-opacity="0.05" stroke="#ED1B23"/>
<line x1="477.5" y1="42" x2="477.5" y2="92" stroke="#FF5151"/>
<path d="M477.033 115.885V115.248H477.11V115.816H477.406V115.885H477.033ZM477.656 115.896C477.626 115.896 477.598 115.89 477.574 115.879C477.549 115.867 477.529 115.85 477.515 115.829C477.5 115.807 477.493 115.78 477.493 115.749C477.493 115.722 477.498 115.7 477.509 115.683C477.52 115.665 477.534 115.652 477.552 115.642C477.57 115.632 477.59 115.625 477.612 115.62C477.634 115.615 477.656 115.611 477.678 115.609C477.707 115.605 477.731 115.602 477.749 115.6C477.767 115.598 477.78 115.595 477.789 115.59C477.797 115.585 477.801 115.577 477.801 115.565V115.563C477.801 115.532 477.793 115.508 477.776 115.491C477.76 115.474 477.734 115.466 477.701 115.466C477.666 115.466 477.638 115.473 477.618 115.489C477.598 115.504 477.584 115.52 477.576 115.538L477.507 115.513C477.519 115.484 477.536 115.461 477.556 115.445C477.577 115.429 477.6 115.417 477.625 115.411C477.65 115.404 477.674 115.401 477.698 115.401C477.713 115.401 477.731 115.403 477.751 115.407C477.771 115.41 477.79 115.418 477.809 115.429C477.828 115.44 477.844 115.457 477.856 115.479C477.868 115.502 477.875 115.532 477.875 115.57V115.885H477.801V115.82H477.798C477.793 115.83 477.784 115.841 477.773 115.853C477.761 115.865 477.746 115.875 477.726 115.883C477.707 115.892 477.684 115.896 477.656 115.896ZM477.667 115.83C477.696 115.83 477.72 115.824 477.74 115.813C477.76 115.801 477.776 115.787 477.786 115.769C477.796 115.751 477.801 115.732 477.801 115.712V115.645C477.798 115.648 477.791 115.652 477.781 115.655C477.77 115.658 477.758 115.66 477.745 115.663C477.731 115.665 477.718 115.667 477.705 115.668C477.693 115.67 477.682 115.671 477.674 115.672C477.655 115.674 477.638 115.679 477.621 115.684C477.605 115.689 477.591 115.698 477.581 115.709C477.571 115.719 477.566 115.734 477.566 115.753C477.566 115.778 477.576 115.798 477.595 115.811C477.614 115.823 477.638 115.83 477.667 115.83ZM478.309 115.689V115.407H478.383V115.885H478.309V115.804H478.304C478.293 115.828 478.276 115.849 478.252 115.866C478.228 115.882 478.199 115.891 478.163 115.891C478.133 115.891 478.106 115.884 478.083 115.871C478.06 115.858 478.042 115.838 478.028 115.812C478.015 115.785 478.008 115.751 478.008 115.711V115.407H478.082V115.706C478.082 115.74 478.092 115.768 478.111 115.789C478.131 115.81 478.156 115.82 478.186 115.82C478.204 115.82 478.223 115.815 478.242 115.806C478.261 115.797 478.277 115.782 478.29 115.763C478.303 115.744 478.309 115.719 478.309 115.689ZM478.59 115.597V115.885H478.517V115.407H478.588V115.482H478.594C478.605 115.458 478.622 115.438 478.645 115.423C478.668 115.408 478.697 115.401 478.733 115.401C478.765 115.401 478.794 115.408 478.818 115.421C478.842 115.434 478.861 115.454 478.875 115.481C478.888 115.507 478.895 115.541 478.895 115.581V115.885H478.821V115.586C478.821 115.549 478.812 115.52 478.792 115.499C478.773 115.477 478.746 115.467 478.712 115.467C478.689 115.467 478.668 115.472 478.649 115.482C478.631 115.492 478.617 115.507 478.606 115.527C478.595 115.546 478.59 115.57 478.59 115.597ZM479.223 115.894C479.178 115.894 479.139 115.884 479.107 115.863C479.075 115.842 479.05 115.813 479.032 115.775C479.015 115.738 479.006 115.696 479.006 115.648C479.006 115.6 479.015 115.557 479.033 115.52C479.051 115.483 479.076 115.454 479.108 115.433C479.141 115.412 479.178 115.401 479.221 115.401C479.255 115.401 479.285 115.407 479.312 115.42C479.339 115.432 479.361 115.45 479.378 115.472C479.395 115.494 479.406 115.52 479.41 115.55H479.337C479.331 115.528 479.319 115.509 479.3 115.492C479.281 115.475 479.255 115.467 479.223 115.467C479.194 115.467 479.169 115.474 479.147 115.489C479.126 115.504 479.109 115.525 479.097 115.552C479.086 115.578 479.08 115.61 479.08 115.646C479.08 115.683 479.085 115.715 479.097 115.742C479.109 115.77 479.125 115.791 479.147 115.806C479.168 115.821 479.194 115.829 479.223 115.829C479.242 115.829 479.259 115.825 479.274 115.819C479.29 115.812 479.303 115.802 479.314 115.79C479.325 115.778 479.332 115.763 479.337 115.745H479.41C479.406 115.773 479.396 115.799 479.38 115.821C479.363 115.844 479.342 115.862 479.315 115.875C479.289 115.888 479.258 115.894 479.223 115.894ZM479.591 115.597V115.885H479.517V115.248H479.591V115.482H479.597C479.608 115.457 479.625 115.438 479.647 115.423C479.67 115.408 479.7 115.401 479.737 115.401C479.77 115.401 479.798 115.408 479.823 115.421C479.847 115.433 479.866 115.453 479.88 115.48C479.893 115.506 479.9 115.54 479.9 115.581V115.885H479.827V115.586C479.827 115.548 479.817 115.519 479.797 115.498C479.778 115.477 479.751 115.467 479.716 115.467C479.692 115.467 479.671 115.472 479.652 115.482C479.633 115.492 479.618 115.507 479.607 115.527C479.596 115.546 479.591 115.57 479.591 115.597Z" fill="#343A40"/>
<path d="M596 212H600.044C605.794 212 611.115 208.957 614.031 204V204C616.946 199.043 622.267 196 628.017 196H646" stroke="black" stroke-opacity="0.4"/>
<path d="M251 277H284.5C292.784 277 299.5 283.716 299.5 292V447C299.5 455.284 306.216 462 314.5 462H360" stroke="black" stroke-opacity="0.4"/>
<rect x="334.5" y="849.5" width="287" height="211" rx="14.5" fill="white" fill-opacity="0.4" stroke="#ED1B24"/>
<rect x="342.5" y="899.5" width="271" height="29" rx="14.5" fill="white" fill-opacity="0.2" stroke="#ED1B24"/>
<rect x="342.5" y="939.5" width="271" height="29" rx="14.5" fill="white" fill-opacity="0.2" stroke="#ED1B24"/>
<rect x="342.5" y="979.5" width="271" height="29" rx="14.5" fill="white" fill-opacity="0.2" stroke="#ED1B24"/>
<rect x="342.5" y="1019.5" width="271" height="29" rx="14.5" fill="white" fill-opacity="0.2" stroke="#ED1B24"/>
<path d="M349 849.5H607C615.008 849.5 621.5 855.992 621.5 864V888.5H334.5V864C334.5 855.992 340.992 849.5 349 849.5Z" fill="black" fill-opacity="0.05" stroke="#ED1B23"/>
<rect x="0.5" y="585.5" width="287" height="259" rx="14.5" fill="white" fill-opacity="0.4" stroke="#ED1B24"/>
<rect x="337.5" y="585.5" width="287" height="211" rx="14.5" fill="white" fill-opacity="0.4" stroke="#ED1B24"/>
<rect x="674.5" y="585.5" width="147" height="135" rx="14.5" fill="white" fill-opacity="0.4" stroke="#ED1B24"/>
<rect x="345.5" y="635.5" width="271" height="29" rx="14.5" fill="white" fill-opacity="0.2" stroke="#ED1B24"/>
<rect x="8.5" y="600.5" width="271" height="29" rx="14.5" fill="white" fill-opacity="0.2" stroke="#ED1B24"/>
<rect x="684.5" y="598.5" width="127" height="29" rx="14.5" fill="white" fill-opacity="0.2" stroke="#ED1B24"/>
<rect x="345.5" y="675.5" width="271" height="29" rx="14.5" fill="white" fill-opacity="0.2" stroke="#ED1B24"/>
<rect x="684.5" y="638.5" width="127" height="29" rx="14.5" fill="white" fill-opacity="0.2" stroke="#ED1B24"/>
<rect x="8.5" y="640.5" width="271" height="29" rx="14.5" fill="white" fill-opacity="0.2" stroke="#ED1B24"/>
<rect x="345.5" y="715.5" width="271" height="29" rx="14.5" fill="white" fill-opacity="0.2" stroke="#ED1B24"/>
<rect x="8.5" y="680.5" width="271" height="29" rx="14.5" fill="white" fill-opacity="0.2" stroke="#ED1B24"/>
<rect x="345.5" y="755.5" width="271" height="29" rx="14.5" fill="white" fill-opacity="0.2" stroke="#ED1B24"/>
<rect x="8.5" y="720.5" width="271" height="29" rx="14.5" fill="white" fill-opacity="0.2" stroke="#ED1B24"/>
<rect x="684.5" y="678.5" width="127" height="29" rx="14.5" fill="white" fill-opacity="0.2" stroke="#ED1B24"/>
<rect x="8.5" y="760.5" width="271" height="29" rx="14.5" fill="white" fill-opacity="0.2" stroke="#ED1B24"/>
<rect x="8.5" y="800.5" width="271" height="29" rx="14.5" fill="white" fill-opacity="0.2" stroke="#ED1B24"/>
<path d="M352 585.5H610C618.008 585.5 624.5 591.992 624.5 600V624.5H337.5V600C337.5 591.992 343.992 585.5 352 585.5Z" fill="black" fill-opacity="0.05" stroke="#ED1B23"/>
<line x1="482.5" y1="544" x2="482.5" y2="586" stroke="black" stroke-opacity="0.5"/>
<line x1="482.5" y1="797" x2="482.5" y2="851" stroke="black" stroke-opacity="0.5"/>
<path d="M337 650L326.826 650C321.402 650 316.457 646.89 314.108 642V642C311.759 637.11 306.815 634 301.39 634L288 634" stroke="black" stroke-opacity="0.4"/>
<path d="M625 690H635.528C640.981 690 645.959 686.896 648.359 682V682C650.759 677.104 655.736 674 661.189 674H675" stroke="black" stroke-opacity="0.4"/>
<path d="M471 1061L471 1076.78C471 1082.69 474.017 1088.19 479 1091.37V1091.37C483.983 1094.54 487 1100.04 487 1105.95L487 1126" stroke="black" stroke-opacity="0.4"/>
</svg>
