<svg width="438" height="323" viewBox="0 0 438 323" fill="none" xmlns="http://www.w3.org/2000/svg">
<rect x="113" y="1" width="210" height="34.9981" rx="17.499" fill="black" fill-opacity="0.05" stroke="#EE4D54" stroke-width="2"/>
<rect x="244" y="121.222" width="192.24" height="24.3255" rx="12.1628" stroke="#EE4D54" stroke-width="2"/>
<rect x="244" y="166.758" width="192.24" height="24.3255" rx="12.1628" stroke="#EE4D54" stroke-width="2"/>
<rect x="1" y="118" width="192.24" height="24.3255" rx="12.1628" stroke="#EE4D54" stroke-width="2"/>
<rect x="1" y="163.201" width="192.24" height="24.3255" rx="12.1628" stroke="#EE4D54" stroke-width="2"/>
<rect x="1" y="206.602" width="192.24" height="25.037" rx="12.5185" stroke="#EE4D54" stroke-width="2"/>
<rect x="1" y="251" width="192.24" height="25.7485" rx="12.8743" stroke="#EE4D54" stroke-width="2"/>
<rect x="1" y="296.251" width="192.24" height="25.7485" rx="12.8743" stroke="#EE4D54" stroke-width="2"/>
<path d="M224.485 82.1502C225.071 82.736 226.021 82.736 226.606 82.1502L236.152 72.6043C236.738 72.0185 236.738 71.0688 236.152 70.483C235.567 69.8972 234.617 69.8972 234.031 70.483L225.546 78.9683L217.06 70.483C216.475 69.8972 215.525 69.8972 214.939 70.483C214.353 71.0688 214.353 72.0185 214.939 72.6043L224.485 82.1502ZM224.046 36.265V81.0896H227.046V36.265H224.046Z" fill="#EE4D54"/>
<path d="M354.69 117.725C355.276 118.311 356.225 118.311 356.811 117.725L366.357 108.179C366.943 107.594 366.943 106.644 366.357 106.058C365.771 105.472 364.822 105.472 364.236 106.058L355.75 114.543L347.265 106.058C346.679 105.472 345.73 105.472 345.144 106.058C344.558 106.644 344.558 107.594 345.144 108.179L354.69 117.725ZM354.25 84.6471V116.665H357.25V84.6471H354.25Z" fill="#EE4D54"/>
<path d="M354.69 165.396C355.276 165.982 356.225 165.982 356.811 165.396L366.357 155.85C366.943 155.264 366.943 154.314 366.357 153.729C365.771 153.143 364.822 153.143 364.236 153.729L355.75 162.214L347.265 153.729C346.679 153.143 345.73 153.143 345.144 153.729C344.558 154.314 344.558 155.264 345.144 155.85L354.69 165.396ZM354.25 146.548V164.335H357.25V146.548H354.25Z" fill="#EE4D54"/>
<path d="M90.0115 118.437C90.5973 119.023 91.547 119.023 92.1328 118.437L101.679 108.891C102.265 108.305 102.265 107.355 101.679 106.769C101.093 106.184 100.143 106.184 99.5574 106.769L91.0721 115.255L82.5869 106.769C82.0011 106.184 81.0513 106.184 80.4655 106.769C79.8798 107.355 79.8798 108.305 80.4655 108.891L90.0115 118.437ZM89.5721 85.3585V117.376H92.5721V85.3585H89.5721Z" fill="#EE4D54"/>
<path d="M90.0115 163.261C90.5973 163.847 91.547 163.847 92.1328 163.261L101.679 153.715C102.265 153.13 102.265 152.18 101.679 151.594C101.093 151.008 100.143 151.008 99.5574 151.594L91.0721 160.079L82.5869 151.594C82.0011 151.008 81.0513 151.008 80.4655 151.594C79.8798 152.18 79.8798 153.13 80.4655 153.715L90.0115 163.261ZM89.5721 143.702V162.201H92.5721V143.702H89.5721Z" fill="#EE4D54"/>
<path d="M90.0115 206.663C90.5973 207.249 91.547 207.249 92.1328 206.663L101.679 197.117C102.265 196.531 102.265 195.581 101.679 194.996C101.093 194.41 100.143 194.41 99.5574 194.996L91.0721 203.481L82.5869 194.996C82.0011 194.41 81.0513 194.41 80.4655 194.996C79.8798 195.581 79.8798 196.531 80.4655 197.117L90.0115 206.663ZM89.5721 187.103V205.602H92.5721V187.103H89.5721Z" fill="#EE4D54"/>
<path d="M90.0115 251.487C90.5973 252.073 91.547 252.073 92.1328 251.487L101.679 241.941C102.265 241.356 102.265 240.406 101.679 239.82C101.093 239.234 100.143 239.234 99.5574 239.82L91.0721 248.305L82.5869 239.82C82.0011 239.234 81.0513 239.234 80.4655 239.82C79.8798 240.406 79.8798 241.356 80.4655 241.941L90.0115 251.487ZM89.5721 231.928V250.427H92.5721V231.928H89.5721Z" fill="#EE4D54"/>
<path d="M90.0115 296.312C90.5973 296.898 91.547 296.898 92.1328 296.312L101.679 286.766C102.265 286.18 102.265 285.231 101.679 284.645C101.093 284.059 100.143 284.059 99.5574 284.645L91.0721 293.13L82.5869 284.645C82.0011 284.059 81.0513 284.059 80.4655 284.645C79.8798 285.231 79.8798 286.18 80.4655 286.766L90.0115 296.312ZM89.5721 276.752V295.251H92.5721V276.752H89.5721Z" fill="#EE4D54"/>
<line x1="91.0721" y1="85.0701" x2="355.751" y2="85.0701" stroke="#EE4D54" stroke-width="2"/>
</svg>
