<svg width="517" height="383" viewBox="0 0 517 383" fill="none" xmlns="http://www.w3.org/2000/svg">
<g clip-path="url(#clip0_11_409)">
<path d="M366.97 280.908H88.559C86.0783 280.905 83.7 279.917 81.9459 278.159C80.1917 276.401 79.205 274.018 79.2021 271.532V44.3484C79.205 41.8625 80.1917 39.4791 81.9459 37.7213C83.7 35.9634 86.0783 34.9746 88.559 34.9717H366.97C369.451 34.9746 371.829 35.9634 373.584 37.7213C375.338 39.4791 376.324 41.8625 376.327 44.3484V271.532C376.324 274.018 375.338 276.401 373.584 278.159C371.829 279.917 369.451 280.905 366.97 280.908Z" fill="#E6E6E6"/>
<path d="M94.8718 41.6458C92.4822 41.6485 90.1913 42.6011 88.5017 44.2944C86.812 45.9877 85.8616 48.2836 85.8589 50.6783V265.207C85.8617 267.602 86.8122 269.897 88.5018 271.59C90.1915 273.284 92.4824 274.236 94.8718 274.239H285.434C307.767 274.213 329.179 265.311 344.971 249.485C360.764 233.659 369.647 212.202 369.672 189.82V50.6783C369.67 48.2836 368.719 45.9877 367.03 44.2944C365.34 42.6011 363.049 41.6485 360.659 41.6458L94.8718 41.6458Z" fill="white"/>
<path d="M316.202 138.129H265.719C264.666 138.128 263.657 137.708 262.912 136.962C262.168 136.216 261.749 135.204 261.748 134.149V108.969C261.749 107.914 262.168 106.903 262.912 106.157C263.657 105.411 264.666 104.991 265.719 104.99H316.202C317.255 104.991 318.264 105.411 319.009 106.157C319.753 106.903 320.172 107.914 320.173 108.969C323.297 117.88 323.741 126.347 320.173 134.149C320.172 135.204 319.753 136.216 319.009 136.962C318.264 137.708 317.255 138.128 316.202 138.129Z" fill="#E6E6E6"/>
<path d="M310.222 135.695H267.332C266.437 135.695 265.579 135.338 264.947 134.704C264.314 134.07 263.959 133.211 263.958 132.314V110.921C263.959 110.025 264.314 109.166 264.947 108.532C265.579 107.898 266.437 107.541 267.332 107.54H310.222C311.116 107.541 311.974 107.898 312.606 108.532C313.239 109.166 313.595 110.025 313.596 110.921C316.49 118.54 316.956 125.75 313.596 132.314C313.595 133.211 313.239 134.07 312.606 134.704C311.974 135.338 311.116 135.695 310.222 135.695Z" fill="white"/>
<path d="M307.908 151.319H273.901C272.901 151.32 271.941 150.924 271.232 150.216C270.524 149.508 270.124 148.547 270.123 147.545C270.121 146.542 270.516 145.58 271.222 144.87C271.928 144.159 272.887 143.759 273.887 143.757H307.908C308.908 143.759 309.866 144.158 310.572 144.867C311.278 145.576 311.674 146.536 311.674 147.538C311.674 148.539 311.278 149.5 310.572 150.209C309.866 150.918 308.908 151.317 307.908 151.319Z" fill="#E6E6E6"/>
<path d="M285.043 113.317C284.652 113.318 284.277 113.475 284.001 113.752C283.724 114.029 283.569 114.405 283.568 114.797V130.824C283.568 131.083 283.636 131.337 283.764 131.562C283.893 131.786 284.079 131.972 284.302 132.102C284.525 132.232 284.779 132.301 285.037 132.302C285.295 132.303 285.549 132.236 285.773 132.108L299.889 124.042C300.116 123.913 300.305 123.725 300.436 123.499C300.567 123.273 300.635 123.016 300.634 122.754C300.634 122.492 300.564 122.236 300.432 122.01C300.299 121.785 300.11 121.598 299.882 121.47L285.767 113.508C285.546 113.383 285.297 113.317 285.043 113.317Z" fill="#E6E6E6"/>
<path d="M490.986 352.336C490.207 351.344 489.15 350.608 487.95 350.224C486.751 349.84 485.464 349.825 484.255 350.18L483.991 350.259L481.621 359.532C481.266 358.15 480.506 355.03 480.027 351.976L479.986 351.724L479.75 351.827C477.272 352.925 474.943 354.332 472.817 356.015C469.051 359.042 465.988 362.855 463.841 367.188C461.694 371.522 460.515 376.271 460.384 381.108L460.38 381.286L460.376 381.397L460.69 381.286L467.425 378.873C470.406 379.137 473.409 378.729 476.214 377.681C479.018 376.633 481.554 374.971 483.636 372.815C486.357 369.939 488.223 366.24 490.028 362.661C490.556 361.618 491.097 360.542 491.651 359.507C492.268 358.382 492.534 357.098 492.416 355.82C492.297 354.541 491.799 353.328 490.986 352.336Z" fill="#F2F2F2"/>
<path d="M319 115.855C319.135 116.557 319.423 117.22 319.841 117.799C320.26 118.378 320.801 118.858 321.424 119.204C322.048 119.551 322.74 119.757 323.452 119.807C324.164 119.856 324.878 119.749 325.543 119.493L345.671 142.958L348.22 134.295L328.265 112.827C327.76 111.735 326.874 110.866 325.773 110.385C324.672 109.904 323.433 109.844 322.291 110.217C321.149 110.59 320.183 111.37 319.577 112.409C318.97 113.448 318.765 114.674 319 115.855Z" fill="#FFB8B8"/>
<path d="M400.12 375.676H393.459L390.291 349.929H400.122L400.12 375.676Z" fill="#FFB6B6"/>
<path d="M399.943 373.496L392.831 370.597L392.627 370.513L388.7 373.496C386.483 373.497 384.357 374.379 382.789 375.95C381.222 377.521 380.341 379.652 380.34 381.874V382.146H401.817V373.496H399.943Z" fill="#2F2E41"/>
<path d="M447.638 375.676H440.977L437.808 349.929H447.639L447.638 375.676Z" fill="#FFB6B6"/>
<path d="M447.46 373.496L440.348 370.597L440.145 370.513L436.218 373.496C434.001 373.497 431.875 374.379 430.307 375.95C428.739 377.521 427.858 379.652 427.858 381.874V382.146H449.335V373.496H447.46Z" fill="#2F2E41"/>
<path d="M431.917 221.923C431.917 221.923 440.272 230.634 440.272 237.791C440.272 244.948 438.183 254.775 440.272 256.926C442.361 259.077 444.972 261.693 441.839 264.833C438.706 267.973 437.139 269.542 439.228 271.636C441.316 273.729 440.272 310.359 440.272 310.359L451.238 359.548H437.423L419.907 310.359L415.208 269.542L400.009 308.789L401.687 359.97L387.245 359.548L381.267 305.126C381.267 305.126 390.143 253.358 388.577 252.031C387.011 250.704 388.577 248.026 388.577 248.026L392.754 228.203L431.917 221.923Z" fill="#2F2E41"/>
<path d="M415.559 160.165C415.559 160.165 418.4 148.947 405.312 145.731C392.224 142.514 354.812 138.382 354.812 138.382L335.906 118.277L329.499 127.601L350.694 153.995L400.914 164.333L415.559 160.165Z" fill="#3F3D56"/>
<path d="M332.613 126.913C333.2 126.151 333.66 125.298 333.974 124.388L336.685 117.711L335.981 117.682C335.007 117.498 334.005 117.523 333.042 117.754C332.078 117.985 331.174 118.418 330.389 119.024C329.604 119.63 328.955 120.396 328.486 121.271C328.016 122.145 327.737 123.11 327.665 124.1C327.576 124.957 327.73 125.822 328.108 126.595C328.301 126.979 328.581 127.311 328.927 127.565C329.272 127.819 329.673 127.987 330.096 128.056C330.576 128.082 331.056 127.991 331.494 127.792C331.932 127.594 332.316 127.292 332.613 126.913Z" fill="#E6E6E6"/>
<path d="M390.088 230.876L388.521 242.256C388.521 242.256 391.655 245.628 393.221 245.207C394.788 244.785 400.531 242.332 400.531 242.332C400.531 242.332 407.32 246.05 410.975 246.471C414.63 246.893 433.95 244.364 434.473 243.099C434.995 241.835 441.064 236.885 441.064 236.885L438.65 222.447L390.088 230.876Z" fill="#E6E6E6"/>
<path d="M440.963 191.065C440.963 191.065 439.637 202.039 440.681 203.048C441.725 204.053 439.637 210.411 437.548 214.597C435.459 218.784 439.115 219.307 439.115 222.447C439.115 225.586 440.681 237.099 440.681 237.099C440.681 237.099 424.494 238.145 421.883 235.529C419.272 232.912 415.095 235.006 409.351 240.762C403.607 246.518 391.132 241.808 388.521 239.192C385.91 236.575 390.552 227.156 392.119 225.33C393.686 223.504 390.61 225.618 389.043 219.83C387.477 214.043 390.552 214.597 393.163 211.981C395.774 209.365 393.163 204.655 391.075 199.945C388.986 195.236 390.552 160.176 390.552 151.803C390.552 143.43 402.04 142.384 402.04 142.384L406.588 136.654L409.93 132.441L416.478 132.18L416.651 132.175L422.985 131.918L426.06 135.508L432.848 143.431L440.681 145C446.947 147.094 445.381 160.176 445.381 160.176L440.963 191.065Z" fill="#3F3D56"/>
<path d="M416.155 129.91C423.569 129.91 429.578 123.888 429.578 116.459C429.578 109.03 423.569 103.008 416.155 103.008C408.742 103.008 402.733 109.03 402.733 116.459C402.733 123.888 408.742 129.91 416.155 129.91Z" fill="#FFB6B6"/>
<path d="M431.718 111.934C428.026 109.665 428.5 103.732 424.942 101.66C423.174 100.639 421.186 100.061 419.147 99.975C417.109 99.8892 415.079 100.298 413.232 101.168C410.726 100.093 407.725 100.951 405.72 102.89C403.716 104.83 402.631 107.692 402.311 110.569C402.08 113.461 402.287 116.371 402.926 119.2C403.125 118.063 403.324 116.926 403.523 115.79L414.104 113.472C413.168 114.315 412.231 115.159 411.294 116.002C416.087 117.096 421.115 116.308 425.345 113.8C429.952 115.87 429.117 120.517 425.073 126.685C426.64 129.302 435.925 114.519 431.718 111.934Z" fill="#2F2E41"/>
<path d="M426.06 135.508C426.03 135.532 425.999 135.555 425.966 135.576C424.86 136.237 423.594 136.581 422.306 136.57C420.62 136.711 418.946 136.185 417.643 135.105C416.959 134.456 414.238 135.827 412.452 136.586C410.579 137.364 408.479 137.388 406.588 136.654L409.93 132.442L415.438 131.218H416.813L422.985 131.918L426.06 135.508Z" fill="#E6E6E6"/>
<path d="M516.186 382.788L329.345 383C329.238 383.001 329.131 382.98 329.032 382.939C328.932 382.898 328.842 382.838 328.765 382.763C328.689 382.687 328.628 382.597 328.586 382.497C328.545 382.398 328.523 382.292 328.522 382.184C328.522 382.076 328.543 381.969 328.583 381.87C328.624 381.77 328.684 381.679 328.759 381.603C328.835 381.526 328.925 381.465 329.024 381.423C329.123 381.382 329.229 381.36 329.337 381.359H329.345L516.186 381.147C516.402 381.149 516.609 381.235 516.762 381.389C516.915 381.543 517 381.751 517 381.968C517 382.185 516.915 382.393 516.762 382.547C516.609 382.7 516.402 382.787 516.186 382.788Z" fill="#CACACA"/>
<path d="M292.47 107.275H291.095V8.7168H345.175V10.0948H292.47V107.275Z" fill="#3F3D56"/>
<path d="M387.234 0H350.794C348.424 0 346.15 0.943702 344.474 2.62349C342.798 4.30329 341.856 6.58157 341.856 8.95716C341.856 11.3327 342.798 13.611 344.474 15.2908C346.15 16.9706 348.424 17.9143 350.794 17.9143H387.234C389.604 17.9143 391.878 16.9706 393.554 15.2908C395.23 13.611 396.172 11.3327 396.172 8.95716C396.172 6.58157 395.23 4.30329 393.554 2.62349C391.878 0.943702 389.604 0 387.234 0Z" fill="#6C63FF"/>
<path d="M290.985 116.292C295.521 116.292 299.198 112.607 299.198 108.061C299.198 103.515 295.521 99.8301 290.985 99.8301C286.449 99.8301 282.771 103.515 282.771 108.061C282.771 112.607 286.449 116.292 290.985 116.292Z" fill="#6C63FF"/>
<path d="M192.012 138.989L228.044 130.633L238.386 128.235C239.68 127.935 239.143 125.939 237.848 126.239L201.817 134.595L191.474 136.993C190.18 137.293 190.718 139.289 192.012 138.989Z" fill="#F2F2F2"/>
<path d="M229.219 117.228L248.508 126.12C249.167 126.349 249.783 126.683 250.334 127.111C250.866 127.633 250.479 128.136 250.044 128.591C248.746 129.806 247.375 130.94 245.938 131.987L237.72 138.682C236.689 139.523 238.145 140.99 239.166 140.157L246.324 134.326L249.903 131.41C250.917 130.584 252.151 129.741 252.558 128.425C253.414 125.66 250.036 124.561 248.159 123.695L239.759 119.823L230.27 115.449C229.074 114.898 228.014 116.673 229.219 117.228Z" fill="#F2F2F2"/>
<path d="M495.405 184.92C491.968 182.585 487.794 181.717 483.713 181.423C479.075 181.17 474.427 181.176 469.789 181.439C464.972 181.631 460.164 181.98 455.367 182.487C450.576 182.996 445.805 183.661 441.054 184.485C436.801 185.148 432.592 186.072 428.451 187.249C424.531 188.336 420.839 190.123 417.552 192.524C414.667 194.698 412.448 197.64 411.147 201.016C409.871 204.181 409.654 207.676 410.529 210.976C410.995 212.579 411.794 214.065 412.872 215.338C414.118 216.734 415.595 217.906 417.237 218.801C420.645 220.752 424.508 221.924 427.591 224.422C428.404 225.075 429.145 225.814 429.802 226.624C430.248 227.252 430.864 227.738 431.577 228.024C432.254 228.261 432.984 228.292 433.678 228.113C434.372 227.934 434.997 227.553 435.475 227.019C436.092 226.172 436.607 225.255 437.008 224.286L438.635 221.141C438.744 220.866 438.88 220.603 439.042 220.355C439.164 220.21 438.946 220.358 438.987 220.32C439.01 220.299 439.057 220.299 439.083 220.283C439.218 220.215 439.358 220.161 439.503 220.121C441.008 219.546 442.519 218.99 444.037 218.451C449.64 216.45 455.311 214.605 461.071 213.111C464.035 212.314 467.041 211.684 470.075 211.223C474.005 210.662 477.994 210.727 481.942 210.344C486.192 209.931 490.578 209.069 494.222 206.724C497.236 204.888 499.558 202.104 500.824 198.805C501.373 197.233 501.561 195.557 501.375 193.902C500.901 190.158 498.46 186.996 495.405 184.92Z" fill="#E6E6E6"/>
<path d="M488.371 187.023C485.266 184.914 481.493 184.13 477.806 183.864C473.615 183.635 469.414 183.64 465.223 183.878C460.87 184.051 456.526 184.367 452.19 184.825C447.861 185.285 443.549 185.886 439.256 186.63C435.413 187.23 431.609 188.064 427.867 189.129C424.325 190.111 420.988 191.726 418.018 193.895C415.411 195.86 413.405 198.519 412.23 201.569C411.077 204.429 410.881 207.588 411.671 210.57C412.093 212.018 412.814 213.361 413.789 214.511C414.915 215.773 416.249 216.832 417.733 217.641C420.813 219.404 424.304 220.464 427.09 222.72C427.825 223.311 428.494 223.978 429.088 224.711C429.491 225.278 430.048 225.717 430.692 225.976C431.303 226.19 431.964 226.218 432.591 226.056C433.217 225.894 433.782 225.55 434.214 225.067C434.772 224.302 435.238 223.473 435.6 222.598L437.07 219.756C437.169 219.507 437.292 219.269 437.438 219.045C437.548 218.914 437.351 219.048 437.388 219.014C437.409 218.994 437.452 218.995 437.475 218.98C437.597 218.919 437.724 218.87 437.855 218.834C439.214 218.315 440.58 217.811 441.952 217.324C447.015 215.516 452.139 213.849 457.345 212.499C460.023 211.779 462.74 211.21 465.481 210.793C469.033 210.286 472.638 210.345 476.205 209.999C480.046 209.626 484.009 208.847 487.303 206.727C490.027 205.069 492.125 202.552 493.269 199.571C493.765 198.151 493.935 196.636 493.767 195.141C493.339 191.757 491.132 188.899 488.371 187.023Z" fill="white"/>
<path d="M481.868 190.834L431.263 200.187C431.119 200.214 430.97 200.213 430.826 200.183C430.682 200.153 430.545 200.095 430.423 200.012C430.301 199.928 430.197 199.822 430.116 199.698C430.036 199.575 429.98 199.437 429.953 199.291C429.926 199.146 429.928 198.997 429.958 198.853C429.989 198.708 430.047 198.571 430.131 198.45C430.214 198.328 430.321 198.224 430.444 198.143C430.568 198.063 430.706 198.008 430.851 197.981L430.857 197.98L481.461 188.627C481.606 188.6 481.754 188.602 481.898 188.633C482.042 188.664 482.178 188.722 482.299 188.806C482.421 188.89 482.524 188.996 482.604 189.12C482.684 189.244 482.739 189.382 482.766 189.527C482.792 189.672 482.79 189.82 482.759 189.964C482.729 190.108 482.67 190.245 482.587 190.366C482.503 190.488 482.397 190.592 482.273 190.672C482.15 190.752 482.012 190.807 481.868 190.834Z" fill="#E6E6E6"/>
<path d="M483.114 197.606L432.51 206.959C432.365 206.987 432.216 206.986 432.072 206.956C431.928 206.926 431.791 206.867 431.669 206.784C431.548 206.701 431.444 206.595 431.363 206.471C431.282 206.347 431.227 206.209 431.2 206.064C431.173 205.919 431.174 205.77 431.205 205.626C431.235 205.481 431.294 205.344 431.377 205.222C431.461 205.101 431.567 204.997 431.691 204.916C431.814 204.836 431.952 204.781 432.097 204.754L432.104 204.753L482.708 195.399C482.852 195.373 483.001 195.375 483.145 195.406C483.288 195.436 483.425 195.495 483.546 195.579C483.667 195.662 483.77 195.769 483.85 195.893C483.93 196.016 483.985 196.154 484.012 196.299C484.039 196.444 484.036 196.593 484.006 196.737C483.975 196.881 483.916 197.018 483.833 197.139C483.75 197.261 483.643 197.364 483.52 197.444C483.396 197.525 483.259 197.58 483.114 197.606Z" fill="#E6E6E6"/>
<path d="M439.653 212.642L433.756 213.732C433.465 213.785 433.164 213.719 432.92 213.551C432.677 213.382 432.51 213.123 432.456 212.831C432.402 212.539 432.466 212.238 432.634 211.993C432.801 211.748 433.059 211.58 433.35 211.525L439.247 210.435C439.539 210.382 439.84 210.447 440.084 210.616C440.327 210.785 440.495 211.043 440.548 211.335C440.602 211.628 440.538 211.929 440.37 212.174C440.203 212.419 439.945 212.587 439.653 212.642Z" fill="#E6E6E6"/>
<path d="M435.381 240.798C437.966 240.32 439.674 237.833 439.198 235.243C438.721 232.653 436.239 230.941 433.655 231.418C431.07 231.896 429.362 234.383 429.838 236.973C430.315 239.563 432.797 241.276 435.381 240.798Z" fill="#D1D3D4"/>
<path d="M173.496 136.853H130.272C128.266 136.851 126.342 136.051 124.923 134.629C123.505 133.207 122.706 131.28 122.704 129.269V100.721C122.706 98.7104 123.505 96.7826 124.923 95.3608C126.342 93.9389 128.266 93.1391 130.272 93.1367H173.496C175.502 93.1391 177.426 93.9389 178.845 95.3608C180.264 96.7826 181.062 98.7104 181.064 100.721V129.269C181.062 131.28 180.264 133.207 178.845 134.629C177.426 136.051 175.502 136.851 173.496 136.853Z" fill="#E6E6E6"/>
<path d="M168.746 135.315H131.128C129.382 135.313 127.707 134.617 126.473 133.38C125.238 132.142 124.543 130.464 124.541 128.714V103.869C124.543 102.119 125.238 100.441 126.473 99.2037C127.707 97.9662 129.382 97.2701 131.128 97.2681H168.746C170.492 97.2701 172.166 97.9662 173.401 99.2037C174.636 100.441 175.331 102.119 175.333 103.869V128.714C175.331 130.464 174.636 132.142 173.401 133.38C172.166 134.617 170.492 135.313 168.746 135.315Z" fill="white"/>
<path d="M179.584 162.573H124.123C123.78 162.572 123.452 162.435 123.21 162.192C122.967 161.949 122.832 161.62 122.832 161.276C122.832 160.933 122.967 160.603 123.21 160.36C123.452 160.117 123.78 159.98 124.123 159.979H179.584C179.927 159.98 180.255 160.117 180.497 160.36C180.739 160.603 180.875 160.933 180.875 161.276C180.875 161.62 180.739 161.949 180.497 162.192C180.255 162.435 179.927 162.572 179.584 162.573Z" fill="#E6E6E6"/>
<path d="M179.584 155.162H124.123C123.78 155.162 123.452 155.025 123.21 154.781C122.967 154.538 122.832 154.209 122.832 153.865C122.832 153.522 122.967 153.193 123.21 152.95C123.452 152.706 123.78 152.569 124.123 152.569H179.584C179.927 152.569 180.255 152.706 180.497 152.95C180.739 153.193 180.875 153.522 180.875 153.865C180.875 154.209 180.739 154.538 180.497 154.781C180.255 155.025 179.927 155.162 179.584 155.162Z" fill="#E6E6E6"/>
<path d="M179.584 169.984H124.123C123.779 169.984 123.45 169.847 123.208 169.604C122.965 169.361 122.829 169.031 122.829 168.687C122.829 168.343 122.965 168.013 123.208 167.77C123.45 167.527 123.779 167.39 124.123 167.39H179.584C179.927 167.39 180.256 167.527 180.499 167.77C180.742 168.013 180.878 168.343 180.878 168.687C180.878 169.031 180.742 169.361 180.499 169.604C180.256 169.847 179.927 169.984 179.584 169.984Z" fill="#E6E6E6"/>
<path d="M179.584 177.394H124.123C123.779 177.394 123.45 177.258 123.208 177.014C122.965 176.771 122.829 176.441 122.829 176.097C122.829 175.753 122.965 175.424 123.208 175.18C123.45 174.937 123.779 174.801 124.123 174.801H179.584C179.927 174.801 180.256 174.937 180.499 175.18C180.742 175.424 180.878 175.753 180.878 176.097C180.878 176.441 180.742 176.771 180.499 177.014C180.256 177.258 179.927 177.394 179.584 177.394Z" fill="#E6E6E6"/>
<path d="M179.584 184.805H124.123C123.779 184.805 123.45 184.668 123.208 184.425C122.965 184.182 122.829 183.852 122.829 183.508C122.829 183.164 122.965 182.834 123.208 182.591C123.45 182.348 123.779 182.211 124.123 182.211H179.584C179.927 182.211 180.256 182.348 180.499 182.591C180.742 182.834 180.878 183.164 180.878 183.508C180.878 183.852 180.742 184.182 180.499 184.425C180.256 184.668 179.927 184.805 179.584 184.805Z" fill="#E6E6E6"/>
<path d="M179.584 192.215H124.123C123.78 192.215 123.452 192.078 123.21 191.834C122.967 191.591 122.832 191.262 122.832 190.918C122.832 190.575 122.967 190.246 123.21 190.002C123.452 189.759 123.78 189.622 124.123 189.622H179.584C179.927 189.622 180.255 189.759 180.497 190.002C180.739 190.246 180.875 190.575 180.875 190.918C180.875 191.262 180.739 191.591 180.497 191.834C180.255 192.078 179.927 192.215 179.584 192.215Z" fill="#E6E6E6"/>
<path d="M149.08 175.22H150.455V228.304H50.9971V226.926H149.08V175.22Z" fill="#3F3D56"/>
<path d="M8.93809 237.02H45.378C47.7485 237.02 50.022 236.077 51.6982 234.397C53.3744 232.717 54.3161 230.439 54.3161 228.063C54.3161 225.688 53.3744 223.409 51.6982 221.729C50.022 220.05 47.7485 219.106 45.378 219.106H8.93809C6.56756 219.106 4.29413 220.05 2.61791 221.729C0.941692 223.409 0 225.688 0 228.063C0 230.439 0.941692 232.717 2.61791 234.397C4.29413 236.077 6.56756 237.02 8.93809 237.02Z" fill="#6C63FF"/>
<path d="M150.726 179.22C155.262 179.22 158.939 175.535 158.939 170.989C158.939 166.443 155.262 162.758 150.726 162.758C146.189 162.758 142.512 166.443 142.512 170.989C142.512 175.535 146.189 179.22 150.726 179.22Z" fill="#6C63FF"/>
<path d="M193.178 173.276C205.237 175.845 202.169 176.346 214.228 178.914L224.612 181.126C225.911 181.403 226.266 179.366 224.967 179.089C212.908 176.521 215.976 176.02 203.917 173.451L193.533 171.24C192.234 170.963 191.879 173 193.178 173.276Z" fill="#F2F2F2"/>
<path d="M220.952 167.266L234.676 183.501C235.176 183.987 235.594 184.552 235.912 185.173C236.174 185.872 235.61 186.163 235.025 186.391C233.335 186.942 231.614 187.388 229.871 187.728L219.598 190.31C218.308 190.634 219.008 192.58 220.286 192.259L229.233 190.01L233.707 188.885C234.974 188.567 236.448 188.326 237.373 187.306C239.316 185.164 236.719 182.736 235.383 181.156L229.407 174.086L222.655 166.099C221.804 165.093 220.095 166.252 220.952 167.266Z" fill="#F2F2F2"/>
<path d="M264.466 238.036C275.015 238.036 283.566 229.467 283.566 218.896C283.566 208.324 275.015 199.755 264.466 199.755C253.918 199.755 245.366 208.324 245.366 218.896C245.366 229.467 253.918 238.036 264.466 238.036Z" fill="#E6E6E6"/>
<path d="M262.604 235.596C270.624 235.596 277.125 229.081 277.125 221.045C277.125 213.008 270.624 206.493 262.604 206.493C254.585 206.493 248.084 213.008 248.084 221.045C248.084 229.081 254.585 235.596 262.604 235.596Z" fill="white"/>
<path d="M259.999 231.007C259.669 231.007 259.344 230.93 259.049 230.782C258.754 230.634 258.497 230.419 258.299 230.155L253.089 223.192C252.921 222.969 252.799 222.714 252.73 222.443C252.66 222.173 252.645 221.891 252.684 221.614C252.724 221.337 252.817 221.071 252.959 220.83C253.101 220.589 253.289 220.379 253.512 220.211C253.735 220.043 253.989 219.921 254.259 219.852C254.53 219.782 254.811 219.767 255.087 219.806C255.363 219.846 255.629 219.939 255.869 220.081C256.109 220.224 256.319 220.412 256.487 220.636L256.488 220.637L259.897 225.192L268.653 212.031C268.807 211.798 269.006 211.598 269.238 211.442C269.47 211.286 269.73 211.177 270.004 211.122C270.278 211.067 270.56 211.066 270.834 211.121C271.108 211.175 271.368 211.283 271.601 211.438C271.833 211.593 272.033 211.793 272.188 212.025C272.343 212.258 272.451 212.519 272.506 212.793C272.56 213.068 272.56 213.35 272.506 213.625C272.452 213.899 272.344 214.16 272.188 214.393L261.767 230.059C261.578 230.342 261.325 230.576 261.028 230.741C260.73 230.906 260.398 230.997 260.058 231.006C260.038 231.006 260.019 231.007 259.999 231.007Z" fill="#E6E6E6"/>
<path d="M442.814 238.614C443.429 238.251 443.957 237.758 444.361 237.169C444.766 236.58 445.036 235.909 445.154 235.204C445.271 234.499 445.233 233.776 445.042 233.088C444.851 232.399 444.511 231.76 444.047 231.217L459.384 204.361L450.385 204.851L436.869 230.876C436.011 231.718 435.49 232.846 435.406 234.047C435.321 235.247 435.68 236.437 436.412 237.391C437.145 238.345 438.202 238.996 439.381 239.221C440.561 239.447 441.783 239.23 442.814 238.614Z" fill="#FFB8B8"/>
<path d="M425.54 144.477C425.54 144.477 441.783 139.244 445.96 151.803C450.138 164.362 464.181 198.376 464.181 198.376L449.093 229.25L442.305 221.924L449.56 200.469L428.673 169.072L425.54 144.477Z" fill="#3F3D56"/>
<path d="M449.611 226.097C449.122 225.268 448.502 224.524 447.774 223.894L442.592 218.896L442.303 219.54C441.772 220.378 441.424 221.32 441.281 222.302C441.138 223.285 441.204 224.287 441.475 225.243C441.745 226.198 442.214 227.085 442.851 227.847C443.488 228.608 444.278 229.225 445.169 229.659C445.93 230.059 446.789 230.237 447.646 230.172C448.072 230.134 448.484 229.996 448.848 229.769C449.211 229.542 449.516 229.231 449.736 228.863C449.938 228.426 450.032 227.946 450.01 227.464C449.988 226.983 449.851 226.514 449.611 226.097Z" fill="#E6E6E6"/>
<path d="M264.301 244.646H262.926V297.73H309.443V296.352H264.301V244.646Z" fill="#3F3D56"/>
<path d="M360.44 297.489C360.438 295.114 359.495 292.838 357.82 291.158C356.144 289.479 353.872 288.534 351.502 288.532H315.062C312.692 288.532 310.418 289.476 308.742 291.156C307.066 292.836 306.124 295.114 306.124 297.489C306.124 299.865 307.066 302.143 308.742 303.823C310.418 305.503 312.692 306.447 315.062 306.447H351.502C353.872 306.444 356.144 305.5 357.82 303.821C359.495 302.141 360.438 299.864 360.44 297.489Z" fill="#6C63FF"/>
<path d="M262.655 248.646C267.191 248.646 270.869 244.961 270.869 240.415C270.869 235.87 267.191 232.185 262.655 232.185C258.119 232.185 254.442 235.87 254.442 240.415C254.442 244.961 258.119 248.646 262.655 248.646Z" fill="#6C63FF"/>
</g>
<defs>
<clipPath id="clip0_11_409">
<rect width="517" height="383" fill="white"/>
</clipPath>
</defs>
</svg>
