<svg width="14" height="14" viewBox="0 0 14 14" fill="none" xmlns="http://www.w3.org/2000/svg">
<path d="M0 1.86765C0 1.41719 0.157662 1.04557 0.472973 0.752788C0.788284 0.459991 1.1982 0.313599 1.7027 0.313599C2.1982 0.313599 2.59909 0.457734 2.90541 0.746031C3.22072 1.04333 3.37838 1.43071 3.37838 1.90819C3.37838 2.34063 3.22523 2.70098 2.91892 2.98927C2.60361 3.28657 2.18919 3.43522 1.67568 3.43522H1.66216C1.16666 3.43522 0.76577 3.28657 0.459459 2.98927C0.153149 2.69198 0 2.3181 0 1.86765ZM0.175676 13.692V4.66495H3.17568V13.692H0.175676ZM4.83784 13.692H7.83784V8.65144C7.83784 8.33611 7.87388 8.09287 7.94595 7.92171C8.07207 7.6154 8.26351 7.35638 8.52027 7.14468C8.77703 6.93296 9.09909 6.82711 9.48649 6.82711C10.4955 6.82711 11 7.50729 11 8.86765V13.692H14V8.5163C14 7.18296 13.6847 6.17171 13.0541 5.48252C12.4234 4.79333 11.5901 4.44873 10.5541 4.44873C9.39189 4.44873 8.48649 4.94873 7.83784 5.94873V5.97576H7.82432L7.83784 5.94873V4.66495H4.83784C4.85585 4.95323 4.86486 5.84963 4.86486 7.35414C4.86486 8.85864 4.85585 10.9712 4.83784 13.692Z" fill="white"/>
</svg>
