<svg width="15" height="15" viewBox="0 0 15 15" fill="none" xmlns="http://www.w3.org/2000/svg">
<path d="M6.54894 1.92705C6.8483 1.00574 8.1517 1.00574 8.45106 1.92705L9.40837 4.87336C9.54224 5.28538 9.9262 5.56434 10.3594 5.56434H13.4574C14.4261 5.56434 14.8289 6.80395 14.0451 7.37336L11.5389 9.19427C11.1884 9.44892 11.0417 9.90028 11.1756 10.3123L12.1329 13.2586C12.4323 14.1799 11.3778 14.946 10.5941 14.3766L8.08778 12.5557C7.7373 12.3011 7.2627 12.3011 6.91221 12.5557L4.40594 14.3766C3.62222 14.946 2.56774 14.1799 2.8671 13.2586L3.82441 10.3123C3.95828 9.90028 3.81162 9.44892 3.46114 9.19427L0.954859 7.37335C0.171145 6.80395 0.573923 5.56434 1.54265 5.56434H4.64058C5.0738 5.56434 5.45776 5.28538 5.59163 4.87336L6.54894 1.92705Z" stroke="black" stroke-width="0.5"/>
</svg>
