<svg width="352" height="271" viewBox="0 0 352 271" fill="none" xmlns="http://www.w3.org/2000/svg">
<line x1="176.5" y1="45.9958" x2="176.5" y2="105.996" stroke="black"/>
<rect x="0.5" y="0.5" width="351" height="45" rx="22.5" fill="black" fill-opacity="0.1" stroke="#ED1B24"/>
<path d="M94.0399 13.28C95.5732 13.28 96.7932 13.5933 97.6999 14.22C98.6066 14.8333 99.0599 15.7533 99.0599 16.98C99.0599 17.8867 98.8332 18.6467 98.3799 19.26C97.9399 19.86 97.3332 20.3133 96.5599 20.62C95.7999 20.9133 94.9266 21.06 93.9399 21.06L93.4799 19.5C94.6932 19.5 95.7666 19.6667 96.6999 20C97.6466 20.3333 98.3932 20.8133 98.9399 21.44C99.4866 22.0533 99.7599 22.7933 99.7599 23.66C99.7599 24.46 99.6132 25.14 99.3199 25.7C99.0399 26.2467 98.6532 26.6933 98.1599 27.04C97.6799 27.3733 97.1332 27.62 96.5199 27.78C95.9066 27.9267 95.2732 28 94.6199 28H89.7199V13.28H94.0399ZM94.3799 19.3C94.9532 19.3 95.3732 19.1267 95.6399 18.78C95.9199 18.4333 96.0599 18.04 96.0599 17.6C96.0599 17.0933 95.8866 16.7133 95.5399 16.46C95.2066 16.2067 94.7532 16.08 94.1799 16.08H92.6199V19.3H94.3799ZM94.4799 25.3C94.9066 25.3 95.2932 25.2467 95.6399 25.14C95.9866 25.02 96.2599 24.84 96.4599 24.6C96.6599 24.3467 96.7599 24.0333 96.7599 23.66C96.7599 23.2333 96.6399 22.9133 96.3999 22.7C96.1599 22.4733 95.8466 22.32 95.4599 22.24C95.0866 22.1467 94.6932 22.1 94.2799 22.1H92.6199V25.3H94.4799ZM102.209 19.26H105.009V28H102.209V19.26ZM102.149 16.16C102.149 15.7467 102.309 15.4067 102.629 15.14C102.962 14.8733 103.316 14.74 103.689 14.74C104.062 14.74 104.402 14.8733 104.709 15.14C105.029 15.4067 105.189 15.7467 105.189 16.16C105.189 16.5733 105.029 16.9133 104.709 17.18C104.402 17.4333 104.062 17.56 103.689 17.56C103.316 17.56 102.962 17.4333 102.629 17.18C102.309 16.9133 102.149 16.5733 102.149 16.16ZM112.413 32.4C111.626 32.4 110.959 32.3067 110.413 32.12C109.879 31.9333 109.426 31.7067 109.053 31.44C108.679 31.1733 108.346 30.92 108.053 30.68L109.693 28.76C109.999 29.04 110.353 29.3067 110.753 29.56C111.166 29.8267 111.706 29.96 112.373 29.96C112.813 29.96 113.219 29.88 113.593 29.72C113.979 29.5733 114.286 29.3533 114.513 29.06C114.753 28.7667 114.873 28.4 114.873 27.96V26.04L114.973 26.54C114.759 26.9933 114.373 27.3933 113.813 27.74C113.253 28.0733 112.519 28.24 111.613 28.24C110.826 28.24 110.093 28.04 109.413 27.64C108.746 27.2267 108.213 26.6733 107.813 25.98C107.413 25.2733 107.213 24.4733 107.213 23.58C107.213 22.66 107.426 21.8467 107.853 21.14C108.279 20.42 108.833 19.8533 109.513 19.44C110.193 19.0267 110.913 18.82 111.673 18.82C112.433 18.82 113.086 18.9333 113.633 19.16C114.193 19.3733 114.613 19.64 114.893 19.96L114.793 20.22L115.093 19.26H117.673V28C117.673 28.8533 117.433 29.6067 116.953 30.26C116.473 30.9267 115.833 31.4467 115.033 31.82C114.246 32.2067 113.373 32.4 112.413 32.4ZM110.033 23.5C110.033 23.9667 110.139 24.3867 110.353 24.76C110.566 25.1333 110.853 25.4267 111.213 25.64C111.586 25.8533 111.999 25.96 112.453 25.96C112.839 25.96 113.179 25.9133 113.473 25.82C113.779 25.7133 114.046 25.5667 114.273 25.38C114.513 25.18 114.713 24.9333 114.873 24.64V22.5C114.753 22.2067 114.573 21.96 114.333 21.76C114.093 21.5467 113.813 21.3867 113.493 21.28C113.186 21.16 112.839 21.1 112.453 21.1C111.999 21.1 111.586 21.2067 111.213 21.42C110.853 21.62 110.566 21.9 110.353 22.26C110.139 22.62 110.033 23.0333 110.033 23.5ZM127.513 28V13.28H131.913C133.393 13.28 134.653 13.5 135.693 13.94C136.733 14.38 137.566 14.9667 138.193 15.7C138.833 16.4333 139.3 17.2533 139.593 18.16C139.886 19.0667 140.033 19.98 140.033 20.9C140.033 21.9933 139.833 22.98 139.433 23.86C139.046 24.7267 138.513 25.4733 137.833 26.1C137.153 26.7133 136.366 27.1867 135.473 27.52C134.58 27.84 133.633 28 132.633 28H127.513ZM130.413 25.2H132.133C132.866 25.2 133.533 25.1067 134.133 24.92C134.733 24.72 135.246 24.4333 135.673 24.06C136.113 23.6867 136.446 23.22 136.673 22.66C136.913 22.0867 137.033 21.4333 137.033 20.7C137.033 19.74 136.873 18.96 136.553 18.36C136.246 17.7467 135.86 17.2733 135.393 16.94C134.94 16.6067 134.473 16.38 133.993 16.26C133.513 16.1267 133.106 16.06 132.773 16.06H130.413V25.2ZM146.163 28.24C145.349 28.24 144.609 28.08 143.943 27.76C143.289 27.4267 142.769 26.92 142.383 26.24C141.996 25.56 141.803 24.6933 141.803 23.64C141.803 22.6533 142.003 21.8 142.403 21.08C142.803 20.36 143.329 19.8067 143.983 19.42C144.636 19.02 145.329 18.82 146.063 18.82C146.929 18.82 147.583 18.9667 148.023 19.26C148.476 19.54 148.849 19.8533 149.143 20.2L149.023 20.54L149.283 19.26H151.883V28H149.083V26.1L149.303 26.7C149.276 26.7 149.196 26.78 149.063 26.94C148.929 27.0867 148.729 27.2667 148.463 27.48C148.209 27.68 147.889 27.8533 147.503 28C147.129 28.16 146.683 28.24 146.163 28.24ZM146.963 25.96C147.296 25.96 147.596 25.9133 147.863 25.82C148.129 25.7133 148.363 25.5667 148.563 25.38C148.763 25.18 148.936 24.9333 149.083 24.64V22.5C148.976 22.2067 148.816 21.96 148.603 21.76C148.389 21.5467 148.136 21.3867 147.843 21.28C147.549 21.16 147.223 21.1 146.863 21.1C146.463 21.1 146.089 21.2067 145.743 21.42C145.409 21.62 145.143 21.9 144.943 22.26C144.743 22.62 144.643 23.0333 144.643 23.5C144.643 23.9667 144.749 24.3867 144.963 24.76C145.176 25.1333 145.456 25.4267 145.803 25.64C146.163 25.8533 146.549 25.96 146.963 25.96ZM155.588 15.42H158.388V19.22H160.508V21.4H158.388V28H155.588V21.4H154.228V19.22H155.588V15.42ZM166.319 28.24C165.505 28.24 164.765 28.08 164.099 27.76C163.445 27.4267 162.925 26.92 162.539 26.24C162.152 25.56 161.959 24.6933 161.959 23.64C161.959 22.6533 162.159 21.8 162.559 21.08C162.959 20.36 163.485 19.8067 164.139 19.42C164.792 19.02 165.485 18.82 166.219 18.82C167.085 18.82 167.739 18.9667 168.179 19.26C168.632 19.54 169.005 19.8533 169.299 20.2L169.179 20.54L169.439 19.26H172.039V28H169.239V26.1L169.459 26.7C169.432 26.7 169.352 26.78 169.219 26.94C169.085 27.0867 168.885 27.2667 168.619 27.48C168.365 27.68 168.045 27.8533 167.659 28C167.285 28.16 166.839 28.24 166.319 28.24ZM167.119 25.96C167.452 25.96 167.752 25.9133 168.019 25.82C168.285 25.7133 168.519 25.5667 168.719 25.38C168.919 25.18 169.092 24.9333 169.239 24.64V22.5C169.132 22.2067 168.972 21.96 168.759 21.76C168.545 21.5467 168.292 21.3867 167.999 21.28C167.705 21.16 167.379 21.1 167.019 21.1C166.619 21.1 166.245 21.2067 165.899 21.42C165.565 21.62 165.299 21.9 165.099 22.26C164.899 22.62 164.799 23.0333 164.799 23.5C164.799 23.9667 164.905 24.3867 165.119 24.76C165.332 25.1333 165.612 25.4267 165.959 25.64C166.319 25.8533 166.705 25.96 167.119 25.96ZM181.888 13.28H191.928V16.08H184.788V19.22H191.108V22.02H184.788V25.2H192.208V28H181.888V13.28ZM197.288 19.26L197.508 20.82L197.468 20.68C197.775 20.1333 198.208 19.6933 198.768 19.36C199.328 19.0133 200.015 18.84 200.828 18.84C201.655 18.84 202.342 19.0867 202.888 19.58C203.448 20.06 203.735 20.6867 203.748 21.46V28H200.948V22.5C200.935 22.1133 200.828 21.8067 200.628 21.58C200.442 21.34 200.122 21.22 199.668 21.22C199.242 21.22 198.868 21.36 198.548 21.64C198.228 21.92 197.982 22.3 197.808 22.78C197.635 23.26 197.548 23.8133 197.548 24.44V28H194.748V19.26H197.288ZM211.143 32.4C210.357 32.4 209.69 32.3067 209.143 32.12C208.61 31.9333 208.157 31.7067 207.783 31.44C207.41 31.1733 207.077 30.92 206.783 30.68L208.423 28.76C208.73 29.04 209.083 29.3067 209.483 29.56C209.897 29.8267 210.437 29.96 211.103 29.96C211.543 29.96 211.95 29.88 212.323 29.72C212.71 29.5733 213.017 29.3533 213.243 29.06C213.483 28.7667 213.603 28.4 213.603 27.96V26.04L213.703 26.54C213.49 26.9933 213.103 27.3933 212.543 27.74C211.983 28.0733 211.25 28.24 210.343 28.24C209.557 28.24 208.823 28.04 208.143 27.64C207.477 27.2267 206.943 26.6733 206.543 25.98C206.143 25.2733 205.943 24.4733 205.943 23.58C205.943 22.66 206.157 21.8467 206.583 21.14C207.01 20.42 207.563 19.8533 208.243 19.44C208.923 19.0267 209.643 18.82 210.403 18.82C211.163 18.82 211.817 18.9333 212.363 19.16C212.923 19.3733 213.343 19.64 213.623 19.96L213.523 20.22L213.823 19.26H216.403V28C216.403 28.8533 216.163 29.6067 215.683 30.26C215.203 30.9267 214.563 31.4467 213.763 31.82C212.977 32.2067 212.103 32.4 211.143 32.4ZM208.763 23.5C208.763 23.9667 208.87 24.3867 209.083 24.76C209.297 25.1333 209.583 25.4267 209.943 25.64C210.317 25.8533 210.73 25.96 211.183 25.96C211.57 25.96 211.91 25.9133 212.203 25.82C212.51 25.7133 212.777 25.5667 213.003 25.38C213.243 25.18 213.443 24.9333 213.603 24.64V22.5C213.483 22.2067 213.303 21.96 213.063 21.76C212.823 21.5467 212.543 21.3867 212.223 21.28C211.917 21.16 211.57 21.1 211.183 21.1C210.73 21.1 210.317 21.2067 209.943 21.42C209.583 21.62 209.297 21.9 209.083 22.26C208.87 22.62 208.763 23.0333 208.763 23.5ZM219.279 19.26H222.079V28H219.279V19.26ZM219.219 16.16C219.219 15.7467 219.379 15.4067 219.699 15.14C220.033 14.8733 220.386 14.74 220.759 14.74C221.133 14.74 221.473 14.8733 221.779 15.14C222.099 15.4067 222.259 15.7467 222.259 16.16C222.259 16.5733 222.099 16.9133 221.779 17.18C221.473 17.4333 221.133 17.56 220.759 17.56C220.386 17.56 220.033 17.4333 219.699 17.18C219.379 16.9133 219.219 16.5733 219.219 16.16ZM227.503 19.26L227.723 20.82L227.683 20.68C227.99 20.1333 228.423 19.6933 228.983 19.36C229.543 19.0133 230.23 18.84 231.043 18.84C231.87 18.84 232.556 19.0867 233.103 19.58C233.663 20.06 233.95 20.6867 233.963 21.46V28H231.163V22.5C231.15 22.1133 231.043 21.8067 230.843 21.58C230.656 21.34 230.336 21.22 229.883 21.22C229.456 21.22 229.083 21.36 228.763 21.64C228.443 21.92 228.196 22.3 228.023 22.78C227.85 23.26 227.763 23.8133 227.763 24.44V28H224.963V19.26H227.503ZM241.138 28.24C240.071 28.24 239.165 28.04 238.418 27.64C237.685 27.24 237.125 26.6867 236.738 25.98C236.351 25.2733 236.158 24.46 236.158 23.54C236.158 22.66 236.385 21.8667 236.838 21.16C237.291 20.4533 237.898 19.8933 238.658 19.48C239.418 19.0533 240.265 18.84 241.198 18.84C242.451 18.84 243.478 19.2067 244.278 19.94C245.091 20.66 245.618 21.7067 245.858 23.08L239.058 25.24L238.438 23.72L243.358 22.06L242.778 22.32C242.671 21.9733 242.478 21.6733 242.198 21.42C241.931 21.1533 241.525 21.02 240.978 21.02C240.565 21.02 240.198 21.12 239.878 21.32C239.571 21.5067 239.331 21.78 239.158 22.14C238.998 22.4867 238.918 22.9 238.918 23.38C238.918 23.9267 239.018 24.3867 239.218 24.76C239.418 25.12 239.691 25.3933 240.038 25.58C240.385 25.7667 240.771 25.86 241.198 25.86C241.505 25.86 241.798 25.8067 242.078 25.7C242.371 25.5933 242.658 25.4533 242.938 25.28L244.178 27.36C243.711 27.6267 243.205 27.84 242.658 28C242.125 28.16 241.618 28.24 241.138 28.24ZM252.193 28.24C251.126 28.24 250.219 28.04 249.473 27.64C248.739 27.24 248.179 26.6867 247.793 25.98C247.406 25.2733 247.213 24.46 247.213 23.54C247.213 22.66 247.439 21.8667 247.893 21.16C248.346 20.4533 248.953 19.8933 249.713 19.48C250.473 19.0533 251.319 18.84 252.253 18.84C253.506 18.84 254.533 19.2067 255.333 19.94C256.146 20.66 256.673 21.7067 256.913 23.08L250.113 25.24L249.493 23.72L254.413 22.06L253.833 22.32C253.726 21.9733 253.533 21.6733 253.253 21.42C252.986 21.1533 252.579 21.02 252.033 21.02C251.619 21.02 251.253 21.12 250.933 21.32C250.626 21.5067 250.386 21.78 250.213 22.14C250.053 22.4867 249.973 22.9 249.973 23.38C249.973 23.9267 250.073 24.3867 250.273 24.76C250.473 25.12 250.746 25.3933 251.093 25.58C251.439 25.7667 251.826 25.86 252.253 25.86C252.559 25.86 252.853 25.8067 253.133 25.7C253.426 25.5933 253.713 25.4533 253.993 25.28L255.233 27.36C254.766 27.6267 254.259 27.84 253.713 28C253.179 28.16 252.673 28.24 252.193 28.24ZM261.467 19.26L261.727 21.66L261.667 21.3C261.921 20.78 262.267 20.34 262.707 19.98C263.147 19.6067 263.581 19.32 264.007 19.12C264.447 18.92 264.781 18.82 265.007 18.82L264.867 21.62C264.214 21.54 263.654 21.6467 263.187 21.94C262.721 22.2333 262.361 22.62 262.107 23.1C261.854 23.58 261.727 24.0733 261.727 24.58V28H258.947V19.26H261.467Z" fill="black"/>
<rect x="6" y="106" width="340" height="120" rx="15" fill="white" fill-opacity="0.3"/>
<rect x="6.5" y="106.5" width="339" height="119" rx="14.5" stroke="#ED1B24" stroke-opacity="0.8"/>
<path d="M21 106.5H331C339.008 106.5 345.5 112.992 345.5 121V165.5H6.5V121C6.5 112.992 12.9919 106.5 21 106.5Z" fill="black" fill-opacity="0.1" stroke="#ED1B24"/>
<rect x="22" y="176" width="308" height="40" rx="10" fill="white" fill-opacity="0.3"/>
<rect x="22.5" y="176.5" width="307" height="39" rx="9.5" stroke="#ED1B24" stroke-opacity="0.8"/>
<path d="M79.1875 193L83.8355 182.29H83.9475L88.5955 193H86.2435L83.2755 185.468L84.7455 184.46L81.1895 193H79.1875ZM82.3655 189.276H85.4595L86.1735 190.984H81.7355L82.3655 189.276ZM91.5396 186.882L91.7216 188.562L91.6796 188.31C91.8569 187.946 92.0996 187.638 92.4076 187.386C92.7156 187.125 93.0189 186.924 93.3176 186.784C93.6256 186.644 93.8589 186.574 94.0176 186.574L93.9196 188.534C93.4622 188.478 93.0702 188.553 92.7436 188.758C92.4169 188.963 92.1649 189.234 91.9876 189.57C91.8102 189.906 91.7216 190.251 91.7216 190.606V193H89.7756V186.882H91.5396ZM100.438 192.454C100.168 192.669 99.827 192.841 99.4163 192.972C99.015 193.103 98.6183 193.168 98.2263 193.168C97.5263 193.168 96.915 193.042 96.3923 192.79C95.879 192.529 95.4777 192.16 95.1883 191.684C94.9083 191.199 94.7683 190.615 94.7683 189.934C94.7683 189.253 94.9223 188.674 95.2303 188.198C95.5383 187.713 95.9397 187.344 96.4343 187.092C96.9383 186.84 97.4657 186.714 98.0163 186.714C98.567 186.714 99.043 186.789 99.4443 186.938C99.855 187.087 100.205 187.283 100.494 187.526L99.5423 188.786C99.4117 188.683 99.2297 188.581 98.9963 188.478C98.7723 188.366 98.5063 188.31 98.1983 188.31C97.9277 188.31 97.6803 188.38 97.4563 188.52C97.2323 188.66 97.055 188.851 96.9243 189.094C96.7937 189.337 96.7283 189.617 96.7283 189.934C96.7283 190.233 96.7983 190.508 96.9383 190.76C97.0783 191.012 97.2697 191.213 97.5123 191.362C97.7643 191.502 98.0583 191.572 98.3943 191.572C98.609 191.572 98.805 191.544 98.9823 191.488C99.169 191.423 99.3277 191.334 99.4583 191.222L100.438 192.454ZM101.944 193V181.954H103.862V188.114L103.848 187.876C104.062 187.493 104.366 187.185 104.758 186.952C105.15 186.709 105.63 186.588 106.2 186.588C106.778 186.588 107.259 186.761 107.642 187.106C108.034 187.442 108.234 187.881 108.244 188.422V193H106.284V189.15C106.274 188.879 106.2 188.665 106.06 188.506C105.929 188.338 105.705 188.254 105.388 188.254C105.089 188.254 104.828 188.352 104.604 188.548C104.38 188.744 104.207 189.01 104.086 189.346C103.964 189.682 103.904 190.069 103.904 190.508V193H101.944ZM110.256 186.882H112.216V193H110.256V186.882ZM110.214 184.712C110.214 184.423 110.326 184.185 110.55 183.998C110.783 183.811 111.031 183.718 111.292 183.718C111.553 183.718 111.791 183.811 112.006 183.998C112.23 184.185 112.342 184.423 112.342 184.712C112.342 185.001 112.23 185.239 112.006 185.426C111.791 185.603 111.553 185.692 111.292 185.692C111.031 185.692 110.783 185.603 110.55 185.426C110.326 185.239 110.214 185.001 110.214 184.712ZM114.809 184.194H116.769V186.854H118.253V188.38H116.769V193H114.809V188.38H113.857V186.854H114.809V184.194ZM122.754 193.168C122.008 193.168 121.373 193.028 120.85 192.748C120.337 192.468 119.945 192.081 119.674 191.586C119.404 191.091 119.268 190.522 119.268 189.878C119.268 189.262 119.427 188.707 119.744 188.212C120.062 187.717 120.486 187.325 121.018 187.036C121.55 186.737 122.143 186.588 122.796 186.588C123.674 186.588 124.392 186.845 124.952 187.358C125.522 187.862 125.89 188.595 126.058 189.556L121.298 191.068L120.864 190.004L124.308 188.842L123.902 189.024C123.828 188.781 123.692 188.571 123.496 188.394C123.31 188.207 123.025 188.114 122.642 188.114C122.353 188.114 122.096 188.184 121.872 188.324C121.658 188.455 121.49 188.646 121.368 188.898C121.256 189.141 121.2 189.43 121.2 189.766C121.2 190.149 121.27 190.471 121.41 190.732C121.55 190.984 121.742 191.175 121.984 191.306C122.227 191.437 122.498 191.502 122.796 191.502C123.011 191.502 123.216 191.465 123.412 191.39C123.618 191.315 123.818 191.217 124.014 191.096L124.882 192.552C124.556 192.739 124.201 192.888 123.818 193C123.445 193.112 123.09 193.168 122.754 193.168ZM132.677 192.454C132.406 192.669 132.065 192.841 131.655 192.972C131.253 193.103 130.857 193.168 130.465 193.168C129.765 193.168 129.153 193.042 128.631 192.79C128.117 192.529 127.716 192.16 127.427 191.684C127.147 191.199 127.007 190.615 127.007 189.934C127.007 189.253 127.161 188.674 127.469 188.198C127.777 187.713 128.178 187.344 128.673 187.092C129.177 186.84 129.704 186.714 130.255 186.714C130.805 186.714 131.281 186.789 131.683 186.938C132.093 187.087 132.443 187.283 132.733 187.526L131.781 188.786C131.65 188.683 131.468 188.581 131.235 188.478C131.011 188.366 130.745 188.31 130.437 188.31C130.166 188.31 129.919 188.38 129.695 188.52C129.471 188.66 129.293 188.851 129.163 189.094C129.032 189.337 128.967 189.617 128.967 189.934C128.967 190.233 129.037 190.508 129.177 190.76C129.317 191.012 129.508 191.213 129.751 191.362C130.003 191.502 130.297 191.572 130.633 191.572C130.847 191.572 131.043 191.544 131.221 191.488C131.407 191.423 131.566 191.334 131.697 191.222L132.677 192.454ZM134.756 184.194H136.716V186.854H138.2V188.38H136.716V193H134.756V188.38H133.804V186.854H134.756V184.194ZM141.666 193.294C141.115 193.294 140.653 193.126 140.28 192.79C139.906 192.445 139.71 192.001 139.692 191.46V186.882H141.652V190.732C141.67 191.003 141.74 191.222 141.862 191.39C141.983 191.549 142.188 191.628 142.478 191.628C142.767 191.628 143.014 191.53 143.22 191.334C143.434 191.138 143.598 190.872 143.71 190.536C143.831 190.191 143.892 189.803 143.892 189.374V186.882H145.852V193H144.074L143.92 191.88L143.948 192.006C143.808 192.258 143.63 192.482 143.416 192.678C143.201 192.874 142.944 193.023 142.646 193.126C142.356 193.238 142.03 193.294 141.666 193.294ZM149.631 186.882L149.813 188.562L149.771 188.31C149.949 187.946 150.191 187.638 150.499 187.386C150.807 187.125 151.111 186.924 151.409 186.784C151.717 186.644 151.951 186.574 152.109 186.574L152.011 188.534C151.554 188.478 151.162 188.553 150.835 188.758C150.509 188.963 150.257 189.234 150.079 189.57C149.902 189.906 149.813 190.251 149.813 190.606V193H147.867V186.882H149.631ZM155.98 193.168C155.411 193.168 154.893 193.056 154.426 192.832C153.969 192.599 153.605 192.244 153.334 191.768C153.064 191.292 152.928 190.685 152.928 189.948C152.928 189.257 153.068 188.66 153.348 188.156C153.628 187.652 153.997 187.265 154.454 186.994C154.912 186.714 155.397 186.574 155.91 186.574C156.517 186.574 156.974 186.677 157.282 186.882C157.6 187.078 157.861 187.297 158.066 187.54L157.982 187.778L158.164 186.882H159.984V193H158.024V191.67L158.178 192.09C158.16 192.09 158.104 192.146 158.01 192.258C157.917 192.361 157.777 192.487 157.59 192.636C157.413 192.776 157.189 192.897 156.918 193C156.657 193.112 156.344 193.168 155.98 193.168ZM156.54 191.572C156.774 191.572 156.984 191.539 157.17 191.474C157.357 191.399 157.52 191.297 157.66 191.166C157.8 191.026 157.922 190.853 158.024 190.648V189.15C157.95 188.945 157.838 188.772 157.688 188.632C157.539 188.483 157.362 188.371 157.156 188.296C156.951 188.212 156.722 188.17 156.47 188.17C156.19 188.17 155.929 188.245 155.686 188.394C155.453 188.534 155.266 188.73 155.126 188.982C154.986 189.234 154.916 189.523 154.916 189.85C154.916 190.177 154.991 190.471 155.14 190.732C155.29 190.993 155.486 191.199 155.728 191.348C155.98 191.497 156.251 191.572 156.54 191.572ZM162.004 181.954H163.964V193H162.004V181.954ZM174.371 193.168C174.007 193.168 173.648 193.103 173.293 192.972C172.948 192.832 172.659 192.636 172.425 192.384L172.481 191.81V195.94H170.535V186.742H172.215L172.495 187.932L172.341 187.512C172.659 187.241 173.013 187.017 173.405 186.84C173.797 186.663 174.25 186.574 174.763 186.574C175.333 186.574 175.841 186.709 176.289 186.98C176.737 187.241 177.087 187.624 177.339 188.128C177.601 188.623 177.731 189.22 177.731 189.92C177.731 190.611 177.587 191.199 177.297 191.684C177.008 192.169 176.611 192.538 176.107 192.79C175.603 193.042 175.025 193.168 174.371 193.168ZM173.979 191.628C174.297 191.628 174.586 191.558 174.847 191.418C175.118 191.278 175.333 191.082 175.491 190.83C175.659 190.569 175.743 190.275 175.743 189.948C175.743 189.603 175.669 189.304 175.519 189.052C175.379 188.791 175.183 188.59 174.931 188.45C174.689 188.301 174.418 188.226 174.119 188.226C173.858 188.226 173.625 188.263 173.419 188.338C173.223 188.403 173.046 188.506 172.887 188.646C172.738 188.777 172.607 188.945 172.495 189.15V190.648C172.57 190.844 172.677 191.017 172.817 191.166C172.957 191.315 173.125 191.432 173.321 191.516C173.527 191.591 173.746 191.628 173.979 191.628ZM181.848 193.168C181.278 193.168 180.76 193.056 180.294 192.832C179.836 192.599 179.472 192.244 179.202 191.768C178.931 191.292 178.796 190.685 178.796 189.948C178.796 189.257 178.936 188.66 179.216 188.156C179.496 187.652 179.864 187.265 180.322 186.994C180.779 186.714 181.264 186.574 181.778 186.574C182.384 186.574 182.842 186.677 183.15 186.882C183.467 187.078 183.728 187.297 183.934 187.54L183.85 187.778L184.032 186.882H185.852V193H183.892V191.67L184.046 192.09C184.027 192.09 183.971 192.146 183.878 192.258C183.784 192.361 183.644 192.487 183.458 192.636C183.28 192.776 183.056 192.897 182.786 193C182.524 193.112 182.212 193.168 181.848 193.168ZM182.408 191.572C182.641 191.572 182.851 191.539 183.038 191.474C183.224 191.399 183.388 191.297 183.528 191.166C183.668 191.026 183.789 190.853 183.892 190.648V189.15C183.817 188.945 183.705 188.772 183.556 188.632C183.406 188.483 183.229 188.371 183.024 188.296C182.818 188.212 182.59 188.17 182.338 188.17C182.058 188.17 181.796 188.245 181.554 188.394C181.32 188.534 181.134 188.73 180.994 188.982C180.854 189.234 180.784 189.523 180.784 189.85C180.784 190.177 180.858 190.471 181.008 190.732C181.157 190.993 181.353 191.199 181.596 191.348C181.848 191.497 182.118 191.572 182.408 191.572ZM188.445 184.194H190.405V186.854H191.889V188.38H190.405V193H188.445V188.38H187.493V186.854H188.445V184.194ZM193.955 184.194H195.915V186.854H197.399V188.38H195.915V193H193.955V188.38H193.003V186.854H193.955V184.194ZM201.901 193.168C201.154 193.168 200.519 193.028 199.997 192.748C199.483 192.468 199.091 192.081 198.821 191.586C198.55 191.091 198.415 190.522 198.415 189.878C198.415 189.262 198.573 188.707 198.891 188.212C199.208 187.717 199.633 187.325 200.165 187.036C200.697 186.737 201.289 186.588 201.943 186.588C202.82 186.588 203.539 186.845 204.099 187.358C204.668 187.862 205.037 188.595 205.205 189.556L200.445 191.068L200.011 190.004L203.455 188.842L203.049 189.024C202.974 188.781 202.839 188.571 202.643 188.394C202.456 188.207 202.171 188.114 201.789 188.114C201.499 188.114 201.243 188.184 201.019 188.324C200.804 188.455 200.636 188.646 200.515 188.898C200.403 189.141 200.347 189.43 200.347 189.766C200.347 190.149 200.417 190.471 200.557 190.732C200.697 190.984 200.888 191.175 201.131 191.306C201.373 191.437 201.644 191.502 201.943 191.502C202.157 191.502 202.363 191.465 202.559 191.39C202.764 191.315 202.965 191.217 203.161 191.096L204.029 192.552C203.702 192.739 203.347 192.888 202.965 193C202.591 193.112 202.237 193.168 201.901 193.168ZM208.393 186.882L208.575 188.562L208.533 188.31C208.71 187.946 208.953 187.638 209.261 187.386C209.569 187.125 209.872 186.924 210.171 186.784C210.479 186.644 210.712 186.574 210.871 186.574L210.773 188.534C210.316 188.478 209.924 188.553 209.597 188.758C209.27 188.963 209.018 189.234 208.841 189.57C208.664 189.906 208.575 190.251 208.575 190.606V193H206.629V186.882H208.393ZM214.149 186.882L214.303 187.974L214.275 187.876C214.49 187.493 214.793 187.185 215.185 186.952C215.577 186.709 216.058 186.588 216.627 186.588C217.206 186.588 217.687 186.761 218.069 187.106C218.461 187.442 218.662 187.881 218.671 188.422V193H216.711V189.15C216.702 188.879 216.627 188.665 216.487 188.506C216.357 188.338 216.133 188.254 215.815 188.254C215.517 188.254 215.255 188.352 215.031 188.548C214.807 188.744 214.635 189.01 214.513 189.346C214.392 189.682 214.331 190.069 214.331 190.508V193H212.371V186.882H214.149ZM222.672 193.126C222.168 193.126 221.696 193.037 221.258 192.86C220.828 192.683 220.464 192.435 220.166 192.118L220.978 191.04C221.276 191.311 221.552 191.507 221.804 191.628C222.065 191.74 222.298 191.796 222.504 191.796C222.662 191.796 222.802 191.782 222.924 191.754C223.054 191.717 223.157 191.665 223.232 191.6C223.306 191.525 223.344 191.432 223.344 191.32C223.344 191.161 223.278 191.035 223.148 190.942C223.026 190.849 222.868 190.774 222.672 190.718C222.476 190.653 222.266 190.587 222.042 190.522C221.482 190.345 221.076 190.088 220.824 189.752C220.581 189.407 220.46 189.033 220.46 188.632C220.46 188.324 220.539 188.016 220.698 187.708C220.866 187.391 221.127 187.129 221.482 186.924C221.846 186.709 222.312 186.602 222.882 186.602C223.395 186.602 223.829 186.653 224.184 186.756C224.538 186.859 224.874 187.027 225.192 187.26L224.45 188.408C224.272 188.268 224.072 188.151 223.848 188.058C223.633 187.955 223.432 187.899 223.246 187.89C223.078 187.881 222.933 187.899 222.812 187.946C222.7 187.993 222.611 188.053 222.546 188.128C222.48 188.203 222.448 188.282 222.448 188.366C222.438 188.543 222.504 188.683 222.644 188.786C222.793 188.889 222.98 188.968 223.204 189.024C223.428 189.08 223.647 189.145 223.862 189.22C224.16 189.313 224.417 189.439 224.632 189.598C224.846 189.757 225.01 189.948 225.122 190.172C225.243 190.387 225.304 190.648 225.304 190.956C225.304 191.329 225.206 191.684 225.01 192.02C224.823 192.347 224.534 192.613 224.142 192.818C223.759 193.023 223.269 193.126 222.672 193.126ZM240.5 193C240.37 193 240.174 193 239.912 193C239.66 193 239.399 193 239.128 193C238.858 193 238.624 193 238.428 193C238.242 193 238.148 193 238.148 193L233.612 186.896C233.519 186.765 233.402 186.588 233.262 186.364C233.122 186.131 233.001 185.874 232.898 185.594C232.796 185.305 232.744 185.015 232.744 184.726C232.744 184.353 232.838 183.984 233.024 183.62C233.22 183.247 233.514 182.939 233.906 182.696C234.308 182.444 234.812 182.318 235.418 182.318C236.081 182.318 236.664 182.453 237.168 182.724C237.672 182.995 238.074 183.321 238.372 183.704L237.35 185.062C237.061 184.745 236.781 184.493 236.51 184.306C236.249 184.119 235.992 184.026 235.74 184.026C235.423 184.026 235.194 184.119 235.054 184.306C234.914 184.493 234.844 184.698 234.844 184.922C234.844 185.053 234.877 185.197 234.942 185.356C235.017 185.505 235.092 185.645 235.166 185.776C235.241 185.897 235.292 185.981 235.32 186.028L240.5 193ZM234.83 188.31C234.606 188.31 234.396 188.357 234.2 188.45C234.004 188.534 233.832 188.651 233.682 188.8C233.533 188.949 233.416 189.117 233.332 189.304C233.258 189.491 233.22 189.687 233.22 189.892C233.22 190.181 233.29 190.438 233.43 190.662C233.58 190.877 233.78 191.045 234.032 191.166C234.284 191.287 234.56 191.348 234.858 191.348C235.166 191.348 235.418 191.306 235.614 191.222C235.82 191.129 235.988 191.007 236.118 190.858C236.258 190.709 236.37 190.545 236.454 190.368L237.756 191.446C237.504 191.922 237.117 192.328 236.594 192.664C236.081 193 235.409 193.168 234.578 193.168C233.934 193.168 233.351 193.033 232.828 192.762C232.306 192.491 231.89 192.118 231.582 191.642C231.274 191.166 231.12 190.62 231.12 190.004C231.12 189.537 231.223 189.108 231.428 188.716C231.643 188.324 231.928 187.983 232.282 187.694C232.637 187.405 233.034 187.176 233.472 187.008C233.911 186.831 234.359 186.737 234.816 186.728L234.83 188.31ZM237.882 186.728H239.73L237.994 191.096L236.524 190.228L237.882 186.728ZM249.76 182.696C250.834 182.696 251.688 182.915 252.322 183.354C252.957 183.783 253.274 184.427 253.274 185.286C253.274 185.921 253.116 186.453 252.798 186.882C252.49 187.302 252.066 187.619 251.524 187.834C250.992 188.039 250.381 188.142 249.69 188.142L249.368 187.05C250.218 187.05 250.969 187.167 251.622 187.4C252.285 187.633 252.808 187.969 253.19 188.408C253.573 188.837 253.764 189.355 253.764 189.962C253.764 190.522 253.662 190.998 253.456 191.39C253.26 191.773 252.99 192.085 252.644 192.328C252.308 192.561 251.926 192.734 251.496 192.846C251.067 192.949 250.624 193 250.166 193H246.736V182.696H249.76ZM249.998 186.91C250.4 186.91 250.694 186.789 250.88 186.546C251.076 186.303 251.174 186.028 251.174 185.72C251.174 185.365 251.053 185.099 250.81 184.922C250.577 184.745 250.26 184.656 249.858 184.656H248.766V186.91H249.998ZM250.068 191.11C250.367 191.11 250.638 191.073 250.88 190.998C251.123 190.914 251.314 190.788 251.454 190.62C251.594 190.443 251.664 190.223 251.664 189.962C251.664 189.663 251.58 189.439 251.412 189.29C251.244 189.131 251.025 189.024 250.754 188.968C250.493 188.903 250.218 188.87 249.928 188.87H248.766V191.11H250.068ZM258.489 193.168C257.742 193.168 257.107 193.028 256.585 192.748C256.071 192.468 255.679 192.081 255.409 191.586C255.138 191.091 255.003 190.522 255.003 189.878C255.003 189.262 255.161 188.707 255.479 188.212C255.796 187.717 256.221 187.325 256.753 187.036C257.285 186.737 257.877 186.588 258.531 186.588C259.408 186.588 260.127 186.845 260.687 187.358C261.256 187.862 261.625 188.595 261.793 189.556L257.033 191.068L256.599 190.004L260.043 188.842L259.637 189.024C259.562 188.781 259.427 188.571 259.231 188.394C259.044 188.207 258.759 188.114 258.377 188.114C258.087 188.114 257.831 188.184 257.607 188.324C257.392 188.455 257.224 188.646 257.103 188.898C256.991 189.141 256.935 189.43 256.935 189.766C256.935 190.149 257.005 190.471 257.145 190.732C257.285 190.984 257.476 191.175 257.719 191.306C257.961 191.437 258.232 191.502 258.531 191.502C258.745 191.502 258.951 191.465 259.147 191.39C259.352 191.315 259.553 191.217 259.749 191.096L260.617 192.552C260.29 192.739 259.935 192.888 259.553 193C259.179 193.112 258.825 193.168 258.489 193.168ZM265.205 193.126C264.701 193.126 264.23 193.037 263.791 192.86C263.362 192.683 262.998 192.435 262.699 192.118L263.511 191.04C263.81 191.311 264.085 191.507 264.337 191.628C264.598 191.74 264.832 191.796 265.037 191.796C265.196 191.796 265.336 191.782 265.457 191.754C265.588 191.717 265.69 191.665 265.765 191.6C265.84 191.525 265.877 191.432 265.877 191.32C265.877 191.161 265.812 191.035 265.681 190.942C265.56 190.849 265.401 190.774 265.205 190.718C265.009 190.653 264.799 190.587 264.575 190.522C264.015 190.345 263.609 190.088 263.357 189.752C263.114 189.407 262.993 189.033 262.993 188.632C262.993 188.324 263.072 188.016 263.231 187.708C263.399 187.391 263.66 187.129 264.015 186.924C264.379 186.709 264.846 186.602 265.415 186.602C265.928 186.602 266.362 186.653 266.717 186.756C267.072 186.859 267.408 187.027 267.725 187.26L266.983 188.408C266.806 188.268 266.605 188.151 266.381 188.058C266.166 187.955 265.966 187.899 265.779 187.89C265.611 187.881 265.466 187.899 265.345 187.946C265.233 187.993 265.144 188.053 265.079 188.128C265.014 188.203 264.981 188.282 264.981 188.366C264.972 188.543 265.037 188.683 265.177 188.786C265.326 188.889 265.513 188.968 265.737 189.024C265.961 189.08 266.18 189.145 266.395 189.22C266.694 189.313 266.95 189.439 267.165 189.598C267.38 189.757 267.543 189.948 267.655 190.172C267.776 190.387 267.837 190.648 267.837 190.956C267.837 191.329 267.739 191.684 267.543 192.02C267.356 192.347 267.067 192.613 266.675 192.818C266.292 193.023 265.802 193.126 265.205 193.126ZM270.053 184.194H272.013V186.854H273.497V188.38H272.013V193H270.053V188.38H269.101V186.854H270.053V184.194ZM125.034 196.696C125.883 196.696 126.602 196.841 127.19 197.13C127.778 197.41 128.226 197.811 128.534 198.334C128.842 198.847 128.996 199.459 128.996 200.168C128.996 200.588 128.931 201.013 128.8 201.442C128.679 201.862 128.478 202.245 128.198 202.59C127.927 202.935 127.559 203.215 127.092 203.43C126.635 203.635 126.07 203.738 125.398 203.738H123.942V207H121.912V196.696H125.034ZM125.384 201.764C125.692 201.764 125.949 201.713 126.154 201.61C126.359 201.498 126.518 201.363 126.63 201.204C126.751 201.036 126.835 200.863 126.882 200.686C126.938 200.509 126.966 200.355 126.966 200.224C126.966 200.121 126.947 199.986 126.91 199.818C126.882 199.641 126.817 199.463 126.714 199.286C126.611 199.109 126.453 198.959 126.238 198.838C126.033 198.717 125.753 198.656 125.398 198.656H123.942V201.764H125.384ZM132.254 200.882L132.436 202.562L132.394 202.31C132.572 201.946 132.814 201.638 133.122 201.386C133.43 201.125 133.734 200.924 134.032 200.784C134.34 200.644 134.574 200.574 134.732 200.574L134.634 202.534C134.177 202.478 133.785 202.553 133.458 202.758C133.132 202.963 132.88 203.234 132.702 203.57C132.525 203.906 132.436 204.251 132.436 204.606V207H130.49V200.882H132.254ZM138.604 207.168C138.034 207.168 137.516 207.056 137.05 206.832C136.592 206.599 136.228 206.244 135.958 205.768C135.687 205.292 135.552 204.685 135.552 203.948C135.552 203.257 135.692 202.66 135.972 202.156C136.252 201.652 136.62 201.265 137.078 200.994C137.535 200.714 138.02 200.574 138.534 200.574C139.14 200.574 139.598 200.677 139.906 200.882C140.223 201.078 140.484 201.297 140.69 201.54L140.606 201.778L140.788 200.882H142.608V207H140.648V205.67L140.802 206.09C140.783 206.09 140.727 206.146 140.634 206.258C140.54 206.361 140.4 206.487 140.214 206.636C140.036 206.776 139.812 206.897 139.542 207C139.28 207.112 138.968 207.168 138.604 207.168ZM139.164 205.572C139.397 205.572 139.607 205.539 139.794 205.474C139.98 205.399 140.144 205.297 140.284 205.166C140.424 205.026 140.545 204.853 140.648 204.648V203.15C140.573 202.945 140.461 202.772 140.312 202.632C140.162 202.483 139.985 202.371 139.78 202.296C139.574 202.212 139.346 202.17 139.094 202.17C138.814 202.17 138.552 202.245 138.31 202.394C138.076 202.534 137.89 202.73 137.75 202.982C137.61 203.234 137.54 203.523 137.54 203.85C137.54 204.177 137.614 204.471 137.764 204.732C137.913 204.993 138.109 205.199 138.352 205.348C138.604 205.497 138.874 205.572 139.164 205.572ZM149.821 206.454C149.55 206.669 149.21 206.841 148.799 206.972C148.398 207.103 148.001 207.168 147.609 207.168C146.909 207.168 146.298 207.042 145.775 206.79C145.262 206.529 144.86 206.16 144.571 205.684C144.291 205.199 144.151 204.615 144.151 203.934C144.151 203.253 144.305 202.674 144.613 202.198C144.921 201.713 145.322 201.344 145.817 201.092C146.321 200.84 146.848 200.714 147.399 200.714C147.95 200.714 148.426 200.789 148.827 200.938C149.238 201.087 149.588 201.283 149.877 201.526L148.925 202.786C148.794 202.683 148.612 202.581 148.379 202.478C148.155 202.366 147.889 202.31 147.581 202.31C147.31 202.31 147.063 202.38 146.839 202.52C146.615 202.66 146.438 202.851 146.307 203.094C146.176 203.337 146.111 203.617 146.111 203.934C146.111 204.233 146.181 204.508 146.321 204.76C146.461 205.012 146.652 205.213 146.895 205.362C147.147 205.502 147.441 205.572 147.777 205.572C147.992 205.572 148.188 205.544 148.365 205.488C148.552 205.423 148.71 205.334 148.841 205.222L149.821 206.454ZM151.9 198.194H153.86V200.854H155.344V202.38H153.86V207H151.9V202.38H150.948V200.854H151.9V198.194ZM156.836 200.882H158.796V207H156.836V200.882ZM156.794 198.712C156.794 198.423 156.906 198.185 157.13 197.998C157.363 197.811 157.611 197.718 157.872 197.718C158.133 197.718 158.371 197.811 158.586 197.998C158.81 198.185 158.922 198.423 158.922 198.712C158.922 199.001 158.81 199.239 158.586 199.426C158.371 199.603 158.133 199.692 157.872 199.692C157.611 199.692 157.363 199.603 157.13 199.426C156.906 199.239 156.794 199.001 156.794 198.712ZM166.009 206.454C165.738 206.669 165.397 206.841 164.987 206.972C164.585 207.103 164.189 207.168 163.797 207.168C163.097 207.168 162.485 207.042 161.963 206.79C161.449 206.529 161.048 206.16 160.759 205.684C160.479 205.199 160.339 204.615 160.339 203.934C160.339 203.253 160.493 202.674 160.801 202.198C161.109 201.713 161.51 201.344 162.005 201.092C162.509 200.84 163.036 200.714 163.587 200.714C164.137 200.714 164.613 200.789 165.015 200.938C165.425 201.087 165.775 201.283 166.065 201.526L165.113 202.786C164.982 202.683 164.8 202.581 164.567 202.478C164.343 202.366 164.077 202.31 163.769 202.31C163.498 202.31 163.251 202.38 163.027 202.52C162.803 202.66 162.625 202.851 162.495 203.094C162.364 203.337 162.299 203.617 162.299 203.934C162.299 204.233 162.369 204.508 162.509 204.76C162.649 205.012 162.84 205.213 163.083 205.362C163.335 205.502 163.629 205.572 163.965 205.572C164.179 205.572 164.375 205.544 164.553 205.488C164.739 205.423 164.898 205.334 165.029 205.222L166.009 206.454ZM170.524 207.168C169.777 207.168 169.143 207.028 168.62 206.748C168.107 206.468 167.715 206.081 167.444 205.586C167.173 205.091 167.038 204.522 167.038 203.878C167.038 203.262 167.197 202.707 167.514 202.212C167.831 201.717 168.256 201.325 168.788 201.036C169.32 200.737 169.913 200.588 170.566 200.588C171.443 200.588 172.162 200.845 172.722 201.358C173.291 201.862 173.66 202.595 173.828 203.556L169.068 205.068L168.634 204.004L172.078 202.842L171.672 203.024C171.597 202.781 171.462 202.571 171.266 202.394C171.079 202.207 170.795 202.114 170.412 202.114C170.123 202.114 169.866 202.184 169.642 202.324C169.427 202.455 169.259 202.646 169.138 202.898C169.026 203.141 168.97 203.43 168.97 203.766C168.97 204.149 169.04 204.471 169.18 204.732C169.32 204.984 169.511 205.175 169.754 205.306C169.997 205.437 170.267 205.502 170.566 205.502C170.781 205.502 170.986 205.465 171.182 205.39C171.387 205.315 171.588 205.217 171.784 205.096L172.652 206.552C172.325 206.739 171.971 206.888 171.588 207C171.215 207.112 170.86 207.168 170.524 207.168ZM177.24 207.126C176.736 207.126 176.265 207.037 175.826 206.86C175.397 206.683 175.033 206.435 174.734 206.118L175.546 205.04C175.845 205.311 176.12 205.507 176.372 205.628C176.633 205.74 176.867 205.796 177.072 205.796C177.231 205.796 177.371 205.782 177.492 205.754C177.623 205.717 177.725 205.665 177.8 205.6C177.875 205.525 177.912 205.432 177.912 205.32C177.912 205.161 177.847 205.035 177.716 204.942C177.595 204.849 177.436 204.774 177.24 204.718C177.044 204.653 176.834 204.587 176.61 204.522C176.05 204.345 175.644 204.088 175.392 203.752C175.149 203.407 175.028 203.033 175.028 202.632C175.028 202.324 175.107 202.016 175.266 201.708C175.434 201.391 175.695 201.129 176.05 200.924C176.414 200.709 176.881 200.602 177.45 200.602C177.963 200.602 178.397 200.653 178.752 200.756C179.107 200.859 179.443 201.027 179.76 201.26L179.018 202.408C178.841 202.268 178.64 202.151 178.416 202.058C178.201 201.955 178.001 201.899 177.814 201.89C177.646 201.881 177.501 201.899 177.38 201.946C177.268 201.993 177.179 202.053 177.114 202.128C177.049 202.203 177.016 202.282 177.016 202.366C177.007 202.543 177.072 202.683 177.212 202.786C177.361 202.889 177.548 202.968 177.772 203.024C177.996 203.08 178.215 203.145 178.43 203.22C178.729 203.313 178.985 203.439 179.2 203.598C179.415 203.757 179.578 203.948 179.69 204.172C179.811 204.387 179.872 204.648 179.872 204.956C179.872 205.329 179.774 205.684 179.578 206.02C179.391 206.347 179.102 206.613 178.71 206.818C178.327 207.023 177.837 207.126 177.24 207.126ZM186.109 202.856C186.109 201.904 186.221 201.013 186.445 200.182C186.678 199.351 186.972 198.614 187.327 197.97C187.691 197.317 188.069 196.78 188.461 196.36L190.071 197.102C189.707 197.522 189.38 198.017 189.091 198.586C188.801 199.146 188.573 199.785 188.405 200.504C188.237 201.213 188.153 201.997 188.153 202.856C188.153 203.715 188.237 204.503 188.405 205.222C188.573 205.931 188.801 206.566 189.091 207.126C189.38 207.686 189.707 208.176 190.071 208.596L188.461 209.352C188.069 208.923 187.691 208.381 187.327 207.728C186.972 207.084 186.678 206.351 186.445 205.53C186.221 204.699 186.109 203.808 186.109 202.856ZM194.581 207.126L190.913 200.882H193.237L195.323 205.11L194.119 205.068L195.925 200.882H198.109L194.637 207.126H194.581ZM199.26 200.882H201.22V207H199.26V200.882ZM199.218 198.712C199.218 198.423 199.33 198.185 199.554 197.998C199.787 197.811 200.035 197.718 200.296 197.718C200.557 197.718 200.795 197.811 201.01 197.998C201.234 198.185 201.346 198.423 201.346 198.712C201.346 199.001 201.234 199.239 201.01 199.426C200.795 199.603 200.557 199.692 200.296 199.692C200.035 199.692 199.787 199.603 199.554 199.426C199.33 199.239 199.218 199.001 199.218 198.712ZM205.73 207.168C205.161 207.168 204.652 207.037 204.204 206.776C203.756 206.505 203.402 206.118 203.14 205.614C202.888 205.11 202.762 204.513 202.762 203.822C202.762 203.131 202.902 202.543 203.182 202.058C203.462 201.573 203.845 201.204 204.33 200.952C204.816 200.7 205.366 200.574 205.982 200.574C206.374 200.574 206.748 200.635 207.102 200.756C207.466 200.877 207.77 201.064 208.012 201.316V201.932V195.954H209.958V207H207.998V205.81L208.152 206.23C207.835 206.491 207.48 206.715 207.088 206.902C206.696 207.079 206.244 207.168 205.73 207.168ZM206.374 205.516C206.636 205.516 206.864 205.483 207.06 205.418C207.266 205.343 207.443 205.241 207.592 205.11C207.751 204.97 207.886 204.797 207.998 204.592V203.094C207.924 202.889 207.807 202.716 207.648 202.576C207.499 202.427 207.312 202.315 207.088 202.24C206.874 202.156 206.636 202.114 206.374 202.114C206.085 202.114 205.814 202.189 205.562 202.338C205.32 202.478 205.124 202.674 204.974 202.926C204.825 203.178 204.75 203.467 204.75 203.794C204.75 204.121 204.825 204.415 204.974 204.676C205.124 204.937 205.32 205.143 205.562 205.292C205.814 205.441 206.085 205.516 206.374 205.516ZM214.985 207.168C214.238 207.168 213.603 207.028 213.081 206.748C212.567 206.468 212.175 206.081 211.905 205.586C211.634 205.091 211.499 204.522 211.499 203.878C211.499 203.262 211.657 202.707 211.975 202.212C212.292 201.717 212.717 201.325 213.249 201.036C213.781 200.737 214.373 200.588 215.027 200.588C215.904 200.588 216.623 200.845 217.183 201.358C217.752 201.862 218.121 202.595 218.289 203.556L213.529 205.068L213.095 204.004L216.539 202.842L216.133 203.024C216.058 202.781 215.923 202.571 215.727 202.394C215.54 202.207 215.255 202.114 214.873 202.114C214.583 202.114 214.327 202.184 214.103 202.324C213.888 202.455 213.72 202.646 213.599 202.898C213.487 203.141 213.431 203.43 213.431 203.766C213.431 204.149 213.501 204.471 213.641 204.732C213.781 204.984 213.972 205.175 214.215 205.306C214.457 205.437 214.728 205.502 215.027 205.502C215.241 205.502 215.447 205.465 215.643 205.39C215.848 205.315 216.049 205.217 216.245 205.096L217.113 206.552C216.786 206.739 216.431 206.888 216.049 207C215.675 207.112 215.321 207.168 214.985 207.168ZM219.237 203.864C219.237 203.239 219.382 202.679 219.671 202.184C219.97 201.689 220.385 201.302 220.917 201.022C221.449 200.733 222.06 200.588 222.751 200.588C223.451 200.588 224.058 200.733 224.571 201.022C225.084 201.302 225.476 201.689 225.747 202.184C226.027 202.679 226.167 203.239 226.167 203.864C226.167 204.489 226.027 205.054 225.747 205.558C225.476 206.053 225.084 206.445 224.571 206.734C224.058 207.023 223.442 207.168 222.723 207.168C222.051 207.168 221.449 207.037 220.917 206.776C220.394 206.515 219.984 206.137 219.685 205.642C219.386 205.147 219.237 204.555 219.237 203.864ZM221.211 203.878C221.211 204.195 221.276 204.485 221.407 204.746C221.538 204.998 221.715 205.199 221.939 205.348C222.163 205.497 222.415 205.572 222.695 205.572C223.003 205.572 223.269 205.497 223.493 205.348C223.717 205.199 223.89 204.998 224.011 204.746C224.132 204.485 224.193 204.195 224.193 203.878C224.193 203.551 224.132 203.262 224.011 203.01C223.89 202.758 223.717 202.557 223.493 202.408C223.269 202.259 223.003 202.184 222.695 202.184C222.415 202.184 222.163 202.259 221.939 202.408C221.715 202.557 221.538 202.758 221.407 203.01C221.276 203.262 221.211 203.551 221.211 203.878ZM231.365 202.856C231.365 203.808 231.248 204.699 231.015 205.53C230.791 206.361 230.502 207.098 230.147 207.742C229.792 208.395 229.414 208.932 229.013 209.352L227.403 208.61C227.767 208.19 228.094 207.695 228.383 207.126C228.672 206.566 228.901 205.931 229.069 205.222C229.237 204.503 229.321 203.715 229.321 202.856C229.321 201.997 229.237 201.213 229.069 200.504C228.901 199.785 228.672 199.146 228.383 198.586C228.094 198.017 227.767 197.527 227.403 197.116L229.013 196.36C229.414 196.78 229.792 197.317 230.147 197.97C230.502 198.623 230.791 199.365 231.015 200.196C231.248 201.017 231.365 201.904 231.365 202.856Z" fill="#ED1B24" fill-opacity="0.8"/>
<path d="M107.354 129.696C108.427 129.696 109.281 129.915 109.916 130.354C110.551 130.783 110.868 131.427 110.868 132.286C110.868 132.921 110.709 133.453 110.392 133.882C110.084 134.302 109.659 134.619 109.118 134.834C108.586 135.039 107.975 135.142 107.284 135.142L106.962 134.05C107.811 134.05 108.563 134.167 109.216 134.4C109.879 134.633 110.401 134.969 110.784 135.408C111.167 135.837 111.358 136.355 111.358 136.962C111.358 137.522 111.255 137.998 111.05 138.39C110.854 138.773 110.583 139.085 110.238 139.328C109.902 139.561 109.519 139.734 109.09 139.846C108.661 139.949 108.217 140 107.76 140H104.33V129.696H107.354ZM107.592 133.91C107.993 133.91 108.287 133.789 108.474 133.546C108.67 133.303 108.768 133.028 108.768 132.72C108.768 132.365 108.647 132.099 108.404 131.922C108.171 131.745 107.853 131.656 107.452 131.656H106.36V133.91H107.592ZM107.662 138.11C107.961 138.11 108.231 138.073 108.474 137.998C108.717 137.914 108.908 137.788 109.048 137.62C109.188 137.443 109.258 137.223 109.258 136.962C109.258 136.663 109.174 136.439 109.006 136.29C108.838 136.131 108.619 136.024 108.348 135.968C108.087 135.903 107.811 135.87 107.522 135.87H106.36V138.11H107.662ZM113.072 133.882H115.032V140H113.072V133.882ZM113.03 131.712C113.03 131.423 113.142 131.185 113.366 130.998C113.6 130.811 113.847 130.718 114.108 130.718C114.37 130.718 114.608 130.811 114.822 130.998C115.046 131.185 115.158 131.423 115.158 131.712C115.158 132.001 115.046 132.239 114.822 132.426C114.608 132.603 114.37 132.692 114.108 132.692C113.847 132.692 113.6 132.603 113.366 132.426C113.142 132.239 113.03 132.001 113.03 131.712ZM120.215 143.08C119.664 143.08 119.198 143.015 118.815 142.884C118.442 142.753 118.124 142.595 117.863 142.408C117.602 142.221 117.368 142.044 117.163 141.876L118.311 140.532C118.526 140.728 118.773 140.915 119.053 141.092C119.342 141.279 119.72 141.372 120.187 141.372C120.495 141.372 120.78 141.316 121.041 141.204C121.312 141.101 121.526 140.947 121.685 140.742C121.853 140.537 121.937 140.28 121.937 139.972V138.628L122.007 138.978C121.858 139.295 121.587 139.575 121.195 139.818C120.803 140.051 120.29 140.168 119.655 140.168C119.104 140.168 118.591 140.028 118.115 139.748C117.648 139.459 117.275 139.071 116.995 138.586C116.715 138.091 116.575 137.531 116.575 136.906C116.575 136.262 116.724 135.693 117.023 135.198C117.322 134.694 117.709 134.297 118.185 134.008C118.661 133.719 119.165 133.574 119.697 133.574C120.229 133.574 120.686 133.653 121.069 133.812C121.461 133.961 121.755 134.148 121.951 134.372L121.881 134.554L122.091 133.882H123.897V140C123.897 140.597 123.729 141.125 123.393 141.582C123.057 142.049 122.609 142.413 122.049 142.674C121.498 142.945 120.887 143.08 120.215 143.08ZM118.549 136.85C118.549 137.177 118.624 137.471 118.773 137.732C118.922 137.993 119.123 138.199 119.375 138.348C119.636 138.497 119.926 138.572 120.243 138.572C120.514 138.572 120.752 138.539 120.957 138.474C121.172 138.399 121.358 138.297 121.517 138.166C121.685 138.026 121.825 137.853 121.937 137.648V136.15C121.853 135.945 121.727 135.772 121.559 135.632C121.391 135.483 121.195 135.371 120.971 135.296C120.756 135.212 120.514 135.17 120.243 135.17C119.926 135.17 119.636 135.245 119.375 135.394C119.123 135.534 118.922 135.73 118.773 135.982C118.624 136.234 118.549 136.523 118.549 136.85ZM130.785 140V129.696H133.865C134.901 129.696 135.783 129.85 136.511 130.158C137.239 130.466 137.822 130.877 138.261 131.39C138.709 131.903 139.036 132.477 139.241 133.112C139.446 133.747 139.549 134.386 139.549 135.03C139.549 135.795 139.409 136.486 139.129 137.102C138.858 137.709 138.485 138.231 138.009 138.67C137.533 139.099 136.982 139.431 136.357 139.664C135.732 139.888 135.069 140 134.369 140H130.785ZM132.815 138.04H134.019C134.532 138.04 134.999 137.975 135.419 137.844C135.839 137.704 136.198 137.503 136.497 137.242C136.805 136.981 137.038 136.654 137.197 136.262C137.365 135.861 137.449 135.403 137.449 134.89C137.449 134.218 137.337 133.672 137.113 133.252C136.898 132.823 136.628 132.491 136.301 132.258C135.984 132.025 135.657 131.866 135.321 131.782C134.985 131.689 134.7 131.642 134.467 131.642H132.815V138.04ZM143.84 140.168C143.271 140.168 142.753 140.056 142.286 139.832C141.829 139.599 141.465 139.244 141.194 138.768C140.923 138.292 140.788 137.685 140.788 136.948C140.788 136.257 140.928 135.66 141.208 135.156C141.488 134.652 141.857 134.265 142.314 133.994C142.771 133.714 143.257 133.574 143.77 133.574C144.377 133.574 144.834 133.677 145.142 133.882C145.459 134.078 145.721 134.297 145.926 134.54L145.842 134.778L146.024 133.882H147.844V140H145.884V138.67L146.038 139.09C146.019 139.09 145.963 139.146 145.87 139.258C145.777 139.361 145.637 139.487 145.45 139.636C145.273 139.776 145.049 139.897 144.778 140C144.517 140.112 144.204 140.168 143.84 140.168ZM144.4 138.572C144.633 138.572 144.843 138.539 145.03 138.474C145.217 138.399 145.38 138.297 145.52 138.166C145.66 138.026 145.781 137.853 145.884 137.648V136.15C145.809 135.945 145.697 135.772 145.548 135.632C145.399 135.483 145.221 135.371 145.016 135.296C144.811 135.212 144.582 135.17 144.33 135.17C144.05 135.17 143.789 135.245 143.546 135.394C143.313 135.534 143.126 135.73 142.986 135.982C142.846 136.234 142.776 136.523 142.776 136.85C142.776 137.177 142.851 137.471 143 137.732C143.149 137.993 143.345 138.199 143.588 138.348C143.84 138.497 144.111 138.572 144.4 138.572ZM150.437 131.194H152.397V133.854H153.881V135.38H152.397V140H150.437V135.38H149.485V133.854H150.437V131.194ZM157.949 140.168C157.38 140.168 156.862 140.056 156.395 139.832C155.938 139.599 155.574 139.244 155.303 138.768C155.033 138.292 154.897 137.685 154.897 136.948C154.897 136.257 155.037 135.66 155.317 135.156C155.597 134.652 155.966 134.265 156.423 133.994C156.881 133.714 157.366 133.574 157.879 133.574C158.486 133.574 158.943 133.677 159.251 133.882C159.569 134.078 159.83 134.297 160.035 134.54L159.951 134.778L160.133 133.882H161.953V140H159.993V138.67L160.147 139.09C160.129 139.09 160.073 139.146 159.979 139.258C159.886 139.361 159.746 139.487 159.559 139.636C159.382 139.776 159.158 139.897 158.887 140C158.626 140.112 158.313 140.168 157.949 140.168ZM158.509 138.572C158.743 138.572 158.953 138.539 159.139 138.474C159.326 138.399 159.489 138.297 159.629 138.166C159.769 138.026 159.891 137.853 159.993 137.648V136.15C159.919 135.945 159.807 135.772 159.657 135.632C159.508 135.483 159.331 135.371 159.125 135.296C158.92 135.212 158.691 135.17 158.439 135.17C158.159 135.17 157.898 135.245 157.655 135.394C157.422 135.534 157.235 135.73 157.095 135.982C156.955 136.234 156.885 136.523 156.885 136.85C156.885 137.177 156.96 137.471 157.109 137.732C157.259 137.993 157.455 138.199 157.697 138.348C157.949 138.497 158.22 138.572 158.509 138.572ZM167.686 140L172.334 129.29H172.446L177.094 140H174.742L171.774 132.468L173.244 131.46L169.688 140H167.686ZM170.864 136.276H173.958L174.672 137.984H170.234L170.864 136.276ZM180.038 133.882L180.22 135.562L180.178 135.31C180.355 134.946 180.598 134.638 180.906 134.386C181.214 134.125 181.517 133.924 181.816 133.784C182.124 133.644 182.357 133.574 182.516 133.574L182.418 135.534C181.96 135.478 181.568 135.553 181.242 135.758C180.915 135.963 180.663 136.234 180.486 136.57C180.308 136.906 180.22 137.251 180.22 137.606V140H178.274V133.882H180.038ZM188.936 139.454C188.666 139.669 188.325 139.841 187.914 139.972C187.513 140.103 187.116 140.168 186.724 140.168C186.024 140.168 185.413 140.042 184.89 139.79C184.377 139.529 183.976 139.16 183.686 138.684C183.406 138.199 183.266 137.615 183.266 136.934C183.266 136.253 183.42 135.674 183.728 135.198C184.036 134.713 184.438 134.344 184.932 134.092C185.436 133.84 185.964 133.714 186.514 133.714C187.065 133.714 187.541 133.789 187.942 133.938C188.353 134.087 188.703 134.283 188.992 134.526L188.04 135.786C187.91 135.683 187.728 135.581 187.494 135.478C187.27 135.366 187.004 135.31 186.696 135.31C186.426 135.31 186.178 135.38 185.954 135.52C185.73 135.66 185.553 135.851 185.422 136.094C185.292 136.337 185.226 136.617 185.226 136.934C185.226 137.233 185.296 137.508 185.436 137.76C185.576 138.012 185.768 138.213 186.01 138.362C186.262 138.502 186.556 138.572 186.892 138.572C187.107 138.572 187.303 138.544 187.48 138.488C187.667 138.423 187.826 138.334 187.956 138.222L188.936 139.454ZM190.442 140V128.954H192.36V135.114L192.346 134.876C192.56 134.493 192.864 134.185 193.256 133.952C193.648 133.709 194.128 133.588 194.698 133.588C195.276 133.588 195.757 133.761 196.14 134.106C196.532 134.442 196.732 134.881 196.742 135.422V140H194.782V136.15C194.772 135.879 194.698 135.665 194.558 135.506C194.427 135.338 194.203 135.254 193.886 135.254C193.587 135.254 193.326 135.352 193.102 135.548C192.878 135.744 192.705 136.01 192.584 136.346C192.462 136.682 192.402 137.069 192.402 137.508V140H190.442ZM198.754 133.882H200.714V140H198.754V133.882ZM198.712 131.712C198.712 131.423 198.824 131.185 199.048 130.998C199.281 130.811 199.529 130.718 199.79 130.718C200.051 130.718 200.289 130.811 200.504 130.998C200.728 131.185 200.84 131.423 200.84 131.712C200.84 132.001 200.728 132.239 200.504 132.426C200.289 132.603 200.051 132.692 199.79 132.692C199.529 132.692 199.281 132.603 199.048 132.426C198.824 132.239 198.712 132.001 198.712 131.712ZM203.307 131.194H205.267V133.854H206.751V135.38H205.267V140H203.307V135.38H202.355V133.854H203.307V131.194ZM211.252 140.168C210.506 140.168 209.871 140.028 209.348 139.748C208.835 139.468 208.443 139.081 208.172 138.586C207.902 138.091 207.766 137.522 207.766 136.878C207.766 136.262 207.925 135.707 208.242 135.212C208.56 134.717 208.984 134.325 209.516 134.036C210.048 133.737 210.641 133.588 211.294 133.588C212.172 133.588 212.89 133.845 213.45 134.358C214.02 134.862 214.388 135.595 214.556 136.556L209.796 138.068L209.362 137.004L212.806 135.842L212.4 136.024C212.326 135.781 212.19 135.571 211.994 135.394C211.808 135.207 211.523 135.114 211.14 135.114C210.851 135.114 210.594 135.184 210.37 135.324C210.156 135.455 209.988 135.646 209.866 135.898C209.754 136.141 209.698 136.43 209.698 136.766C209.698 137.149 209.768 137.471 209.908 137.732C210.048 137.984 210.24 138.175 210.482 138.306C210.725 138.437 210.996 138.502 211.294 138.502C211.509 138.502 211.714 138.465 211.91 138.39C212.116 138.315 212.316 138.217 212.512 138.096L213.38 139.552C213.054 139.739 212.699 139.888 212.316 140C211.943 140.112 211.588 140.168 211.252 140.168ZM221.175 139.454C220.904 139.669 220.563 139.841 220.153 139.972C219.751 140.103 219.355 140.168 218.963 140.168C218.263 140.168 217.651 140.042 217.129 139.79C216.615 139.529 216.214 139.16 215.925 138.684C215.645 138.199 215.505 137.615 215.505 136.934C215.505 136.253 215.659 135.674 215.967 135.198C216.275 134.713 216.676 134.344 217.171 134.092C217.675 133.84 218.202 133.714 218.753 133.714C219.303 133.714 219.779 133.789 220.181 133.938C220.591 134.087 220.941 134.283 221.231 134.526L220.279 135.786C220.148 135.683 219.966 135.581 219.733 135.478C219.509 135.366 219.243 135.31 218.935 135.31C218.664 135.31 218.417 135.38 218.193 135.52C217.969 135.66 217.791 135.851 217.661 136.094C217.53 136.337 217.465 136.617 217.465 136.934C217.465 137.233 217.535 137.508 217.675 137.76C217.815 138.012 218.006 138.213 218.249 138.362C218.501 138.502 218.795 138.572 219.131 138.572C219.345 138.572 219.541 138.544 219.719 138.488C219.905 138.423 220.064 138.334 220.195 138.222L221.175 139.454ZM223.254 131.194H225.214V133.854H226.698V135.38H225.214V140H223.254V135.38H222.302V133.854H223.254V131.194ZM230.164 140.294C229.613 140.294 229.151 140.126 228.778 139.79C228.404 139.445 228.208 139.001 228.19 138.46V133.882H230.15V137.732C230.168 138.003 230.238 138.222 230.36 138.39C230.481 138.549 230.686 138.628 230.976 138.628C231.265 138.628 231.512 138.53 231.718 138.334C231.932 138.138 232.096 137.872 232.208 137.536C232.329 137.191 232.39 136.803 232.39 136.374V133.882H234.35V140H232.572L232.418 138.88L232.446 139.006C232.306 139.258 232.128 139.482 231.914 139.678C231.699 139.874 231.442 140.023 231.144 140.126C230.854 140.238 230.528 140.294 230.164 140.294ZM238.129 133.882L238.311 135.562L238.269 135.31C238.447 134.946 238.689 134.638 238.997 134.386C239.305 134.125 239.609 133.924 239.907 133.784C240.215 133.644 240.449 133.574 240.607 133.574L240.509 135.534C240.052 135.478 239.66 135.553 239.333 135.758C239.007 135.963 238.755 136.234 238.577 136.57C238.4 136.906 238.311 137.251 238.311 137.606V140H236.365V133.882H238.129ZM244.844 140.168C244.098 140.168 243.463 140.028 242.94 139.748C242.427 139.468 242.035 139.081 241.764 138.586C241.494 138.091 241.358 137.522 241.358 136.878C241.358 136.262 241.517 135.707 241.834 135.212C242.152 134.717 242.576 134.325 243.108 134.036C243.64 133.737 244.233 133.588 244.886 133.588C245.764 133.588 246.482 133.845 247.042 134.358C247.612 134.862 247.98 135.595 248.148 136.556L243.388 138.068L242.954 137.004L246.398 135.842L245.992 136.024C245.918 135.781 245.782 135.571 245.586 135.394C245.4 135.207 245.115 135.114 244.732 135.114C244.443 135.114 244.186 135.184 243.962 135.324C243.748 135.455 243.58 135.646 243.458 135.898C243.346 136.141 243.29 136.43 243.29 136.766C243.29 137.149 243.36 137.471 243.5 137.732C243.64 137.984 243.832 138.175 244.074 138.306C244.317 138.437 244.588 138.502 244.886 138.502C245.101 138.502 245.306 138.465 245.502 138.39C245.708 138.315 245.908 138.217 246.104 138.096L246.972 139.552C246.646 139.739 246.291 139.888 245.908 140C245.535 140.112 245.18 140.168 244.844 140.168ZM251.56 140.126C251.056 140.126 250.585 140.037 250.146 139.86C249.717 139.683 249.353 139.435 249.054 139.118L249.866 138.04C250.165 138.311 250.44 138.507 250.692 138.628C250.954 138.74 251.187 138.796 251.392 138.796C251.551 138.796 251.691 138.782 251.812 138.754C251.943 138.717 252.046 138.665 252.12 138.6C252.195 138.525 252.232 138.432 252.232 138.32C252.232 138.161 252.167 138.035 252.036 137.942C251.915 137.849 251.756 137.774 251.56 137.718C251.364 137.653 251.154 137.587 250.93 137.522C250.37 137.345 249.964 137.088 249.712 136.752C249.47 136.407 249.348 136.033 249.348 135.632C249.348 135.324 249.428 135.016 249.586 134.708C249.754 134.391 250.016 134.129 250.37 133.924C250.734 133.709 251.201 133.602 251.77 133.602C252.284 133.602 252.718 133.653 253.072 133.756C253.427 133.859 253.763 134.027 254.08 134.26L253.338 135.408C253.161 135.268 252.96 135.151 252.736 135.058C252.522 134.955 252.321 134.899 252.134 134.89C251.966 134.881 251.822 134.899 251.7 134.946C251.588 134.993 251.5 135.053 251.434 135.128C251.369 135.203 251.336 135.282 251.336 135.366C251.327 135.543 251.392 135.683 251.532 135.786C251.682 135.889 251.868 135.968 252.092 136.024C252.316 136.08 252.536 136.145 252.75 136.22C253.049 136.313 253.306 136.439 253.52 136.598C253.735 136.757 253.898 136.948 254.01 137.172C254.132 137.387 254.192 137.648 254.192 137.956C254.192 138.329 254.094 138.684 253.898 139.02C253.712 139.347 253.422 139.613 253.03 139.818C252.648 140.023 252.158 140.126 251.56 140.126Z" fill="black"/>
<line x1="176.5" y1="216" x2="176.5" y2="271" stroke="black"/>
</svg>
