<svg width="342" height="300" viewBox="0 0 342 300" fill="none" xmlns="http://www.w3.org/2000/svg">
<rect x="39" width="264" height="50" rx="15" fill="black" fill-opacity="0.1"/>
<rect x="39.5" y="0.5" width="263" height="49" rx="14.5" stroke="#ED1B24" stroke-opacity="0.8"/>
<path d="M101.916 30V15.28H106.316C107.796 15.28 109.056 15.5 110.096 15.94C111.136 16.38 111.969 16.9667 112.596 17.7C113.236 18.4333 113.702 19.2533 113.996 20.16C114.289 21.0667 114.436 21.98 114.436 22.9C114.436 23.9933 114.236 24.98 113.836 25.86C113.449 26.7267 112.916 27.4733 112.236 28.1C111.556 28.7133 110.769 29.1867 109.876 29.52C108.982 29.84 108.036 30 107.036 30H101.916ZM104.816 27.2H106.536C107.269 27.2 107.936 27.1067 108.536 26.92C109.136 26.72 109.649 26.4333 110.076 26.06C110.516 25.6867 110.849 25.22 111.076 24.66C111.316 24.0867 111.436 23.4333 111.436 22.7C111.436 21.74 111.276 20.96 110.956 20.36C110.649 19.7467 110.262 19.2733 109.796 18.94C109.342 18.6067 108.876 18.38 108.396 18.26C107.916 18.1267 107.509 18.06 107.176 18.06H104.816V27.2ZM121.185 30.24C120.119 30.24 119.212 30.04 118.465 29.64C117.732 29.24 117.172 28.6867 116.785 27.98C116.399 27.2733 116.205 26.46 116.205 25.54C116.205 24.66 116.432 23.8667 116.885 23.16C117.339 22.4533 117.945 21.8933 118.705 21.48C119.465 21.0533 120.312 20.84 121.245 20.84C122.499 20.84 123.525 21.2067 124.325 21.94C125.139 22.66 125.665 23.7067 125.905 25.08L119.105 27.24L118.485 25.72L123.405 24.06L122.825 24.32C122.719 23.9733 122.525 23.6733 122.245 23.42C121.979 23.1533 121.572 23.02 121.025 23.02C120.612 23.02 120.245 23.12 119.925 23.32C119.619 23.5067 119.379 23.78 119.205 24.14C119.045 24.4867 118.965 24.9 118.965 25.38C118.965 25.9267 119.065 26.3867 119.265 26.76C119.465 27.12 119.739 27.3933 120.085 27.58C120.432 27.7667 120.819 27.86 121.245 27.86C121.552 27.86 121.845 27.8067 122.125 27.7C122.419 27.5933 122.705 27.4533 122.985 27.28L124.225 29.36C123.759 29.6267 123.252 29.84 122.705 30C122.172 30.16 121.665 30.24 121.185 30.24ZM132.24 30.24C131.173 30.24 130.267 30.04 129.52 29.64C128.787 29.24 128.227 28.6867 127.84 27.98C127.453 27.2733 127.26 26.46 127.26 25.54C127.26 24.66 127.487 23.8667 127.94 23.16C128.393 22.4533 129 21.8933 129.76 21.48C130.52 21.0533 131.367 20.84 132.3 20.84C133.553 20.84 134.58 21.2067 135.38 21.94C136.193 22.66 136.72 23.7067 136.96 25.08L130.16 27.24L129.54 25.72L134.46 24.06L133.88 24.32C133.773 23.9733 133.58 23.6733 133.3 23.42C133.033 23.1533 132.627 23.02 132.08 23.02C131.667 23.02 131.3 23.12 130.98 23.32C130.673 23.5067 130.433 23.78 130.26 24.14C130.1 24.4867 130.02 24.9 130.02 25.38C130.02 25.9267 130.12 26.3867 130.32 26.76C130.52 27.12 130.793 27.3933 131.14 27.58C131.487 27.7667 131.873 27.86 132.3 27.86C132.607 27.86 132.9 27.8067 133.18 27.7C133.473 27.5933 133.76 27.4533 134.04 27.28L135.28 29.36C134.813 29.6267 134.307 29.84 133.76 30C133.227 30.16 132.72 30.24 132.24 30.24ZM144.475 30.24C143.955 30.24 143.441 30.1467 142.935 29.96C142.441 29.76 142.028 29.48 141.695 29.12L141.775 28.3V34.2H138.995V21.06H141.395L141.795 22.76L141.575 22.16C142.028 21.7733 142.535 21.4533 143.095 21.2C143.655 20.9467 144.301 20.82 145.035 20.82C145.848 20.82 146.575 21.0133 147.215 21.4C147.855 21.7733 148.355 22.32 148.715 23.04C149.088 23.7467 149.275 24.6 149.275 25.6C149.275 26.5867 149.068 27.4267 148.655 28.12C148.241 28.8133 147.675 29.34 146.955 29.7C146.235 30.06 145.408 30.24 144.475 30.24ZM143.915 28.04C144.368 28.04 144.781 27.94 145.155 27.74C145.541 27.54 145.848 27.26 146.075 26.9C146.315 26.5267 146.435 26.1067 146.435 25.64C146.435 25.1467 146.328 24.72 146.115 24.36C145.915 23.9867 145.635 23.7 145.275 23.5C144.928 23.2867 144.541 23.18 144.115 23.18C143.741 23.18 143.408 23.2333 143.115 23.34C142.835 23.4333 142.581 23.58 142.355 23.78C142.141 23.9667 141.955 24.2067 141.795 24.5V26.64C141.901 26.92 142.055 27.1667 142.255 27.38C142.455 27.5933 142.695 27.76 142.975 27.88C143.268 27.9867 143.581 28.04 143.915 28.04ZM158.439 15.28H161.339V27.2H168.259V30H158.439V15.28ZM175.092 30.24C174.025 30.24 173.118 30.04 172.372 29.64C171.638 29.24 171.078 28.6867 170.692 27.98C170.305 27.2733 170.112 26.46 170.112 25.54C170.112 24.66 170.338 23.8667 170.792 23.16C171.245 22.4533 171.852 21.8933 172.612 21.48C173.372 21.0533 174.218 20.84 175.152 20.84C176.405 20.84 177.432 21.2067 178.232 21.94C179.045 22.66 179.572 23.7067 179.812 25.08L173.012 27.24L172.392 25.72L177.312 24.06L176.732 24.32C176.625 23.9733 176.432 23.6733 176.152 23.42C175.885 23.1533 175.478 23.02 174.932 23.02C174.518 23.02 174.152 23.12 173.832 23.32C173.525 23.5067 173.285 23.78 173.112 24.14C172.952 24.4867 172.872 24.9 172.872 25.38C172.872 25.9267 172.972 26.3867 173.172 26.76C173.372 27.12 173.645 27.3933 173.992 27.58C174.338 27.7667 174.725 27.86 175.152 27.86C175.458 27.86 175.752 27.8067 176.032 27.7C176.325 27.5933 176.612 27.4533 176.892 27.28L178.132 29.36C177.665 29.6267 177.158 29.84 176.612 30C176.078 30.16 175.572 30.24 175.092 30.24ZM185.526 30.24C184.713 30.24 183.973 30.08 183.306 29.76C182.653 29.4267 182.133 28.92 181.746 28.24C181.36 27.56 181.166 26.6933 181.166 25.64C181.166 24.6533 181.366 23.8 181.766 23.08C182.166 22.36 182.693 21.8067 183.346 21.42C184 21.02 184.693 20.82 185.426 20.82C186.293 20.82 186.946 20.9667 187.386 21.26C187.84 21.54 188.213 21.8533 188.506 22.2L188.386 22.54L188.646 21.26H191.246V30H188.446V28.1L188.666 28.7C188.64 28.7 188.56 28.78 188.426 28.94C188.293 29.0867 188.093 29.2667 187.826 29.48C187.573 29.68 187.253 29.8533 186.866 30C186.493 30.16 186.046 30.24 185.526 30.24ZM186.326 27.96C186.66 27.96 186.96 27.9133 187.226 27.82C187.493 27.7133 187.726 27.5667 187.926 27.38C188.126 27.18 188.3 26.9333 188.446 26.64V24.5C188.34 24.2067 188.18 23.96 187.966 23.76C187.753 23.5467 187.5 23.3867 187.206 23.28C186.913 23.16 186.586 23.1 186.226 23.1C185.826 23.1 185.453 23.2067 185.106 23.42C184.773 23.62 184.506 23.9 184.306 24.26C184.106 24.62 184.006 25.0333 184.006 25.5C184.006 25.9667 184.113 26.3867 184.326 26.76C184.54 27.1333 184.82 27.4267 185.166 27.64C185.526 27.8533 185.913 27.96 186.326 27.96ZM196.651 21.26L196.911 23.66L196.851 23.3C197.105 22.78 197.451 22.34 197.891 21.98C198.331 21.6067 198.765 21.32 199.191 21.12C199.631 20.92 199.965 20.82 200.191 20.82L200.051 23.62C199.398 23.54 198.838 23.6467 198.371 23.94C197.905 24.2333 197.545 24.62 197.291 25.1C197.038 25.58 196.911 26.0733 196.911 26.58V30H194.131V21.26H196.651ZM204.875 21.26L205.095 22.82L205.055 22.68C205.361 22.1333 205.795 21.6933 206.355 21.36C206.915 21.0133 207.601 20.84 208.415 20.84C209.241 20.84 209.928 21.0867 210.475 21.58C211.035 22.06 211.321 22.6867 211.335 23.46V30H208.535V24.5C208.521 24.1133 208.415 23.8067 208.215 23.58C208.028 23.34 207.708 23.22 207.255 23.22C206.828 23.22 206.455 23.36 206.135 23.64C205.815 23.92 205.568 24.3 205.395 24.78C205.221 25.26 205.135 25.8133 205.135 26.44V30H202.335V21.26H204.875ZM214.21 21.26H217.01V30H214.21V21.26ZM214.15 18.16C214.15 17.7467 214.31 17.4067 214.63 17.14C214.963 16.8733 215.316 16.74 215.69 16.74C216.063 16.74 216.403 16.8733 216.71 17.14C217.03 17.4067 217.19 17.7467 217.19 18.16C217.19 18.5733 217.03 18.9133 216.71 19.18C216.403 19.4333 216.063 19.56 215.69 19.56C215.316 19.56 214.963 19.4333 214.63 19.18C214.31 18.9133 214.15 18.5733 214.15 18.16ZM222.433 21.26L222.653 22.82L222.613 22.68C222.92 22.1333 223.353 21.6933 223.913 21.36C224.473 21.0133 225.16 20.84 225.973 20.84C226.8 20.84 227.486 21.0867 228.033 21.58C228.593 22.06 228.88 22.6867 228.893 23.46V30H226.093V24.5C226.08 24.1133 225.973 23.8067 225.773 23.58C225.586 23.34 225.266 23.22 224.813 23.22C224.386 23.22 224.013 23.36 223.693 23.64C223.373 23.92 223.126 24.3 222.953 24.78C222.78 25.26 222.693 25.8133 222.693 26.44V30H219.893V21.26H222.433ZM236.288 34.4C235.501 34.4 234.835 34.3067 234.288 34.12C233.755 33.9333 233.301 33.7067 232.928 33.44C232.555 33.1733 232.221 32.92 231.928 32.68L233.568 30.76C233.875 31.04 234.228 31.3067 234.628 31.56C235.041 31.8267 235.581 31.96 236.248 31.96C236.688 31.96 237.095 31.88 237.468 31.72C237.855 31.5733 238.161 31.3533 238.388 31.06C238.628 30.7667 238.748 30.4 238.748 29.96V28.04L238.848 28.54C238.635 28.9933 238.248 29.3933 237.688 29.74C237.128 30.0733 236.395 30.24 235.488 30.24C234.701 30.24 233.968 30.04 233.288 29.64C232.621 29.2267 232.088 28.6733 231.688 27.98C231.288 27.2733 231.088 26.4733 231.088 25.58C231.088 24.66 231.301 23.8467 231.728 23.14C232.155 22.42 232.708 21.8533 233.388 21.44C234.068 21.0267 234.788 20.82 235.548 20.82C236.308 20.82 236.961 20.9333 237.508 21.16C238.068 21.3733 238.488 21.64 238.768 21.96L238.668 22.22L238.968 21.26H241.548V30C241.548 30.8533 241.308 31.6067 240.828 32.26C240.348 32.9267 239.708 33.4467 238.908 33.82C238.121 34.2067 237.248 34.4 236.288 34.4ZM233.908 25.5C233.908 25.9667 234.015 26.3867 234.228 26.76C234.441 27.1333 234.728 27.4267 235.088 27.64C235.461 27.8533 235.875 27.96 236.328 27.96C236.715 27.96 237.055 27.9133 237.348 27.82C237.655 27.7133 237.921 27.5667 238.148 27.38C238.388 27.18 238.588 26.9333 238.748 26.64V24.5C238.628 24.2067 238.448 23.96 238.208 23.76C237.968 23.5467 237.688 23.3867 237.368 23.28C237.061 23.16 236.715 23.1 236.328 23.1C235.875 23.1 235.461 23.2067 235.088 23.42C234.728 23.62 234.441 23.9 234.228 24.26C234.015 24.62 233.908 25.0333 233.908 25.5Z" fill="black"/>
<line x1="173.25" y1="50" x2="173.25" y2="120" stroke="#ED1B24" stroke-width="2.5"/>
<rect x="0.5" y="120.5" width="341" height="179" rx="14.5" stroke="#ED1B24" stroke-opacity="0.8"/>
<rect x="14.5" y="170.5" width="313" height="39" rx="14.5" stroke="#ED1B24" stroke-opacity="0.8"/>
<path d="M0 135C0 126.716 6.71573 120 15 120H327C335.284 120 342 126.716 342 135V160H0V135Z" fill="black" fill-opacity="0.1"/>
<rect x="14.5" y="220.5" width="313" height="29" rx="14.5" stroke="#ED1B24" stroke-opacity="0.8"/>
<rect x="14.5" y="260.5" width="313" height="29" rx="14.5" stroke="#ED1B24" stroke-opacity="0.8"/>
<path d="M66.9745 187V176.696H70.0545C71.0905 176.696 71.9725 176.85 72.7005 177.158C73.4285 177.466 74.0119 177.877 74.4505 178.39C74.8985 178.903 75.2252 179.477 75.4305 180.112C75.6359 180.747 75.7385 181.386 75.7385 182.03C75.7385 182.795 75.5985 183.486 75.3185 184.102C75.0479 184.709 74.6745 185.231 74.1985 185.67C73.7225 186.099 73.1719 186.431 72.5465 186.664C71.9212 186.888 71.2585 187 70.5585 187H66.9745ZM69.0045 185.04H70.2085C70.7219 185.04 71.1885 184.975 71.6085 184.844C72.0285 184.704 72.3879 184.503 72.6865 184.242C72.9945 183.981 73.2279 183.654 73.3865 183.262C73.5545 182.861 73.6385 182.403 73.6385 181.89C73.6385 181.218 73.5265 180.672 73.3025 180.252C73.0879 179.823 72.8172 179.491 72.4905 179.258C72.1732 179.025 71.8465 178.866 71.5105 178.782C71.1745 178.689 70.8899 178.642 70.6565 178.642H69.0045V185.04ZM80.4633 187.168C79.7166 187.168 79.082 187.028 78.5593 186.748C78.046 186.468 77.654 186.081 77.3833 185.586C77.1126 185.091 76.9773 184.522 76.9773 183.878C76.9773 183.262 77.136 182.707 77.4533 182.212C77.7706 181.717 78.1953 181.325 78.7273 181.036C79.2593 180.737 79.852 180.588 80.5053 180.588C81.3826 180.588 82.1013 180.845 82.6613 181.358C83.2306 181.862 83.5993 182.595 83.7673 183.556L79.0073 185.068L78.5733 184.004L82.0173 182.842L81.6113 183.024C81.5366 182.781 81.4013 182.571 81.2053 182.394C81.0186 182.207 80.734 182.114 80.3513 182.114C80.062 182.114 79.8053 182.184 79.5813 182.324C79.3666 182.455 79.1986 182.646 79.0773 182.898C78.9653 183.141 78.9093 183.43 78.9093 183.766C78.9093 184.149 78.9793 184.471 79.1193 184.732C79.2593 184.984 79.4506 185.175 79.6933 185.306C79.936 185.437 80.2066 185.502 80.5053 185.502C80.72 185.502 80.9253 185.465 81.1213 185.39C81.3266 185.315 81.5273 185.217 81.7233 185.096L82.5913 186.552C82.2646 186.739 81.91 186.888 81.5273 187C81.154 187.112 80.7993 187.168 80.4633 187.168ZM88.2016 187.168C87.4549 187.168 86.8203 187.028 86.2976 186.748C85.7843 186.468 85.3923 186.081 85.1216 185.586C84.8509 185.091 84.7156 184.522 84.7156 183.878C84.7156 183.262 84.8743 182.707 85.1916 182.212C85.5089 181.717 85.9336 181.325 86.4656 181.036C86.9976 180.737 87.5903 180.588 88.2436 180.588C89.1209 180.588 89.8396 180.845 90.3996 181.358C90.9689 181.862 91.3376 182.595 91.5056 183.556L86.7456 185.068L86.3116 184.004L89.7556 182.842L89.3496 183.024C89.2749 182.781 89.1396 182.571 88.9436 182.394C88.7569 182.207 88.4723 182.114 88.0896 182.114C87.8003 182.114 87.5436 182.184 87.3196 182.324C87.1049 182.455 86.9369 182.646 86.8156 182.898C86.7036 183.141 86.6476 183.43 86.6476 183.766C86.6476 184.149 86.7176 184.471 86.8576 184.732C86.9976 184.984 87.1889 185.175 87.4316 185.306C87.6743 185.437 87.9449 185.502 88.2436 185.502C88.4583 185.502 88.6636 185.465 88.8596 185.39C89.0649 185.315 89.2656 185.217 89.4616 185.096L90.3296 186.552C90.0029 186.739 89.6483 186.888 89.2656 187C88.8923 187.112 88.5376 187.168 88.2016 187.168ZM96.7659 187.168C96.4019 187.168 96.0425 187.103 95.6879 186.972C95.3425 186.832 95.0532 186.636 94.8199 186.384L94.8759 185.81V189.94H92.9299V180.742H94.6099L94.8899 181.932L94.7359 181.512C95.0532 181.241 95.4079 181.017 95.7999 180.84C96.1919 180.663 96.6445 180.574 97.1579 180.574C97.7272 180.574 98.2359 180.709 98.6839 180.98C99.1319 181.241 99.4819 181.624 99.7339 182.128C99.9952 182.623 100.126 183.22 100.126 183.92C100.126 184.611 99.9812 185.199 99.6919 185.684C99.4025 186.169 99.0059 186.538 98.5019 186.79C97.9979 187.042 97.4192 187.168 96.7659 187.168ZM96.3739 185.628C96.6912 185.628 96.9805 185.558 97.2419 185.418C97.5125 185.278 97.7272 185.082 97.8859 184.83C98.0539 184.569 98.1379 184.275 98.1379 183.948C98.1379 183.603 98.0632 183.304 97.9139 183.052C97.7739 182.791 97.5779 182.59 97.3259 182.45C97.0832 182.301 96.8125 182.226 96.5139 182.226C96.2525 182.226 96.0192 182.263 95.8139 182.338C95.6179 182.403 95.4405 182.506 95.2819 182.646C95.1325 182.777 95.0019 182.945 94.8899 183.15V184.648C94.9645 184.844 95.0719 185.017 95.2119 185.166C95.3519 185.315 95.5199 185.432 95.7159 185.516C95.9212 185.591 96.1405 185.628 96.3739 185.628ZM106.541 176.696H108.571V185.04H113.415V187H106.541V176.696ZM118.198 187.168C117.451 187.168 116.816 187.028 116.294 186.748C115.78 186.468 115.388 186.081 115.118 185.586C114.847 185.091 114.712 184.522 114.712 183.878C114.712 183.262 114.87 182.707 115.188 182.212C115.505 181.717 115.93 181.325 116.462 181.036C116.994 180.737 117.586 180.588 118.24 180.588C119.117 180.588 119.836 180.845 120.396 181.358C120.965 181.862 121.334 182.595 121.502 183.556L116.742 185.068L116.308 184.004L119.752 182.842L119.346 183.024C119.271 182.781 119.136 182.571 118.94 182.394C118.753 182.207 118.468 182.114 118.086 182.114C117.796 182.114 117.54 182.184 117.316 182.324C117.101 182.455 116.933 182.646 116.812 182.898C116.7 183.141 116.644 183.43 116.644 183.766C116.644 184.149 116.714 184.471 116.854 184.732C116.994 184.984 117.185 185.175 117.428 185.306C117.67 185.437 117.941 185.502 118.24 185.502C118.454 185.502 118.66 185.465 118.856 185.39C119.061 185.315 119.262 185.217 119.458 185.096L120.326 186.552C119.999 186.739 119.644 186.888 119.262 187C118.888 187.112 118.534 187.168 118.198 187.168ZM125.502 187.168C124.933 187.168 124.415 187.056 123.948 186.832C123.491 186.599 123.127 186.244 122.856 185.768C122.585 185.292 122.45 184.685 122.45 183.948C122.45 183.257 122.59 182.66 122.87 182.156C123.15 181.652 123.519 181.265 123.976 180.994C124.433 180.714 124.919 180.574 125.432 180.574C126.039 180.574 126.496 180.677 126.804 180.882C127.121 181.078 127.383 181.297 127.588 181.54L127.504 181.778L127.686 180.882H129.506V187H127.546V185.67L127.7 186.09C127.681 186.09 127.625 186.146 127.532 186.258C127.439 186.361 127.299 186.487 127.112 186.636C126.935 186.776 126.711 186.897 126.44 187C126.179 187.112 125.866 187.168 125.502 187.168ZM126.062 185.572C126.295 185.572 126.505 185.539 126.692 185.474C126.879 185.399 127.042 185.297 127.182 185.166C127.322 185.026 127.443 184.853 127.546 184.648V183.15C127.471 182.945 127.359 182.772 127.21 182.632C127.061 182.483 126.883 182.371 126.678 182.296C126.473 182.212 126.244 182.17 125.992 182.17C125.712 182.17 125.451 182.245 125.208 182.394C124.975 182.534 124.788 182.73 124.648 182.982C124.508 183.234 124.438 183.523 124.438 183.85C124.438 184.177 124.513 184.471 124.662 184.732C124.811 184.993 125.007 185.199 125.25 185.348C125.502 185.497 125.773 185.572 126.062 185.572ZM133.29 180.882L133.472 182.562L133.43 182.31C133.607 181.946 133.85 181.638 134.158 181.386C134.466 181.125 134.769 180.924 135.068 180.784C135.376 180.644 135.609 180.574 135.768 180.574L135.67 182.534C135.212 182.478 134.82 182.553 134.494 182.758C134.167 182.963 133.915 183.234 133.738 183.57C133.56 183.906 133.472 184.251 133.472 184.606V187H131.526V180.882H133.29ZM139.046 180.882L139.2 181.974L139.172 181.876C139.386 181.493 139.69 181.185 140.082 180.952C140.474 180.709 140.954 180.588 141.524 180.588C142.102 180.588 142.583 180.761 142.966 181.106C143.358 181.442 143.558 181.881 143.568 182.422V187H141.608V183.15C141.598 182.879 141.524 182.665 141.384 182.506C141.253 182.338 141.029 182.254 140.712 182.254C140.413 182.254 140.152 182.352 139.928 182.548C139.704 182.744 139.531 183.01 139.41 183.346C139.288 183.682 139.228 184.069 139.228 184.508V187H137.268V180.882H139.046ZM145.58 180.882H147.54V187H145.58V180.882ZM145.538 178.712C145.538 178.423 145.65 178.185 145.874 177.998C146.108 177.811 146.355 177.718 146.616 177.718C146.878 177.718 147.116 177.811 147.33 177.998C147.554 178.185 147.666 178.423 147.666 178.712C147.666 179.001 147.554 179.239 147.33 179.426C147.116 179.603 146.878 179.692 146.616 179.692C146.355 179.692 146.108 179.603 145.874 179.426C145.65 179.239 145.538 179.001 145.538 178.712ZM151.337 180.882L151.491 181.974L151.463 181.876C151.677 181.493 151.981 181.185 152.373 180.952C152.765 180.709 153.245 180.588 153.815 180.588C154.393 180.588 154.874 180.761 155.257 181.106C155.649 181.442 155.849 181.881 155.859 182.422V187H153.899V183.15C153.889 182.879 153.815 182.665 153.675 182.506C153.544 182.338 153.32 182.254 153.003 182.254C152.704 182.254 152.443 182.352 152.219 182.548C151.995 182.744 151.822 183.01 151.701 183.346C151.579 183.682 151.519 184.069 151.519 184.508V187H149.559V180.882H151.337ZM161.035 190.08C160.485 190.08 160.018 190.015 159.635 189.884C159.262 189.753 158.945 189.595 158.683 189.408C158.422 189.221 158.189 189.044 157.983 188.876L159.131 187.532C159.346 187.728 159.593 187.915 159.873 188.092C160.163 188.279 160.541 188.372 161.007 188.372C161.315 188.372 161.6 188.316 161.861 188.204C162.132 188.101 162.347 187.947 162.505 187.742C162.673 187.537 162.757 187.28 162.757 186.972V185.628L162.827 185.978C162.678 186.295 162.407 186.575 162.015 186.818C161.623 187.051 161.11 187.168 160.475 187.168C159.925 187.168 159.411 187.028 158.935 186.748C158.469 186.459 158.095 186.071 157.815 185.586C157.535 185.091 157.395 184.531 157.395 183.906C157.395 183.262 157.545 182.693 157.843 182.198C158.142 181.694 158.529 181.297 159.005 181.008C159.481 180.719 159.985 180.574 160.517 180.574C161.049 180.574 161.507 180.653 161.889 180.812C162.281 180.961 162.575 181.148 162.771 181.372L162.701 181.554L162.911 180.882H164.717V187C164.717 187.597 164.549 188.125 164.213 188.582C163.877 189.049 163.429 189.413 162.869 189.674C162.319 189.945 161.707 190.08 161.035 190.08ZM159.369 183.85C159.369 184.177 159.444 184.471 159.593 184.732C159.743 184.993 159.943 185.199 160.195 185.348C160.457 185.497 160.746 185.572 161.063 185.572C161.334 185.572 161.572 185.539 161.777 185.474C161.992 185.399 162.179 185.297 162.337 185.166C162.505 185.026 162.645 184.853 162.757 184.648V183.15C162.673 182.945 162.547 182.772 162.379 182.632C162.211 182.483 162.015 182.371 161.791 182.296C161.577 182.212 161.334 182.17 161.063 182.17C160.746 182.17 160.457 182.245 160.195 182.394C159.943 182.534 159.743 182.73 159.593 182.982C159.444 183.234 159.369 183.523 159.369 183.85ZM174.727 176.696C175.577 176.696 176.295 176.841 176.883 177.13C177.471 177.41 177.919 177.811 178.227 178.334C178.535 178.847 178.689 179.459 178.689 180.168C178.689 180.588 178.624 181.013 178.493 181.442C178.372 181.862 178.171 182.245 177.891 182.59C177.621 182.935 177.252 183.215 176.785 183.43C176.328 183.635 175.763 183.738 175.091 183.738H173.635V187H171.605V176.696H174.727ZM175.077 181.764C175.385 181.764 175.642 181.713 175.847 181.61C176.053 181.498 176.211 181.363 176.323 181.204C176.445 181.036 176.529 180.863 176.575 180.686C176.631 180.509 176.659 180.355 176.659 180.224C176.659 180.121 176.641 179.986 176.603 179.818C176.575 179.641 176.51 179.463 176.407 179.286C176.305 179.109 176.146 178.959 175.931 178.838C175.726 178.717 175.446 178.656 175.091 178.656H173.635V181.764H175.077ZM182.76 187.168C182.19 187.168 181.672 187.056 181.206 186.832C180.748 186.599 180.384 186.244 180.114 185.768C179.843 185.292 179.708 184.685 179.708 183.948C179.708 183.257 179.848 182.66 180.128 182.156C180.408 181.652 180.776 181.265 181.234 180.994C181.691 180.714 182.176 180.574 182.69 180.574C183.296 180.574 183.754 180.677 184.062 180.882C184.379 181.078 184.64 181.297 184.846 181.54L184.762 181.778L184.944 180.882H186.764V187H184.804V185.67L184.958 186.09C184.939 186.09 184.883 186.146 184.79 186.258C184.696 186.361 184.556 186.487 184.37 186.636C184.192 186.776 183.968 186.897 183.698 187C183.436 187.112 183.124 187.168 182.76 187.168ZM183.32 185.572C183.553 185.572 183.763 185.539 183.95 185.474C184.136 185.399 184.3 185.297 184.44 185.166C184.58 185.026 184.701 184.853 184.804 184.648V183.15C184.729 182.945 184.617 182.772 184.468 182.632C184.318 182.483 184.141 182.371 183.936 182.296C183.73 182.212 183.502 182.17 183.25 182.17C182.97 182.17 182.708 182.245 182.466 182.394C182.232 182.534 182.046 182.73 181.906 182.982C181.766 183.234 181.696 183.523 181.696 183.85C181.696 184.177 181.77 184.471 181.92 184.732C182.069 184.993 182.265 185.199 182.508 185.348C182.76 185.497 183.03 185.572 183.32 185.572ZM192.619 187.168C192.255 187.168 191.896 187.103 191.541 186.972C191.196 186.832 190.907 186.636 190.673 186.384L190.729 185.81V189.94H188.783V180.742H190.463L190.743 181.932L190.589 181.512C190.907 181.241 191.261 181.017 191.653 180.84C192.045 180.663 192.498 180.574 193.011 180.574C193.581 180.574 194.089 180.709 194.537 180.98C194.985 181.241 195.335 181.624 195.587 182.128C195.849 182.623 195.979 183.22 195.979 183.92C195.979 184.611 195.835 185.199 195.545 185.684C195.256 186.169 194.859 186.538 194.355 186.79C193.851 187.042 193.273 187.168 192.619 187.168ZM192.227 185.628C192.545 185.628 192.834 185.558 193.095 185.418C193.366 185.278 193.581 185.082 193.739 184.83C193.907 184.569 193.991 184.275 193.991 183.948C193.991 183.603 193.917 183.304 193.767 183.052C193.627 182.791 193.431 182.59 193.179 182.45C192.937 182.301 192.666 182.226 192.367 182.226C192.106 182.226 191.873 182.263 191.667 182.338C191.471 182.403 191.294 182.506 191.135 182.646C190.986 182.777 190.855 182.945 190.743 183.15V184.648C190.818 184.844 190.925 185.017 191.065 185.166C191.205 185.315 191.373 185.432 191.569 185.516C191.775 185.591 191.994 185.628 192.227 185.628ZM200.53 187.168C199.783 187.168 199.148 187.028 198.626 186.748C198.112 186.468 197.72 186.081 197.45 185.586C197.179 185.091 197.044 184.522 197.044 183.878C197.044 183.262 197.202 182.707 197.52 182.212C197.837 181.717 198.262 181.325 198.794 181.036C199.326 180.737 199.918 180.588 200.572 180.588C201.449 180.588 202.168 180.845 202.728 181.358C203.297 181.862 203.666 182.595 203.834 183.556L199.074 185.068L198.64 184.004L202.084 182.842L201.678 183.024C201.603 182.781 201.468 182.571 201.272 182.394C201.085 182.207 200.8 182.114 200.418 182.114C200.128 182.114 199.872 182.184 199.648 182.324C199.433 182.455 199.265 182.646 199.144 182.898C199.032 183.141 198.976 183.43 198.976 183.766C198.976 184.149 199.046 184.471 199.186 184.732C199.326 184.984 199.517 185.175 199.76 185.306C200.002 185.437 200.273 185.502 200.572 185.502C200.786 185.502 200.992 185.465 201.188 185.39C201.393 185.315 201.594 185.217 201.79 185.096L202.658 186.552C202.331 186.739 201.976 186.888 201.594 187C201.22 187.112 200.866 187.168 200.53 187.168ZM207.022 180.882L207.204 182.562L207.162 182.31C207.339 181.946 207.582 181.638 207.89 181.386C208.198 181.125 208.501 180.924 208.8 180.784C209.108 180.644 209.341 180.574 209.5 180.574L209.402 182.534C208.945 182.478 208.553 182.553 208.226 182.758C207.899 182.963 207.647 183.234 207.47 183.57C207.293 183.906 207.204 184.251 207.204 184.606V187H205.258V180.882H207.022ZM212.988 187.126C212.484 187.126 212.013 187.037 211.574 186.86C211.145 186.683 210.781 186.435 210.482 186.118L211.294 185.04C211.593 185.311 211.868 185.507 212.12 185.628C212.382 185.74 212.615 185.796 212.82 185.796C212.979 185.796 213.119 185.782 213.24 185.754C213.371 185.717 213.474 185.665 213.548 185.6C213.623 185.525 213.66 185.432 213.66 185.32C213.66 185.161 213.595 185.035 213.464 184.942C213.343 184.849 213.184 184.774 212.988 184.718C212.792 184.653 212.582 184.587 212.358 184.522C211.798 184.345 211.392 184.088 211.14 183.752C210.898 183.407 210.776 183.033 210.776 182.632C210.776 182.324 210.856 182.016 211.014 181.708C211.182 181.391 211.444 181.129 211.798 180.924C212.162 180.709 212.629 180.602 213.198 180.602C213.712 180.602 214.146 180.653 214.5 180.756C214.855 180.859 215.191 181.027 215.508 181.26L214.766 182.408C214.589 182.268 214.388 182.151 214.164 182.058C213.95 181.955 213.749 181.899 213.562 181.89C213.394 181.881 213.25 181.899 213.128 181.946C213.016 181.993 212.928 182.053 212.862 182.128C212.797 182.203 212.764 182.282 212.764 182.366C212.755 182.543 212.82 182.683 212.96 182.786C213.11 182.889 213.296 182.968 213.52 183.024C213.744 183.08 213.964 183.145 214.178 183.22C214.477 183.313 214.734 183.439 214.948 183.598C215.163 183.757 215.326 183.948 215.438 184.172C215.56 184.387 215.62 184.648 215.62 184.956C215.62 185.329 215.522 185.684 215.326 186.02C215.14 186.347 214.85 186.613 214.458 186.818C214.076 187.023 213.586 187.126 212.988 187.126ZM225.259 176.696C225.903 176.696 226.477 176.78 226.981 176.948C227.485 177.107 227.905 177.34 228.241 177.648C228.586 177.947 228.847 178.311 229.025 178.74C229.202 179.16 229.291 179.636 229.291 180.168C229.291 180.588 229.225 181.008 229.095 181.428C228.973 181.848 228.768 182.231 228.479 182.576C228.199 182.921 227.825 183.201 227.359 183.416C226.892 183.621 226.313 183.724 225.623 183.724H224.167V187H222.137V176.696H225.259ZM225.609 181.764C225.917 181.764 226.173 181.713 226.379 181.61C226.584 181.507 226.743 181.377 226.855 181.218C226.976 181.059 227.06 180.896 227.107 180.728C227.163 180.551 227.191 180.387 227.191 180.238C227.191 180.126 227.172 179.986 227.135 179.818C227.107 179.641 227.041 179.463 226.939 179.286C226.836 179.109 226.677 178.959 226.463 178.838C226.257 178.717 225.977 178.656 225.623 178.656H224.167V181.764H225.609ZM227.513 183.024L230.061 187H227.695L225.091 183.08L227.513 183.024ZM234.149 187.168C233.402 187.168 232.768 187.028 232.245 186.748C231.732 186.468 231.34 186.081 231.069 185.586C230.798 185.091 230.663 184.522 230.663 183.878C230.663 183.262 230.822 182.707 231.139 182.212C231.456 181.717 231.881 181.325 232.413 181.036C232.945 180.737 233.538 180.588 234.191 180.588C235.068 180.588 235.787 180.845 236.347 181.358C236.916 181.862 237.285 182.595 237.453 183.556L232.693 185.068L232.259 184.004L235.703 182.842L235.297 183.024C235.222 182.781 235.087 182.571 234.891 182.394C234.704 182.207 234.42 182.114 234.037 182.114C233.748 182.114 233.491 182.184 233.267 182.324C233.052 182.455 232.884 182.646 232.763 182.898C232.651 183.141 232.595 183.43 232.595 183.766C232.595 184.149 232.665 184.471 232.805 184.732C232.945 184.984 233.136 185.175 233.379 185.306C233.622 185.437 233.892 185.502 234.191 185.502C234.406 185.502 234.611 185.465 234.807 185.39C235.012 185.315 235.213 185.217 235.409 185.096L236.277 186.552C235.95 186.739 235.596 186.888 235.213 187C234.84 187.112 234.485 187.168 234.149 187.168ZM241.453 187.168C240.884 187.168 240.366 187.056 239.899 186.832C239.442 186.599 239.078 186.244 238.807 185.768C238.536 185.292 238.401 184.685 238.401 183.948C238.401 183.257 238.541 182.66 238.821 182.156C239.101 181.652 239.47 181.265 239.927 180.994C240.384 180.714 240.87 180.574 241.383 180.574C241.99 180.574 242.447 180.677 242.755 180.882C243.072 181.078 243.334 181.297 243.539 181.54L243.455 181.778L243.637 180.882H245.457V187H243.497V185.67L243.651 186.09C243.632 186.09 243.576 186.146 243.483 186.258C243.39 186.361 243.25 186.487 243.063 186.636C242.886 186.776 242.662 186.897 242.391 187C242.13 187.112 241.817 187.168 241.453 187.168ZM242.013 185.572C242.246 185.572 242.456 185.539 242.643 185.474C242.83 185.399 242.993 185.297 243.133 185.166C243.273 185.026 243.394 184.853 243.497 184.648V183.15C243.422 182.945 243.31 182.772 243.161 182.632C243.012 182.483 242.834 182.371 242.629 182.296C242.424 182.212 242.195 182.17 241.943 182.17C241.663 182.17 241.402 182.245 241.159 182.394C240.926 182.534 240.739 182.73 240.599 182.982C240.459 183.234 240.389 183.523 240.389 183.85C240.389 184.177 240.464 184.471 240.613 184.732C240.762 184.993 240.958 185.199 241.201 185.348C241.453 185.497 241.724 185.572 242.013 185.572ZM249.969 187.168C249.399 187.168 248.891 187.037 248.443 186.776C247.995 186.505 247.64 186.118 247.379 185.614C247.127 185.11 247.001 184.513 247.001 183.822C247.001 183.131 247.141 182.543 247.421 182.058C247.701 181.573 248.083 181.204 248.569 180.952C249.054 180.7 249.605 180.574 250.221 180.574C250.613 180.574 250.986 180.635 251.341 180.756C251.705 180.877 252.008 181.064 252.251 181.316V181.932V175.954H254.197V187H252.237V185.81L252.391 186.23C252.073 186.491 251.719 186.715 251.327 186.902C250.935 187.079 250.482 187.168 249.969 187.168ZM250.613 185.516C250.874 185.516 251.103 185.483 251.299 185.418C251.504 185.343 251.681 185.241 251.831 185.11C251.989 184.97 252.125 184.797 252.237 184.592V183.094C252.162 182.889 252.045 182.716 251.887 182.576C251.737 182.427 251.551 182.315 251.327 182.24C251.112 182.156 250.874 182.114 250.613 182.114C250.323 182.114 250.053 182.189 249.801 182.338C249.558 182.478 249.362 182.674 249.213 182.926C249.063 183.178 248.989 183.467 248.989 183.794C248.989 184.121 249.063 184.415 249.213 184.676C249.362 184.937 249.558 185.143 249.801 185.292C250.053 185.441 250.323 185.516 250.613 185.516ZM256.213 180.882H258.173V187H256.213V180.882ZM256.171 178.712C256.171 178.423 256.283 178.185 256.507 177.998C256.74 177.811 256.988 177.718 257.249 177.718C257.51 177.718 257.748 177.811 257.963 177.998C258.187 178.185 258.299 178.423 258.299 178.712C258.299 179.001 258.187 179.239 257.963 179.426C257.748 179.603 257.51 179.692 257.249 179.692C256.988 179.692 256.74 179.603 256.507 179.426C256.283 179.239 256.171 179.001 256.171 178.712ZM261.97 180.882L262.124 181.974L262.096 181.876C262.31 181.493 262.614 181.185 263.006 180.952C263.398 180.709 263.878 180.588 264.448 180.588C265.026 180.588 265.507 180.761 265.89 181.106C266.282 181.442 266.482 181.881 266.492 182.422V187H264.532V183.15C264.522 182.879 264.448 182.665 264.308 182.506C264.177 182.338 263.953 182.254 263.636 182.254C263.337 182.254 263.076 182.352 262.852 182.548C262.628 182.744 262.455 183.01 262.334 183.346C262.212 183.682 262.152 184.069 262.152 184.508V187H260.192V180.882H261.97ZM271.668 190.08C271.117 190.08 270.651 190.015 270.268 189.884C269.895 189.753 269.577 189.595 269.316 189.408C269.055 189.221 268.821 189.044 268.616 188.876L269.764 187.532C269.979 187.728 270.226 187.915 270.506 188.092C270.795 188.279 271.173 188.372 271.64 188.372C271.948 188.372 272.233 188.316 272.494 188.204C272.765 188.101 272.979 187.947 273.138 187.742C273.306 187.537 273.39 187.28 273.39 186.972V185.628L273.46 185.978C273.311 186.295 273.04 186.575 272.648 186.818C272.256 187.051 271.743 187.168 271.108 187.168C270.557 187.168 270.044 187.028 269.568 186.748C269.101 186.459 268.728 186.071 268.448 185.586C268.168 185.091 268.028 184.531 268.028 183.906C268.028 183.262 268.177 182.693 268.476 182.198C268.775 181.694 269.162 181.297 269.638 181.008C270.114 180.719 270.618 180.574 271.15 180.574C271.682 180.574 272.139 180.653 272.522 180.812C272.914 180.961 273.208 181.148 273.404 181.372L273.334 181.554L273.544 180.882H275.35V187C275.35 187.597 275.182 188.125 274.846 188.582C274.51 189.049 274.062 189.413 273.502 189.674C272.951 189.945 272.34 190.08 271.668 190.08ZM270.002 183.85C270.002 184.177 270.077 184.471 270.226 184.732C270.375 184.993 270.576 185.199 270.828 185.348C271.089 185.497 271.379 185.572 271.696 185.572C271.967 185.572 272.205 185.539 272.41 185.474C272.625 185.399 272.811 185.297 272.97 185.166C273.138 185.026 273.278 184.853 273.39 184.648V183.15C273.306 182.945 273.18 182.772 273.012 182.632C272.844 182.483 272.648 182.371 272.424 182.296C272.209 182.212 271.967 182.17 271.696 182.17C271.379 182.17 271.089 182.245 270.828 182.394C270.576 182.534 270.375 182.73 270.226 182.982C270.077 183.234 270.002 183.523 270.002 183.85ZM143.412 190.696C144.056 190.696 144.63 190.78 145.134 190.948C145.638 191.107 146.058 191.34 146.394 191.648C146.739 191.947 147.001 192.311 147.178 192.74C147.355 193.16 147.444 193.636 147.444 194.168C147.444 194.588 147.379 195.008 147.248 195.428C147.127 195.848 146.921 196.231 146.632 196.576C146.352 196.921 145.979 197.201 145.512 197.416C145.045 197.621 144.467 197.724 143.776 197.724H142.32V201H140.29V190.696H143.412ZM143.762 195.764C144.07 195.764 144.327 195.713 144.532 195.61C144.737 195.507 144.896 195.377 145.008 195.218C145.129 195.059 145.213 194.896 145.26 194.728C145.316 194.551 145.344 194.387 145.344 194.238C145.344 194.126 145.325 193.986 145.288 193.818C145.26 193.641 145.195 193.463 145.092 193.286C144.989 193.109 144.831 192.959 144.616 192.838C144.411 192.717 144.131 192.656 143.776 192.656H142.32V195.764H143.762ZM145.666 197.024L148.214 201H145.848L143.244 197.08L145.666 197.024ZM148.816 197.864C148.816 197.239 148.961 196.679 149.25 196.184C149.549 195.689 149.964 195.302 150.496 195.022C151.028 194.733 151.64 194.588 152.33 194.588C153.03 194.588 153.637 194.733 154.15 195.022C154.664 195.302 155.056 195.689 155.326 196.184C155.606 196.679 155.746 197.239 155.746 197.864C155.746 198.489 155.606 199.054 155.326 199.558C155.056 200.053 154.664 200.445 154.15 200.734C153.637 201.023 153.021 201.168 152.302 201.168C151.63 201.168 151.028 201.037 150.496 200.776C149.974 200.515 149.563 200.137 149.264 199.642C148.966 199.147 148.816 198.555 148.816 197.864ZM150.79 197.878C150.79 198.195 150.856 198.485 150.986 198.746C151.117 198.998 151.294 199.199 151.518 199.348C151.742 199.497 151.994 199.572 152.274 199.572C152.582 199.572 152.848 199.497 153.072 199.348C153.296 199.199 153.469 198.998 153.59 198.746C153.712 198.485 153.772 198.195 153.772 197.878C153.772 197.551 153.712 197.262 153.59 197.01C153.469 196.758 153.296 196.557 153.072 196.408C152.848 196.259 152.582 196.184 152.274 196.184C151.994 196.184 151.742 196.259 151.518 196.408C151.294 196.557 151.117 196.758 150.986 197.01C150.856 197.262 150.79 197.551 150.79 197.878ZM159.866 201.168C159.297 201.168 158.779 201.056 158.312 200.832C157.855 200.599 157.491 200.244 157.22 199.768C156.95 199.292 156.814 198.685 156.814 197.948C156.814 197.257 156.954 196.66 157.234 196.156C157.514 195.652 157.883 195.265 158.34 194.994C158.798 194.714 159.283 194.574 159.796 194.574C160.403 194.574 160.86 194.677 161.168 194.882C161.486 195.078 161.747 195.297 161.952 195.54L161.868 195.778L162.05 194.882H163.87V201H161.91V199.67L162.064 200.09C162.046 200.09 161.99 200.146 161.896 200.258C161.803 200.361 161.663 200.487 161.476 200.636C161.299 200.776 161.075 200.897 160.804 201C160.543 201.112 160.23 201.168 159.866 201.168ZM160.426 199.572C160.66 199.572 160.87 199.539 161.056 199.474C161.243 199.399 161.406 199.297 161.546 199.166C161.686 199.026 161.808 198.853 161.91 198.648V197.15C161.836 196.945 161.724 196.772 161.574 196.632C161.425 196.483 161.248 196.371 161.042 196.296C160.837 196.212 160.608 196.17 160.356 196.17C160.076 196.17 159.815 196.245 159.572 196.394C159.339 196.534 159.152 196.73 159.012 196.982C158.872 197.234 158.802 197.523 158.802 197.85C158.802 198.177 158.877 198.471 159.026 198.732C159.176 198.993 159.372 199.199 159.614 199.348C159.866 199.497 160.137 199.572 160.426 199.572ZM168.382 201.168C167.813 201.168 167.304 201.037 166.856 200.776C166.408 200.505 166.053 200.118 165.792 199.614C165.54 199.11 165.414 198.513 165.414 197.822C165.414 197.131 165.554 196.543 165.834 196.058C166.114 195.573 166.497 195.204 166.982 194.952C167.467 194.7 168.018 194.574 168.634 194.574C169.026 194.574 169.399 194.635 169.754 194.756C170.118 194.877 170.421 195.064 170.664 195.316V195.932V189.954H172.61V201H170.65V199.81L170.804 200.23C170.487 200.491 170.132 200.715 169.74 200.902C169.348 201.079 168.895 201.168 168.382 201.168ZM169.026 199.516C169.287 199.516 169.516 199.483 169.712 199.418C169.917 199.343 170.095 199.241 170.244 199.11C170.403 198.97 170.538 198.797 170.65 198.592V197.094C170.575 196.889 170.459 196.716 170.3 196.576C170.151 196.427 169.964 196.315 169.74 196.24C169.525 196.156 169.287 196.114 169.026 196.114C168.737 196.114 168.466 196.189 168.214 196.338C167.971 196.478 167.775 196.674 167.626 196.926C167.477 197.178 167.402 197.467 167.402 197.794C167.402 198.121 167.477 198.415 167.626 198.676C167.775 198.937 167.971 199.143 168.214 199.292C168.466 199.441 168.737 199.516 169.026 199.516ZM176.404 194.882L176.558 195.96L176.53 195.876C176.773 195.465 177.076 195.148 177.44 194.924C177.804 194.691 178.243 194.574 178.756 194.574C179.092 194.574 179.386 194.621 179.638 194.714C179.899 194.807 180.119 194.947 180.296 195.134C180.473 195.311 180.595 195.545 180.66 195.834L180.59 195.848C180.851 195.465 181.164 195.157 181.528 194.924C181.901 194.691 182.289 194.574 182.69 194.574C183.297 194.574 183.777 194.747 184.132 195.092C184.496 195.428 184.683 195.867 184.692 196.408V201H182.746V197.22C182.737 196.949 182.695 196.73 182.62 196.562C182.545 196.385 182.373 196.287 182.102 196.268C181.785 196.268 181.514 196.38 181.29 196.604C181.075 196.819 180.912 197.099 180.8 197.444C180.697 197.78 180.646 198.13 180.646 198.494V201H178.686V197.22C178.677 196.949 178.625 196.73 178.532 196.562C178.448 196.385 178.271 196.287 178 196.268C177.692 196.268 177.431 196.38 177.216 196.604C177.011 196.819 176.852 197.094 176.74 197.43C176.637 197.766 176.586 198.111 176.586 198.466V201H174.626V194.882H176.404ZM189.288 201.168C188.719 201.168 188.201 201.056 187.734 200.832C187.277 200.599 186.913 200.244 186.642 199.768C186.371 199.292 186.236 198.685 186.236 197.948C186.236 197.257 186.376 196.66 186.656 196.156C186.936 195.652 187.305 195.265 187.762 194.994C188.219 194.714 188.705 194.574 189.218 194.574C189.825 194.574 190.282 194.677 190.59 194.882C190.907 195.078 191.169 195.297 191.374 195.54L191.29 195.778L191.472 194.882H193.292V201H191.332V199.67L191.486 200.09C191.467 200.09 191.411 200.146 191.318 200.258C191.225 200.361 191.085 200.487 190.898 200.636C190.721 200.776 190.497 200.897 190.226 201C189.965 201.112 189.652 201.168 189.288 201.168ZM189.848 199.572C190.081 199.572 190.291 199.539 190.478 199.474C190.665 199.399 190.828 199.297 190.968 199.166C191.108 199.026 191.229 198.853 191.332 198.648V197.15C191.257 196.945 191.145 196.772 190.996 196.632C190.847 196.483 190.669 196.371 190.464 196.296C190.259 196.212 190.03 196.17 189.778 196.17C189.498 196.17 189.237 196.245 188.994 196.394C188.761 196.534 188.574 196.73 188.434 196.982C188.294 197.234 188.224 197.523 188.224 197.85C188.224 198.177 188.299 198.471 188.448 198.732C188.597 198.993 188.793 199.199 189.036 199.348C189.288 199.497 189.559 199.572 189.848 199.572ZM199.148 201.168C198.784 201.168 198.424 201.103 198.07 200.972C197.724 200.832 197.435 200.636 197.202 200.384L197.258 199.81V203.94H195.312V194.742H196.992L197.272 195.932L197.118 195.512C197.435 195.241 197.79 195.017 198.182 194.84C198.574 194.663 199.026 194.574 199.54 194.574C200.109 194.574 200.618 194.709 201.066 194.98C201.514 195.241 201.864 195.624 202.116 196.128C202.377 196.623 202.508 197.22 202.508 197.92C202.508 198.611 202.363 199.199 202.074 199.684C201.784 200.169 201.388 200.538 200.884 200.79C200.38 201.042 199.801 201.168 199.148 201.168ZM198.756 199.628C199.073 199.628 199.362 199.558 199.624 199.418C199.894 199.278 200.109 199.082 200.268 198.83C200.436 198.569 200.52 198.275 200.52 197.948C200.52 197.603 200.445 197.304 200.296 197.052C200.156 196.791 199.96 196.59 199.708 196.45C199.465 196.301 199.194 196.226 198.896 196.226C198.634 196.226 198.401 196.263 198.196 196.338C198 196.403 197.822 196.506 197.664 196.646C197.514 196.777 197.384 196.945 197.272 197.15V198.648C197.346 198.844 197.454 199.017 197.594 199.166C197.734 199.315 197.902 199.432 198.098 199.516C198.303 199.591 198.522 199.628 198.756 199.628Z" fill="black"/>
<path d="M118.639 228.696C119.488 228.696 120.207 228.841 120.795 229.13C121.383 229.41 121.831 229.811 122.139 230.334C122.447 230.847 122.601 231.459 122.601 232.168C122.601 232.588 122.535 233.013 122.405 233.442C122.283 233.862 122.083 234.245 121.803 234.59C121.532 234.935 121.163 235.215 120.697 235.43C120.239 235.635 119.675 235.738 119.003 235.738H117.547V239H115.517V228.696H118.639ZM118.989 233.764C119.297 233.764 119.553 233.713 119.759 233.61C119.964 233.498 120.123 233.363 120.235 233.204C120.356 233.036 120.44 232.863 120.487 232.686C120.543 232.509 120.571 232.355 120.571 232.224C120.571 232.121 120.552 231.986 120.515 231.818C120.487 231.641 120.421 231.463 120.319 231.286C120.216 231.109 120.057 230.959 119.843 230.838C119.637 230.717 119.357 230.656 119.003 230.656H117.547V233.764H118.989ZM126.671 239.168C126.102 239.168 125.584 239.056 125.117 238.832C124.66 238.599 124.296 238.244 124.025 237.768C123.754 237.292 123.619 236.685 123.619 235.948C123.619 235.257 123.759 234.66 124.039 234.156C124.319 233.652 124.688 233.265 125.145 232.994C125.602 232.714 126.088 232.574 126.601 232.574C127.208 232.574 127.665 232.677 127.973 232.882C128.29 233.078 128.552 233.297 128.757 233.54L128.673 233.778L128.855 232.882H130.675V239H128.715V237.67L128.869 238.09C128.85 238.09 128.794 238.146 128.701 238.258C128.608 238.361 128.468 238.487 128.281 238.636C128.104 238.776 127.88 238.897 127.609 239C127.348 239.112 127.035 239.168 126.671 239.168ZM127.231 237.572C127.464 237.572 127.674 237.539 127.861 237.474C128.048 237.399 128.211 237.297 128.351 237.166C128.491 237.026 128.612 236.853 128.715 236.648V235.15C128.64 234.945 128.528 234.772 128.379 234.632C128.23 234.483 128.052 234.371 127.847 234.296C127.642 234.212 127.413 234.17 127.161 234.17C126.881 234.17 126.62 234.245 126.377 234.394C126.144 234.534 125.957 234.73 125.817 234.982C125.677 235.234 125.607 235.523 125.607 235.85C125.607 236.177 125.682 236.471 125.831 236.732C125.98 236.993 126.176 237.199 126.419 237.348C126.671 237.497 126.942 237.572 127.231 237.572ZM136.531 239.168C136.167 239.168 135.807 239.103 135.453 238.972C135.107 238.832 134.818 238.636 134.585 238.384L134.641 237.81V241.94H132.695V232.742H134.375L134.655 233.932L134.501 233.512C134.818 233.241 135.173 233.017 135.565 232.84C135.957 232.663 136.409 232.574 136.923 232.574C137.492 232.574 138.001 232.709 138.449 232.98C138.897 233.241 139.247 233.624 139.499 234.128C139.76 234.623 139.891 235.22 139.891 235.92C139.891 236.611 139.746 237.199 139.457 237.684C139.167 238.169 138.771 238.538 138.267 238.79C137.763 239.042 137.184 239.168 136.531 239.168ZM136.139 237.628C136.456 237.628 136.745 237.558 137.007 237.418C137.277 237.278 137.492 237.082 137.651 236.83C137.819 236.569 137.903 236.275 137.903 235.948C137.903 235.603 137.828 235.304 137.679 235.052C137.539 234.791 137.343 234.59 137.091 234.45C136.848 234.301 136.577 234.226 136.279 234.226C136.017 234.226 135.784 234.263 135.579 234.338C135.383 234.403 135.205 234.506 135.047 234.646C134.897 234.777 134.767 234.945 134.655 235.15V236.648C134.729 236.844 134.837 237.017 134.977 237.166C135.117 237.315 135.285 237.432 135.481 237.516C135.686 237.591 135.905 237.628 136.139 237.628ZM144.441 239.168C143.694 239.168 143.06 239.028 142.537 238.748C142.024 238.468 141.632 238.081 141.361 237.586C141.09 237.091 140.955 236.522 140.955 235.878C140.955 235.262 141.114 234.707 141.431 234.212C141.748 233.717 142.173 233.325 142.705 233.036C143.237 232.737 143.83 232.588 144.483 232.588C145.36 232.588 146.079 232.845 146.639 233.358C147.208 233.862 147.577 234.595 147.745 235.556L142.985 237.068L142.551 236.004L145.995 234.842L145.589 235.024C145.514 234.781 145.379 234.571 145.183 234.394C144.996 234.207 144.712 234.114 144.329 234.114C144.04 234.114 143.783 234.184 143.559 234.324C143.344 234.455 143.176 234.646 143.055 234.898C142.943 235.141 142.887 235.43 142.887 235.766C142.887 236.149 142.957 236.471 143.097 236.732C143.237 236.984 143.428 237.175 143.671 237.306C143.914 237.437 144.184 237.502 144.483 237.502C144.698 237.502 144.903 237.465 145.099 237.39C145.304 237.315 145.505 237.217 145.701 237.096L146.569 238.552C146.242 238.739 145.888 238.888 145.505 239C145.132 239.112 144.777 239.168 144.441 239.168ZM150.933 232.882L151.115 234.562L151.073 234.31C151.25 233.946 151.493 233.638 151.801 233.386C152.109 233.125 152.412 232.924 152.711 232.784C153.019 232.644 153.252 232.574 153.411 232.574L153.313 234.534C152.856 234.478 152.464 234.553 152.137 234.758C151.81 234.963 151.558 235.234 151.381 235.57C151.204 235.906 151.115 236.251 151.115 236.606V239H149.169V232.882H150.933ZM156.899 239.126C156.395 239.126 155.924 239.037 155.485 238.86C155.056 238.683 154.692 238.435 154.393 238.118L155.205 237.04C155.504 237.311 155.779 237.507 156.031 237.628C156.293 237.74 156.526 237.796 156.731 237.796C156.89 237.796 157.03 237.782 157.151 237.754C157.282 237.717 157.385 237.665 157.459 237.6C157.534 237.525 157.571 237.432 157.571 237.32C157.571 237.161 157.506 237.035 157.375 236.942C157.254 236.849 157.095 236.774 156.899 236.718C156.703 236.653 156.493 236.587 156.269 236.522C155.709 236.345 155.303 236.088 155.051 235.752C154.809 235.407 154.687 235.033 154.687 234.632C154.687 234.324 154.767 234.016 154.925 233.708C155.093 233.391 155.355 233.129 155.709 232.924C156.073 232.709 156.54 232.602 157.109 232.602C157.623 232.602 158.057 232.653 158.411 232.756C158.766 232.859 159.102 233.027 159.419 233.26L158.677 234.408C158.5 234.268 158.299 234.151 158.075 234.058C157.861 233.955 157.66 233.899 157.473 233.89C157.305 233.881 157.161 233.899 157.039 233.946C156.927 233.993 156.839 234.053 156.773 234.128C156.708 234.203 156.675 234.282 156.675 234.366C156.666 234.543 156.731 234.683 156.871 234.786C157.021 234.889 157.207 234.968 157.431 235.024C157.655 235.08 157.875 235.145 158.089 235.22C158.388 235.313 158.645 235.439 158.859 235.598C159.074 235.757 159.237 235.948 159.349 236.172C159.471 236.387 159.531 236.648 159.531 236.956C159.531 237.329 159.433 237.684 159.237 238.02C159.051 238.347 158.761 238.613 158.369 238.818C157.987 239.023 157.497 239.126 156.899 239.126ZM170.094 232.882L171.438 236.032L171.074 236.06L172.25 232.882H174.154L171.396 239.364L169.436 235.304L167.644 239.364L164.858 232.882H166.762L168.246 236.284L167.574 236.186L168.75 233.582L168.428 232.882H170.094ZM175.296 232.882H177.256V239H175.296V232.882ZM175.254 230.712C175.254 230.423 175.366 230.185 175.59 229.998C175.823 229.811 176.071 229.718 176.332 229.718C176.593 229.718 176.831 229.811 177.046 229.998C177.27 230.185 177.382 230.423 177.382 230.712C177.382 231.001 177.27 231.239 177.046 231.426C176.831 231.603 176.593 231.692 176.332 231.692C176.071 231.692 175.823 231.603 175.59 231.426C175.366 231.239 175.254 231.001 175.254 230.712ZM179.849 230.194H181.809V232.854H183.293V234.38H181.809V239H179.849V234.38H178.897V232.854H179.849V230.194ZM184.784 239V227.954H186.702V234.114L186.688 233.876C186.903 233.493 187.206 233.185 187.598 232.952C187.99 232.709 188.471 232.588 189.04 232.588C189.619 232.588 190.1 232.761 190.482 233.106C190.874 233.442 191.075 233.881 191.084 234.422V239H189.124V235.15C189.115 234.879 189.04 234.665 188.9 234.506C188.77 234.338 188.546 234.254 188.228 234.254C187.93 234.254 187.668 234.352 187.444 234.548C187.22 234.744 187.048 235.01 186.926 235.346C186.805 235.682 186.744 236.069 186.744 236.508V239H184.784ZM202.844 238.454C202.573 238.669 202.232 238.841 201.822 238.972C201.42 239.103 201.024 239.168 200.632 239.168C199.932 239.168 199.32 239.042 198.798 238.79C198.284 238.529 197.883 238.16 197.594 237.684C197.314 237.199 197.174 236.615 197.174 235.934C197.174 235.253 197.328 234.674 197.636 234.198C197.944 233.713 198.345 233.344 198.84 233.092C199.344 232.84 199.871 232.714 200.422 232.714C200.972 232.714 201.448 232.789 201.85 232.938C202.26 233.087 202.61 233.283 202.9 233.526L201.948 234.786C201.817 234.683 201.635 234.581 201.402 234.478C201.178 234.366 200.912 234.31 200.604 234.31C200.333 234.31 200.086 234.38 199.862 234.52C199.638 234.66 199.46 234.851 199.33 235.094C199.199 235.337 199.134 235.617 199.134 235.934C199.134 236.233 199.204 236.508 199.344 236.76C199.484 237.012 199.675 237.213 199.918 237.362C200.17 237.502 200.464 237.572 200.8 237.572C201.014 237.572 201.21 237.544 201.388 237.488C201.574 237.423 201.733 237.334 201.864 237.222L202.844 238.454ZM203.873 235.864C203.873 235.239 204.017 234.679 204.307 234.184C204.605 233.689 205.021 233.302 205.553 233.022C206.085 232.733 206.696 232.588 207.387 232.588C208.087 232.588 208.693 232.733 209.207 233.022C209.72 233.302 210.112 233.689 210.383 234.184C210.663 234.679 210.803 235.239 210.803 235.864C210.803 236.489 210.663 237.054 210.383 237.558C210.112 238.053 209.72 238.445 209.207 238.734C208.693 239.023 208.077 239.168 207.359 239.168C206.687 239.168 206.085 239.037 205.553 238.776C205.03 238.515 204.619 238.137 204.321 237.642C204.022 237.147 203.873 236.555 203.873 235.864ZM205.847 235.878C205.847 236.195 205.912 236.485 206.043 236.746C206.173 236.998 206.351 237.199 206.575 237.348C206.799 237.497 207.051 237.572 207.331 237.572C207.639 237.572 207.905 237.497 208.129 237.348C208.353 237.199 208.525 236.998 208.647 236.746C208.768 236.485 208.829 236.195 208.829 235.878C208.829 235.551 208.768 235.262 208.647 235.01C208.525 234.758 208.353 234.557 208.129 234.408C207.905 234.259 207.639 234.184 207.331 234.184C207.051 234.184 206.799 234.259 206.575 234.408C206.351 234.557 206.173 234.758 206.043 235.01C205.912 235.262 205.847 235.551 205.847 235.878ZM214.839 239.168C214.27 239.168 213.761 239.037 213.313 238.776C212.865 238.505 212.51 238.118 212.249 237.614C211.997 237.11 211.871 236.513 211.871 235.822C211.871 235.131 212.011 234.543 212.291 234.058C212.571 233.573 212.954 233.204 213.439 232.952C213.924 232.7 214.475 232.574 215.091 232.574C215.483 232.574 215.856 232.635 216.211 232.756C216.575 232.877 216.878 233.064 217.121 233.316V233.932V227.954H219.067V239H217.107V237.81L217.261 238.23C216.944 238.491 216.589 238.715 216.197 238.902C215.805 239.079 215.352 239.168 214.839 239.168ZM215.483 237.516C215.744 237.516 215.973 237.483 216.169 237.418C216.374 237.343 216.552 237.241 216.701 237.11C216.86 236.97 216.995 236.797 217.107 236.592V235.094C217.032 234.889 216.916 234.716 216.757 234.576C216.608 234.427 216.421 234.315 216.197 234.24C215.982 234.156 215.744 234.114 215.483 234.114C215.194 234.114 214.923 234.189 214.671 234.338C214.428 234.478 214.232 234.674 214.083 234.926C213.934 235.178 213.859 235.467 213.859 235.794C213.859 236.121 213.934 236.415 214.083 236.676C214.232 236.937 214.428 237.143 214.671 237.292C214.923 237.441 215.194 237.516 215.483 237.516ZM224.093 239.168C223.347 239.168 222.712 239.028 222.189 238.748C221.676 238.468 221.284 238.081 221.013 237.586C220.743 237.091 220.607 236.522 220.607 235.878C220.607 235.262 220.766 234.707 221.083 234.212C221.401 233.717 221.825 233.325 222.357 233.036C222.889 232.737 223.482 232.588 224.135 232.588C225.013 232.588 225.731 232.845 226.291 233.358C226.861 233.862 227.229 234.595 227.397 235.556L222.637 237.068L222.203 236.004L225.647 234.842L225.241 235.024C225.167 234.781 225.031 234.571 224.835 234.394C224.649 234.207 224.364 234.114 223.981 234.114C223.692 234.114 223.435 234.184 223.211 234.324C222.997 234.455 222.829 234.646 222.707 234.898C222.595 235.141 222.539 235.43 222.539 235.766C222.539 236.149 222.609 236.471 222.749 236.732C222.889 236.984 223.081 237.175 223.323 237.306C223.566 237.437 223.837 237.502 224.135 237.502C224.35 237.502 224.555 237.465 224.751 237.39C224.957 237.315 225.157 237.217 225.353 237.096L226.221 238.552C225.895 238.739 225.54 238.888 225.157 239C224.784 239.112 224.429 239.168 224.093 239.168Z" fill="black"/>
<path d="M72.5604 268.696C73.4097 268.696 74.1284 268.841 74.7164 269.13C75.3044 269.41 75.7524 269.811 76.0604 270.334C76.3684 270.847 76.5224 271.459 76.5224 272.168C76.5224 272.588 76.4571 273.013 76.3264 273.442C76.2051 273.862 76.0044 274.245 75.7244 274.59C75.4537 274.935 75.0851 275.215 74.6184 275.43C74.1611 275.635 73.5964 275.738 72.9244 275.738H71.4684V279H69.4384V268.696H72.5604ZM72.9104 273.764C73.2184 273.764 73.4751 273.713 73.6804 273.61C73.8857 273.498 74.0444 273.363 74.1564 273.204C74.2777 273.036 74.3617 272.863 74.4084 272.686C74.4644 272.509 74.4924 272.355 74.4924 272.224C74.4924 272.121 74.4737 271.986 74.4364 271.818C74.4084 271.641 74.3431 271.463 74.2404 271.286C74.1377 271.109 73.9791 270.959 73.7644 270.838C73.5591 270.717 73.2791 270.656 72.9244 270.656H71.4684V273.764H72.9104ZM80.5928 279.168C80.0235 279.168 79.5055 279.056 79.0388 278.832C78.5815 278.599 78.2175 278.244 77.9468 277.768C77.6761 277.292 77.5408 276.685 77.5408 275.948C77.5408 275.257 77.6808 274.66 77.9608 274.156C78.2408 273.652 78.6095 273.265 79.0668 272.994C79.5241 272.714 80.0095 272.574 80.5228 272.574C81.1295 272.574 81.5868 272.677 81.8948 272.882C82.2121 273.078 82.4735 273.297 82.6788 273.54L82.5948 273.778L82.7768 272.882H84.5968V279H82.6368V277.67L82.7908 278.09C82.7721 278.09 82.7161 278.146 82.6228 278.258C82.5295 278.361 82.3895 278.487 82.2028 278.636C82.0255 278.776 81.8015 278.897 81.5308 279C81.2695 279.112 80.9568 279.168 80.5928 279.168ZM81.1528 277.572C81.3861 277.572 81.5961 277.539 81.7828 277.474C81.9695 277.399 82.1328 277.297 82.2728 277.166C82.4128 277.026 82.5341 276.853 82.6368 276.648V275.15C82.5621 274.945 82.4501 274.772 82.3008 274.632C82.1515 274.483 81.9741 274.371 81.7688 274.296C81.5635 274.212 81.3348 274.17 81.0828 274.17C80.8028 274.17 80.5415 274.245 80.2988 274.394C80.0655 274.534 79.8788 274.73 79.7388 274.982C79.5988 275.234 79.5288 275.523 79.5288 275.85C79.5288 276.177 79.6035 276.471 79.7528 276.732C79.9021 276.993 80.0981 277.199 80.3408 277.348C80.5928 277.497 80.8635 277.572 81.1528 277.572ZM90.4524 279.168C90.0884 279.168 89.7291 279.103 89.3744 278.972C89.0291 278.832 88.7397 278.636 88.5064 278.384L88.5624 277.81V281.94H86.6164V272.742H88.2964L88.5764 273.932L88.4224 273.512C88.7397 273.241 89.0944 273.017 89.4864 272.84C89.8784 272.663 90.3311 272.574 90.8444 272.574C91.4137 272.574 91.9224 272.709 92.3704 272.98C92.8184 273.241 93.1684 273.624 93.4204 274.128C93.6817 274.623 93.8124 275.22 93.8124 275.92C93.8124 276.611 93.6677 277.199 93.3784 277.684C93.0891 278.169 92.6924 278.538 92.1884 278.79C91.6844 279.042 91.1057 279.168 90.4524 279.168ZM90.0604 277.628C90.3777 277.628 90.6671 277.558 90.9284 277.418C91.1991 277.278 91.4137 277.082 91.5724 276.83C91.7404 276.569 91.8244 276.275 91.8244 275.948C91.8244 275.603 91.7497 275.304 91.6004 275.052C91.4604 274.791 91.2644 274.59 91.0124 274.45C90.7697 274.301 90.4991 274.226 90.2004 274.226C89.9391 274.226 89.7057 274.263 89.5004 274.338C89.3044 274.403 89.1271 274.506 88.9684 274.646C88.8191 274.777 88.6884 274.945 88.5764 275.15V276.648C88.6511 276.844 88.7584 277.017 88.8984 277.166C89.0384 277.315 89.2064 277.432 89.4024 277.516C89.6077 277.591 89.8271 277.628 90.0604 277.628ZM98.3627 279.168C97.6161 279.168 96.9814 279.028 96.4587 278.748C95.9454 278.468 95.5534 278.081 95.2827 277.586C95.0121 277.091 94.8767 276.522 94.8767 275.878C94.8767 275.262 95.0354 274.707 95.3527 274.212C95.6701 273.717 96.0947 273.325 96.6267 273.036C97.1587 272.737 97.7514 272.588 98.4047 272.588C99.2821 272.588 100.001 272.845 100.561 273.358C101.13 273.862 101.499 274.595 101.667 275.556L96.9067 277.068L96.4727 276.004L99.9167 274.842L99.5107 275.024C99.4361 274.781 99.3007 274.571 99.1047 274.394C98.9181 274.207 98.6334 274.114 98.2507 274.114C97.9614 274.114 97.7047 274.184 97.4807 274.324C97.2661 274.455 97.0981 274.646 96.9767 274.898C96.8647 275.141 96.8087 275.43 96.8087 275.766C96.8087 276.149 96.8787 276.471 97.0187 276.732C97.1587 276.984 97.3501 277.175 97.5927 277.306C97.8354 277.437 98.1061 277.502 98.4047 277.502C98.6194 277.502 98.8247 277.465 99.0207 277.39C99.2261 277.315 99.4267 277.217 99.6227 277.096L100.491 278.552C100.164 278.739 99.8094 278.888 99.4267 279C99.0534 279.112 98.6987 279.168 98.3627 279.168ZM104.855 272.882L105.037 274.562L104.995 274.31C105.172 273.946 105.415 273.638 105.723 273.386C106.031 273.125 106.334 272.924 106.633 272.784C106.941 272.644 107.174 272.574 107.333 272.574L107.235 274.534C106.778 274.478 106.386 274.553 106.059 274.758C105.732 274.963 105.48 275.234 105.303 275.57C105.126 275.906 105.037 276.251 105.037 276.606V279H103.091V272.882H104.855ZM110.821 279.126C110.317 279.126 109.846 279.037 109.407 278.86C108.978 278.683 108.614 278.435 108.315 278.118L109.127 277.04C109.426 277.311 109.701 277.507 109.953 277.628C110.215 277.74 110.448 277.796 110.653 277.796C110.812 277.796 110.952 277.782 111.073 277.754C111.204 277.717 111.307 277.665 111.381 277.6C111.456 277.525 111.493 277.432 111.493 277.32C111.493 277.161 111.428 277.035 111.297 276.942C111.176 276.849 111.017 276.774 110.821 276.718C110.625 276.653 110.415 276.587 110.191 276.522C109.631 276.345 109.225 276.088 108.973 275.752C108.731 275.407 108.609 275.033 108.609 274.632C108.609 274.324 108.689 274.016 108.847 273.708C109.015 273.391 109.277 273.129 109.631 272.924C109.995 272.709 110.462 272.602 111.031 272.602C111.545 272.602 111.979 272.653 112.333 272.756C112.688 272.859 113.024 273.027 113.341 273.26L112.599 274.408C112.422 274.268 112.221 274.151 111.997 274.058C111.783 273.955 111.582 273.899 111.395 273.89C111.227 273.881 111.083 273.899 110.961 273.946C110.849 273.993 110.761 274.053 110.695 274.128C110.63 274.203 110.597 274.282 110.597 274.366C110.588 274.543 110.653 274.683 110.793 274.786C110.943 274.889 111.129 274.968 111.353 275.024C111.577 275.08 111.797 275.145 112.011 275.22C112.31 275.313 112.567 275.439 112.781 275.598C112.996 275.757 113.159 275.948 113.271 276.172C113.393 276.387 113.453 276.648 113.453 276.956C113.453 277.329 113.355 277.684 113.159 278.02C112.973 278.347 112.683 278.613 112.291 278.818C111.909 279.023 111.419 279.126 110.821 279.126ZM124.016 272.882L125.36 276.032L124.996 276.06L126.172 272.882H128.076L125.318 279.364L123.358 275.304L121.566 279.364L118.78 272.882H120.684L122.168 276.284L121.496 276.186L122.672 273.582L122.35 272.882H124.016ZM129.218 272.882H131.178V279H129.218V272.882ZM129.176 270.712C129.176 270.423 129.288 270.185 129.512 269.998C129.745 269.811 129.993 269.718 130.254 269.718C130.515 269.718 130.753 269.811 130.968 269.998C131.192 270.185 131.304 270.423 131.304 270.712C131.304 271.001 131.192 271.239 130.968 271.426C130.753 271.603 130.515 271.692 130.254 271.692C129.993 271.692 129.745 271.603 129.512 271.426C129.288 271.239 129.176 271.001 129.176 270.712ZM133.77 270.194H135.73V272.854H137.214V274.38H135.73V279H133.77V274.38H132.818V272.854H133.77V270.194ZM138.706 279V267.954H140.624V274.114L140.61 273.876C140.825 273.493 141.128 273.185 141.52 272.952C141.912 272.709 142.393 272.588 142.962 272.588C143.541 272.588 144.022 272.761 144.404 273.106C144.796 273.442 144.997 273.881 145.006 274.422V279H143.046V275.15C143.037 274.879 142.962 274.665 142.822 274.506C142.692 274.338 142.468 274.254 142.15 274.254C141.852 274.254 141.59 274.352 141.366 274.548C141.142 274.744 140.97 275.01 140.848 275.346C140.727 275.682 140.666 276.069 140.666 276.508V279H138.706ZM156.765 278.454C156.495 278.669 156.154 278.841 155.743 278.972C155.342 279.103 154.945 279.168 154.553 279.168C153.853 279.168 153.242 279.042 152.719 278.79C152.206 278.529 151.805 278.16 151.515 277.684C151.235 277.199 151.095 276.615 151.095 275.934C151.095 275.253 151.249 274.674 151.557 274.198C151.865 273.713 152.267 273.344 152.761 273.092C153.265 272.84 153.793 272.714 154.343 272.714C154.894 272.714 155.37 272.789 155.771 272.938C156.182 273.087 156.532 273.283 156.821 273.526L155.869 274.786C155.739 274.683 155.557 274.581 155.323 274.478C155.099 274.366 154.833 274.31 154.525 274.31C154.255 274.31 154.007 274.38 153.783 274.52C153.559 274.66 153.382 274.851 153.251 275.094C153.121 275.337 153.055 275.617 153.055 275.934C153.055 276.233 153.125 276.508 153.265 276.76C153.405 277.012 153.597 277.213 153.839 277.362C154.091 277.502 154.385 277.572 154.721 277.572C154.936 277.572 155.132 277.544 155.309 277.488C155.496 277.423 155.655 277.334 155.785 277.222L156.765 278.454ZM157.795 275.864C157.795 275.239 157.939 274.679 158.229 274.184C158.527 273.689 158.943 273.302 159.475 273.022C160.007 272.733 160.618 272.588 161.309 272.588C162.009 272.588 162.615 272.733 163.129 273.022C163.642 273.302 164.034 273.689 164.305 274.184C164.585 274.679 164.725 275.239 164.725 275.864C164.725 276.489 164.585 277.054 164.305 277.558C164.034 278.053 163.642 278.445 163.129 278.734C162.615 279.023 161.999 279.168 161.281 279.168C160.609 279.168 160.007 279.037 159.475 278.776C158.952 278.515 158.541 278.137 158.243 277.642C157.944 277.147 157.795 276.555 157.795 275.864ZM159.769 275.878C159.769 276.195 159.834 276.485 159.965 276.746C160.095 276.998 160.273 277.199 160.497 277.348C160.721 277.497 160.973 277.572 161.253 277.572C161.561 277.572 161.827 277.497 162.051 277.348C162.275 277.199 162.447 276.998 162.569 276.746C162.69 276.485 162.751 276.195 162.751 275.878C162.751 275.551 162.69 275.262 162.569 275.01C162.447 274.758 162.275 274.557 162.051 274.408C161.827 274.259 161.561 274.184 161.253 274.184C160.973 274.184 160.721 274.259 160.497 274.408C160.273 274.557 160.095 274.758 159.965 275.01C159.834 275.262 159.769 275.551 159.769 275.878ZM168.761 279.168C168.191 279.168 167.683 279.037 167.235 278.776C166.787 278.505 166.432 278.118 166.171 277.614C165.919 277.11 165.793 276.513 165.793 275.822C165.793 275.131 165.933 274.543 166.213 274.058C166.493 273.573 166.875 273.204 167.361 272.952C167.846 272.7 168.397 272.574 169.013 272.574C169.405 272.574 169.778 272.635 170.133 272.756C170.497 272.877 170.8 273.064 171.043 273.316V273.932V267.954H172.989V279H171.029V277.81L171.183 278.23C170.865 278.491 170.511 278.715 170.119 278.902C169.727 279.079 169.274 279.168 168.761 279.168ZM169.405 277.516C169.666 277.516 169.895 277.483 170.091 277.418C170.296 277.343 170.473 277.241 170.623 277.11C170.781 276.97 170.917 276.797 171.029 276.592V275.094C170.954 274.889 170.837 274.716 170.679 274.576C170.529 274.427 170.343 274.315 170.119 274.24C169.904 274.156 169.666 274.114 169.405 274.114C169.115 274.114 168.845 274.189 168.593 274.338C168.35 274.478 168.154 274.674 168.005 274.926C167.855 275.178 167.781 275.467 167.781 275.794C167.781 276.121 167.855 276.415 168.005 276.676C168.154 276.937 168.35 277.143 168.593 277.292C168.845 277.441 169.115 277.516 169.405 277.516ZM178.015 279.168C177.268 279.168 176.634 279.028 176.111 278.748C175.598 278.468 175.206 278.081 174.935 277.586C174.664 277.091 174.529 276.522 174.529 275.878C174.529 275.262 174.688 274.707 175.005 274.212C175.322 273.717 175.747 273.325 176.279 273.036C176.811 272.737 177.404 272.588 178.057 272.588C178.934 272.588 179.653 272.845 180.213 273.358C180.782 273.862 181.151 274.595 181.319 275.556L176.559 277.068L176.125 276.004L179.569 274.842L179.163 275.024C179.088 274.781 178.953 274.571 178.757 274.394C178.57 274.207 178.286 274.114 177.903 274.114C177.614 274.114 177.357 274.184 177.133 274.324C176.918 274.455 176.75 274.646 176.629 274.898C176.517 275.141 176.461 275.43 176.461 275.766C176.461 276.149 176.531 276.471 176.671 276.732C176.811 276.984 177.002 277.175 177.245 277.306C177.488 277.437 177.758 277.502 178.057 277.502C178.272 277.502 178.477 277.465 178.673 277.39C178.878 277.315 179.079 277.217 179.275 277.096L180.143 278.552C179.816 278.739 179.462 278.888 179.079 279C178.706 279.112 178.351 279.168 178.015 279.168ZM187.044 274.94H189.676V276.648H187.044V274.94ZM198.116 279.126C197.612 279.126 197.141 279.037 196.702 278.86C196.273 278.683 195.909 278.435 195.61 278.118L196.422 277.04C196.721 277.311 196.996 277.507 197.248 277.628C197.509 277.74 197.743 277.796 197.948 277.796C198.107 277.796 198.247 277.782 198.368 277.754C198.499 277.717 198.601 277.665 198.676 277.6C198.751 277.525 198.788 277.432 198.788 277.32C198.788 277.161 198.723 277.035 198.592 276.942C198.471 276.849 198.312 276.774 198.116 276.718C197.92 276.653 197.71 276.587 197.486 276.522C196.926 276.345 196.52 276.088 196.268 275.752C196.025 275.407 195.904 275.033 195.904 274.632C195.904 274.324 195.983 274.016 196.142 273.708C196.31 273.391 196.571 273.129 196.926 272.924C197.29 272.709 197.757 272.602 198.326 272.602C198.839 272.602 199.273 272.653 199.628 272.756C199.983 272.859 200.319 273.027 200.636 273.26L199.894 274.408C199.717 274.268 199.516 274.151 199.292 274.058C199.077 273.955 198.877 273.899 198.69 273.89C198.522 273.881 198.377 273.899 198.256 273.946C198.144 273.993 198.055 274.053 197.99 274.128C197.925 274.203 197.892 274.282 197.892 274.366C197.883 274.543 197.948 274.683 198.088 274.786C198.237 274.889 198.424 274.968 198.648 275.024C198.872 275.08 199.091 275.145 199.306 275.22C199.605 275.313 199.861 275.439 200.076 275.598C200.291 275.757 200.454 275.948 200.566 276.172C200.687 276.387 200.748 276.648 200.748 276.956C200.748 277.329 200.65 277.684 200.454 278.02C200.267 278.347 199.978 278.613 199.586 278.818C199.203 279.023 198.713 279.126 198.116 279.126ZM202.964 270.194H204.924V272.854H206.408V274.38H204.924V279H202.964V274.38H202.012V272.854H202.964V270.194ZM210.476 279.168C209.906 279.168 209.388 279.056 208.922 278.832C208.464 278.599 208.1 278.244 207.83 277.768C207.559 277.292 207.424 276.685 207.424 275.948C207.424 275.257 207.564 274.66 207.844 274.156C208.124 273.652 208.492 273.265 208.95 272.994C209.407 272.714 209.892 272.574 210.406 272.574C211.012 272.574 211.47 272.677 211.778 272.882C212.095 273.078 212.356 273.297 212.562 273.54L212.478 273.778L212.66 272.882H214.48V279H212.52V277.67L212.674 278.09C212.655 278.09 212.599 278.146 212.506 278.258C212.412 278.361 212.272 278.487 212.086 278.636C211.908 278.776 211.684 278.897 211.414 279C211.152 279.112 210.84 279.168 210.476 279.168ZM211.036 277.572C211.269 277.572 211.479 277.539 211.666 277.474C211.852 277.399 212.016 277.297 212.156 277.166C212.296 277.026 212.417 276.853 212.52 276.648V275.15C212.445 274.945 212.333 274.772 212.184 274.632C212.034 274.483 211.857 274.371 211.652 274.296C211.446 274.212 211.218 274.17 210.966 274.17C210.686 274.17 210.424 274.245 210.182 274.394C209.948 274.534 209.762 274.73 209.622 274.982C209.482 275.234 209.412 275.523 209.412 275.85C209.412 276.177 209.486 276.471 209.636 276.732C209.785 276.993 209.981 277.199 210.224 277.348C210.476 277.497 210.746 277.572 211.036 277.572ZM217.073 270.194H219.033V272.854H220.517V274.38H219.033V279H217.073V274.38H216.121V272.854H217.073V270.194ZM225.019 279.168C224.272 279.168 223.638 279.028 223.115 278.748C222.602 278.468 222.21 278.081 221.939 277.586C221.668 277.091 221.533 276.522 221.533 275.878C221.533 275.262 221.692 274.707 222.009 274.212C222.326 273.717 222.751 273.325 223.283 273.036C223.815 272.737 224.408 272.588 225.061 272.588C225.938 272.588 226.657 272.845 227.217 273.358C227.786 273.862 228.155 274.595 228.323 275.556L223.563 277.068L223.129 276.004L226.573 274.842L226.167 275.024C226.092 274.781 225.957 274.571 225.761 274.394C225.574 274.207 225.29 274.114 224.907 274.114C224.618 274.114 224.361 274.184 224.137 274.324C223.922 274.455 223.754 274.646 223.633 274.898C223.521 275.141 223.465 275.43 223.465 275.766C223.465 276.149 223.535 276.471 223.675 276.732C223.815 276.984 224.006 277.175 224.249 277.306C224.492 277.437 224.762 277.502 225.061 277.502C225.276 277.502 225.481 277.465 225.677 277.39C225.882 277.315 226.083 277.217 226.279 277.096L227.147 278.552C226.82 278.739 226.466 278.888 226.083 279C225.71 279.112 225.355 279.168 225.019 279.168ZM233.824 275.864C233.824 275.239 233.969 274.679 234.258 274.184C234.557 273.689 234.972 273.302 235.504 273.022C236.036 272.733 236.647 272.588 237.338 272.588C238.038 272.588 238.645 272.733 239.158 273.022C239.671 273.302 240.063 273.689 240.334 274.184C240.614 274.679 240.754 275.239 240.754 275.864C240.754 276.489 240.614 277.054 240.334 277.558C240.063 278.053 239.671 278.445 239.158 278.734C238.645 279.023 238.029 279.168 237.31 279.168C236.638 279.168 236.036 279.037 235.504 278.776C234.981 278.515 234.571 278.137 234.272 277.642C233.973 277.147 233.824 276.555 233.824 275.864ZM235.798 275.878C235.798 276.195 235.863 276.485 235.994 276.746C236.125 276.998 236.302 277.199 236.526 277.348C236.75 277.497 237.002 277.572 237.282 277.572C237.59 277.572 237.856 277.497 238.08 277.348C238.304 277.199 238.477 276.998 238.598 276.746C238.719 276.485 238.78 276.195 238.78 275.878C238.78 275.551 238.719 275.262 238.598 275.01C238.477 274.758 238.304 274.557 238.08 274.408C237.856 274.259 237.59 274.184 237.282 274.184C237.002 274.184 236.75 274.259 236.526 274.408C236.302 274.557 236.125 274.758 235.994 275.01C235.863 275.262 235.798 275.551 235.798 275.878ZM242.886 279V274.59H241.85V272.854H242.886V270.726C242.886 269.923 243.115 269.27 243.572 268.766C244.039 268.253 244.711 267.996 245.588 267.996C245.849 267.996 246.139 268.038 246.456 268.122C246.783 268.197 247.067 268.323 247.31 268.5L246.484 269.914C246.391 269.793 246.279 269.713 246.148 269.676C246.027 269.629 245.91 269.606 245.798 269.606C245.518 269.606 245.289 269.699 245.112 269.886C244.935 270.073 244.846 270.371 244.846 270.782V272.854H246.694V274.59H244.846V279H242.886ZM253.509 270.194H255.469V272.854H256.953V274.38H255.469V279H253.509V274.38H252.557V272.854H253.509V270.194ZM258.445 279V267.954H260.363V274.114L260.349 273.876C260.563 273.493 260.867 273.185 261.259 272.952C261.651 272.709 262.131 272.588 262.701 272.588C263.279 272.588 263.76 272.761 264.143 273.106C264.535 273.442 264.735 273.881 264.745 274.422V279H262.785V275.15C262.775 274.879 262.701 274.665 262.561 274.506C262.43 274.338 262.206 274.254 261.889 274.254C261.59 274.254 261.329 274.352 261.105 274.548C260.881 274.744 260.708 275.01 260.587 275.346C260.465 275.682 260.405 276.069 260.405 276.508V279H258.445ZM269.767 279.168C269.02 279.168 268.386 279.028 267.863 278.748C267.35 278.468 266.958 278.081 266.687 277.586C266.416 277.091 266.281 276.522 266.281 275.878C266.281 275.262 266.44 274.707 266.757 274.212C267.074 273.717 267.499 273.325 268.031 273.036C268.563 272.737 269.156 272.588 269.809 272.588C270.686 272.588 271.405 272.845 271.965 273.358C272.534 273.862 272.903 274.595 273.071 275.556L268.311 277.068L267.877 276.004L271.321 274.842L270.915 275.024C270.84 274.781 270.705 274.571 270.509 274.394C270.322 274.207 270.038 274.114 269.655 274.114C269.366 274.114 269.109 274.184 268.885 274.324C268.67 274.455 268.502 274.646 268.381 274.898C268.269 275.141 268.213 275.43 268.213 275.766C268.213 276.149 268.283 276.471 268.423 276.732C268.563 276.984 268.754 277.175 268.997 277.306C269.24 277.437 269.51 277.502 269.809 277.502C270.024 277.502 270.229 277.465 270.425 277.39C270.63 277.315 270.831 277.217 271.027 277.096L271.895 278.552C271.568 278.739 271.214 278.888 270.831 279C270.458 279.112 270.103 279.168 269.767 279.168ZM281.624 279.168C281.055 279.168 280.537 279.056 280.07 278.832C279.613 278.599 279.249 278.244 278.978 277.768C278.707 277.292 278.572 276.685 278.572 275.948C278.572 275.257 278.712 274.66 278.992 274.156C279.272 273.652 279.641 273.265 280.098 272.994C280.555 272.714 281.041 272.574 281.554 272.574C282.161 272.574 282.618 272.677 282.926 272.882C283.243 273.078 283.505 273.297 283.71 273.54L283.626 273.778L283.808 272.882H285.628V279H283.668V277.67L283.822 278.09C283.803 278.09 283.747 278.146 283.654 278.258C283.561 278.361 283.421 278.487 283.234 278.636C283.057 278.776 282.833 278.897 282.562 279C282.301 279.112 281.988 279.168 281.624 279.168ZM282.184 277.572C282.417 277.572 282.627 277.539 282.814 277.474C283.001 277.399 283.164 277.297 283.304 277.166C283.444 277.026 283.565 276.853 283.668 276.648V275.15C283.593 274.945 283.481 274.772 283.332 274.632C283.183 274.483 283.005 274.371 282.8 274.296C282.595 274.212 282.366 274.17 282.114 274.17C281.834 274.17 281.573 274.245 281.33 274.394C281.097 274.534 280.91 274.73 280.77 274.982C280.63 275.234 280.56 275.523 280.56 275.85C280.56 276.177 280.635 276.471 280.784 276.732C280.933 276.993 281.129 277.199 281.372 277.348C281.624 277.497 281.895 277.572 282.184 277.572ZM289.412 272.882L289.594 274.562L289.552 274.31C289.729 273.946 289.972 273.638 290.28 273.386C290.588 273.125 290.891 272.924 291.19 272.784C291.498 272.644 291.731 272.574 291.89 272.574L291.792 274.534C291.334 274.478 290.942 274.553 290.616 274.758C290.289 274.963 290.037 275.234 289.86 275.57C289.682 275.906 289.594 276.251 289.594 276.606V279H287.648V272.882H289.412ZM293.964 270.194H295.924V272.854H297.408V274.38H295.924V279H293.964V274.38H293.012V272.854H293.964V270.194Z" fill="black"/>
<path d="M153.452 133.696C154.301 133.696 155.02 133.841 155.608 134.13C156.196 134.41 156.644 134.811 156.952 135.334C157.26 135.847 157.414 136.459 157.414 137.168C157.414 137.588 157.349 138.013 157.218 138.442C157.097 138.862 156.896 139.245 156.616 139.59C156.345 139.935 155.977 140.215 155.51 140.43C155.053 140.635 154.488 140.738 153.816 140.738H152.36V144H150.33V133.696H153.452ZM153.802 138.764C154.11 138.764 154.367 138.713 154.572 138.61C154.777 138.498 154.936 138.363 155.048 138.204C155.169 138.036 155.253 137.863 155.3 137.686C155.356 137.509 155.384 137.355 155.384 137.224C155.384 137.121 155.365 136.986 155.328 136.818C155.3 136.641 155.235 136.463 155.132 136.286C155.029 136.109 154.871 135.959 154.656 135.838C154.451 135.717 154.171 135.656 153.816 135.656H152.36V138.764H153.802ZM161.484 144.168C160.915 144.168 160.397 144.056 159.93 143.832C159.473 143.599 159.109 143.244 158.838 142.768C158.568 142.292 158.432 141.685 158.432 140.948C158.432 140.257 158.572 139.66 158.852 139.156C159.132 138.652 159.501 138.265 159.958 137.994C160.416 137.714 160.901 137.574 161.414 137.574C162.021 137.574 162.478 137.677 162.786 137.882C163.104 138.078 163.365 138.297 163.57 138.54L163.486 138.778L163.668 137.882H165.488V144H163.528V142.67L163.682 143.09C163.664 143.09 163.608 143.146 163.514 143.258C163.421 143.361 163.281 143.487 163.094 143.636C162.917 143.776 162.693 143.897 162.422 144C162.161 144.112 161.848 144.168 161.484 144.168ZM162.044 142.572C162.278 142.572 162.488 142.539 162.674 142.474C162.861 142.399 163.024 142.297 163.164 142.166C163.304 142.026 163.426 141.853 163.528 141.648V140.15C163.454 139.945 163.342 139.772 163.192 139.632C163.043 139.483 162.866 139.371 162.66 139.296C162.455 139.212 162.226 139.17 161.974 139.17C161.694 139.17 161.433 139.245 161.19 139.394C160.957 139.534 160.77 139.73 160.63 139.982C160.49 140.234 160.42 140.523 160.42 140.85C160.42 141.177 160.495 141.471 160.644 141.732C160.794 141.993 160.99 142.199 161.232 142.348C161.484 142.497 161.755 142.572 162.044 142.572ZM171.344 144.168C170.98 144.168 170.621 144.103 170.266 143.972C169.921 143.832 169.631 143.636 169.398 143.384L169.454 142.81V146.94H167.508V137.742H169.188L169.468 138.932L169.314 138.512C169.631 138.241 169.986 138.017 170.378 137.84C170.77 137.663 171.223 137.574 171.736 137.574C172.305 137.574 172.814 137.709 173.262 137.98C173.71 138.241 174.06 138.624 174.312 139.128C174.573 139.623 174.704 140.22 174.704 140.92C174.704 141.611 174.559 142.199 174.27 142.684C173.981 143.169 173.584 143.538 173.08 143.79C172.576 144.042 171.997 144.168 171.344 144.168ZM170.952 142.628C171.269 142.628 171.559 142.558 171.82 142.418C172.091 142.278 172.305 142.082 172.464 141.83C172.632 141.569 172.716 141.275 172.716 140.948C172.716 140.603 172.641 140.304 172.492 140.052C172.352 139.791 172.156 139.59 171.904 139.45C171.661 139.301 171.391 139.226 171.092 139.226C170.831 139.226 170.597 139.263 170.392 139.338C170.196 139.403 170.019 139.506 169.86 139.646C169.711 139.777 169.58 139.945 169.468 140.15V141.648C169.543 141.844 169.65 142.017 169.79 142.166C169.93 142.315 170.098 142.432 170.294 142.516C170.499 142.591 170.719 142.628 170.952 142.628ZM179.254 144.168C178.508 144.168 177.873 144.028 177.35 143.748C176.837 143.468 176.445 143.081 176.174 142.586C175.904 142.091 175.768 141.522 175.768 140.878C175.768 140.262 175.927 139.707 176.244 139.212C176.562 138.717 176.986 138.325 177.518 138.036C178.05 137.737 178.643 137.588 179.296 137.588C180.174 137.588 180.892 137.845 181.452 138.358C182.022 138.862 182.39 139.595 182.558 140.556L177.798 142.068L177.364 141.004L180.808 139.842L180.402 140.024C180.328 139.781 180.192 139.571 179.996 139.394C179.81 139.207 179.525 139.114 179.142 139.114C178.853 139.114 178.596 139.184 178.372 139.324C178.158 139.455 177.99 139.646 177.868 139.898C177.756 140.141 177.7 140.43 177.7 140.766C177.7 141.149 177.77 141.471 177.91 141.732C178.05 141.984 178.242 142.175 178.484 142.306C178.727 142.437 178.998 142.502 179.296 142.502C179.511 142.502 179.716 142.465 179.912 142.39C180.118 142.315 180.318 142.217 180.514 142.096L181.382 143.552C181.056 143.739 180.701 143.888 180.318 144C179.945 144.112 179.59 144.168 179.254 144.168ZM185.747 137.882L185.929 139.562L185.887 139.31C186.064 138.946 186.307 138.638 186.615 138.386C186.923 138.125 187.226 137.924 187.525 137.784C187.833 137.644 188.066 137.574 188.225 137.574L188.127 139.534C187.669 139.478 187.277 139.553 186.951 139.758C186.624 139.963 186.372 140.234 186.195 140.57C186.017 140.906 185.929 141.251 185.929 141.606V144H183.983V137.882H185.747ZM191.713 144.126C191.209 144.126 190.737 144.037 190.299 143.86C189.869 143.683 189.505 143.435 189.207 143.118L190.019 142.04C190.317 142.311 190.593 142.507 190.845 142.628C191.106 142.74 191.339 142.796 191.545 142.796C191.703 142.796 191.843 142.782 191.965 142.754C192.095 142.717 192.198 142.665 192.273 142.6C192.347 142.525 192.385 142.432 192.385 142.32C192.385 142.161 192.319 142.035 192.189 141.942C192.067 141.849 191.909 141.774 191.713 141.718C191.517 141.653 191.307 141.587 191.083 141.522C190.523 141.345 190.117 141.088 189.865 140.752C189.622 140.407 189.501 140.033 189.501 139.632C189.501 139.324 189.58 139.016 189.739 138.708C189.907 138.391 190.168 138.129 190.523 137.924C190.887 137.709 191.353 137.602 191.923 137.602C192.436 137.602 192.87 137.653 193.225 137.756C193.579 137.859 193.915 138.027 194.233 138.26L193.491 139.408C193.313 139.268 193.113 139.151 192.889 139.058C192.674 138.955 192.473 138.899 192.287 138.89C192.119 138.881 191.974 138.899 191.853 138.946C191.741 138.993 191.652 139.053 191.587 139.128C191.521 139.203 191.489 139.282 191.489 139.366C191.479 139.543 191.545 139.683 191.685 139.786C191.834 139.889 192.021 139.968 192.245 140.024C192.469 140.08 192.688 140.145 192.903 140.22C193.201 140.313 193.458 140.439 193.673 140.598C193.887 140.757 194.051 140.948 194.163 141.172C194.284 141.387 194.345 141.648 194.345 141.956C194.345 142.329 194.247 142.684 194.051 143.02C193.864 143.347 193.575 143.613 193.183 143.818C192.8 144.023 192.31 144.126 191.713 144.126Z" fill="black"/>
</svg>
