<svg width="141" height="20" viewBox="0 0 141 20" fill="none" xmlns="http://www.w3.org/2000/svg">
<path d="M0.915625 15V0.279999H5.31563C6.79563 0.279999 8.05563 0.499999 9.09563 0.94C10.1356 1.38 10.969 1.96667 11.5956 2.7C12.2356 3.43333 12.7023 4.25333 12.9956 5.16C13.289 6.06667 13.4356 6.98 13.4356 7.9C13.4356 8.99333 13.2356 9.98 12.8356 10.86C12.449 11.7267 11.9156 12.4733 11.2356 13.1C10.5556 13.7133 9.76896 14.1867 8.87563 14.52C7.98229 14.84 7.03563 15 6.03563 15H0.915625ZM3.81563 12.2H5.53563C6.26896 12.2 6.93563 12.1067 7.53563 11.92C8.13563 11.72 8.64896 11.4333 9.07563 11.06C9.51563 10.6867 9.84896 10.22 10.0756 9.66C10.3156 9.08667 10.4356 8.43333 10.4356 7.7C10.4356 6.74 10.2756 5.96 9.95563 5.36C9.64896 4.74667 9.26229 4.27333 8.79563 3.94C8.34229 3.60667 7.87563 3.38 7.39563 3.26C6.91563 3.12667 6.50896 3.06 6.17563 3.06H3.81563V12.2ZM20.1853 15.24C19.1186 15.24 18.212 15.04 17.4653 14.64C16.732 14.24 16.172 13.6867 15.7853 12.98C15.3986 12.2733 15.2053 11.46 15.2053 10.54C15.2053 9.66 15.432 8.86667 15.8853 8.16C16.3386 7.45333 16.9453 6.89333 17.7053 6.48C18.4653 6.05333 19.312 5.84 20.2453 5.84C21.4986 5.84 22.5253 6.20667 23.3253 6.94C24.1386 7.66 24.6653 8.70667 24.9053 10.08L18.1053 12.24L17.4853 10.72L22.4053 9.06L21.8253 9.32C21.7186 8.97333 21.5253 8.67333 21.2453 8.42C20.9786 8.15333 20.572 8.02 20.0253 8.02C19.612 8.02 19.2453 8.12 18.9253 8.32C18.6186 8.50667 18.3786 8.78 18.2053 9.14C18.0453 9.48667 17.9653 9.9 17.9653 10.38C17.9653 10.9267 18.0653 11.3867 18.2653 11.76C18.4653 12.12 18.7386 12.3933 19.0853 12.58C19.432 12.7667 19.8186 12.86 20.2453 12.86C20.552 12.86 20.8453 12.8067 21.1253 12.7C21.4186 12.5933 21.7053 12.4533 21.9853 12.28L23.2253 14.36C22.7586 14.6267 22.252 14.84 21.7053 15C21.172 15.16 20.6653 15.24 20.1853 15.24ZM31.24 15.24C30.1733 15.24 29.2667 15.04 28.52 14.64C27.7867 14.24 27.2267 13.6867 26.84 12.98C26.4533 12.2733 26.26 11.46 26.26 10.54C26.26 9.66 26.4867 8.86667 26.94 8.16C27.3933 7.45333 28 6.89333 28.76 6.48C29.52 6.05333 30.3667 5.84 31.3 5.84C32.5533 5.84 33.58 6.20667 34.38 6.94C35.1933 7.66 35.72 8.70667 35.96 10.08L29.16 12.24L28.54 10.72L33.46 9.06L32.88 9.32C32.7733 8.97333 32.58 8.67333 32.3 8.42C32.0333 8.15333 31.6267 8.02 31.08 8.02C30.6667 8.02 30.3 8.12 29.98 8.32C29.6733 8.50667 29.4333 8.78 29.26 9.14C29.1 9.48667 29.02 9.9 29.02 10.38C29.02 10.9267 29.12 11.3867 29.32 11.76C29.52 12.12 29.7933 12.3933 30.14 12.58C30.4867 12.7667 30.8733 12.86 31.3 12.86C31.6067 12.86 31.9 12.8067 32.18 12.7C32.4733 12.5933 32.76 12.4533 33.04 12.28L34.28 14.36C33.8133 14.6267 33.3067 14.84 32.76 15C32.2267 15.16 31.72 15.24 31.24 15.24ZM43.4747 15.24C42.9547 15.24 42.4414 15.1467 41.9347 14.96C41.4414 14.76 41.028 14.48 40.6947 14.12L40.7747 13.3V19.2H37.9947V6.06H40.3947L40.7947 7.76L40.5747 7.16C41.028 6.77333 41.5347 6.45333 42.0947 6.2C42.6547 5.94667 43.3014 5.82 44.0347 5.82C44.848 5.82 45.5747 6.01333 46.2147 6.4C46.8547 6.77333 47.3547 7.32 47.7147 8.04C48.088 8.74667 48.2747 9.6 48.2747 10.6C48.2747 11.5867 48.068 12.4267 47.6547 13.12C47.2414 13.8133 46.6747 14.34 45.9547 14.7C45.2347 15.06 44.408 15.24 43.4747 15.24ZM42.9147 13.04C43.368 13.04 43.7814 12.94 44.1547 12.74C44.5414 12.54 44.848 12.26 45.0747 11.9C45.3147 11.5267 45.4347 11.1067 45.4347 10.64C45.4347 10.1467 45.328 9.72 45.1147 9.36C44.9147 8.98667 44.6347 8.7 44.2747 8.5C43.928 8.28667 43.5414 8.18 43.1147 8.18C42.7414 8.18 42.408 8.23333 42.1147 8.34C41.8347 8.43333 41.5814 8.58 41.3547 8.78C41.1414 8.96667 40.9547 9.20667 40.7947 9.5V11.64C40.9014 11.92 41.0547 12.1667 41.2547 12.38C41.4547 12.5933 41.6947 12.76 41.9747 12.88C42.268 12.9867 42.5814 13.04 42.9147 13.04ZM57.4391 0.279999H60.3391V12.2H67.2591V15H57.4391V0.279999ZM74.0916 15.24C73.0249 15.24 72.1182 15.04 71.3716 14.64C70.6382 14.24 70.0782 13.6867 69.6916 12.98C69.3049 12.2733 69.1116 11.46 69.1116 10.54C69.1116 9.66 69.3382 8.86667 69.7916 8.16C70.2449 7.45333 70.8516 6.89333 71.6116 6.48C72.3716 6.05333 73.2182 5.84 74.1516 5.84C75.4049 5.84 76.4316 6.20667 77.2316 6.94C78.0449 7.66 78.5716 8.70667 78.8116 10.08L72.0116 12.24L71.3916 10.72L76.3116 9.06L75.7316 9.32C75.6249 8.97333 75.4316 8.67333 75.1516 8.42C74.8849 8.15333 74.4782 8.02 73.9316 8.02C73.5182 8.02 73.1516 8.12 72.8316 8.32C72.5249 8.50667 72.2849 8.78 72.1116 9.14C71.9516 9.48667 71.8716 9.9 71.8716 10.38C71.8716 10.9267 71.9716 11.3867 72.1716 11.76C72.3716 12.12 72.6449 12.3933 72.9916 12.58C73.3382 12.7667 73.7249 12.86 74.1516 12.86C74.4582 12.86 74.7516 12.8067 75.0316 12.7C75.3249 12.5933 75.6116 12.4533 75.8916 12.28L77.1316 14.36C76.6649 14.6267 76.1582 14.84 75.6116 15C75.0782 15.16 74.5716 15.24 74.0916 15.24ZM84.5263 15.24C83.7129 15.24 82.9729 15.08 82.3063 14.76C81.6529 14.4267 81.1329 13.92 80.7463 13.24C80.3596 12.56 80.1663 11.6933 80.1663 10.64C80.1663 9.65333 80.3663 8.8 80.7663 8.08C81.1663 7.36 81.6929 6.80667 82.3462 6.42C82.9996 6.02 83.6929 5.82 84.4263 5.82C85.2929 5.82 85.9463 5.96667 86.3863 6.26C86.8396 6.54 87.2129 6.85333 87.5063 7.2L87.3863 7.54L87.6463 6.26H90.2463V15H87.4463V13.1L87.6663 13.7C87.6396 13.7 87.5596 13.78 87.4263 13.94C87.2929 14.0867 87.0929 14.2667 86.8263 14.48C86.5729 14.68 86.2529 14.8533 85.8663 15C85.4929 15.16 85.0463 15.24 84.5263 15.24ZM85.3263 12.96C85.6596 12.96 85.9596 12.9133 86.2263 12.82C86.4929 12.7133 86.7263 12.5667 86.9263 12.38C87.1263 12.18 87.2996 11.9333 87.4463 11.64V9.5C87.3396 9.20667 87.1796 8.96 86.9663 8.76C86.7529 8.54667 86.4996 8.38667 86.2063 8.28C85.9129 8.16 85.5863 8.1 85.2263 8.1C84.8263 8.1 84.4529 8.20667 84.1063 8.42C83.7729 8.62 83.5063 8.9 83.3063 9.26C83.1063 9.62 83.0063 10.0333 83.0063 10.5C83.0063 10.9667 83.1129 11.3867 83.3263 11.76C83.5396 12.1333 83.8196 12.4267 84.1663 12.64C84.5263 12.8533 84.9129 12.96 85.3263 12.96ZM95.6514 6.26L95.9114 8.66L95.8514 8.3C96.1047 7.78 96.4514 7.34 96.8914 6.98C97.3314 6.60667 97.7647 6.32 98.1914 6.12C98.6314 5.92 98.9647 5.82 99.1914 5.82L99.0514 8.62C98.3981 8.54 97.8381 8.64667 97.3714 8.94C96.9047 9.23333 96.5447 9.62 96.2914 10.1C96.0381 10.58 95.9114 11.0733 95.9114 11.58V15H93.1314V6.26H95.6514ZM103.875 6.26L104.095 7.82L104.055 7.68C104.361 7.13333 104.795 6.69333 105.355 6.36C105.915 6.01333 106.601 5.84 107.415 5.84C108.241 5.84 108.928 6.08667 109.475 6.58C110.035 7.06 110.321 7.68667 110.335 8.46V15H107.535V9.5C107.521 9.11333 107.415 8.80667 107.215 8.58C107.028 8.34 106.708 8.22 106.255 8.22C105.828 8.22 105.455 8.36 105.135 8.64C104.815 8.92 104.568 9.3 104.395 9.78C104.221 10.26 104.135 10.8133 104.135 11.44V15H101.335V6.26H103.875ZM113.21 6.26H116.01V15H113.21V6.26ZM113.15 3.16C113.15 2.74667 113.31 2.40667 113.63 2.14C113.963 1.87333 114.316 1.74 114.69 1.74C115.063 1.74 115.403 1.87333 115.71 2.14C116.03 2.40667 116.19 2.74667 116.19 3.16C116.19 3.57333 116.03 3.91333 115.71 4.18C115.403 4.43333 115.063 4.56 114.69 4.56C114.316 4.56 113.963 4.43333 113.63 4.18C113.31 3.91333 113.15 3.57333 113.15 3.16ZM121.433 6.26L121.653 7.82L121.613 7.68C121.92 7.13333 122.353 6.69333 122.913 6.36C123.473 6.01333 124.16 5.84 124.973 5.84C125.8 5.84 126.486 6.08667 127.033 6.58C127.593 7.06 127.88 7.68667 127.893 8.46V15H125.093V9.5C125.08 9.11333 124.973 8.80667 124.773 8.58C124.586 8.34 124.266 8.22 123.813 8.22C123.386 8.22 123.013 8.36 122.693 8.64C122.373 8.92 122.126 9.3 121.953 9.78C121.78 10.26 121.693 10.8133 121.693 11.44V15H118.893V6.26H121.433ZM135.288 19.4C134.501 19.4 133.835 19.3067 133.288 19.12C132.755 18.9333 132.301 18.7067 131.928 18.44C131.555 18.1733 131.221 17.92 130.928 17.68L132.568 15.76C132.875 16.04 133.228 16.3067 133.628 16.56C134.041 16.8267 134.581 16.96 135.248 16.96C135.688 16.96 136.095 16.88 136.468 16.72C136.855 16.5733 137.161 16.3533 137.388 16.06C137.628 15.7667 137.748 15.4 137.748 14.96V13.04L137.848 13.54C137.635 13.9933 137.248 14.3933 136.688 14.74C136.128 15.0733 135.395 15.24 134.488 15.24C133.701 15.24 132.968 15.04 132.288 14.64C131.621 14.2267 131.088 13.6733 130.688 12.98C130.288 12.2733 130.088 11.4733 130.088 10.58C130.088 9.66 130.301 8.84667 130.728 8.14C131.155 7.42 131.708 6.85333 132.388 6.44C133.068 6.02667 133.788 5.82 134.548 5.82C135.308 5.82 135.961 5.93333 136.508 6.16C137.068 6.37333 137.488 6.64 137.768 6.96L137.668 7.22L137.968 6.26H140.548V15C140.548 15.8533 140.308 16.6067 139.828 17.26C139.348 17.9267 138.708 18.4467 137.908 18.82C137.121 19.2067 136.248 19.4 135.288 19.4ZM132.908 10.5C132.908 10.9667 133.015 11.3867 133.228 11.76C133.441 12.1333 133.728 12.4267 134.088 12.64C134.461 12.8533 134.875 12.96 135.328 12.96C135.715 12.96 136.055 12.9133 136.348 12.82C136.655 12.7133 136.921 12.5667 137.148 12.38C137.388 12.18 137.588 11.9333 137.748 11.64V9.5C137.628 9.20667 137.448 8.96 137.208 8.76C136.968 8.54667 136.688 8.38667 136.368 8.28C136.061 8.16 135.715 8.1 135.328 8.1C134.875 8.1 134.461 8.20667 134.088 8.42C133.728 8.62 133.441 8.9 133.228 9.26C133.015 9.62 132.908 10.0333 132.908 10.5Z" fill="black"/>
</svg>
