<svg width="360" height="355" viewBox="0 0 360 355" fill="none" xmlns="http://www.w3.org/2000/svg">
<rect x="20.5" y="193.5" width="319" height="29" rx="14.5" stroke="#ED1B24" stroke-opacity="0.8"/>
<rect x="20.5" y="233.5" width="319" height="29" rx="14.5" stroke="#ED1B24" stroke-opacity="0.8"/>
<rect x="20.5" y="113.5" width="319" height="29" rx="14.5" stroke="#ED1B24" stroke-opacity="0.8"/>
<path d="M0 78C0 69.7157 6.71573 63 15 63H345C353.284 63 360 69.7157 360 78V103H0V78Z" fill="black" fill-opacity="0.1"/>
<rect x="0.5" y="63.5" width="359" height="249" rx="14.5" stroke="#ED1B24" stroke-opacity="0.8"/>
<rect x="20.5" y="273.5" width="319" height="29" rx="14.5" stroke="#ED1B24" stroke-opacity="0.8"/>
<rect x="20.5" y="153.5" width="319" height="29" rx="14.5" stroke="#ED1B24" stroke-opacity="0.8"/>
<path d="M112.574 212L117.222 201.29H117.334L121.982 212H119.63L116.662 204.468L118.132 203.46L114.576 212H112.574ZM115.752 208.276H118.846L119.56 209.984H115.122L115.752 208.276ZM128.151 211.454C127.881 211.669 127.54 211.841 127.129 211.972C126.728 212.103 126.331 212.168 125.939 212.168C125.239 212.168 124.628 212.042 124.105 211.79C123.592 211.529 123.191 211.16 122.901 210.684C122.621 210.199 122.481 209.615 122.481 208.934C122.481 208.253 122.635 207.674 122.943 207.198C123.251 206.713 123.653 206.344 124.147 206.092C124.651 205.84 125.179 205.714 125.729 205.714C126.28 205.714 126.756 205.789 127.157 205.938C127.568 206.087 127.918 206.283 128.207 206.526L127.255 207.786C127.125 207.683 126.943 207.581 126.709 207.478C126.485 207.366 126.219 207.31 125.911 207.31C125.641 207.31 125.393 207.38 125.169 207.52C124.945 207.66 124.768 207.851 124.637 208.094C124.507 208.337 124.441 208.617 124.441 208.934C124.441 209.233 124.511 209.508 124.651 209.76C124.791 210.012 124.983 210.213 125.225 210.362C125.477 210.502 125.771 210.572 126.107 210.572C126.322 210.572 126.518 210.544 126.695 210.488C126.882 210.423 127.041 210.334 127.171 210.222L128.151 211.454ZM130.23 203.194H132.19V205.854H133.674V207.38H132.19V212H130.23V207.38H129.278V205.854H130.23V203.194ZM135.166 205.882H137.126V212H135.166V205.882ZM135.124 203.712C135.124 203.423 135.236 203.185 135.46 202.998C135.694 202.811 135.941 202.718 136.202 202.718C136.464 202.718 136.702 202.811 136.916 202.998C137.14 203.185 137.252 203.423 137.252 203.712C137.252 204.001 137.14 204.239 136.916 204.426C136.702 204.603 136.464 204.692 136.202 204.692C135.941 204.692 135.694 204.603 135.46 204.426C135.236 204.239 135.124 204.001 135.124 203.712ZM141.945 212.126L138.277 205.882H140.601L142.687 210.11L141.483 210.068L143.289 205.882H145.473L142.001 212.126H141.945ZM148.926 212.168C148.356 212.168 147.838 212.056 147.372 211.832C146.914 211.599 146.55 211.244 146.28 210.768C146.009 210.292 145.874 209.685 145.874 208.948C145.874 208.257 146.014 207.66 146.294 207.156C146.574 206.652 146.942 206.265 147.4 205.994C147.857 205.714 148.342 205.574 148.856 205.574C149.462 205.574 149.92 205.677 150.228 205.882C150.545 206.078 150.806 206.297 151.012 206.54L150.928 206.778L151.11 205.882H152.93V212H150.97V210.67L151.124 211.09C151.105 211.09 151.049 211.146 150.956 211.258C150.862 211.361 150.722 211.487 150.536 211.636C150.358 211.776 150.134 211.897 149.864 212C149.602 212.112 149.29 212.168 148.926 212.168ZM149.486 210.572C149.719 210.572 149.929 210.539 150.116 210.474C150.302 210.399 150.466 210.297 150.606 210.166C150.746 210.026 150.867 209.853 150.97 209.648V208.15C150.895 207.945 150.783 207.772 150.634 207.632C150.484 207.483 150.307 207.371 150.102 207.296C149.896 207.212 149.668 207.17 149.416 207.17C149.136 207.17 148.874 207.245 148.632 207.394C148.398 207.534 148.212 207.73 148.072 207.982C147.932 208.234 147.862 208.523 147.862 208.85C147.862 209.177 147.936 209.471 148.086 209.732C148.235 209.993 148.431 210.199 148.674 210.348C148.926 210.497 149.196 210.572 149.486 210.572ZM155.523 203.194H157.483V205.854H158.967V207.38H157.483V212H155.523V207.38H154.571V205.854H155.523V203.194ZM160.459 205.882H162.419V212H160.459V205.882ZM160.417 203.712C160.417 203.423 160.529 203.185 160.753 202.998C160.987 202.811 161.234 202.718 161.495 202.718C161.757 202.718 161.995 202.811 162.209 202.998C162.433 203.185 162.545 203.423 162.545 203.712C162.545 204.001 162.433 204.239 162.209 204.426C161.995 204.603 161.757 204.692 161.495 204.692C161.234 204.692 160.987 204.603 160.753 204.426C160.529 204.239 160.417 204.001 160.417 203.712ZM163.962 208.864C163.962 208.239 164.106 207.679 164.396 207.184C164.694 206.689 165.11 206.302 165.642 206.022C166.174 205.733 166.785 205.588 167.476 205.588C168.176 205.588 168.782 205.733 169.296 206.022C169.809 206.302 170.201 206.689 170.472 207.184C170.752 207.679 170.892 208.239 170.892 208.864C170.892 209.489 170.752 210.054 170.472 210.558C170.201 211.053 169.809 211.445 169.296 211.734C168.782 212.023 168.166 212.168 167.448 212.168C166.776 212.168 166.174 212.037 165.642 211.776C165.119 211.515 164.708 211.137 164.41 210.642C164.111 210.147 163.962 209.555 163.962 208.864ZM165.936 208.878C165.936 209.195 166.001 209.485 166.132 209.746C166.262 209.998 166.44 210.199 166.664 210.348C166.888 210.497 167.14 210.572 167.42 210.572C167.728 210.572 167.994 210.497 168.218 210.348C168.442 210.199 168.614 209.998 168.736 209.746C168.857 209.485 168.918 209.195 168.918 208.878C168.918 208.551 168.857 208.262 168.736 208.01C168.614 207.758 168.442 207.557 168.218 207.408C167.994 207.259 167.728 207.184 167.42 207.184C167.14 207.184 166.888 207.259 166.664 207.408C166.44 207.557 166.262 207.758 166.132 208.01C166.001 208.262 165.936 208.551 165.936 208.878ZM174.214 205.882L174.368 206.974L174.34 206.876C174.554 206.493 174.858 206.185 175.25 205.952C175.642 205.709 176.122 205.588 176.692 205.588C177.27 205.588 177.751 205.761 178.134 206.106C178.526 206.442 178.726 206.881 178.736 207.422V212H176.776V208.15C176.766 207.879 176.692 207.665 176.552 207.506C176.421 207.338 176.197 207.254 175.88 207.254C175.581 207.254 175.32 207.352 175.096 207.548C174.872 207.744 174.699 208.01 174.578 208.346C174.456 208.682 174.396 209.069 174.396 209.508V212H172.436V205.882H174.214ZM185.623 201.696H192.063V203.656H187.653V205.994H191.475V207.954H187.653V212H185.623V201.696ZM195.328 212.294C194.777 212.294 194.315 212.126 193.942 211.79C193.568 211.445 193.372 211.001 193.354 210.46V205.882H195.314V209.732C195.332 210.003 195.402 210.222 195.524 210.39C195.645 210.549 195.85 210.628 196.14 210.628C196.429 210.628 196.676 210.53 196.882 210.334C197.096 210.138 197.26 209.872 197.372 209.536C197.493 209.191 197.554 208.803 197.554 208.374V205.882H199.514V212H197.736L197.582 210.88L197.61 211.006C197.47 211.258 197.292 211.482 197.078 211.678C196.863 211.874 196.606 212.023 196.308 212.126C196.018 212.238 195.692 212.294 195.328 212.294ZM203.307 205.882L203.461 206.974L203.433 206.876C203.648 206.493 203.951 206.185 204.343 205.952C204.735 205.709 205.216 205.588 205.785 205.588C206.364 205.588 206.845 205.761 207.227 206.106C207.619 206.442 207.82 206.881 207.829 207.422V212H205.869V208.15C205.86 207.879 205.785 207.665 205.645 207.506C205.515 207.338 205.291 207.254 204.973 207.254C204.675 207.254 204.413 207.352 204.189 207.548C203.965 207.744 203.793 208.01 203.671 208.346C203.55 208.682 203.489 209.069 203.489 209.508V212H201.529V205.882H203.307ZM215.036 211.454C214.765 211.669 214.425 211.841 214.014 211.972C213.613 212.103 213.216 212.168 212.824 212.168C212.124 212.168 211.513 212.042 210.99 211.79C210.477 211.529 210.075 211.16 209.786 210.684C209.506 210.199 209.366 209.615 209.366 208.934C209.366 208.253 209.52 207.674 209.828 207.198C210.136 206.713 210.537 206.344 211.032 206.092C211.536 205.84 212.063 205.714 212.614 205.714C213.165 205.714 213.641 205.789 214.042 205.938C214.453 206.087 214.803 206.283 215.092 206.526L214.14 207.786C214.009 207.683 213.827 207.581 213.594 207.478C213.37 207.366 213.104 207.31 212.796 207.31C212.525 207.31 212.278 207.38 212.054 207.52C211.83 207.66 211.653 207.851 211.522 208.094C211.391 208.337 211.326 208.617 211.326 208.934C211.326 209.233 211.396 209.508 211.536 209.76C211.676 210.012 211.867 210.213 212.11 210.362C212.362 210.502 212.656 210.572 212.992 210.572C213.207 210.572 213.403 210.544 213.58 210.488C213.767 210.423 213.925 210.334 214.056 210.222L215.036 211.454ZM217.115 203.194H219.075V205.854H220.559V207.38H219.075V212H217.115V207.38H216.163V205.854H217.115V203.194ZM222.051 205.882H224.011V212H222.051V205.882ZM222.009 203.712C222.009 203.423 222.121 203.185 222.345 202.998C222.578 202.811 222.826 202.718 223.087 202.718C223.348 202.718 223.586 202.811 223.801 202.998C224.025 203.185 224.137 203.423 224.137 203.712C224.137 204.001 224.025 204.239 223.801 204.426C223.586 204.603 223.348 204.692 223.087 204.692C222.826 204.692 222.578 204.603 222.345 204.426C222.121 204.239 222.009 204.001 222.009 203.712ZM225.553 208.864C225.553 208.239 225.698 207.679 225.987 207.184C226.286 206.689 226.701 206.302 227.233 206.022C227.765 205.733 228.377 205.588 229.067 205.588C229.767 205.588 230.374 205.733 230.887 206.022C231.401 206.302 231.793 206.689 232.063 207.184C232.343 207.679 232.483 208.239 232.483 208.864C232.483 209.489 232.343 210.054 232.063 210.558C231.793 211.053 231.401 211.445 230.887 211.734C230.374 212.023 229.758 212.168 229.039 212.168C228.367 212.168 227.765 212.037 227.233 211.776C226.711 211.515 226.3 211.137 226.001 210.642C225.703 210.147 225.553 209.555 225.553 208.864ZM227.527 208.878C227.527 209.195 227.593 209.485 227.723 209.746C227.854 209.998 228.031 210.199 228.255 210.348C228.479 210.497 228.731 210.572 229.011 210.572C229.319 210.572 229.585 210.497 229.809 210.348C230.033 210.199 230.206 209.998 230.327 209.746C230.449 209.485 230.509 209.195 230.509 208.878C230.509 208.551 230.449 208.262 230.327 208.01C230.206 207.758 230.033 207.557 229.809 207.408C229.585 207.259 229.319 207.184 229.011 207.184C228.731 207.184 228.479 207.259 228.255 207.408C228.031 207.557 227.854 207.758 227.723 208.01C227.593 208.262 227.527 208.551 227.527 208.878ZM235.806 205.882L235.96 206.974L235.932 206.876C236.146 206.493 236.45 206.185 236.842 205.952C237.234 205.709 237.714 205.588 238.284 205.588C238.862 205.588 239.343 205.761 239.726 206.106C240.118 206.442 240.318 206.881 240.328 207.422V212H238.368V208.15C238.358 207.879 238.284 207.665 238.144 207.506C238.013 207.338 237.789 207.254 237.472 207.254C237.173 207.254 236.912 207.352 236.688 207.548C236.464 207.744 236.291 208.01 236.17 208.346C236.048 208.682 235.988 209.069 235.988 209.508V212H234.028V205.882H235.806ZM244.328 212.126C243.824 212.126 243.353 212.037 242.914 211.86C242.485 211.683 242.121 211.435 241.822 211.118L242.634 210.04C242.933 210.311 243.208 210.507 243.46 210.628C243.721 210.74 243.955 210.796 244.16 210.796C244.319 210.796 244.459 210.782 244.58 210.754C244.711 210.717 244.813 210.665 244.888 210.6C244.963 210.525 245 210.432 245 210.32C245 210.161 244.935 210.035 244.804 209.942C244.683 209.849 244.524 209.774 244.328 209.718C244.132 209.653 243.922 209.587 243.698 209.522C243.138 209.345 242.732 209.088 242.48 208.752C242.237 208.407 242.116 208.033 242.116 207.632C242.116 207.324 242.195 207.016 242.354 206.708C242.522 206.391 242.783 206.129 243.138 205.924C243.502 205.709 243.969 205.602 244.538 205.602C245.051 205.602 245.485 205.653 245.84 205.756C246.195 205.859 246.531 206.027 246.848 206.26L246.106 207.408C245.929 207.268 245.728 207.151 245.504 207.058C245.289 206.955 245.089 206.899 244.902 206.89C244.734 206.881 244.589 206.899 244.468 206.946C244.356 206.993 244.267 207.053 244.202 207.128C244.137 207.203 244.104 207.282 244.104 207.366C244.095 207.543 244.16 207.683 244.3 207.786C244.449 207.889 244.636 207.968 244.86 208.024C245.084 208.08 245.303 208.145 245.518 208.22C245.817 208.313 246.073 208.439 246.288 208.598C246.503 208.757 246.666 208.948 246.778 209.172C246.899 209.387 246.96 209.648 246.96 209.956C246.96 210.329 246.862 210.684 246.666 211.02C246.479 211.347 246.19 211.613 245.798 211.818C245.415 212.023 244.925 212.126 244.328 212.126Z" fill="#ED1B24"/>
<path d="M112.568 241.766H114.948L117.146 248.234L116.824 248.094L118.742 243.32L119.68 246.106L116.712 252.476L112.568 241.766ZM117.734 241.766H119.75L122.284 248.024L121.92 247.968L123.81 241.766H125.994L122.018 252.448L117.734 241.766ZM129.208 252.168C128.462 252.168 127.827 252.028 127.304 251.748C126.791 251.468 126.399 251.081 126.128 250.586C125.858 250.091 125.722 249.522 125.722 248.878C125.722 248.262 125.881 247.707 126.198 247.212C126.516 246.717 126.94 246.325 127.472 246.036C128.004 245.737 128.597 245.588 129.25 245.588C130.128 245.588 130.846 245.845 131.406 246.358C131.976 246.862 132.344 247.595 132.512 248.556L127.752 250.068L127.318 249.004L130.762 247.842L130.356 248.024C130.282 247.781 130.146 247.571 129.95 247.394C129.764 247.207 129.479 247.114 129.096 247.114C128.807 247.114 128.55 247.184 128.326 247.324C128.112 247.455 127.944 247.646 127.822 247.898C127.71 248.141 127.654 248.43 127.654 248.766C127.654 249.149 127.724 249.471 127.864 249.732C128.004 249.984 128.196 250.175 128.438 250.306C128.681 250.437 128.952 250.502 129.25 250.502C129.465 250.502 129.67 250.465 129.866 250.39C130.072 250.315 130.272 250.217 130.468 250.096L131.336 251.552C131.01 251.739 130.655 251.888 130.272 252C129.899 252.112 129.544 252.168 129.208 252.168ZM133.937 245.882H135.897V252H133.937V245.882ZM133.895 243.712C133.895 243.423 134.007 243.185 134.231 242.998C134.464 242.811 134.711 242.718 134.973 242.718C135.234 242.718 135.472 242.811 135.687 242.998C135.911 243.185 136.023 243.423 136.023 243.712C136.023 244.001 135.911 244.239 135.687 244.426C135.472 244.603 135.234 244.692 134.973 244.692C134.711 244.692 134.464 244.603 134.231 244.426C134.007 244.239 133.895 244.001 133.895 243.712ZM141.079 255.08C140.529 255.08 140.062 255.015 139.679 254.884C139.306 254.753 138.989 254.595 138.727 254.408C138.466 254.221 138.233 254.044 138.027 253.876L139.175 252.532C139.39 252.728 139.637 252.915 139.917 253.092C140.207 253.279 140.585 253.372 141.051 253.372C141.359 253.372 141.644 253.316 141.905 253.204C142.176 253.101 142.391 252.947 142.549 252.742C142.717 252.537 142.801 252.28 142.801 251.972V250.628L142.871 250.978C142.722 251.295 142.451 251.575 142.059 251.818C141.667 252.051 141.154 252.168 140.519 252.168C139.969 252.168 139.455 252.028 138.979 251.748C138.513 251.459 138.139 251.071 137.859 250.586C137.579 250.091 137.439 249.531 137.439 248.906C137.439 248.262 137.589 247.693 137.887 247.198C138.186 246.694 138.573 246.297 139.049 246.008C139.525 245.719 140.029 245.574 140.561 245.574C141.093 245.574 141.551 245.653 141.933 245.812C142.325 245.961 142.619 246.148 142.815 246.372L142.745 246.554L142.955 245.882H144.761V252C144.761 252.597 144.593 253.125 144.257 253.582C143.921 254.049 143.473 254.413 142.913 254.674C142.363 254.945 141.751 255.08 141.079 255.08ZM139.413 248.85C139.413 249.177 139.488 249.471 139.637 249.732C139.787 249.993 139.987 250.199 140.239 250.348C140.501 250.497 140.79 250.572 141.107 250.572C141.378 250.572 141.616 250.539 141.821 250.474C142.036 250.399 142.223 250.297 142.381 250.166C142.549 250.026 142.689 249.853 142.801 249.648V248.15C142.717 247.945 142.591 247.772 142.423 247.632C142.255 247.483 142.059 247.371 141.835 247.296C141.621 247.212 141.378 247.17 141.107 247.17C140.79 247.17 140.501 247.245 140.239 247.394C139.987 247.534 139.787 247.73 139.637 247.982C139.488 248.234 139.413 248.523 139.413 248.85ZM146.775 252V240.954H148.693V247.114L148.679 246.876C148.893 246.493 149.197 246.185 149.589 245.952C149.981 245.709 150.461 245.588 151.031 245.588C151.609 245.588 152.09 245.761 152.473 246.106C152.865 246.442 153.065 246.881 153.075 247.422V252H151.115V248.15C151.105 247.879 151.031 247.665 150.891 247.506C150.76 247.338 150.536 247.254 150.219 247.254C149.92 247.254 149.659 247.352 149.435 247.548C149.211 247.744 149.038 248.01 148.917 248.346C148.795 248.682 148.735 249.069 148.735 249.508V252H146.775ZM155.661 243.194H157.621V245.854H159.105V247.38H157.621V252H155.661V247.38H154.709V245.854H155.661V243.194ZM165.472 241.696H167.502V252H165.472V241.696ZM171.617 245.882L171.771 246.974L171.743 246.876C171.958 246.493 172.261 246.185 172.653 245.952C173.045 245.709 173.526 245.588 174.095 245.588C174.674 245.588 175.154 245.761 175.537 246.106C175.929 246.442 176.13 246.881 176.139 247.422V252H174.179V248.15C174.17 247.879 174.095 247.665 173.955 247.506C173.824 247.338 173.6 247.254 173.283 247.254C172.984 247.254 172.723 247.352 172.499 247.548C172.275 247.744 172.102 248.01 171.981 248.346C171.86 248.682 171.799 249.069 171.799 249.508V252H169.839V245.882H171.617ZM178.152 245.882H180.112V252H178.152V245.882ZM178.11 243.712C178.11 243.423 178.222 243.185 178.446 242.998C178.679 242.811 178.926 242.718 179.188 242.718C179.449 242.718 179.687 242.811 179.902 242.998C180.126 243.185 180.238 243.423 180.238 243.712C180.238 244.001 180.126 244.239 179.902 244.426C179.687 244.603 179.449 244.692 179.188 244.692C178.926 244.692 178.679 244.603 178.446 244.426C178.222 244.239 178.11 244.001 178.11 243.712ZM182.704 243.194H184.664V245.854H186.148V247.38H184.664V252H182.704V247.38H181.752V245.854H182.704V243.194ZM187.64 245.882H189.6V252H187.64V245.882ZM187.598 243.712C187.598 243.423 187.71 243.185 187.934 242.998C188.167 242.811 188.415 242.718 188.676 242.718C188.937 242.718 189.175 242.811 189.39 242.998C189.614 243.185 189.726 243.423 189.726 243.712C189.726 244.001 189.614 244.239 189.39 244.426C189.175 244.603 188.937 244.692 188.676 244.692C188.415 244.692 188.167 244.603 187.934 244.426C187.71 244.239 187.598 244.001 187.598 243.712ZM194.194 252.168C193.625 252.168 193.107 252.056 192.64 251.832C192.183 251.599 191.819 251.244 191.548 250.768C191.278 250.292 191.142 249.685 191.142 248.948C191.142 248.257 191.282 247.66 191.562 247.156C191.842 246.652 192.211 246.265 192.668 245.994C193.126 245.714 193.611 245.574 194.124 245.574C194.731 245.574 195.188 245.677 195.496 245.882C195.814 246.078 196.075 246.297 196.28 246.54L196.196 246.778L196.378 245.882H198.198V252H196.238V250.67L196.392 251.09C196.374 251.09 196.318 251.146 196.224 251.258C196.131 251.361 195.991 251.487 195.804 251.636C195.627 251.776 195.403 251.897 195.132 252C194.871 252.112 194.558 252.168 194.194 252.168ZM194.754 250.572C194.988 250.572 195.198 250.539 195.384 250.474C195.571 250.399 195.734 250.297 195.874 250.166C196.014 250.026 196.136 249.853 196.238 249.648V248.15C196.164 247.945 196.052 247.772 195.902 247.632C195.753 247.483 195.576 247.371 195.37 247.296C195.165 247.212 194.936 247.17 194.684 247.17C194.404 247.17 194.143 247.245 193.9 247.394C193.667 247.534 193.48 247.73 193.34 247.982C193.2 248.234 193.13 248.523 193.13 248.85C193.13 249.177 193.205 249.471 193.354 249.732C193.504 249.993 193.7 250.199 193.942 250.348C194.194 250.497 194.465 250.572 194.754 250.572ZM200.218 240.954H202.178V252H200.218V240.954ZM204.196 245.882H206.156V252H204.196V245.882ZM204.154 243.712C204.154 243.423 204.266 243.185 204.49 242.998C204.724 242.811 204.971 242.718 205.232 242.718C205.494 242.718 205.732 242.811 205.946 242.998C206.17 243.185 206.282 243.423 206.282 243.712C206.282 244.001 206.17 244.239 205.946 244.426C205.732 244.603 205.494 244.692 205.232 244.692C204.971 244.692 204.724 244.603 204.49 244.426C204.266 244.239 204.154 244.001 204.154 243.712ZM209.127 247.478C208.791 247.478 208.497 247.357 208.245 247.114C207.993 246.871 207.867 246.545 207.867 246.134V245.294H209.337V245.49C209.337 245.686 209.37 245.803 209.435 245.84C209.51 245.868 209.636 245.882 209.813 245.882H213.691L210.303 250.81L209.939 250.404H213.649V252H207.447L210.933 246.918L211.227 247.478H209.127ZM218.065 252.168C217.496 252.168 216.978 252.056 216.511 251.832C216.054 251.599 215.69 251.244 215.419 250.768C215.149 250.292 215.013 249.685 215.013 248.948C215.013 248.257 215.153 247.66 215.433 247.156C215.713 246.652 216.082 246.265 216.539 245.994C216.997 245.714 217.482 245.574 217.995 245.574C218.602 245.574 219.059 245.677 219.367 245.882C219.685 246.078 219.946 246.297 220.151 246.54L220.067 246.778L220.249 245.882H222.069V252H220.109V250.67L220.263 251.09C220.245 251.09 220.189 251.146 220.095 251.258C220.002 251.361 219.862 251.487 219.675 251.636C219.498 251.776 219.274 251.897 219.003 252C218.742 252.112 218.429 252.168 218.065 252.168ZM218.625 250.572C218.859 250.572 219.069 250.539 219.255 250.474C219.442 250.399 219.605 250.297 219.745 250.166C219.885 250.026 220.007 249.853 220.109 249.648V248.15C220.035 247.945 219.923 247.772 219.773 247.632C219.624 247.483 219.447 247.371 219.241 247.296C219.036 247.212 218.807 247.17 218.555 247.17C218.275 247.17 218.014 247.245 217.771 247.394C217.538 247.534 217.351 247.73 217.211 247.982C217.071 248.234 217.001 248.523 217.001 248.85C217.001 249.177 217.076 249.471 217.225 249.732C217.375 249.993 217.571 250.199 217.813 250.348C218.065 250.497 218.336 250.572 218.625 250.572ZM224.663 243.194H226.623V245.854H228.107V247.38H226.623V252H224.663V247.38H223.711V245.854H224.663V243.194ZM229.599 245.882H231.559V252H229.599V245.882ZM229.557 243.712C229.557 243.423 229.669 243.185 229.893 242.998C230.126 242.811 230.373 242.718 230.635 242.718C230.896 242.718 231.134 242.811 231.349 242.998C231.573 243.185 231.685 243.423 231.685 243.712C231.685 244.001 231.573 244.239 231.349 244.426C231.134 244.603 230.896 244.692 230.635 244.692C230.373 244.692 230.126 244.603 229.893 244.426C229.669 244.239 229.557 244.001 229.557 243.712ZM233.101 248.864C233.101 248.239 233.246 247.679 233.535 247.184C233.834 246.689 234.249 246.302 234.781 246.022C235.313 245.733 235.925 245.588 236.615 245.588C237.315 245.588 237.922 245.733 238.435 246.022C238.949 246.302 239.341 246.689 239.611 247.184C239.891 247.679 240.031 248.239 240.031 248.864C240.031 249.489 239.891 250.054 239.611 250.558C239.341 251.053 238.949 251.445 238.435 251.734C237.922 252.023 237.306 252.168 236.587 252.168C235.915 252.168 235.313 252.037 234.781 251.776C234.259 251.515 233.848 251.137 233.549 250.642C233.251 250.147 233.101 249.555 233.101 248.864ZM235.075 248.878C235.075 249.195 235.141 249.485 235.271 249.746C235.402 249.998 235.579 250.199 235.803 250.348C236.027 250.497 236.279 250.572 236.559 250.572C236.867 250.572 237.133 250.497 237.357 250.348C237.581 250.199 237.754 249.998 237.875 249.746C237.997 249.485 238.057 249.195 238.057 248.878C238.057 248.551 237.997 248.262 237.875 248.01C237.754 247.758 237.581 247.557 237.357 247.408C237.133 247.259 236.867 247.184 236.559 247.184C236.279 247.184 236.027 247.259 235.803 247.408C235.579 247.557 235.402 247.758 235.271 248.01C235.141 248.262 235.075 248.551 235.075 248.878ZM243.353 245.882L243.507 246.974L243.479 246.876C243.694 246.493 243.997 246.185 244.389 245.952C244.781 245.709 245.262 245.588 245.831 245.588C246.41 245.588 246.891 245.761 247.273 246.106C247.665 246.442 247.866 246.881 247.875 247.422V252H245.915V248.15C245.906 247.879 245.831 247.665 245.691 247.506C245.561 247.338 245.337 247.254 245.019 247.254C244.721 247.254 244.459 247.352 244.235 247.548C244.011 247.744 243.839 248.01 243.717 248.346C243.596 248.682 243.535 249.069 243.535 249.508V252H241.575V245.882H243.353Z" fill="#ED1B24"/>
<path d="M75.1773 128.192C75.1773 128.519 75.2753 128.831 75.4713 129.13C75.6673 129.429 75.924 129.671 76.2413 129.858C76.568 130.045 76.9227 130.138 77.3053 130.138C77.7253 130.138 78.0987 130.045 78.4253 129.858C78.752 129.671 79.0087 129.429 79.1953 129.13C79.3913 128.831 79.4893 128.519 79.4893 128.192V121.696H81.4913V128.234C81.4913 128.99 81.3047 129.662 80.9313 130.25C80.558 130.829 80.054 131.286 79.4193 131.622C78.7847 131.949 78.08 132.112 77.3053 132.112C76.54 132.112 75.84 131.949 75.2053 131.622C74.58 131.286 74.0807 130.829 73.7073 130.25C73.334 129.662 73.1473 128.99 73.1473 128.234V121.696H75.1773V128.192ZM85.3954 125.882L85.5494 126.974L85.5214 126.876C85.736 126.493 86.0394 126.185 86.4314 125.952C86.8234 125.709 87.304 125.588 87.8734 125.588C88.452 125.588 88.9327 125.761 89.3154 126.106C89.7074 126.442 89.908 126.881 89.9174 127.422V132H87.9574V128.15C87.948 127.879 87.8734 127.665 87.7334 127.506C87.6027 127.338 87.3787 127.254 87.0614 127.254C86.7627 127.254 86.5014 127.352 86.2774 127.548C86.0534 127.744 85.8807 128.01 85.7594 128.346C85.638 128.682 85.5774 129.069 85.5774 129.508V132H83.6174V125.882H85.3954ZM94.4219 132.168C93.8525 132.168 93.3439 132.037 92.8959 131.776C92.4479 131.505 92.0932 131.118 91.8319 130.614C91.5799 130.11 91.4539 129.513 91.4539 128.822C91.4539 128.131 91.5939 127.543 91.8739 127.058C92.1539 126.573 92.5365 126.204 93.0219 125.952C93.5072 125.7 94.0579 125.574 94.6739 125.574C95.0659 125.574 95.4392 125.635 95.7939 125.756C96.1579 125.877 96.4612 126.064 96.7039 126.316V126.932V120.954H98.6499V132H96.6899V130.81L96.8439 131.23C96.5265 131.491 96.1719 131.715 95.7799 131.902C95.3879 132.079 94.9352 132.168 94.4219 132.168ZM95.0659 130.516C95.3272 130.516 95.5559 130.483 95.7519 130.418C95.9572 130.343 96.1345 130.241 96.2839 130.11C96.4425 129.97 96.5779 129.797 96.6899 129.592V128.094C96.6152 127.889 96.4985 127.716 96.3399 127.576C96.1905 127.427 96.0039 127.315 95.7799 127.24C95.5652 127.156 95.3272 127.114 95.0659 127.114C94.7765 127.114 94.5059 127.189 94.2539 127.338C94.0112 127.478 93.8152 127.674 93.6659 127.926C93.5165 128.178 93.4419 128.467 93.4419 128.794C93.4419 129.121 93.5165 129.415 93.6659 129.676C93.8152 129.937 94.0112 130.143 94.2539 130.292C94.5059 130.441 94.7765 130.516 95.0659 130.516ZM103.676 132.168C102.93 132.168 102.295 132.028 101.772 131.748C101.259 131.468 100.867 131.081 100.596 130.586C100.326 130.091 100.19 129.522 100.19 128.878C100.19 128.262 100.349 127.707 100.666 127.212C100.984 126.717 101.408 126.325 101.94 126.036C102.472 125.737 103.065 125.588 103.718 125.588C104.596 125.588 105.314 125.845 105.874 126.358C106.444 126.862 106.812 127.595 106.98 128.556L102.22 130.068L101.786 129.004L105.23 127.842L104.824 128.024C104.75 127.781 104.614 127.571 104.418 127.394C104.232 127.207 103.947 127.114 103.564 127.114C103.275 127.114 103.018 127.184 102.794 127.324C102.58 127.455 102.412 127.646 102.29 127.898C102.178 128.141 102.122 128.43 102.122 128.766C102.122 129.149 102.192 129.471 102.332 129.732C102.472 129.984 102.664 130.175 102.906 130.306C103.149 130.437 103.42 130.502 103.718 130.502C103.933 130.502 104.138 130.465 104.334 130.39C104.54 130.315 104.74 130.217 104.936 130.096L105.804 131.552C105.478 131.739 105.123 131.888 104.74 132C104.367 132.112 104.012 132.168 103.676 132.168ZM110.168 125.882L110.35 127.562L110.308 127.31C110.486 126.946 110.728 126.638 111.036 126.386C111.344 126.125 111.648 125.924 111.946 125.784C112.254 125.644 112.488 125.574 112.646 125.574L112.548 127.534C112.091 127.478 111.699 127.553 111.372 127.758C111.046 127.963 110.794 128.234 110.616 128.57C110.439 128.906 110.35 129.251 110.35 129.606V132H108.404V125.882H110.168ZM116.135 132.126C115.631 132.126 115.159 132.037 114.721 131.86C114.291 131.683 113.927 131.435 113.629 131.118L114.441 130.04C114.739 130.311 115.015 130.507 115.267 130.628C115.528 130.74 115.761 130.796 115.967 130.796C116.125 130.796 116.265 130.782 116.387 130.754C116.517 130.717 116.62 130.665 116.695 130.6C116.769 130.525 116.807 130.432 116.807 130.32C116.807 130.161 116.741 130.035 116.611 129.942C116.489 129.849 116.331 129.774 116.135 129.718C115.939 129.653 115.729 129.587 115.505 129.522C114.945 129.345 114.539 129.088 114.287 128.752C114.044 128.407 113.923 128.033 113.923 127.632C113.923 127.324 114.002 127.016 114.161 126.708C114.329 126.391 114.59 126.129 114.945 125.924C115.309 125.709 115.775 125.602 116.345 125.602C116.858 125.602 117.292 125.653 117.647 125.756C118.001 125.859 118.337 126.027 118.655 126.26L117.913 127.408C117.735 127.268 117.535 127.151 117.311 127.058C117.096 126.955 116.895 126.899 116.709 126.89C116.541 126.881 116.396 126.899 116.275 126.946C116.163 126.993 116.074 127.053 116.009 127.128C115.943 127.203 115.911 127.282 115.911 127.366C115.901 127.543 115.967 127.683 116.107 127.786C116.256 127.889 116.443 127.968 116.667 128.024C116.891 128.08 117.11 128.145 117.325 128.22C117.623 128.313 117.88 128.439 118.095 128.598C118.309 128.757 118.473 128.948 118.585 129.172C118.706 129.387 118.767 129.648 118.767 129.956C118.767 130.329 118.669 130.684 118.473 131.02C118.286 131.347 117.997 131.613 117.605 131.818C117.222 132.023 116.732 132.126 116.135 132.126ZM120.982 123.194H122.942V125.854H124.426V127.38H122.942V132H120.982V127.38H120.03V125.854H120.982V123.194ZM128.494 132.168C127.925 132.168 127.407 132.056 126.94 131.832C126.483 131.599 126.119 131.244 125.848 130.768C125.577 130.292 125.442 129.685 125.442 128.948C125.442 128.257 125.582 127.66 125.862 127.156C126.142 126.652 126.511 126.265 126.968 125.994C127.425 125.714 127.911 125.574 128.424 125.574C129.031 125.574 129.488 125.677 129.796 125.882C130.113 126.078 130.375 126.297 130.58 126.54L130.496 126.778L130.678 125.882H132.498V132H130.538V130.67L130.692 131.09C130.673 131.09 130.617 131.146 130.524 131.258C130.431 131.361 130.291 131.487 130.104 131.636C129.927 131.776 129.703 131.897 129.432 132C129.171 132.112 128.858 132.168 128.494 132.168ZM129.054 130.572C129.287 130.572 129.497 130.539 129.684 130.474C129.871 130.399 130.034 130.297 130.174 130.166C130.314 130.026 130.435 129.853 130.538 129.648V128.15C130.463 127.945 130.351 127.772 130.202 127.632C130.053 127.483 129.875 127.371 129.67 127.296C129.465 127.212 129.236 127.17 128.984 127.17C128.704 127.17 128.443 127.245 128.2 127.394C127.967 127.534 127.78 127.73 127.64 127.982C127.5 128.234 127.43 128.523 127.43 128.85C127.43 129.177 127.505 129.471 127.654 129.732C127.803 129.993 127.999 130.199 128.242 130.348C128.494 130.497 128.765 130.572 129.054 130.572ZM136.296 125.882L136.45 126.974L136.422 126.876C136.636 126.493 136.94 126.185 137.332 125.952C137.724 125.709 138.204 125.588 138.774 125.588C139.352 125.588 139.833 125.761 140.216 126.106C140.608 126.442 140.808 126.881 140.818 127.422V132H138.858V128.15C138.848 127.879 138.774 127.665 138.634 127.506C138.503 127.338 138.279 127.254 137.962 127.254C137.663 127.254 137.402 127.352 137.178 127.548C136.954 127.744 136.781 128.01 136.66 128.346C136.538 128.682 136.478 129.069 136.478 129.508V132H134.518V125.882H136.296ZM145.322 132.168C144.753 132.168 144.244 132.037 143.796 131.776C143.348 131.505 142.994 131.118 142.732 130.614C142.48 130.11 142.354 129.513 142.354 128.822C142.354 128.131 142.494 127.543 142.774 127.058C143.054 126.573 143.437 126.204 143.922 125.952C144.408 125.7 144.958 125.574 145.574 125.574C145.966 125.574 146.34 125.635 146.694 125.756C147.058 125.877 147.362 126.064 147.604 126.316V126.932V120.954H149.55V132H147.59V130.81L147.744 131.23C147.427 131.491 147.072 131.715 146.68 131.902C146.288 132.079 145.836 132.168 145.322 132.168ZM145.966 130.516C146.228 130.516 146.456 130.483 146.652 130.418C146.858 130.343 147.035 130.241 147.184 130.11C147.343 129.97 147.478 129.797 147.59 129.592V128.094C147.516 127.889 147.399 127.716 147.24 127.576C147.091 127.427 146.904 127.315 146.68 127.24C146.466 127.156 146.228 127.114 145.966 127.114C145.677 127.114 145.406 127.189 145.154 127.338C144.912 127.478 144.716 127.674 144.566 127.926C144.417 128.178 144.342 128.467 144.342 128.794C144.342 129.121 144.417 129.415 144.566 129.676C144.716 129.937 144.912 130.143 145.154 130.292C145.406 130.441 145.677 130.516 145.966 130.516ZM151.567 125.882H153.527V132H151.567V125.882ZM151.525 123.712C151.525 123.423 151.637 123.185 151.861 122.998C152.094 122.811 152.341 122.718 152.603 122.718C152.864 122.718 153.102 122.811 153.317 122.998C153.541 123.185 153.653 123.423 153.653 123.712C153.653 124.001 153.541 124.239 153.317 124.426C153.102 124.603 152.864 124.692 152.603 124.692C152.341 124.692 152.094 124.603 151.861 124.426C151.637 124.239 151.525 124.001 151.525 123.712ZM157.323 125.882L157.477 126.974L157.449 126.876C157.664 126.493 157.967 126.185 158.359 125.952C158.751 125.709 159.232 125.588 159.801 125.588C160.38 125.588 160.86 125.761 161.243 126.106C161.635 126.442 161.836 126.881 161.845 127.422V132H159.885V128.15C159.876 127.879 159.801 127.665 159.661 127.506C159.53 127.338 159.306 127.254 158.989 127.254C158.69 127.254 158.429 127.352 158.205 127.548C157.981 127.744 157.808 128.01 157.687 128.346C157.566 128.682 157.505 129.069 157.505 129.508V132H155.545V125.882H157.323ZM167.022 135.08C166.471 135.08 166.004 135.015 165.622 134.884C165.248 134.753 164.931 134.595 164.67 134.408C164.408 134.221 164.175 134.044 163.97 133.876L165.118 132.532C165.332 132.728 165.58 132.915 165.86 133.092C166.149 133.279 166.527 133.372 166.994 133.372C167.302 133.372 167.586 133.316 167.848 133.204C168.118 133.101 168.333 132.947 168.492 132.742C168.66 132.537 168.744 132.28 168.744 131.972V130.628L168.814 130.978C168.664 131.295 168.394 131.575 168.002 131.818C167.61 132.051 167.096 132.168 166.462 132.168C165.911 132.168 165.398 132.028 164.922 131.748C164.455 131.459 164.082 131.071 163.802 130.586C163.522 130.091 163.382 129.531 163.382 128.906C163.382 128.262 163.531 127.693 163.83 127.198C164.128 126.694 164.516 126.297 164.992 126.008C165.468 125.719 165.972 125.574 166.504 125.574C167.036 125.574 167.493 125.653 167.876 125.812C168.268 125.961 168.562 126.148 168.758 126.372L168.688 126.554L168.898 125.882H170.704V132C170.704 132.597 170.536 133.125 170.2 133.582C169.864 134.049 169.416 134.413 168.856 134.674C168.305 134.945 167.694 135.08 167.022 135.08ZM165.356 128.85C165.356 129.177 165.43 129.471 165.58 129.732C165.729 129.993 165.93 130.199 166.182 130.348C166.443 130.497 166.732 130.572 167.05 130.572C167.32 130.572 167.558 130.539 167.764 130.474C167.978 130.399 168.165 130.297 168.324 130.166C168.492 130.026 168.632 129.853 168.744 129.648V128.15C168.66 127.945 168.534 127.772 168.366 127.632C168.198 127.483 168.002 127.371 167.778 127.296C167.563 127.212 167.32 127.17 167.05 127.17C166.732 127.17 166.443 127.245 166.182 127.394C165.93 127.534 165.729 127.73 165.58 127.982C165.43 128.234 165.356 128.523 165.356 128.85ZM186.818 132.42L179.006 125.364L179.608 125.7L179.65 132H177.592V121.29H177.676L185.32 128.318L184.872 128.122L184.83 121.696H186.874V132.42H186.818ZM192.215 132.168C191.469 132.168 190.834 132.028 190.311 131.748C189.798 131.468 189.406 131.081 189.135 130.586C188.865 130.091 188.729 129.522 188.729 128.878C188.729 128.262 188.888 127.707 189.205 127.212C189.523 126.717 189.947 126.325 190.479 126.036C191.011 125.737 191.604 125.588 192.257 125.588C193.135 125.588 193.853 125.845 194.413 126.358C194.983 126.862 195.351 127.595 195.519 128.556L190.759 130.068L190.325 129.004L193.769 127.842L193.363 128.024C193.289 127.781 193.153 127.571 192.957 127.394C192.771 127.207 192.486 127.114 192.103 127.114C191.814 127.114 191.557 127.184 191.333 127.324C191.119 127.455 190.951 127.646 190.829 127.898C190.717 128.141 190.661 128.43 190.661 128.766C190.661 129.149 190.731 129.471 190.871 129.732C191.011 129.984 191.203 130.175 191.445 130.306C191.688 130.437 191.959 130.502 192.257 130.502C192.472 130.502 192.677 130.465 192.873 130.39C193.079 130.315 193.279 130.217 193.475 130.096L194.343 131.552C194.017 131.739 193.662 131.888 193.279 132C192.906 132.112 192.551 132.168 192.215 132.168ZM198.918 132.294C198.367 132.294 197.905 132.126 197.532 131.79C197.158 131.445 196.962 131.001 196.944 130.46V125.882H198.904V129.732C198.922 130.003 198.992 130.222 199.114 130.39C199.235 130.549 199.44 130.628 199.73 130.628C200.019 130.628 200.266 130.53 200.472 130.334C200.686 130.138 200.85 129.872 200.962 129.536C201.083 129.191 201.144 128.803 201.144 128.374V125.882H203.104V132H201.326L201.172 130.88L201.2 131.006C201.06 131.258 200.882 131.482 200.668 131.678C200.453 131.874 200.196 132.023 199.898 132.126C199.608 132.238 199.282 132.294 198.918 132.294ZM206.883 125.882L207.065 127.562L207.023 127.31C207.201 126.946 207.443 126.638 207.751 126.386C208.059 126.125 208.363 125.924 208.661 125.784C208.969 125.644 209.203 125.574 209.361 125.574L209.263 127.534C208.806 127.478 208.414 127.553 208.087 127.758C207.761 127.963 207.509 128.234 207.331 128.57C207.154 128.906 207.065 129.251 207.065 129.606V132H205.119V125.882H206.883ZM213.232 132.168C212.663 132.168 212.145 132.056 211.678 131.832C211.221 131.599 210.857 131.244 210.586 130.768C210.316 130.292 210.18 129.685 210.18 128.948C210.18 128.257 210.32 127.66 210.6 127.156C210.88 126.652 211.249 126.265 211.706 125.994C212.164 125.714 212.649 125.574 213.162 125.574C213.769 125.574 214.226 125.677 214.534 125.882C214.852 126.078 215.113 126.297 215.318 126.54L215.234 126.778L215.416 125.882H217.236V132H215.276V130.67L215.43 131.09C215.412 131.09 215.356 131.146 215.262 131.258C215.169 131.361 215.029 131.487 214.842 131.636C214.665 131.776 214.441 131.897 214.17 132C213.909 132.112 213.596 132.168 213.232 132.168ZM213.792 130.572C214.026 130.572 214.236 130.539 214.422 130.474C214.609 130.399 214.772 130.297 214.912 130.166C215.052 130.026 215.174 129.853 215.276 129.648V128.15C215.202 127.945 215.09 127.772 214.94 127.632C214.791 127.483 214.614 127.371 214.408 127.296C214.203 127.212 213.974 127.17 213.722 127.17C213.442 127.17 213.181 127.245 212.938 127.394C212.705 127.534 212.518 127.73 212.378 127.982C212.238 128.234 212.168 128.523 212.168 128.85C212.168 129.177 212.243 129.471 212.392 129.732C212.542 129.993 212.738 130.199 212.98 130.348C213.232 130.497 213.503 130.572 213.792 130.572ZM219.256 120.954H221.216V132H219.256V120.954ZM237.335 132.42L229.523 125.364L230.125 125.7L230.167 132H228.109V121.29H228.193L235.837 128.318L235.389 128.122L235.347 121.696H237.391V132.42H237.335ZM242.733 132.168C241.986 132.168 241.352 132.028 240.829 131.748C240.316 131.468 239.924 131.081 239.653 130.586C239.382 130.091 239.247 129.522 239.247 128.878C239.247 128.262 239.406 127.707 239.723 127.212C240.04 126.717 240.465 126.325 240.997 126.036C241.529 125.737 242.122 125.588 242.775 125.588C243.652 125.588 244.371 125.845 244.931 126.358C245.5 126.862 245.869 127.595 246.037 128.556L241.277 130.068L240.843 129.004L244.287 127.842L243.881 128.024C243.806 127.781 243.671 127.571 243.475 127.394C243.288 127.207 243.004 127.114 242.621 127.114C242.332 127.114 242.075 127.184 241.851 127.324C241.636 127.455 241.468 127.646 241.347 127.898C241.235 128.141 241.179 128.43 241.179 128.766C241.179 129.149 241.249 129.471 241.389 129.732C241.529 129.984 241.72 130.175 241.963 130.306C242.206 130.437 242.476 130.502 242.775 130.502C242.99 130.502 243.195 130.465 243.391 130.39C243.596 130.315 243.797 130.217 243.993 130.096L244.861 131.552C244.534 131.739 244.18 131.888 243.797 132C243.424 132.112 243.069 132.168 242.733 132.168ZM248.035 123.194H249.995V125.854H251.479V127.38H249.995V132H248.035V127.38H247.083V125.854H248.035V123.194ZM257.339 125.882L258.683 129.032L258.319 129.06L259.495 125.882H261.399L258.641 132.364L256.681 128.304L254.889 132.364L252.103 125.882H254.007L255.491 129.284L254.819 129.186L255.995 126.582L255.673 125.882H257.339ZM261.86 128.864C261.86 128.239 262.005 127.679 262.294 127.184C262.593 126.689 263.008 126.302 263.54 126.022C264.072 125.733 264.683 125.588 265.374 125.588C266.074 125.588 266.681 125.733 267.194 126.022C267.707 126.302 268.099 126.689 268.37 127.184C268.65 127.679 268.79 128.239 268.79 128.864C268.79 129.489 268.65 130.054 268.37 130.558C268.099 131.053 267.707 131.445 267.194 131.734C266.681 132.023 266.065 132.168 265.346 132.168C264.674 132.168 264.072 132.037 263.54 131.776C263.017 131.515 262.607 131.137 262.308 130.642C262.009 130.147 261.86 129.555 261.86 128.864ZM263.834 128.878C263.834 129.195 263.899 129.485 264.03 129.746C264.161 129.998 264.338 130.199 264.562 130.348C264.786 130.497 265.038 130.572 265.318 130.572C265.626 130.572 265.892 130.497 266.116 130.348C266.34 130.199 266.513 129.998 266.634 129.746C266.755 129.485 266.816 129.195 266.816 128.878C266.816 128.551 266.755 128.262 266.634 128.01C266.513 127.758 266.34 127.557 266.116 127.408C265.892 127.259 265.626 127.184 265.318 127.184C265.038 127.184 264.786 127.259 264.562 127.408C264.338 127.557 264.161 127.758 264.03 128.01C263.899 128.262 263.834 128.551 263.834 128.878ZM272.098 125.882L272.28 127.562L272.238 127.31C272.416 126.946 272.658 126.638 272.966 126.386C273.274 126.125 273.578 125.924 273.876 125.784C274.184 125.644 274.418 125.574 274.576 125.574L274.478 127.534C274.021 127.478 273.629 127.553 273.302 127.758C272.976 127.963 272.724 128.234 272.546 128.57C272.369 128.906 272.28 129.251 272.28 129.606V132H270.334V125.882H272.098ZM276.076 132V120.954H278.036V132H276.076ZM279.59 127.842L282.362 132H280.08L278.302 128.962L279.59 127.842ZM277.448 130.306L277.252 128.444L280.948 125.728L282.138 126.778L277.448 130.306ZM285.707 132.126C285.203 132.126 284.732 132.037 284.293 131.86C283.864 131.683 283.5 131.435 283.201 131.118L284.013 130.04C284.312 130.311 284.587 130.507 284.839 130.628C285.1 130.74 285.334 130.796 285.539 130.796C285.698 130.796 285.838 130.782 285.959 130.754C286.09 130.717 286.192 130.665 286.267 130.6C286.342 130.525 286.379 130.432 286.379 130.32C286.379 130.161 286.314 130.035 286.183 129.942C286.062 129.849 285.903 129.774 285.707 129.718C285.511 129.653 285.301 129.587 285.077 129.522C284.517 129.345 284.111 129.088 283.859 128.752C283.616 128.407 283.495 128.033 283.495 127.632C283.495 127.324 283.574 127.016 283.733 126.708C283.901 126.391 284.162 126.129 284.517 125.924C284.881 125.709 285.348 125.602 285.917 125.602C286.43 125.602 286.864 125.653 287.219 125.756C287.574 125.859 287.91 126.027 288.227 126.26L287.485 127.408C287.308 127.268 287.107 127.151 286.883 127.058C286.668 126.955 286.468 126.899 286.281 126.89C286.113 126.881 285.968 126.899 285.847 126.946C285.735 126.993 285.646 127.053 285.581 127.128C285.516 127.203 285.483 127.282 285.483 127.366C285.474 127.543 285.539 127.683 285.679 127.786C285.828 127.889 286.015 127.968 286.239 128.024C286.463 128.08 286.682 128.145 286.897 128.22C287.196 128.313 287.452 128.439 287.667 128.598C287.882 128.757 288.045 128.948 288.157 129.172C288.278 129.387 288.339 129.648 288.339 129.956C288.339 130.329 288.241 130.684 288.045 131.02C287.858 131.347 287.569 131.613 287.177 131.818C286.794 132.023 286.304 132.126 285.707 132.126Z" fill="#ED1B24"/>
<path d="M48.1076 281.696L51.1176 289.116L49.9416 288.878L52.6716 281.696H55.0796L50.3756 292.476L45.6716 281.696H48.1076ZM57.3662 292.168C56.7969 292.168 56.2789 292.056 55.8122 291.832C55.3549 291.599 54.9909 291.244 54.7202 290.768C54.4496 290.292 54.3142 289.685 54.3142 288.948C54.3142 288.257 54.4542 287.66 54.7342 287.156C55.0142 286.652 55.3829 286.265 55.8402 285.994C56.2976 285.714 56.7829 285.574 57.2962 285.574C57.9029 285.574 58.3602 285.677 58.6682 285.882C58.9856 286.078 59.2469 286.297 59.4522 286.54L59.3682 286.778L59.5502 285.882H61.3702V292H59.4102V290.67L59.5642 291.09C59.5456 291.09 59.4896 291.146 59.3962 291.258C59.3029 291.361 59.1629 291.487 58.9762 291.636C58.7989 291.776 58.5749 291.897 58.3042 292C58.0429 292.112 57.7302 292.168 57.3662 292.168ZM57.9262 290.572C58.1596 290.572 58.3696 290.539 58.5562 290.474C58.7429 290.399 58.9062 290.297 59.0462 290.166C59.1862 290.026 59.3076 289.853 59.4102 289.648V288.15C59.3356 287.945 59.2236 287.772 59.0742 287.632C58.9249 287.483 58.7476 287.371 58.5422 287.296C58.3369 287.212 58.1082 287.17 57.8562 287.17C57.5762 287.17 57.3149 287.245 57.0722 287.394C56.8389 287.534 56.6522 287.73 56.5122 287.982C56.3722 288.234 56.3022 288.523 56.3022 288.85C56.3022 289.177 56.3769 289.471 56.5262 289.732C56.6756 289.993 56.8716 290.199 57.1142 290.348C57.3662 290.497 57.6369 290.572 57.9262 290.572ZM65.1678 285.882L65.3218 286.974L65.2938 286.876C65.5085 286.493 65.8118 286.185 66.2038 285.952C66.5958 285.709 67.0765 285.588 67.6458 285.588C68.2245 285.588 68.7052 285.761 69.0878 286.106C69.4798 286.442 69.6805 286.881 69.6898 287.422V292H67.7298V288.15C67.7205 287.879 67.6458 287.665 67.5058 287.506C67.3752 287.338 67.1512 287.254 66.8338 287.254C66.5352 287.254 66.2738 287.352 66.0498 287.548C65.8258 287.744 65.6532 288.01 65.5318 288.346C65.4105 288.682 65.3498 289.069 65.3498 289.508V292H63.3898V285.882H65.1678ZM71.7023 285.882H73.6623V292H71.7023V285.882ZM71.6603 283.712C71.6603 283.423 71.7723 283.185 71.9963 282.998C72.2297 282.811 72.477 282.718 72.7383 282.718C72.9997 282.718 73.2377 282.811 73.4523 282.998C73.6763 283.185 73.7883 283.423 73.7883 283.712C73.7883 284.001 73.6763 284.239 73.4523 284.426C73.2377 284.603 72.9997 284.692 72.7383 284.692C72.477 284.692 72.2297 284.603 71.9963 284.426C71.7723 284.239 71.6603 284.001 71.6603 283.712ZM77.6689 292.126C77.1649 292.126 76.6935 292.037 76.2549 291.86C75.8255 291.683 75.4615 291.435 75.1629 291.118L75.9749 290.04C76.2735 290.311 76.5489 290.507 76.8009 290.628C77.0622 290.74 77.2955 290.796 77.5009 290.796C77.6595 290.796 77.7995 290.782 77.9209 290.754C78.0515 290.717 78.1542 290.665 78.2289 290.6C78.3035 290.525 78.3409 290.432 78.3409 290.32C78.3409 290.161 78.2755 290.035 78.1449 289.942C78.0235 289.849 77.8649 289.774 77.6689 289.718C77.4729 289.653 77.2629 289.587 77.0389 289.522C76.4789 289.345 76.0729 289.088 75.8209 288.752C75.5782 288.407 75.4569 288.033 75.4569 287.632C75.4569 287.324 75.5362 287.016 75.6949 286.708C75.8629 286.391 76.1242 286.129 76.4789 285.924C76.8429 285.709 77.3095 285.602 77.8789 285.602C78.3922 285.602 78.8262 285.653 79.1809 285.756C79.5355 285.859 79.8715 286.027 80.1889 286.26L79.4469 287.408C79.2695 287.268 79.0689 287.151 78.8449 287.058C78.6302 286.955 78.4295 286.899 78.2429 286.89C78.0749 286.881 77.9302 286.899 77.8089 286.946C77.6969 286.993 77.6082 287.053 77.5429 287.128C77.4775 287.203 77.4449 287.282 77.4449 287.366C77.4355 287.543 77.5009 287.683 77.6409 287.786C77.7902 287.889 77.9769 287.968 78.2009 288.024C78.4249 288.08 78.6442 288.145 78.8589 288.22C79.1575 288.313 79.4142 288.439 79.6289 288.598C79.8435 288.757 80.0069 288.948 80.1189 289.172C80.2402 289.387 80.3009 289.648 80.3009 289.956C80.3009 290.329 80.2029 290.684 80.0069 291.02C79.8202 291.347 79.5309 291.613 79.1389 291.818C78.7562 292.023 78.2662 292.126 77.6689 292.126ZM81.9426 292V280.954H83.8606V287.114L83.8466 286.876C84.0612 286.493 84.3646 286.185 84.7566 285.952C85.1486 285.709 85.6292 285.588 86.1986 285.588C86.7772 285.588 87.2579 285.761 87.6406 286.106C88.0326 286.442 88.2332 286.881 88.2426 287.422V292H86.2826V288.15C86.2732 287.879 86.1986 287.665 86.0586 287.506C85.9279 287.338 85.7039 287.254 85.3866 287.254C85.0879 287.254 84.8266 287.352 84.6026 287.548C84.3786 287.744 84.2059 288.01 84.0846 288.346C83.9632 288.682 83.9026 289.069 83.9026 289.508V292H81.9426ZM90.2551 285.882H92.2151V292H90.2551V285.882ZM90.2131 283.712C90.2131 283.423 90.3251 283.185 90.5491 282.998C90.7824 282.811 91.0297 282.718 91.2911 282.718C91.5524 282.718 91.7904 282.811 92.0051 282.998C92.2291 283.185 92.3411 283.423 92.3411 283.712C92.3411 284.001 92.2291 284.239 92.0051 284.426C91.7904 284.603 91.5524 284.692 91.2911 284.692C91.0297 284.692 90.7824 284.603 90.5491 284.426C90.3251 284.239 90.2131 284.001 90.2131 283.712ZM96.0116 285.882L96.1656 286.974L96.1376 286.876C96.3523 286.493 96.6556 286.185 97.0476 285.952C97.4396 285.709 97.9203 285.588 98.4896 285.588C99.0683 285.588 99.5489 285.761 99.9316 286.106C100.324 286.442 100.524 286.881 100.534 287.422V292H98.5736V288.15C98.5643 287.879 98.4896 287.665 98.3496 287.506C98.2189 287.338 97.9949 287.254 97.6776 287.254C97.3789 287.254 97.1176 287.352 96.8936 287.548C96.6696 287.744 96.4969 288.01 96.3756 288.346C96.2543 288.682 96.1936 289.069 96.1936 289.508V292H94.2336V285.882H96.0116ZM105.71 295.08C105.159 295.08 104.693 295.015 104.31 294.884C103.937 294.753 103.619 294.595 103.358 294.408C103.097 294.221 102.863 294.044 102.658 293.876L103.806 292.532C104.021 292.728 104.268 292.915 104.548 293.092C104.837 293.279 105.215 293.372 105.682 293.372C105.99 293.372 106.275 293.316 106.536 293.204C106.807 293.101 107.021 292.947 107.18 292.742C107.348 292.537 107.432 292.28 107.432 291.972V290.628L107.502 290.978C107.353 291.295 107.082 291.575 106.69 291.818C106.298 292.051 105.785 292.168 105.15 292.168C104.599 292.168 104.086 292.028 103.61 291.748C103.143 291.459 102.77 291.071 102.49 290.586C102.21 290.091 102.07 289.531 102.07 288.906C102.07 288.262 102.219 287.693 102.518 287.198C102.817 286.694 103.204 286.297 103.68 286.008C104.156 285.719 104.66 285.574 105.192 285.574C105.724 285.574 106.181 285.653 106.564 285.812C106.956 285.961 107.25 286.148 107.446 286.372L107.376 286.554L107.586 285.882H109.392V292C109.392 292.597 109.224 293.125 108.888 293.582C108.552 294.049 108.104 294.413 107.544 294.674C106.993 294.945 106.382 295.08 105.71 295.08ZM104.044 288.85C104.044 289.177 104.119 289.471 104.268 289.732C104.417 289.993 104.618 290.199 104.87 290.348C105.131 290.497 105.421 290.572 105.738 290.572C106.009 290.572 106.247 290.539 106.452 290.474C106.667 290.399 106.853 290.297 107.012 290.166C107.18 290.026 107.32 289.853 107.432 289.648V288.15C107.348 287.945 107.222 287.772 107.054 287.632C106.886 287.483 106.69 287.371 106.466 287.296C106.251 287.212 106.009 287.17 105.738 287.17C105.421 287.17 105.131 287.245 104.87 287.394C104.618 287.534 104.417 287.73 104.268 287.982C104.119 288.234 104.044 288.523 104.044 288.85ZM120.928 281.486C120.266 283.287 119.603 285.084 118.94 286.876C118.278 288.668 117.615 290.465 116.952 292.266H115.188C115.851 290.465 116.514 288.668 117.176 286.876C117.839 285.084 118.502 283.287 119.164 281.486H120.928ZM126.726 281.696H133.754V283.656H128.756V285.854H133.18V287.814H128.756V290.04H133.95V292H126.726V281.696ZM138.5 287.828L139.662 285.882H141.608L139.186 289.242L138.5 287.828ZM141.944 292H139.578L134.86 285.882H137.268L141.944 292ZM138.248 290.04L136.876 292H134.93L137.352 288.724L138.248 290.04ZM146.933 292.168C146.569 292.168 146.21 292.103 145.855 291.972C145.51 291.832 145.22 291.636 144.987 291.384L145.043 290.81V294.94H143.097V285.742H144.777L145.057 286.932L144.903 286.512C145.22 286.241 145.575 286.017 145.967 285.84C146.359 285.663 146.812 285.574 147.325 285.574C147.894 285.574 148.403 285.709 148.851 285.98C149.299 286.241 149.649 286.624 149.901 287.128C150.162 287.623 150.293 288.22 150.293 288.92C150.293 289.611 150.148 290.199 149.859 290.684C149.57 291.169 149.173 291.538 148.669 291.79C148.165 292.042 147.586 292.168 146.933 292.168ZM146.541 290.628C146.858 290.628 147.148 290.558 147.409 290.418C147.68 290.278 147.894 290.082 148.053 289.83C148.221 289.569 148.305 289.275 148.305 288.948C148.305 288.603 148.23 288.304 148.081 288.052C147.941 287.791 147.745 287.59 147.493 287.45C147.25 287.301 146.98 287.226 146.681 287.226C146.42 287.226 146.186 287.263 145.981 287.338C145.785 287.403 145.608 287.506 145.449 287.646C145.3 287.777 145.169 287.945 145.057 288.15V289.648C145.132 289.844 145.239 290.017 145.379 290.166C145.519 290.315 145.687 290.432 145.883 290.516C146.088 290.591 146.308 290.628 146.541 290.628ZM151.833 280.954H153.793V292H151.833V280.954ZM155.336 288.864C155.336 288.239 155.48 287.679 155.77 287.184C156.068 286.689 156.484 286.302 157.016 286.022C157.548 285.733 158.159 285.588 158.85 285.588C159.55 285.588 160.156 285.733 160.67 286.022C161.183 286.302 161.575 286.689 161.846 287.184C162.126 287.679 162.266 288.239 162.266 288.864C162.266 289.489 162.126 290.054 161.846 290.558C161.575 291.053 161.183 291.445 160.67 291.734C160.156 292.023 159.54 292.168 158.822 292.168C158.15 292.168 157.548 292.037 157.016 291.776C156.493 291.515 156.082 291.137 155.784 290.642C155.485 290.147 155.336 289.555 155.336 288.864ZM157.31 288.878C157.31 289.195 157.375 289.485 157.506 289.746C157.636 289.998 157.814 290.199 158.038 290.348C158.262 290.497 158.514 290.572 158.794 290.572C159.102 290.572 159.368 290.497 159.592 290.348C159.816 290.199 159.988 289.998 160.11 289.746C160.231 289.485 160.292 289.195 160.292 288.878C160.292 288.551 160.231 288.262 160.11 288.01C159.988 287.758 159.816 287.557 159.592 287.408C159.368 287.259 159.102 287.184 158.794 287.184C158.514 287.184 158.262 287.259 158.038 287.408C157.814 287.557 157.636 287.758 157.506 288.01C157.375 288.262 157.31 288.551 157.31 288.878ZM166.302 292.168C165.732 292.168 165.224 292.037 164.776 291.776C164.328 291.505 163.973 291.118 163.712 290.614C163.46 290.11 163.334 289.513 163.334 288.822C163.334 288.131 163.474 287.543 163.754 287.058C164.034 286.573 164.416 286.204 164.902 285.952C165.387 285.7 165.938 285.574 166.554 285.574C166.946 285.574 167.319 285.635 167.674 285.756C168.038 285.877 168.341 286.064 168.584 286.316V286.932V280.954H170.53V292H168.57V290.81L168.724 291.23C168.406 291.491 168.052 291.715 167.66 291.902C167.268 292.079 166.815 292.168 166.302 292.168ZM166.946 290.516C167.207 290.516 167.436 290.483 167.632 290.418C167.837 290.343 168.014 290.241 168.164 290.11C168.322 289.97 168.458 289.797 168.57 289.592V288.094C168.495 287.889 168.378 287.716 168.22 287.576C168.07 287.427 167.884 287.315 167.66 287.24C167.445 287.156 167.207 287.114 166.946 287.114C166.656 287.114 166.386 287.189 166.134 287.338C165.891 287.478 165.695 287.674 165.546 287.926C165.396 288.178 165.322 288.467 165.322 288.794C165.322 289.121 165.396 289.415 165.546 289.676C165.695 289.937 165.891 290.143 166.134 290.292C166.386 290.441 166.656 290.516 166.946 290.516ZM172.546 285.882H174.506V292H172.546V285.882ZM172.504 283.712C172.504 283.423 172.616 283.185 172.84 282.998C173.073 282.811 173.321 282.718 173.582 282.718C173.843 282.718 174.081 282.811 174.296 282.998C174.52 283.185 174.632 283.423 174.632 283.712C174.632 284.001 174.52 284.239 174.296 284.426C174.081 284.603 173.843 284.692 173.582 284.692C173.321 284.692 173.073 284.603 172.84 284.426C172.616 284.239 172.504 284.001 172.504 283.712ZM178.303 285.882L178.457 286.974L178.429 286.876C178.643 286.493 178.947 286.185 179.339 285.952C179.731 285.709 180.211 285.588 180.781 285.588C181.359 285.588 181.84 285.761 182.223 286.106C182.615 286.442 182.815 286.881 182.825 287.422V292H180.865V288.15C180.855 287.879 180.781 287.665 180.641 287.506C180.51 287.338 180.286 287.254 179.969 287.254C179.67 287.254 179.409 287.352 179.185 287.548C178.961 287.744 178.788 288.01 178.667 288.346C178.545 288.682 178.485 289.069 178.485 289.508V292H176.525V285.882H178.303ZM188.001 295.08C187.45 295.08 186.984 295.015 186.601 294.884C186.228 294.753 185.91 294.595 185.649 294.408C185.388 294.221 185.154 294.044 184.949 293.876L186.097 292.532C186.312 292.728 186.559 292.915 186.839 293.092C187.128 293.279 187.506 293.372 187.973 293.372C188.281 293.372 188.566 293.316 188.827 293.204C189.098 293.101 189.312 292.947 189.471 292.742C189.639 292.537 189.723 292.28 189.723 291.972V290.628L189.793 290.978C189.644 291.295 189.373 291.575 188.981 291.818C188.589 292.051 188.076 292.168 187.441 292.168C186.89 292.168 186.377 292.028 185.901 291.748C185.434 291.459 185.061 291.071 184.781 290.586C184.501 290.091 184.361 289.531 184.361 288.906C184.361 288.262 184.51 287.693 184.809 287.198C185.108 286.694 185.495 286.297 185.971 286.008C186.447 285.719 186.951 285.574 187.483 285.574C188.015 285.574 188.472 285.653 188.855 285.812C189.247 285.961 189.541 286.148 189.737 286.372L189.667 286.554L189.877 285.882H191.683V292C191.683 292.597 191.515 293.125 191.179 293.582C190.843 294.049 190.395 294.413 189.835 294.674C189.284 294.945 188.673 295.08 188.001 295.08ZM186.335 288.85C186.335 289.177 186.41 289.471 186.559 289.732C186.708 289.993 186.909 290.199 187.161 290.348C187.422 290.497 187.712 290.572 188.029 290.572C188.3 290.572 188.538 290.539 188.743 290.474C188.958 290.399 189.144 290.297 189.303 290.166C189.471 290.026 189.611 289.853 189.723 289.648V288.15C189.639 287.945 189.513 287.772 189.345 287.632C189.177 287.483 188.981 287.371 188.757 287.296C188.542 287.212 188.3 287.17 188.029 287.17C187.712 287.17 187.422 287.245 187.161 287.394C186.909 287.534 186.708 287.73 186.559 287.982C186.41 288.234 186.335 288.523 186.335 288.85ZM206.929 290.964C206.808 291.095 206.617 291.23 206.355 291.37C206.094 291.501 205.791 291.622 205.445 291.734C205.109 291.846 204.764 291.935 204.409 292C204.055 292.075 203.719 292.112 203.401 292.112C202.561 292.112 201.805 291.991 201.133 291.748C200.461 291.496 199.887 291.151 199.411 290.712C198.935 290.264 198.571 289.737 198.319 289.13C198.067 288.523 197.941 287.861 197.941 287.142C197.941 286.199 198.081 285.383 198.361 284.692C198.651 283.992 199.038 283.413 199.523 282.956C200.018 282.489 200.583 282.144 201.217 281.92C201.861 281.696 202.533 281.584 203.233 281.584C203.896 281.584 204.503 281.659 205.053 281.808C205.604 281.948 206.071 282.125 206.453 282.34L205.795 284.23C205.627 284.137 205.403 284.043 205.123 283.95C204.843 283.857 204.559 283.782 204.269 283.726C203.98 283.661 203.723 283.628 203.499 283.628C202.939 283.628 202.445 283.698 202.015 283.838C201.586 283.978 201.222 284.188 200.923 284.468C200.634 284.748 200.415 285.098 200.265 285.518C200.116 285.929 200.041 286.409 200.041 286.96C200.041 287.445 200.125 287.884 200.293 288.276C200.461 288.659 200.695 288.985 200.993 289.256C201.301 289.527 201.661 289.732 202.071 289.872C202.491 290.012 202.953 290.082 203.457 290.082C203.747 290.082 204.013 290.063 204.255 290.026C204.498 289.979 204.703 289.909 204.871 289.816V288.57H203.093V286.61H206.929V290.964ZM210.677 285.882L210.859 287.562L210.817 287.31C210.995 286.946 211.237 286.638 211.545 286.386C211.853 286.125 212.157 285.924 212.455 285.784C212.763 285.644 212.997 285.574 213.155 285.574L213.057 287.534C212.6 287.478 212.208 287.553 211.881 287.758C211.555 287.963 211.303 288.234 211.125 288.57C210.948 288.906 210.859 289.251 210.859 289.606V292H208.913V285.882H210.677ZM217.026 292.168C216.457 292.168 215.939 292.056 215.472 291.832C215.015 291.599 214.651 291.244 214.38 290.768C214.11 290.292 213.974 289.685 213.974 288.948C213.974 288.257 214.114 287.66 214.394 287.156C214.674 286.652 215.043 286.265 215.5 285.994C215.958 285.714 216.443 285.574 216.956 285.574C217.563 285.574 218.02 285.677 218.328 285.882C218.646 286.078 218.907 286.297 219.112 286.54L219.028 286.778L219.21 285.882H221.03V292H219.07V290.67L219.224 291.09C219.206 291.09 219.15 291.146 219.056 291.258C218.963 291.361 218.823 291.487 218.636 291.636C218.459 291.776 218.235 291.897 217.964 292C217.703 292.112 217.39 292.168 217.026 292.168ZM217.586 290.572C217.82 290.572 218.03 290.539 218.216 290.474C218.403 290.399 218.566 290.297 218.706 290.166C218.846 290.026 218.968 289.853 219.07 289.648V288.15C218.996 287.945 218.884 287.772 218.734 287.632C218.585 287.483 218.408 287.371 218.202 287.296C217.997 287.212 217.768 287.17 217.516 287.17C217.236 287.17 216.975 287.245 216.732 287.394C216.499 287.534 216.312 287.73 216.172 287.982C216.032 288.234 215.962 288.523 215.962 288.85C215.962 289.177 216.037 289.471 216.186 289.732C216.336 289.993 216.532 290.199 216.774 290.348C217.026 290.497 217.297 290.572 217.586 290.572ZM225.542 292.168C224.973 292.168 224.464 292.037 224.016 291.776C223.568 291.505 223.213 291.118 222.952 290.614C222.7 290.11 222.574 289.513 222.574 288.822C222.574 288.131 222.714 287.543 222.994 287.058C223.274 286.573 223.657 286.204 224.142 285.952C224.627 285.7 225.178 285.574 225.794 285.574C226.186 285.574 226.559 285.635 226.914 285.756C227.278 285.877 227.581 286.064 227.824 286.316V286.932V280.954H229.77V292H227.81V290.81L227.964 291.23C227.647 291.491 227.292 291.715 226.9 291.902C226.508 292.079 226.055 292.168 225.542 292.168ZM226.186 290.516C226.447 290.516 226.676 290.483 226.872 290.418C227.077 290.343 227.255 290.241 227.404 290.11C227.563 289.97 227.698 289.797 227.81 289.592V288.094C227.735 287.889 227.619 287.716 227.46 287.576C227.311 287.427 227.124 287.315 226.9 287.24C226.685 287.156 226.447 287.114 226.186 287.114C225.897 287.114 225.626 287.189 225.374 287.338C225.131 287.478 224.935 287.674 224.786 287.926C224.637 288.178 224.562 288.467 224.562 288.794C224.562 289.121 224.637 289.415 224.786 289.676C224.935 289.937 225.131 290.143 225.374 290.292C225.626 290.441 225.897 290.516 226.186 290.516ZM231.786 285.882H233.746V292H231.786V285.882ZM231.744 283.712C231.744 283.423 231.856 283.185 232.08 282.998C232.314 282.811 232.561 282.718 232.822 282.718C233.084 282.718 233.322 282.811 233.536 282.998C233.76 283.185 233.872 283.423 233.872 283.712C233.872 284.001 233.76 284.239 233.536 284.426C233.322 284.603 233.084 284.692 232.822 284.692C232.561 284.692 232.314 284.603 232.08 284.426C231.856 284.239 231.744 284.001 231.744 283.712ZM238.775 292.168C238.028 292.168 237.394 292.028 236.871 291.748C236.358 291.468 235.966 291.081 235.695 290.586C235.424 290.091 235.289 289.522 235.289 288.878C235.289 288.262 235.448 287.707 235.765 287.212C236.082 286.717 236.507 286.325 237.039 286.036C237.571 285.737 238.164 285.588 238.817 285.588C239.694 285.588 240.413 285.845 240.973 286.358C241.542 286.862 241.911 287.595 242.079 288.556L237.319 290.068L236.885 289.004L240.329 287.842L239.923 288.024C239.848 287.781 239.713 287.571 239.517 287.394C239.33 287.207 239.046 287.114 238.663 287.114C238.374 287.114 238.117 287.184 237.893 287.324C237.678 287.455 237.51 287.646 237.389 287.898C237.277 288.141 237.221 288.43 237.221 288.766C237.221 289.149 237.291 289.471 237.431 289.732C237.571 289.984 237.762 290.175 238.005 290.306C238.248 290.437 238.518 290.502 238.817 290.502C239.032 290.502 239.237 290.465 239.433 290.39C239.638 290.315 239.839 290.217 240.035 290.096L240.903 291.552C240.576 291.739 240.222 291.888 239.839 292C239.466 292.112 239.111 292.168 238.775 292.168ZM245.281 285.882L245.435 286.974L245.407 286.876C245.622 286.493 245.925 286.185 246.317 285.952C246.709 285.709 247.19 285.588 247.759 285.588C248.338 285.588 248.818 285.761 249.201 286.106C249.593 286.442 249.794 286.881 249.803 287.422V292H247.843V288.15C247.834 287.879 247.759 287.665 247.619 287.506C247.488 287.338 247.264 287.254 246.947 287.254C246.648 287.254 246.387 287.352 246.163 287.548C245.939 287.744 245.766 288.01 245.645 288.346C245.524 288.682 245.463 289.069 245.463 289.508V292H243.503V285.882H245.281ZM252.39 283.194H254.35V285.854H255.834V287.38H254.35V292H252.39V287.38H251.438V285.854H252.39V283.194ZM265.322 281.696C266.171 281.696 266.89 281.841 267.478 282.13C268.066 282.41 268.514 282.811 268.822 283.334C269.13 283.847 269.284 284.459 269.284 285.168C269.284 285.588 269.219 286.013 269.088 286.442C268.967 286.862 268.766 287.245 268.486 287.59C268.215 287.935 267.847 288.215 267.38 288.43C266.923 288.635 266.358 288.738 265.686 288.738H264.23V292H262.2V281.696H265.322ZM265.672 286.764C265.98 286.764 266.237 286.713 266.442 286.61C266.647 286.498 266.806 286.363 266.918 286.204C267.039 286.036 267.123 285.863 267.17 285.686C267.226 285.509 267.254 285.355 267.254 285.224C267.254 285.121 267.235 284.986 267.198 284.818C267.17 284.641 267.105 284.463 267.002 284.286C266.899 284.109 266.741 283.959 266.526 283.838C266.321 283.717 266.041 283.656 265.686 283.656H264.23V286.764H265.672ZM272.543 285.882L272.725 287.562L272.683 287.31C272.86 286.946 273.103 286.638 273.411 286.386C273.719 286.125 274.022 285.924 274.321 285.784C274.629 285.644 274.862 285.574 275.021 285.574L274.923 287.534C274.465 287.478 274.073 287.553 273.747 287.758C273.42 287.963 273.168 288.234 272.991 288.57C272.813 288.906 272.725 289.251 272.725 289.606V292H270.779V285.882H272.543ZM275.771 288.864C275.771 288.239 275.916 287.679 276.205 287.184C276.504 286.689 276.919 286.302 277.451 286.022C277.983 285.733 278.595 285.588 279.285 285.588C279.985 285.588 280.592 285.733 281.105 286.022C281.619 286.302 282.011 286.689 282.281 287.184C282.561 287.679 282.701 288.239 282.701 288.864C282.701 289.489 282.561 290.054 282.281 290.558C282.011 291.053 281.619 291.445 281.105 291.734C280.592 292.023 279.976 292.168 279.257 292.168C278.585 292.168 277.983 292.037 277.451 291.776C276.929 291.515 276.518 291.137 276.219 290.642C275.921 290.147 275.771 289.555 275.771 288.864ZM277.745 288.878C277.745 289.195 277.811 289.485 277.941 289.746C278.072 289.998 278.249 290.199 278.473 290.348C278.697 290.497 278.949 290.572 279.229 290.572C279.537 290.572 279.803 290.497 280.027 290.348C280.251 290.199 280.424 289.998 280.545 289.746C280.667 289.485 280.727 289.195 280.727 288.878C280.727 288.551 280.667 288.262 280.545 288.01C280.424 287.758 280.251 287.557 280.027 287.408C279.803 287.259 279.537 287.184 279.229 287.184C278.949 287.184 278.697 287.259 278.473 287.408C278.249 287.557 278.072 287.758 277.941 288.01C277.811 288.262 277.745 288.551 277.745 288.878ZM288.263 292.168C287.75 292.168 287.316 292.084 286.961 291.916C286.616 291.739 286.313 291.51 286.051 291.23L286.205 290.81V292H284.245V280.954H286.191V286.932V286.302C286.434 286.097 286.756 285.924 287.157 285.784C287.559 285.644 288.016 285.574 288.529 285.574C289.061 285.574 289.547 285.7 289.985 285.952C290.424 286.204 290.774 286.573 291.035 287.058C291.306 287.534 291.441 288.117 291.441 288.808C291.441 289.499 291.292 290.096 290.993 290.6C290.704 291.104 290.317 291.491 289.831 291.762C289.346 292.033 288.823 292.168 288.263 292.168ZM287.829 290.516C288.119 290.516 288.385 290.441 288.627 290.292C288.879 290.143 289.08 289.937 289.229 289.676C289.379 289.415 289.453 289.121 289.453 288.794C289.453 288.467 289.379 288.178 289.229 287.926C289.08 287.674 288.879 287.478 288.627 287.338C288.385 287.189 288.119 287.114 287.829 287.114C287.577 287.114 287.339 287.156 287.115 287.24C286.901 287.315 286.714 287.427 286.555 287.576C286.406 287.716 286.289 287.889 286.205 288.094V289.592C286.317 289.797 286.448 289.97 286.597 290.11C286.756 290.241 286.938 290.343 287.143 290.418C287.349 290.483 287.577 290.516 287.829 290.516ZM292.982 280.954H294.942V292H292.982V280.954ZM299.97 292.168C299.223 292.168 298.589 292.028 298.066 291.748C297.553 291.468 297.161 291.081 296.89 290.586C296.619 290.091 296.484 289.522 296.484 288.878C296.484 288.262 296.643 287.707 296.96 287.212C297.277 286.717 297.702 286.325 298.234 286.036C298.766 285.737 299.359 285.588 300.012 285.588C300.889 285.588 301.608 285.845 302.168 286.358C302.737 286.862 303.106 287.595 303.274 288.556L298.514 290.068L298.08 289.004L301.524 287.842L301.118 288.024C301.043 287.781 300.908 287.571 300.712 287.394C300.525 287.207 300.241 287.114 299.858 287.114C299.569 287.114 299.312 287.184 299.088 287.324C298.873 287.455 298.705 287.646 298.584 287.898C298.472 288.141 298.416 288.43 298.416 288.766C298.416 289.149 298.486 289.471 298.626 289.732C298.766 289.984 298.957 290.175 299.2 290.306C299.443 290.437 299.713 290.502 300.012 290.502C300.227 290.502 300.432 290.465 300.628 290.39C300.833 290.315 301.034 290.217 301.23 290.096L302.098 291.552C301.771 291.739 301.417 291.888 301.034 292C300.661 292.112 300.306 292.168 299.97 292.168ZM306.476 285.882L306.63 286.96L306.602 286.876C306.845 286.465 307.148 286.148 307.512 285.924C307.876 285.691 308.315 285.574 308.828 285.574C309.164 285.574 309.458 285.621 309.71 285.714C309.972 285.807 310.191 285.947 310.368 286.134C310.546 286.311 310.667 286.545 310.732 286.834L310.662 286.848C310.924 286.465 311.236 286.157 311.6 285.924C311.974 285.691 312.361 285.574 312.762 285.574C313.369 285.574 313.85 285.747 314.204 286.092C314.568 286.428 314.755 286.867 314.764 287.408V292H312.818V288.22C312.809 287.949 312.767 287.73 312.692 287.562C312.618 287.385 312.445 287.287 312.174 287.268C311.857 287.268 311.586 287.38 311.362 287.604C311.148 287.819 310.984 288.099 310.872 288.444C310.77 288.78 310.718 289.13 310.718 289.494V292H308.758V288.22C308.749 287.949 308.698 287.73 308.604 287.562C308.52 287.385 308.343 287.287 308.072 287.268C307.764 287.268 307.503 287.38 307.288 287.604C307.083 287.819 306.924 288.094 306.812 288.43C306.71 288.766 306.658 289.111 306.658 289.466V292H304.698V285.882H306.476Z" fill="#ED1B24"/>
<path d="M132.658 161.696H134.688V170.04H139.532V172H132.658V161.696ZM140.829 168.864C140.829 168.239 140.974 167.679 141.263 167.184C141.562 166.689 141.977 166.302 142.509 166.022C143.041 165.733 143.652 165.588 144.343 165.588C145.043 165.588 145.65 165.733 146.163 166.022C146.676 166.302 147.068 166.689 147.339 167.184C147.619 167.679 147.759 168.239 147.759 168.864C147.759 169.489 147.619 170.054 147.339 170.558C147.068 171.053 146.676 171.445 146.163 171.734C145.65 172.023 145.034 172.168 144.315 172.168C143.643 172.168 143.041 172.037 142.509 171.776C141.986 171.515 141.576 171.137 141.277 170.642C140.978 170.147 140.829 169.555 140.829 168.864ZM142.803 168.878C142.803 169.195 142.868 169.485 142.999 169.746C143.13 169.998 143.307 170.199 143.531 170.348C143.755 170.497 144.007 170.572 144.287 170.572C144.595 170.572 144.861 170.497 145.085 170.348C145.309 170.199 145.482 169.998 145.603 169.746C145.724 169.485 145.785 169.195 145.785 168.878C145.785 168.551 145.724 168.262 145.603 168.01C145.482 167.758 145.309 167.557 145.085 167.408C144.861 167.259 144.595 167.184 144.287 167.184C144.007 167.184 143.755 167.259 143.531 167.408C143.307 167.557 143.13 167.758 142.999 168.01C142.868 168.262 142.803 168.551 142.803 168.878ZM151.291 172.126C150.787 172.126 150.316 172.037 149.877 171.86C149.448 171.683 149.084 171.435 148.785 171.118L149.597 170.04C149.896 170.311 150.171 170.507 150.423 170.628C150.684 170.74 150.918 170.796 151.123 170.796C151.282 170.796 151.422 170.782 151.543 170.754C151.674 170.717 151.776 170.665 151.851 170.6C151.926 170.525 151.963 170.432 151.963 170.32C151.963 170.161 151.898 170.035 151.767 169.942C151.646 169.849 151.487 169.774 151.291 169.718C151.095 169.653 150.885 169.587 150.661 169.522C150.101 169.345 149.695 169.088 149.443 168.752C149.2 168.407 149.079 168.033 149.079 167.632C149.079 167.324 149.158 167.016 149.317 166.708C149.485 166.391 149.746 166.129 150.101 165.924C150.465 165.709 150.932 165.602 151.501 165.602C152.014 165.602 152.448 165.653 152.803 165.756C153.158 165.859 153.494 166.027 153.811 166.26L153.069 167.408C152.892 167.268 152.691 167.151 152.467 167.058C152.252 166.955 152.052 166.899 151.865 166.89C151.697 166.881 151.552 166.899 151.431 166.946C151.319 166.993 151.23 167.053 151.165 167.128C151.1 167.203 151.067 167.282 151.067 167.366C151.058 167.543 151.123 167.683 151.263 167.786C151.412 167.889 151.599 167.968 151.823 168.024C152.047 168.08 152.266 168.145 152.481 168.22C152.78 168.313 153.036 168.439 153.251 168.598C153.466 168.757 153.629 168.948 153.741 169.172C153.862 169.387 153.923 169.648 153.923 169.956C153.923 170.329 153.825 170.684 153.629 171.02C153.442 171.347 153.153 171.613 152.761 171.818C152.378 172.023 151.888 172.126 151.291 172.126ZM157.553 172.126C157.049 172.126 156.577 172.037 156.139 171.86C155.709 171.683 155.345 171.435 155.047 171.118L155.859 170.04C156.157 170.311 156.433 170.507 156.685 170.628C156.946 170.74 157.179 170.796 157.385 170.796C157.543 170.796 157.683 170.782 157.805 170.754C157.935 170.717 158.038 170.665 158.113 170.6C158.187 170.525 158.225 170.432 158.225 170.32C158.225 170.161 158.159 170.035 158.029 169.942C157.907 169.849 157.749 169.774 157.553 169.718C157.357 169.653 157.147 169.587 156.923 169.522C156.363 169.345 155.957 169.088 155.705 168.752C155.462 168.407 155.341 168.033 155.341 167.632C155.341 167.324 155.42 167.016 155.579 166.708C155.747 166.391 156.008 166.129 156.363 165.924C156.727 165.709 157.193 165.602 157.763 165.602C158.276 165.602 158.71 165.653 159.065 165.756C159.419 165.859 159.755 166.027 160.073 166.26L159.331 167.408C159.153 167.268 158.953 167.151 158.729 167.058C158.514 166.955 158.313 166.899 158.127 166.89C157.959 166.881 157.814 166.899 157.693 166.946C157.581 166.993 157.492 167.053 157.427 167.128C157.361 167.203 157.329 167.282 157.329 167.366C157.319 167.543 157.385 167.683 157.525 167.786C157.674 167.889 157.861 167.968 158.085 168.024C158.309 168.08 158.528 168.145 158.743 168.22C159.041 168.313 159.298 168.439 159.513 168.598C159.727 168.757 159.891 168.948 160.003 169.172C160.124 169.387 160.185 169.648 160.185 169.956C160.185 170.329 160.087 170.684 159.891 171.02C159.704 171.347 159.415 171.613 159.023 171.818C158.64 172.023 158.15 172.126 157.553 172.126ZM166.701 161.696H173.141V163.656H168.731V165.994H172.553V167.954H168.731V172H166.701V161.696ZM176.406 172.294C175.855 172.294 175.393 172.126 175.02 171.79C174.646 171.445 174.45 171.001 174.432 170.46V165.882H176.392V169.732C176.41 170.003 176.48 170.222 176.602 170.39C176.723 170.549 176.928 170.628 177.218 170.628C177.507 170.628 177.754 170.53 177.96 170.334C178.174 170.138 178.338 169.872 178.45 169.536C178.571 169.191 178.632 168.803 178.632 168.374V165.882H180.592V172H178.814L178.66 170.88L178.688 171.006C178.548 171.258 178.37 171.482 178.156 171.678C177.941 171.874 177.684 172.023 177.386 172.126C177.096 172.238 176.77 172.294 176.406 172.294ZM184.386 165.882L184.54 166.974L184.512 166.876C184.726 166.493 185.03 166.185 185.422 165.952C185.814 165.709 186.294 165.588 186.864 165.588C187.442 165.588 187.923 165.761 188.306 166.106C188.698 166.442 188.898 166.881 188.908 167.422V172H186.948V168.15C186.938 167.879 186.864 167.665 186.724 167.506C186.593 167.338 186.369 167.254 186.052 167.254C185.753 167.254 185.492 167.352 185.268 167.548C185.044 167.744 184.871 168.01 184.75 168.346C184.628 168.682 184.568 169.069 184.568 169.508V172H182.608V165.882H184.386ZM196.114 171.454C195.843 171.669 195.503 171.841 195.092 171.972C194.691 172.103 194.294 172.168 193.902 172.168C193.202 172.168 192.591 172.042 192.068 171.79C191.555 171.529 191.153 171.16 190.864 170.684C190.584 170.199 190.444 169.615 190.444 168.934C190.444 168.253 190.598 167.674 190.906 167.198C191.214 166.713 191.615 166.344 192.11 166.092C192.614 165.84 193.141 165.714 193.692 165.714C194.243 165.714 194.719 165.789 195.12 165.938C195.531 166.087 195.881 166.283 196.17 166.526L195.218 167.786C195.087 167.683 194.905 167.581 194.672 167.478C194.448 167.366 194.182 167.31 193.874 167.31C193.603 167.31 193.356 167.38 193.132 167.52C192.908 167.66 192.731 167.851 192.6 168.094C192.469 168.337 192.404 168.617 192.404 168.934C192.404 169.233 192.474 169.508 192.614 169.76C192.754 170.012 192.945 170.213 193.188 170.362C193.44 170.502 193.734 170.572 194.07 170.572C194.285 170.572 194.481 170.544 194.658 170.488C194.845 170.423 195.003 170.334 195.134 170.222L196.114 171.454ZM198.193 163.194H200.153V165.854H201.637V167.38H200.153V172H198.193V167.38H197.241V165.854H198.193V163.194ZM203.129 165.882H205.089V172H203.129V165.882ZM203.087 163.712C203.087 163.423 203.199 163.185 203.423 162.998C203.656 162.811 203.904 162.718 204.165 162.718C204.426 162.718 204.664 162.811 204.879 162.998C205.103 163.185 205.215 163.423 205.215 163.712C205.215 164.001 205.103 164.239 204.879 164.426C204.664 164.603 204.426 164.692 204.165 164.692C203.904 164.692 203.656 164.603 203.423 164.426C203.199 164.239 203.087 164.001 203.087 163.712ZM206.632 168.864C206.632 168.239 206.776 167.679 207.066 167.184C207.364 166.689 207.78 166.302 208.312 166.022C208.844 165.733 209.455 165.588 210.146 165.588C210.846 165.588 211.452 165.733 211.966 166.022C212.479 166.302 212.871 166.689 213.142 167.184C213.422 167.679 213.562 168.239 213.562 168.864C213.562 169.489 213.422 170.054 213.142 170.558C212.871 171.053 212.479 171.445 211.966 171.734C211.452 172.023 210.836 172.168 210.118 172.168C209.446 172.168 208.844 172.037 208.312 171.776C207.789 171.515 207.378 171.137 207.08 170.642C206.781 170.147 206.632 169.555 206.632 168.864ZM208.606 168.878C208.606 169.195 208.671 169.485 208.802 169.746C208.932 169.998 209.11 170.199 209.334 170.348C209.558 170.497 209.81 170.572 210.09 170.572C210.398 170.572 210.664 170.497 210.888 170.348C211.112 170.199 211.284 169.998 211.406 169.746C211.527 169.485 211.588 169.195 211.588 168.878C211.588 168.551 211.527 168.262 211.406 168.01C211.284 167.758 211.112 167.557 210.888 167.408C210.664 167.259 210.398 167.184 210.09 167.184C209.81 167.184 209.558 167.259 209.334 167.408C209.11 167.557 208.932 167.758 208.802 168.01C208.671 168.262 208.606 168.551 208.606 168.878ZM216.884 165.882L217.038 166.974L217.01 166.876C217.224 166.493 217.528 166.185 217.92 165.952C218.312 165.709 218.792 165.588 219.362 165.588C219.94 165.588 220.421 165.761 220.804 166.106C221.196 166.442 221.396 166.881 221.406 167.422V172H219.446V168.15C219.436 167.879 219.362 167.665 219.222 167.506C219.091 167.338 218.867 167.254 218.55 167.254C218.251 167.254 217.99 167.352 217.766 167.548C217.542 167.744 217.369 168.01 217.248 168.346C217.126 168.682 217.066 169.069 217.066 169.508V172H215.106V165.882H216.884ZM225.406 172.126C224.902 172.126 224.431 172.037 223.992 171.86C223.563 171.683 223.199 171.435 222.9 171.118L223.712 170.04C224.011 170.311 224.286 170.507 224.538 170.628C224.799 170.74 225.033 170.796 225.238 170.796C225.397 170.796 225.537 170.782 225.658 170.754C225.789 170.717 225.891 170.665 225.966 170.6C226.041 170.525 226.078 170.432 226.078 170.32C226.078 170.161 226.013 170.035 225.882 169.942C225.761 169.849 225.602 169.774 225.406 169.718C225.21 169.653 225 169.587 224.776 169.522C224.216 169.345 223.81 169.088 223.558 168.752C223.315 168.407 223.194 168.033 223.194 167.632C223.194 167.324 223.273 167.016 223.432 166.708C223.6 166.391 223.861 166.129 224.216 165.924C224.58 165.709 225.047 165.602 225.616 165.602C226.129 165.602 226.563 165.653 226.918 165.756C227.273 165.859 227.609 166.027 227.926 166.26L227.184 167.408C227.007 167.268 226.806 167.151 226.582 167.058C226.367 166.955 226.167 166.899 225.98 166.89C225.812 166.881 225.667 166.899 225.546 166.946C225.434 166.993 225.345 167.053 225.28 167.128C225.215 167.203 225.182 167.282 225.182 167.366C225.173 167.543 225.238 167.683 225.378 167.786C225.527 167.889 225.714 167.968 225.938 168.024C226.162 168.08 226.381 168.145 226.596 168.22C226.895 168.313 227.151 168.439 227.366 168.598C227.581 168.757 227.744 168.948 227.856 169.172C227.977 169.387 228.038 169.648 228.038 169.956C228.038 170.329 227.94 170.684 227.744 171.02C227.557 171.347 227.268 171.613 226.876 171.818C226.493 172.023 226.003 172.126 225.406 172.126Z" fill="#ED1B24"/>
<path d="M135.556 87.42L127.744 80.364L128.346 80.7L128.388 87H126.33V76.29H126.414L134.058 83.318L133.61 83.122L133.568 76.696H135.612V87.42H135.556ZM140.954 87.168C140.207 87.168 139.572 87.028 139.05 86.748C138.536 86.468 138.144 86.0807 137.874 85.586C137.603 85.0913 137.468 84.522 137.468 83.878C137.468 83.262 137.626 82.7067 137.944 82.212C138.261 81.7173 138.686 81.3253 139.218 81.036C139.75 80.7373 140.342 80.588 140.996 80.588C141.873 80.588 142.592 80.8447 143.152 81.358C143.721 81.862 144.09 82.5947 144.258 83.556L139.498 85.068L139.064 84.004L142.508 82.842L142.102 83.024C142.027 82.7813 141.892 82.5713 141.696 82.394C141.509 82.2073 141.224 82.114 140.842 82.114C140.552 82.114 140.296 82.184 140.072 82.324C139.857 82.4547 139.689 82.646 139.568 82.898C139.456 83.1407 139.4 83.43 139.4 83.766C139.4 84.1487 139.47 84.4707 139.61 84.732C139.75 84.984 139.941 85.1753 140.184 85.306C140.426 85.4367 140.697 85.502 140.996 85.502C141.21 85.502 141.416 85.4647 141.612 85.39C141.817 85.3153 142.018 85.2173 142.214 85.096L143.082 86.552C142.755 86.7387 142.4 86.888 142.018 87C141.644 87.112 141.29 87.168 140.954 87.168ZM147.656 87.294C147.105 87.294 146.643 87.126 146.27 86.79C145.896 86.4447 145.7 86.0013 145.682 85.46V80.882H147.642V84.732C147.66 85.0027 147.73 85.222 147.852 85.39C147.973 85.5487 148.178 85.628 148.468 85.628C148.757 85.628 149.004 85.53 149.21 85.334C149.424 85.138 149.588 84.872 149.7 84.536C149.821 84.1907 149.882 83.8033 149.882 83.374V80.882H151.842V87H150.064L149.91 85.88L149.938 86.006C149.798 86.258 149.62 86.482 149.406 86.678C149.191 86.874 148.934 87.0233 148.636 87.126C148.346 87.238 148.02 87.294 147.656 87.294ZM155.622 80.882L155.804 82.562L155.762 82.31C155.939 81.946 156.182 81.638 156.49 81.386C156.798 81.1247 157.101 80.924 157.4 80.784C157.708 80.644 157.941 80.574 158.1 80.574L158.002 82.534C157.544 82.478 157.152 82.5527 156.826 82.758C156.499 82.9633 156.247 83.234 156.07 83.57C155.892 83.906 155.804 84.2513 155.804 84.606V87H153.858V80.882H155.622ZM161.971 87.168C161.401 87.168 160.883 87.056 160.417 86.832C159.959 86.5987 159.595 86.244 159.325 85.768C159.054 85.292 158.919 84.6853 158.919 83.948C158.919 83.2573 159.059 82.66 159.339 82.156C159.619 81.652 159.987 81.2647 160.445 80.994C160.902 80.714 161.387 80.574 161.901 80.574C162.507 80.574 162.965 80.6767 163.273 80.882C163.59 81.078 163.851 81.2973 164.057 81.54L163.973 81.778L164.155 80.882H165.975V87H164.015V85.67L164.169 86.09C164.15 86.09 164.094 86.146 164.001 86.258C163.907 86.3607 163.767 86.4867 163.581 86.636C163.403 86.776 163.179 86.8973 162.909 87C162.647 87.112 162.335 87.168 161.971 87.168ZM162.531 85.572C162.764 85.572 162.974 85.5393 163.161 85.474C163.347 85.3993 163.511 85.2967 163.651 85.166C163.791 85.026 163.912 84.8533 164.015 84.648V83.15C163.94 82.9447 163.828 82.772 163.679 82.632C163.529 82.4827 163.352 82.3707 163.147 82.296C162.941 82.212 162.713 82.17 162.461 82.17C162.181 82.17 161.919 82.2447 161.677 82.394C161.443 82.534 161.257 82.73 161.117 82.982C160.977 83.234 160.907 83.5233 160.907 83.85C160.907 84.1767 160.981 84.4707 161.131 84.732C161.28 84.9933 161.476 85.1987 161.719 85.348C161.971 85.4973 162.241 85.572 162.531 85.572ZM167.994 75.954H169.954V87H167.994V75.954ZM186.074 87.42L178.262 80.364L178.864 80.7L178.906 87H176.848V76.29H176.932L184.576 83.318L184.128 83.122L184.086 76.696H186.13V87.42H186.074ZM191.471 87.168C190.724 87.168 190.09 87.028 189.567 86.748C189.054 86.468 188.662 86.0807 188.391 85.586C188.12 85.0913 187.985 84.522 187.985 83.878C187.985 83.262 188.144 82.7067 188.461 82.212C188.778 81.7173 189.203 81.3253 189.735 81.036C190.267 80.7373 190.86 80.588 191.513 80.588C192.39 80.588 193.109 80.8447 193.669 81.358C194.238 81.862 194.607 82.5947 194.775 83.556L190.015 85.068L189.581 84.004L193.025 82.842L192.619 83.024C192.544 82.7813 192.409 82.5713 192.213 82.394C192.026 82.2073 191.742 82.114 191.359 82.114C191.07 82.114 190.813 82.184 190.589 82.324C190.374 82.4547 190.206 82.646 190.085 82.898C189.973 83.1407 189.917 83.43 189.917 83.766C189.917 84.1487 189.987 84.4707 190.127 84.732C190.267 84.984 190.458 85.1753 190.701 85.306C190.944 85.4367 191.214 85.502 191.513 85.502C191.728 85.502 191.933 85.4647 192.129 85.39C192.334 85.3153 192.535 85.2173 192.731 85.096L193.599 86.552C193.272 86.7387 192.918 86.888 192.535 87C192.162 87.112 191.807 87.168 191.471 87.168ZM196.773 78.194H198.733V80.854H200.217V82.38H198.733V87H196.773V82.38H195.821V80.854H196.773V78.194ZM206.077 80.882L207.421 84.032L207.057 84.06L208.233 80.882H210.137L207.379 87.364L205.419 83.304L203.627 87.364L200.841 80.882H202.745L204.229 84.284L203.557 84.186L204.733 81.582L204.411 80.882H206.077ZM210.598 83.864C210.598 83.2387 210.743 82.6787 211.032 82.184C211.331 81.6893 211.746 81.302 212.278 81.022C212.81 80.7327 213.422 80.588 214.112 80.588C214.812 80.588 215.419 80.7327 215.932 81.022C216.446 81.302 216.838 81.6893 217.108 82.184C217.388 82.6787 217.528 83.2387 217.528 83.864C217.528 84.4893 217.388 85.054 217.108 85.558C216.838 86.0527 216.446 86.4447 215.932 86.734C215.419 87.0233 214.803 87.168 214.084 87.168C213.412 87.168 212.81 87.0373 212.278 86.776C211.756 86.5147 211.345 86.1367 211.046 85.642C210.748 85.1473 210.598 84.5547 210.598 83.864ZM212.572 83.878C212.572 84.1953 212.638 84.4847 212.768 84.746C212.899 84.998 213.076 85.1987 213.3 85.348C213.524 85.4973 213.776 85.572 214.056 85.572C214.364 85.572 214.63 85.4973 214.854 85.348C215.078 85.1987 215.251 84.998 215.372 84.746C215.494 84.4847 215.554 84.1953 215.554 83.878C215.554 83.5513 215.494 83.262 215.372 83.01C215.251 82.758 215.078 82.5573 214.854 82.408C214.63 82.2587 214.364 82.184 214.056 82.184C213.776 82.184 213.524 82.2587 213.3 82.408C213.076 82.5573 212.899 82.758 212.768 83.01C212.638 83.262 212.572 83.5513 212.572 83.878ZM220.836 80.882L221.018 82.562L220.976 82.31C221.154 81.946 221.396 81.638 221.704 81.386C222.012 81.1247 222.316 80.924 222.614 80.784C222.922 80.644 223.156 80.574 223.314 80.574L223.216 82.534C222.759 82.478 222.367 82.5527 222.04 82.758C221.714 82.9633 221.462 83.234 221.284 83.57C221.107 83.906 221.018 84.2513 221.018 84.606V87H219.072V80.882H220.836ZM224.815 87V75.954H226.775V87H224.815ZM228.329 82.842L231.101 87H228.819L227.041 83.962L228.329 82.842ZM226.187 85.306L225.991 83.444L229.687 80.728L230.877 81.778L226.187 85.306ZM234.445 87.126C233.941 87.126 233.47 87.0373 233.031 86.86C232.602 86.6827 232.238 86.4353 231.939 86.118L232.751 85.04C233.05 85.3107 233.325 85.5067 233.577 85.628C233.839 85.74 234.072 85.796 234.277 85.796C234.436 85.796 234.576 85.782 234.697 85.754C234.828 85.7167 234.931 85.6653 235.005 85.6C235.08 85.5253 235.117 85.432 235.117 85.32C235.117 85.1613 235.052 85.0353 234.921 84.942C234.8 84.8487 234.641 84.774 234.445 84.718C234.249 84.6527 234.039 84.5873 233.815 84.522C233.255 84.3447 232.849 84.088 232.597 83.752C232.355 83.4067 232.233 83.0333 232.233 82.632C232.233 82.324 232.313 82.016 232.471 81.708C232.639 81.3907 232.901 81.1293 233.255 80.924C233.619 80.7093 234.086 80.602 234.655 80.602C235.169 80.602 235.603 80.6533 235.957 80.756C236.312 80.8587 236.648 81.0267 236.965 81.26L236.223 82.408C236.046 82.268 235.845 82.1513 235.621 82.058C235.407 81.9553 235.206 81.8993 235.019 81.89C234.851 81.8807 234.707 81.8993 234.585 81.946C234.473 81.9927 234.385 82.0533 234.319 82.128C234.254 82.2027 234.221 82.282 234.221 82.366C234.212 82.5433 234.277 82.6833 234.417 82.786C234.567 82.8887 234.753 82.968 234.977 83.024C235.201 83.08 235.421 83.1453 235.635 83.22C235.934 83.3133 236.191 83.4393 236.405 83.598C236.62 83.7567 236.783 83.948 236.895 84.172C237.017 84.3867 237.077 84.648 237.077 84.956C237.077 85.3293 236.979 85.684 236.783 86.02C236.597 86.3467 236.307 86.6127 235.915 86.818C235.533 87.0233 235.043 87.126 234.445 87.126Z" fill="black"/>
<line x1="183.25" y1="-5.46392e-08" x2="183.25" y2="63" stroke="black" stroke-opacity="0.5" stroke-width="2.5"/>
<line x1="183.25" y1="303" x2="183.25" y2="355" stroke="black" stroke-opacity="0.5" stroke-width="2.5"/>
</svg>
