<svg width="355" height="360" viewBox="0 0 355 360" fill="none" xmlns="http://www.w3.org/2000/svg">
<rect x="105.5" y="0.5" width="249" height="245" rx="14.5" stroke="#ED1B24"/>
<path d="M202.789 10.696C203.638 10.696 204.357 10.8407 204.945 11.13C205.533 11.41 205.981 11.8113 206.289 12.334C206.597 12.8473 206.751 13.4587 206.751 14.168C206.751 14.588 206.686 15.0127 206.555 15.442C206.434 15.862 206.233 16.2447 205.953 16.59C205.682 16.9353 205.314 17.2153 204.847 17.43C204.39 17.6353 203.825 17.738 203.153 17.738H201.697V21H199.667V10.696H202.789ZM203.139 15.764C203.447 15.764 203.704 15.7127 203.909 15.61C204.114 15.498 204.273 15.3627 204.385 15.204C204.506 15.036 204.59 14.8633 204.637 14.686C204.693 14.5087 204.721 14.3547 204.721 14.224C204.721 14.1213 204.702 13.986 204.665 13.818C204.637 13.6407 204.572 13.4633 204.469 13.286C204.366 13.1087 204.208 12.9593 203.993 12.838C203.788 12.7167 203.508 12.656 203.153 12.656H201.697V15.764H203.139ZM210.009 14.882L210.191 16.562L210.149 16.31C210.327 15.946 210.569 15.638 210.877 15.386C211.185 15.1247 211.489 14.924 211.787 14.784C212.095 14.644 212.329 14.574 212.487 14.574L212.389 16.534C211.932 16.478 211.54 16.5527 211.213 16.758C210.887 16.9633 210.635 17.234 210.457 17.57C210.28 17.906 210.191 18.2513 210.191 18.606V21H208.245V14.882H210.009ZM213.987 14.882H215.947V21H213.987V14.882ZM213.945 12.712C213.945 12.4227 214.057 12.1847 214.281 11.998C214.515 11.8113 214.762 11.718 215.023 11.718C215.285 11.718 215.523 11.8113 215.737 11.998C215.961 12.1847 216.073 12.4227 216.073 12.712C216.073 13.0013 215.961 13.2393 215.737 13.426C215.523 13.6033 215.285 13.692 215.023 13.692C214.762 13.692 214.515 13.6033 214.281 13.426C214.057 13.2393 213.945 13.0013 213.945 12.712ZM219.744 14.882L219.898 15.974L219.87 15.876C220.085 15.4933 220.388 15.1853 220.78 14.952C221.172 14.7093 221.653 14.588 222.222 14.588C222.801 14.588 223.281 14.7607 223.664 15.106C224.056 15.442 224.257 15.8807 224.266 16.422V21H222.306V17.15C222.297 16.8793 222.222 16.6647 222.082 16.506C221.951 16.338 221.727 16.254 221.41 16.254C221.111 16.254 220.85 16.352 220.626 16.548C220.402 16.744 220.229 17.01 220.108 17.346C219.987 17.682 219.926 18.0693 219.926 18.508V21H217.966V14.882H219.744ZM231.473 20.454C231.202 20.6687 230.861 20.8413 230.451 20.972C230.049 21.1027 229.653 21.168 229.261 21.168C228.561 21.168 227.949 21.042 227.427 20.79C226.913 20.5287 226.512 20.16 226.223 19.684C225.943 19.1987 225.803 18.6153 225.803 17.934C225.803 17.2527 225.957 16.674 226.265 16.198C226.573 15.7127 226.974 15.344 227.469 15.092C227.973 14.84 228.5 14.714 229.051 14.714C229.601 14.714 230.077 14.7887 230.479 14.938C230.889 15.0873 231.239 15.2833 231.529 15.526L230.577 16.786C230.446 16.6833 230.264 16.5807 230.031 16.478C229.807 16.366 229.541 16.31 229.233 16.31C228.962 16.31 228.715 16.38 228.491 16.52C228.267 16.66 228.089 16.8513 227.959 17.094C227.828 17.3367 227.763 17.6167 227.763 17.934C227.763 18.2327 227.833 18.508 227.973 18.76C228.113 19.012 228.304 19.2127 228.547 19.362C228.799 19.502 229.093 19.572 229.429 19.572C229.643 19.572 229.839 19.544 230.017 19.488C230.203 19.4227 230.362 19.334 230.493 19.222L231.473 20.454ZM232.978 14.882H234.938V21H232.978V14.882ZM232.936 12.712C232.936 12.4227 233.048 12.1847 233.272 11.998C233.505 11.8113 233.752 11.718 234.014 11.718C234.275 11.718 234.513 11.8113 234.728 11.998C234.952 12.1847 235.064 12.4227 235.064 12.712C235.064 13.0013 234.952 13.2393 234.728 13.426C234.513 13.6033 234.275 13.692 234.014 13.692C233.752 13.692 233.505 13.6033 233.272 13.426C233.048 13.2393 232.936 13.0013 232.936 12.712ZM240.792 21.168C240.428 21.168 240.069 21.1027 239.714 20.972C239.369 20.832 239.08 20.636 238.846 20.384L238.902 19.81V23.94H236.956V14.742H238.636L238.916 15.932L238.762 15.512C239.08 15.2413 239.434 15.0173 239.826 14.84C240.218 14.6627 240.671 14.574 241.184 14.574C241.754 14.574 242.262 14.7093 242.71 14.98C243.158 15.2413 243.508 15.624 243.76 16.128C244.022 16.6227 244.152 17.22 244.152 17.92C244.152 18.6107 244.008 19.1987 243.718 19.684C243.429 20.1693 243.032 20.538 242.528 20.79C242.024 21.042 241.446 21.168 240.792 21.168ZM240.4 19.628C240.718 19.628 241.007 19.558 241.268 19.418C241.539 19.278 241.754 19.082 241.912 18.83C242.08 18.5687 242.164 18.2747 242.164 17.948C242.164 17.6027 242.09 17.304 241.94 17.052C241.8 16.7907 241.604 16.59 241.352 16.45C241.11 16.3007 240.839 16.226 240.54 16.226C240.279 16.226 240.046 16.2633 239.84 16.338C239.644 16.4033 239.467 16.506 239.308 16.646C239.159 16.7767 239.028 16.9447 238.916 17.15V18.648C238.991 18.844 239.098 19.0167 239.238 19.166C239.378 19.3153 239.546 19.432 239.742 19.516C239.948 19.5907 240.167 19.628 240.4 19.628ZM245.693 9.954H247.653V21H245.693V9.954ZM252.681 21.168C251.934 21.168 251.3 21.028 250.777 20.748C250.264 20.468 249.872 20.0807 249.601 19.586C249.33 19.0913 249.195 18.522 249.195 17.878C249.195 17.262 249.354 16.7067 249.671 16.212C249.988 15.7173 250.413 15.3253 250.945 15.036C251.477 14.7373 252.07 14.588 252.723 14.588C253.6 14.588 254.319 14.8447 254.879 15.358C255.448 15.862 255.817 16.5947 255.985 17.556L251.225 19.068L250.791 18.004L254.235 16.842L253.829 17.024C253.754 16.7813 253.619 16.5713 253.423 16.394C253.236 16.2073 252.952 16.114 252.569 16.114C252.28 16.114 252.023 16.184 251.799 16.324C251.584 16.4547 251.416 16.646 251.295 16.898C251.183 17.1407 251.127 17.43 251.127 17.766C251.127 18.1487 251.197 18.4707 251.337 18.732C251.477 18.984 251.668 19.1753 251.911 19.306C252.154 19.4367 252.424 19.502 252.723 19.502C252.938 19.502 253.143 19.4647 253.339 19.39C253.544 19.3153 253.745 19.2173 253.941 19.096L254.809 20.552C254.482 20.7387 254.128 20.888 253.745 21C253.372 21.112 253.017 21.168 252.681 21.168ZM259.397 21.126C258.893 21.126 258.422 21.0373 257.983 20.86C257.554 20.6827 257.19 20.4353 256.891 20.118L257.703 19.04C258.002 19.3107 258.277 19.5067 258.529 19.628C258.791 19.74 259.024 19.796 259.229 19.796C259.388 19.796 259.528 19.782 259.649 19.754C259.78 19.7167 259.883 19.6653 259.957 19.6C260.032 19.5253 260.069 19.432 260.069 19.32C260.069 19.1613 260.004 19.0353 259.873 18.942C259.752 18.8487 259.593 18.774 259.397 18.718C259.201 18.6527 258.991 18.5873 258.767 18.522C258.207 18.3447 257.801 18.088 257.549 17.752C257.307 17.4067 257.185 17.0333 257.185 16.632C257.185 16.324 257.265 16.016 257.423 15.708C257.591 15.3907 257.853 15.1293 258.207 14.924C258.571 14.7093 259.038 14.602 259.607 14.602C260.121 14.602 260.555 14.6533 260.909 14.756C261.264 14.8587 261.6 15.0267 261.917 15.26L261.175 16.408C260.998 16.268 260.797 16.1513 260.573 16.058C260.359 15.9553 260.158 15.8993 259.971 15.89C259.803 15.8807 259.659 15.8993 259.537 15.946C259.425 15.9927 259.337 16.0533 259.271 16.128C259.206 16.2027 259.173 16.282 259.173 16.366C259.164 16.5433 259.229 16.6833 259.369 16.786C259.519 16.8887 259.705 16.968 259.929 17.024C260.153 17.08 260.373 17.1453 260.587 17.22C260.886 17.3133 261.143 17.4393 261.357 17.598C261.572 17.7567 261.735 17.948 261.847 18.172C261.969 18.3867 262.029 18.648 262.029 18.956C262.029 19.3293 261.931 19.684 261.735 20.02C261.549 20.3467 261.259 20.6127 260.867 20.818C260.485 21.0233 259.995 21.126 259.397 21.126Z" fill="black"/>
<rect x="115.5" y="46.5" width="229" height="29" rx="14.5" stroke="#ED1B24"/>
<path d="M120 0.5H340C348.008 0.5 354.5 6.99187 354.5 15V35.5H105.5V15C105.5 6.99187 111.992 0.5 120 0.5Z" fill="black" fill-opacity="0.1" stroke="#ED1B24"/>
<rect x="115.5" y="86.5" width="229" height="29" rx="14.5" stroke="#ED1B24"/>
<rect x="115.5" y="126.5" width="229" height="29" rx="14.5" stroke="#ED1B24"/>
<rect x="115.5" y="166.5" width="229" height="29" rx="14.5" stroke="#ED1B24"/>
<rect x="115.5" y="206.5" width="229" height="29" rx="14.5" stroke="#ED1B24"/>
<path d="M143.316 54.696V65H141.286V60.814H136.68V65H134.65V54.696H136.68V58.854H141.286V54.696H143.316ZM145.173 61.864C145.173 61.2387 145.317 60.6787 145.607 60.184C145.905 59.6893 146.321 59.302 146.853 59.022C147.385 58.7327 147.996 58.588 148.687 58.588C149.387 58.588 149.993 58.7327 150.507 59.022C151.02 59.302 151.412 59.6893 151.683 60.184C151.963 60.6787 152.103 61.2387 152.103 61.864C152.103 62.4893 151.963 63.054 151.683 63.558C151.412 64.0527 151.02 64.4447 150.507 64.734C149.993 65.0233 149.377 65.168 148.659 65.168C147.987 65.168 147.385 65.0373 146.853 64.776C146.33 64.5147 145.919 64.1367 145.621 63.642C145.322 63.1473 145.173 62.5547 145.173 61.864ZM147.147 61.878C147.147 62.1953 147.212 62.4847 147.343 62.746C147.473 62.998 147.651 63.1987 147.875 63.348C148.099 63.4973 148.351 63.572 148.631 63.572C148.939 63.572 149.205 63.4973 149.429 63.348C149.653 63.1987 149.825 62.998 149.947 62.746C150.068 62.4847 150.129 62.1953 150.129 61.878C150.129 61.5513 150.068 61.262 149.947 61.01C149.825 60.758 149.653 60.5573 149.429 60.408C149.205 60.2587 148.939 60.184 148.631 60.184C148.351 60.184 148.099 60.2587 147.875 60.408C147.651 60.5573 147.473 60.758 147.343 61.01C147.212 61.262 147.147 61.5513 147.147 61.878ZM155.411 58.882L155.593 60.562L155.551 60.31C155.728 59.946 155.971 59.638 156.279 59.386C156.587 59.1247 156.89 58.924 157.189 58.784C157.497 58.644 157.73 58.574 157.889 58.574L157.791 60.534C157.333 60.478 156.941 60.5527 156.615 60.758C156.288 60.9633 156.036 61.234 155.859 61.57C155.681 61.906 155.593 62.2513 155.593 62.606V65H153.647V58.882H155.411ZM159.389 58.882H161.349V65H159.389V58.882ZM159.347 56.712C159.347 56.4227 159.459 56.1847 159.683 55.998C159.916 55.8113 160.164 55.718 160.425 55.718C160.686 55.718 160.924 55.8113 161.139 55.998C161.363 56.1847 161.475 56.4227 161.475 56.712C161.475 57.0013 161.363 57.2393 161.139 57.426C160.924 57.6033 160.686 57.692 160.425 57.692C160.164 57.692 159.916 57.6033 159.683 57.426C159.459 57.2393 159.347 57.0013 159.347 56.712ZM164.319 60.478C163.983 60.478 163.689 60.3567 163.437 60.114C163.185 59.8713 163.059 59.5447 163.059 59.134V58.294H164.529V58.49C164.529 58.686 164.562 58.8027 164.627 58.84C164.702 58.868 164.828 58.882 165.005 58.882H168.883L165.495 63.81L165.131 63.404H168.841V65H162.639L166.125 59.918L166.419 60.478H164.319ZM170.206 61.864C170.206 61.2387 170.35 60.6787 170.64 60.184C170.938 59.6893 171.354 59.302 171.886 59.022C172.418 58.7327 173.029 58.588 173.72 58.588C174.42 58.588 175.026 58.7327 175.54 59.022C176.053 59.302 176.445 59.6893 176.716 60.184C176.996 60.6787 177.136 61.2387 177.136 61.864C177.136 62.4893 176.996 63.054 176.716 63.558C176.445 64.0527 176.053 64.4447 175.54 64.734C175.026 65.0233 174.41 65.168 173.692 65.168C173.02 65.168 172.418 65.0373 171.886 64.776C171.363 64.5147 170.952 64.1367 170.654 63.642C170.355 63.1473 170.206 62.5547 170.206 61.864ZM172.18 61.878C172.18 62.1953 172.245 62.4847 172.376 62.746C172.506 62.998 172.684 63.1987 172.908 63.348C173.132 63.4973 173.384 63.572 173.664 63.572C173.972 63.572 174.238 63.4973 174.462 63.348C174.686 63.1987 174.858 62.998 174.98 62.746C175.101 62.4847 175.162 62.1953 175.162 61.878C175.162 61.5513 175.101 61.262 174.98 61.01C174.858 60.758 174.686 60.5573 174.462 60.408C174.238 60.2587 173.972 60.184 173.664 60.184C173.384 60.184 173.132 60.2587 172.908 60.408C172.684 60.5573 172.506 60.758 172.376 61.01C172.245 61.262 172.18 61.5513 172.18 61.878ZM180.458 58.882L180.612 59.974L180.584 59.876C180.799 59.4933 181.102 59.1853 181.494 58.952C181.886 58.7093 182.367 58.588 182.936 58.588C183.515 58.588 183.995 58.7607 184.378 59.106C184.77 59.442 184.971 59.8807 184.98 60.422V65H183.02V61.15C183.011 60.8793 182.936 60.6647 182.796 60.506C182.665 60.338 182.441 60.254 182.124 60.254C181.825 60.254 181.564 60.352 181.34 60.548C181.116 60.744 180.943 61.01 180.822 61.346C180.701 61.682 180.64 62.0693 180.64 62.508V65H178.68V58.882H180.458ZM187.566 56.194H189.526V58.854H191.01V60.38H189.526V65H187.566V60.38H186.614V58.854H187.566V56.194ZM195.078 65.168C194.509 65.168 193.991 65.056 193.524 64.832C193.067 64.5987 192.703 64.244 192.432 63.768C192.161 63.292 192.026 62.6853 192.026 61.948C192.026 61.2573 192.166 60.66 192.446 60.156C192.726 59.652 193.095 59.2647 193.552 58.994C194.009 58.714 194.495 58.574 195.008 58.574C195.615 58.574 196.072 58.6767 196.38 58.882C196.697 59.078 196.959 59.2973 197.164 59.54L197.08 59.778L197.262 58.882H199.082V65H197.122V63.67L197.276 64.09C197.257 64.09 197.201 64.146 197.108 64.258C197.015 64.3607 196.875 64.4867 196.688 64.636C196.511 64.776 196.287 64.8973 196.016 65C195.755 65.112 195.442 65.168 195.078 65.168ZM195.638 63.572C195.871 63.572 196.081 63.5393 196.268 63.474C196.455 63.3993 196.618 63.2967 196.758 63.166C196.898 63.026 197.019 62.8533 197.122 62.648V61.15C197.047 60.9447 196.935 60.772 196.786 60.632C196.637 60.4827 196.459 60.3707 196.254 60.296C196.049 60.212 195.82 60.17 195.568 60.17C195.288 60.17 195.027 60.2447 194.784 60.394C194.551 60.534 194.364 60.73 194.224 60.982C194.084 61.234 194.014 61.5233 194.014 61.85C194.014 62.1767 194.089 62.4707 194.238 62.732C194.387 62.9933 194.583 63.1987 194.826 63.348C195.078 63.4973 195.349 63.572 195.638 63.572ZM201.102 53.954H203.062V65H201.102V53.954ZM212.433 65.126L208.765 58.882H211.089L213.175 63.11L211.971 63.068L213.777 58.882H215.961L212.489 65.126H212.433ZM219.1 65.126C218.596 65.126 218.124 65.0373 217.686 64.86C217.256 64.6827 216.892 64.4353 216.594 64.118L217.406 63.04C217.704 63.3107 217.98 63.5067 218.232 63.628C218.493 63.74 218.726 63.796 218.932 63.796C219.09 63.796 219.23 63.782 219.352 63.754C219.482 63.7167 219.585 63.6653 219.66 63.6C219.734 63.5253 219.772 63.432 219.772 63.32C219.772 63.1613 219.706 63.0353 219.576 62.942C219.454 62.8487 219.296 62.774 219.1 62.718C218.904 62.6527 218.694 62.5873 218.47 62.522C217.91 62.3447 217.504 62.088 217.252 61.752C217.009 61.4067 216.888 61.0333 216.888 60.632C216.888 60.324 216.967 60.016 217.126 59.708C217.294 59.3907 217.555 59.1293 217.91 58.924C218.274 58.7093 218.74 58.602 219.31 58.602C219.823 58.602 220.257 58.6533 220.612 58.756C220.966 58.8587 221.302 59.0267 221.62 59.26L220.878 60.408C220.7 60.268 220.5 60.1513 220.276 60.058C220.061 59.9553 219.86 59.8993 219.674 59.89C219.506 59.8807 219.361 59.8993 219.24 59.946C219.128 59.9927 219.039 60.0533 218.974 60.128C218.908 60.2027 218.876 60.282 218.876 60.366C218.866 60.5433 218.932 60.6833 219.072 60.786C219.221 60.8887 219.408 60.968 219.632 61.024C219.856 61.08 220.075 61.1453 220.29 61.22C220.588 61.3133 220.845 61.4393 221.06 61.598C221.274 61.7567 221.438 61.948 221.55 62.172C221.671 62.3867 221.732 62.648 221.732 62.956C221.732 63.3293 221.634 63.684 221.438 64.02C221.251 64.3467 220.962 64.6127 220.57 64.818C220.187 65.0233 219.697 65.126 219.1 65.126ZM230.726 65.126L227.058 58.882H229.382L231.468 63.11L230.264 63.068L232.07 58.882H234.254L230.782 65.126H230.726ZM238.209 65.168C237.463 65.168 236.828 65.028 236.305 64.748C235.792 64.468 235.4 64.0807 235.129 63.586C234.859 63.0913 234.723 62.522 234.723 61.878C234.723 61.262 234.882 60.7067 235.199 60.212C235.517 59.7173 235.941 59.3253 236.473 59.036C237.005 58.7373 237.598 58.588 238.251 58.588C239.129 58.588 239.847 58.8447 240.407 59.358C240.977 59.862 241.345 60.5947 241.513 61.556L236.753 63.068L236.319 62.004L239.763 60.842L239.357 61.024C239.283 60.7813 239.147 60.5713 238.951 60.394C238.765 60.2073 238.48 60.114 238.097 60.114C237.808 60.114 237.551 60.184 237.327 60.324C237.113 60.4547 236.945 60.646 236.823 60.898C236.711 61.1407 236.655 61.43 236.655 61.766C236.655 62.1487 236.725 62.4707 236.865 62.732C237.005 62.984 237.197 63.1753 237.439 63.306C237.682 63.4367 237.953 63.502 238.251 63.502C238.466 63.502 238.671 63.4647 238.867 63.39C239.073 63.3153 239.273 63.2173 239.469 63.096L240.337 64.552C240.011 64.7387 239.656 64.888 239.273 65C238.9 65.112 238.545 65.168 238.209 65.168ZM244.702 58.882L244.884 60.562L244.842 60.31C245.019 59.946 245.262 59.638 245.57 59.386C245.878 59.1247 246.181 58.924 246.48 58.784C246.788 58.644 247.021 58.574 247.18 58.574L247.082 60.534C246.624 60.478 246.232 60.5527 245.906 60.758C245.579 60.9633 245.327 61.234 245.15 61.57C244.972 61.906 244.884 62.2513 244.884 62.606V65H242.938V58.882H244.702ZM249.254 56.194H251.214V58.854H252.698V60.38H251.214V65H249.254V60.38H248.302V58.854H249.254V56.194ZM254.19 58.882H256.15V65H254.19V58.882ZM254.148 56.712C254.148 56.4227 254.26 56.1847 254.484 55.998C254.717 55.8113 254.964 55.718 255.226 55.718C255.487 55.718 255.725 55.8113 255.94 55.998C256.164 56.1847 256.276 56.4227 256.276 56.712C256.276 57.0013 256.164 57.2393 255.94 57.426C255.725 57.6033 255.487 57.692 255.226 57.692C254.964 57.692 254.717 57.6033 254.484 57.426C254.26 57.2393 254.148 57.0013 254.148 56.712ZM263.362 64.454C263.091 64.6687 262.751 64.8413 262.34 64.972C261.939 65.1027 261.542 65.168 261.15 65.168C260.45 65.168 259.839 65.042 259.316 64.79C258.803 64.5287 258.401 64.16 258.112 63.684C257.832 63.1987 257.692 62.6153 257.692 61.934C257.692 61.2527 257.846 60.674 258.154 60.198C258.462 59.7127 258.863 59.344 259.358 59.092C259.862 58.84 260.389 58.714 260.94 58.714C261.491 58.714 261.967 58.7887 262.368 58.938C262.779 59.0873 263.129 59.2833 263.418 59.526L262.466 60.786C262.335 60.6833 262.153 60.5807 261.92 60.478C261.696 60.366 261.43 60.31 261.122 60.31C260.851 60.31 260.604 60.38 260.38 60.52C260.156 60.66 259.979 60.8513 259.848 61.094C259.717 61.3367 259.652 61.6167 259.652 61.934C259.652 62.2327 259.722 62.508 259.862 62.76C260.002 63.012 260.193 63.2127 260.436 63.362C260.688 63.502 260.982 63.572 261.318 63.572C261.533 63.572 261.729 63.544 261.906 63.488C262.093 63.4227 262.251 63.334 262.382 63.222L263.362 64.454ZM267.443 65.168C266.874 65.168 266.356 65.056 265.889 64.832C265.432 64.5987 265.068 64.244 264.797 63.768C264.527 63.292 264.391 62.6853 264.391 61.948C264.391 61.2573 264.531 60.66 264.811 60.156C265.091 59.652 265.46 59.2647 265.917 58.994C266.375 58.714 266.86 58.574 267.373 58.574C267.98 58.574 268.437 58.6767 268.745 58.882C269.063 59.078 269.324 59.2973 269.529 59.54L269.445 59.778L269.627 58.882H271.447V65H269.487V63.67L269.641 64.09C269.623 64.09 269.567 64.146 269.473 64.258C269.38 64.3607 269.24 64.4867 269.053 64.636C268.876 64.776 268.652 64.8973 268.381 65C268.12 65.112 267.807 65.168 267.443 65.168ZM268.003 63.572C268.237 63.572 268.447 63.5393 268.633 63.474C268.82 63.3993 268.983 63.2967 269.123 63.166C269.263 63.026 269.385 62.8533 269.487 62.648V61.15C269.413 60.9447 269.301 60.772 269.151 60.632C269.002 60.4827 268.825 60.3707 268.619 60.296C268.414 60.212 268.185 60.17 267.933 60.17C267.653 60.17 267.392 60.2447 267.149 60.394C266.916 60.534 266.729 60.73 266.589 60.982C266.449 61.234 266.379 61.5233 266.379 61.85C266.379 62.1767 266.454 62.4707 266.603 62.732C266.753 62.9933 266.949 63.1987 267.191 63.348C267.443 63.4973 267.714 63.572 268.003 63.572ZM273.467 53.954H275.427V65H273.467V53.954ZM283.986 65.126C283.482 65.126 283.011 65.0373 282.572 64.86C282.143 64.6827 281.779 64.4353 281.48 64.118L282.292 63.04C282.591 63.3107 282.866 63.5067 283.118 63.628C283.38 63.74 283.613 63.796 283.818 63.796C283.977 63.796 284.117 63.782 284.238 63.754C284.369 63.7167 284.472 63.6653 284.546 63.6C284.621 63.5253 284.658 63.432 284.658 63.32C284.658 63.1613 284.593 63.0353 284.462 62.942C284.341 62.8487 284.182 62.774 283.986 62.718C283.79 62.6527 283.58 62.5873 283.356 62.522C282.796 62.3447 282.39 62.088 282.138 61.752C281.896 61.4067 281.774 61.0333 281.774 60.632C281.774 60.324 281.854 60.016 282.012 59.708C282.18 59.3907 282.442 59.1293 282.796 58.924C283.16 58.7093 283.627 58.602 284.196 58.602C284.71 58.602 285.144 58.6533 285.498 58.756C285.853 58.8587 286.189 59.0267 286.506 59.26L285.764 60.408C285.587 60.268 285.386 60.1513 285.162 60.058C284.948 59.9553 284.747 59.8993 284.56 59.89C284.392 59.8807 284.248 59.8993 284.126 59.946C284.014 59.9927 283.926 60.0533 283.86 60.128C283.795 60.2027 283.762 60.282 283.762 60.366C283.753 60.5433 283.818 60.6833 283.958 60.786C284.108 60.8887 284.294 60.968 284.518 61.024C284.742 61.08 284.962 61.1453 285.176 61.22C285.475 61.3133 285.732 61.4393 285.946 61.598C286.161 61.7567 286.324 61.948 286.436 62.172C286.558 62.3867 286.618 62.648 286.618 62.956C286.618 63.3293 286.52 63.684 286.324 64.02C286.138 64.3467 285.848 64.6127 285.456 64.818C285.074 65.0233 284.584 65.126 283.986 65.126ZM293.454 64.454C293.183 64.6687 292.843 64.8413 292.432 64.972C292.031 65.1027 291.634 65.168 291.242 65.168C290.542 65.168 289.931 65.042 289.408 64.79C288.895 64.5287 288.493 64.16 288.204 63.684C287.924 63.1987 287.784 62.6153 287.784 61.934C287.784 61.2527 287.938 60.674 288.246 60.198C288.554 59.7127 288.955 59.344 289.45 59.092C289.954 58.84 290.481 58.714 291.032 58.714C291.583 58.714 292.059 58.7887 292.46 58.938C292.871 59.0873 293.221 59.2833 293.51 59.526L292.558 60.786C292.427 60.6833 292.245 60.5807 292.012 60.478C291.788 60.366 291.522 60.31 291.214 60.31C290.943 60.31 290.696 60.38 290.472 60.52C290.248 60.66 290.071 60.8513 289.94 61.094C289.809 61.3367 289.744 61.6167 289.744 61.934C289.744 62.2327 289.814 62.508 289.954 62.76C290.094 63.012 290.285 63.2127 290.528 63.362C290.78 63.502 291.074 63.572 291.41 63.572C291.625 63.572 291.821 63.544 291.998 63.488C292.185 63.4227 292.343 63.334 292.474 63.222L293.454 64.454ZM297.535 65.168C296.966 65.168 296.448 65.056 295.981 64.832C295.524 64.5987 295.16 64.244 294.889 63.768C294.619 63.292 294.483 62.6853 294.483 61.948C294.483 61.2573 294.623 60.66 294.903 60.156C295.183 59.652 295.552 59.2647 296.009 58.994C296.467 58.714 296.952 58.574 297.465 58.574C298.072 58.574 298.529 58.6767 298.837 58.882C299.155 59.078 299.416 59.2973 299.621 59.54L299.537 59.778L299.719 58.882H301.539V65H299.579V63.67L299.733 64.09C299.715 64.09 299.659 64.146 299.565 64.258C299.472 64.3607 299.332 64.4867 299.145 64.636C298.968 64.776 298.744 64.8973 298.473 65C298.212 65.112 297.899 65.168 297.535 65.168ZM298.095 63.572C298.329 63.572 298.539 63.5393 298.725 63.474C298.912 63.3993 299.075 63.2967 299.215 63.166C299.355 63.026 299.477 62.8533 299.579 62.648V61.15C299.505 60.9447 299.393 60.772 299.243 60.632C299.094 60.4827 298.917 60.3707 298.711 60.296C298.506 60.212 298.277 60.17 298.025 60.17C297.745 60.17 297.484 60.2447 297.241 60.394C297.008 60.534 296.821 60.73 296.681 60.982C296.541 61.234 296.471 61.5233 296.471 61.85C296.471 62.1767 296.546 62.4707 296.695 62.732C296.845 62.9933 297.041 63.1987 297.283 63.348C297.535 63.4973 297.806 63.572 298.095 63.572ZM303.559 53.954H305.519V65H303.559V53.954ZM307.537 58.882H309.497V65H307.537V58.882ZM307.495 56.712C307.495 56.4227 307.607 56.1847 307.831 55.998C308.065 55.8113 308.312 55.718 308.573 55.718C308.835 55.718 309.073 55.8113 309.287 55.998C309.511 56.1847 309.623 56.4227 309.623 56.712C309.623 57.0013 309.511 57.2393 309.287 57.426C309.073 57.6033 308.835 57.692 308.573 57.692C308.312 57.692 308.065 57.6033 307.831 57.426C307.607 57.2393 307.495 57.0013 307.495 56.712ZM313.294 58.882L313.448 59.974L313.42 59.876C313.634 59.4933 313.938 59.1853 314.33 58.952C314.722 58.7093 315.202 58.588 315.772 58.588C316.35 58.588 316.831 58.7607 317.214 59.106C317.606 59.442 317.806 59.8807 317.816 60.422V65H315.856V61.15C315.846 60.8793 315.772 60.6647 315.632 60.506C315.501 60.338 315.277 60.254 314.96 60.254C314.661 60.254 314.4 60.352 314.176 60.548C313.952 60.744 313.779 61.01 313.658 61.346C313.536 61.682 313.476 62.0693 313.476 62.508V65H311.516V58.882H313.294ZM322.992 68.08C322.442 68.08 321.975 68.0147 321.592 67.884C321.219 67.7533 320.902 67.5947 320.64 67.408C320.379 67.2213 320.146 67.044 319.94 66.876L321.088 65.532C321.303 65.728 321.55 65.9147 321.83 66.092C322.12 66.2787 322.498 66.372 322.964 66.372C323.272 66.372 323.557 66.316 323.818 66.204C324.089 66.1013 324.304 65.9473 324.462 65.742C324.63 65.5367 324.714 65.28 324.714 64.972V63.628L324.784 63.978C324.635 64.2953 324.364 64.5753 323.972 64.818C323.58 65.0513 323.067 65.168 322.432 65.168C321.882 65.168 321.368 65.028 320.892 64.748C320.426 64.4587 320.052 64.0713 319.772 63.586C319.492 63.0913 319.352 62.5313 319.352 61.906C319.352 61.262 319.502 60.6927 319.8 60.198C320.099 59.694 320.486 59.2973 320.962 59.008C321.438 58.7187 321.942 58.574 322.474 58.574C323.006 58.574 323.464 58.6533 323.846 58.812C324.238 58.9613 324.532 59.148 324.728 59.372L324.658 59.554L324.868 58.882H326.674V65C326.674 65.5973 326.506 66.1247 326.17 66.582C325.834 67.0487 325.386 67.4127 324.826 67.674C324.276 67.9447 323.664 68.08 322.992 68.08ZM321.326 61.85C321.326 62.1767 321.401 62.4707 321.55 62.732C321.7 62.9933 321.9 63.1987 322.152 63.348C322.414 63.4973 322.703 63.572 323.02 63.572C323.291 63.572 323.529 63.5393 323.734 63.474C323.949 63.3993 324.136 63.2967 324.294 63.166C324.462 63.026 324.602 62.8533 324.714 62.648V61.15C324.63 60.9447 324.504 60.772 324.336 60.632C324.168 60.4827 323.972 60.3707 323.748 60.296C323.534 60.212 323.291 60.17 323.02 60.17C322.703 60.17 322.414 60.2447 322.152 60.394C321.9 60.534 321.7 60.73 321.55 60.982C321.401 61.234 321.326 61.5233 321.326 61.85Z" fill="#ED1B24"/>
<path d="M189.542 105V94.276H189.556L195.282 102.396L194.414 102.2L200.126 94.276H200.154V105H198.124V98.854L198.25 99.904L194.764 104.86H194.736L191.152 99.904L191.502 98.938V105H189.542ZM205.071 105.168C204.502 105.168 203.984 105.056 203.517 104.832C203.06 104.599 202.696 104.244 202.425 103.768C202.155 103.292 202.019 102.685 202.019 101.948C202.019 101.257 202.159 100.66 202.439 100.156C202.719 99.652 203.088 99.2647 203.545 98.994C204.003 98.714 204.488 98.574 205.001 98.574C205.608 98.574 206.065 98.6767 206.373 98.882C206.691 99.078 206.952 99.2973 207.157 99.54L207.073 99.778L207.255 98.882H209.075V105H207.115V103.67L207.269 104.09C207.251 104.09 207.195 104.146 207.101 104.258C207.008 104.361 206.868 104.487 206.681 104.636C206.504 104.776 206.28 104.897 206.009 105C205.748 105.112 205.435 105.168 205.071 105.168ZM205.631 103.572C205.865 103.572 206.075 103.539 206.261 103.474C206.448 103.399 206.611 103.297 206.751 103.166C206.891 103.026 207.013 102.853 207.115 102.648V101.15C207.041 100.945 206.929 100.772 206.779 100.632C206.63 100.483 206.453 100.371 206.247 100.296C206.042 100.212 205.813 100.17 205.561 100.17C205.281 100.17 205.02 100.245 204.777 100.394C204.544 100.534 204.357 100.73 204.217 100.982C204.077 101.234 204.007 101.523 204.007 101.85C204.007 102.177 204.082 102.471 204.231 102.732C204.381 102.993 204.577 103.199 204.819 103.348C205.071 103.497 205.342 103.572 205.631 103.572ZM214.931 105.168C214.567 105.168 214.208 105.103 213.853 104.972C213.508 104.832 213.218 104.636 212.985 104.384L213.041 103.81V107.94H211.095V98.742H212.775L213.055 99.932L212.901 99.512C213.218 99.2413 213.573 99.0173 213.965 98.84C214.357 98.6627 214.81 98.574 215.323 98.574C215.892 98.574 216.401 98.7093 216.849 98.98C217.297 99.2413 217.647 99.624 217.899 100.128C218.16 100.623 218.291 101.22 218.291 101.92C218.291 102.611 218.146 103.199 217.857 103.684C217.568 104.169 217.171 104.538 216.667 104.79C216.163 105.042 215.584 105.168 214.931 105.168ZM214.539 103.628C214.856 103.628 215.146 103.558 215.407 103.418C215.678 103.278 215.892 103.082 216.051 102.83C216.219 102.569 216.303 102.275 216.303 101.948C216.303 101.603 216.228 101.304 216.079 101.052C215.939 100.791 215.743 100.59 215.491 100.45C215.248 100.301 214.978 100.226 214.679 100.226C214.418 100.226 214.184 100.263 213.979 100.338C213.783 100.403 213.606 100.506 213.447 100.646C213.298 100.777 213.167 100.945 213.055 101.15V102.648C213.13 102.844 213.237 103.017 213.377 103.166C213.517 103.315 213.685 103.432 213.881 103.516C214.086 103.591 214.306 103.628 214.539 103.628ZM227.828 94.696C228.472 94.696 229.046 94.78 229.55 94.948C230.054 95.1067 230.474 95.34 230.81 95.648C231.155 95.9467 231.417 96.3107 231.594 96.74C231.771 97.16 231.86 97.636 231.86 98.168C231.86 98.588 231.795 99.008 231.664 99.428C231.543 99.848 231.337 100.231 231.048 100.576C230.768 100.921 230.395 101.201 229.928 101.416C229.461 101.621 228.883 101.724 228.192 101.724H226.736V105H224.706V94.696H227.828ZM228.178 99.764C228.486 99.764 228.743 99.7127 228.948 99.61C229.153 99.5073 229.312 99.3767 229.424 99.218C229.545 99.0593 229.629 98.896 229.676 98.728C229.732 98.5507 229.76 98.3873 229.76 98.238C229.76 98.126 229.741 97.986 229.704 97.818C229.676 97.6407 229.611 97.4633 229.508 97.286C229.405 97.1087 229.247 96.9593 229.032 96.838C228.827 96.7167 228.547 96.656 228.192 96.656H226.736V99.764H228.178ZM230.082 101.024L232.63 105H230.264L227.66 101.08L230.082 101.024ZM236.718 105.168C235.972 105.168 235.337 105.028 234.814 104.748C234.301 104.468 233.909 104.081 233.638 103.586C233.368 103.091 233.232 102.522 233.232 101.878C233.232 101.262 233.391 100.707 233.708 100.212C234.026 99.7173 234.45 99.3253 234.982 99.036C235.514 98.7373 236.107 98.588 236.76 98.588C237.638 98.588 238.356 98.8447 238.916 99.358C239.486 99.862 239.854 100.595 240.022 101.556L235.262 103.068L234.828 102.004L238.272 100.842L237.866 101.024C237.792 100.781 237.656 100.571 237.46 100.394C237.274 100.207 236.989 100.114 236.606 100.114C236.317 100.114 236.06 100.184 235.836 100.324C235.622 100.455 235.454 100.646 235.332 100.898C235.22 101.141 235.164 101.43 235.164 101.766C235.164 102.149 235.234 102.471 235.374 102.732C235.514 102.984 235.706 103.175 235.948 103.306C236.191 103.437 236.462 103.502 236.76 103.502C236.975 103.502 237.18 103.465 237.376 103.39C237.582 103.315 237.782 103.217 237.978 103.096L238.846 104.552C238.52 104.739 238.165 104.888 237.782 105C237.409 105.112 237.054 105.168 236.718 105.168ZM243.938 105.168C243.369 105.168 242.86 105.037 242.412 104.776C241.964 104.505 241.61 104.118 241.348 103.614C241.096 103.11 240.97 102.513 240.97 101.822C240.97 101.131 241.11 100.543 241.39 100.058C241.67 99.5727 242.053 99.204 242.538 98.952C243.024 98.7 243.574 98.574 244.19 98.574C244.582 98.574 244.956 98.6347 245.31 98.756C245.674 98.8773 245.978 99.064 246.22 99.316V99.932V93.954H248.166V105H246.206V103.81L246.36 104.23C246.043 104.491 245.688 104.715 245.296 104.902C244.904 105.079 244.452 105.168 243.938 105.168ZM244.582 103.516C244.844 103.516 245.072 103.483 245.268 103.418C245.474 103.343 245.651 103.241 245.8 103.11C245.959 102.97 246.094 102.797 246.206 102.592V101.094C246.132 100.889 246.015 100.716 245.856 100.576C245.707 100.427 245.52 100.315 245.296 100.24C245.082 100.156 244.844 100.114 244.582 100.114C244.293 100.114 244.022 100.189 243.77 100.338C243.528 100.478 243.332 100.674 243.182 100.926C243.033 101.178 242.958 101.467 242.958 101.794C242.958 102.121 243.033 102.415 243.182 102.676C243.332 102.937 243.528 103.143 243.77 103.292C244.022 103.441 244.293 103.516 244.582 103.516ZM252.157 105.294C251.606 105.294 251.144 105.126 250.771 104.79C250.397 104.445 250.201 104.001 250.183 103.46V98.882H252.143V102.732C252.161 103.003 252.231 103.222 252.353 103.39C252.474 103.549 252.679 103.628 252.969 103.628C253.258 103.628 253.505 103.53 253.711 103.334C253.925 103.138 254.089 102.872 254.201 102.536C254.322 102.191 254.383 101.803 254.383 101.374V98.882H256.343V105H254.565L254.411 103.88L254.439 104.006C254.299 104.258 254.121 104.482 253.907 104.678C253.692 104.874 253.435 105.023 253.137 105.126C252.847 105.238 252.521 105.294 252.157 105.294ZM263.553 104.454C263.282 104.669 262.941 104.841 262.531 104.972C262.129 105.103 261.733 105.168 261.341 105.168C260.641 105.168 260.029 105.042 259.507 104.79C258.993 104.529 258.592 104.16 258.303 103.684C258.023 103.199 257.883 102.615 257.883 101.934C257.883 101.253 258.037 100.674 258.345 100.198C258.653 99.7127 259.054 99.344 259.549 99.092C260.053 98.84 260.58 98.714 261.131 98.714C261.681 98.714 262.157 98.7887 262.559 98.938C262.969 99.0873 263.319 99.2833 263.609 99.526L262.657 100.786C262.526 100.683 262.344 100.581 262.111 100.478C261.887 100.366 261.621 100.31 261.313 100.31C261.042 100.31 260.795 100.38 260.571 100.52C260.347 100.66 260.169 100.851 260.039 101.094C259.908 101.337 259.843 101.617 259.843 101.934C259.843 102.233 259.913 102.508 260.053 102.76C260.193 103.012 260.384 103.213 260.627 103.362C260.879 103.502 261.173 103.572 261.509 103.572C261.723 103.572 261.919 103.544 262.097 103.488C262.283 103.423 262.442 103.334 262.573 103.222L263.553 104.454ZM268.068 105.168C267.321 105.168 266.686 105.028 266.164 104.748C265.65 104.468 265.258 104.081 264.988 103.586C264.717 103.091 264.582 102.522 264.582 101.878C264.582 101.262 264.74 100.707 265.058 100.212C265.375 99.7173 265.8 99.3253 266.332 99.036C266.864 98.7373 267.456 98.588 268.11 98.588C268.987 98.588 269.706 98.8447 270.266 99.358C270.835 99.862 271.204 100.595 271.372 101.556L266.612 103.068L266.178 102.004L269.622 100.842L269.216 101.024C269.141 100.781 269.006 100.571 268.81 100.394C268.623 100.207 268.338 100.114 267.956 100.114C267.666 100.114 267.41 100.184 267.186 100.324C266.971 100.455 266.803 100.646 266.682 100.898C266.57 101.141 266.514 101.43 266.514 101.766C266.514 102.149 266.584 102.471 266.724 102.732C266.864 102.984 267.055 103.175 267.298 103.306C267.54 103.437 267.811 103.502 268.11 103.502C268.324 103.502 268.53 103.465 268.726 103.39C268.931 103.315 269.132 103.217 269.328 103.096L270.196 104.552C269.869 104.739 269.514 104.888 269.132 105C268.758 105.112 268.404 105.168 268.068 105.168Z" fill="#ED1B24"/>
<path d="M175.372 145V134.696H178.452C179.488 134.696 180.37 134.85 181.098 135.158C181.826 135.466 182.409 135.877 182.848 136.39C183.296 136.903 183.623 137.477 183.828 138.112C184.033 138.747 184.136 139.386 184.136 140.03C184.136 140.795 183.996 141.486 183.716 142.102C183.445 142.709 183.072 143.231 182.596 143.67C182.12 144.099 181.569 144.431 180.944 144.664C180.319 144.888 179.656 145 178.956 145H175.372ZM177.402 143.04H178.606C179.119 143.04 179.586 142.975 180.006 142.844C180.426 142.704 180.785 142.503 181.084 142.242C181.392 141.981 181.625 141.654 181.784 141.262C181.952 140.861 182.036 140.403 182.036 139.89C182.036 139.218 181.924 138.672 181.7 138.252C181.485 137.823 181.215 137.491 180.888 137.258C180.571 137.025 180.244 136.866 179.908 136.782C179.572 136.689 179.287 136.642 179.054 136.642H177.402V143.04ZM188.427 145.168C187.857 145.168 187.339 145.056 186.873 144.832C186.415 144.599 186.051 144.244 185.781 143.768C185.51 143.292 185.375 142.685 185.375 141.948C185.375 141.257 185.515 140.66 185.795 140.156C186.075 139.652 186.443 139.265 186.901 138.994C187.358 138.714 187.843 138.574 188.357 138.574C188.963 138.574 189.421 138.677 189.729 138.882C190.046 139.078 190.307 139.297 190.513 139.54L190.429 139.778L190.611 138.882H192.431V145H190.471V143.67L190.625 144.09C190.606 144.09 190.55 144.146 190.457 144.258C190.363 144.361 190.223 144.487 190.037 144.636C189.859 144.776 189.635 144.897 189.365 145C189.103 145.112 188.791 145.168 188.427 145.168ZM188.987 143.572C189.22 143.572 189.43 143.539 189.617 143.474C189.803 143.399 189.967 143.297 190.107 143.166C190.247 143.026 190.368 142.853 190.471 142.648V141.15C190.396 140.945 190.284 140.772 190.135 140.632C189.985 140.483 189.808 140.371 189.603 140.296C189.397 140.212 189.169 140.17 188.917 140.17C188.637 140.17 188.375 140.245 188.133 140.394C187.899 140.534 187.713 140.73 187.573 140.982C187.433 141.234 187.363 141.523 187.363 141.85C187.363 142.177 187.437 142.471 187.587 142.732C187.736 142.993 187.932 143.199 188.175 143.348C188.427 143.497 188.697 143.572 188.987 143.572ZM195.024 136.194H196.984V138.854H198.468V140.38H196.984V145H195.024V140.38H194.072V138.854H195.024V136.194ZM202.536 145.168C201.967 145.168 201.449 145.056 200.982 144.832C200.525 144.599 200.161 144.244 199.89 143.768C199.619 143.292 199.484 142.685 199.484 141.948C199.484 141.257 199.624 140.66 199.904 140.156C200.184 139.652 200.553 139.265 201.01 138.994C201.467 138.714 201.953 138.574 202.466 138.574C203.073 138.574 203.53 138.677 203.838 138.882C204.155 139.078 204.417 139.297 204.622 139.54L204.538 139.778L204.72 138.882H206.54V145H204.58V143.67L204.734 144.09C204.715 144.09 204.659 144.146 204.566 144.258C204.473 144.361 204.333 144.487 204.146 144.636C203.969 144.776 203.745 144.897 203.474 145C203.213 145.112 202.9 145.168 202.536 145.168ZM203.096 143.572C203.329 143.572 203.539 143.539 203.726 143.474C203.913 143.399 204.076 143.297 204.216 143.166C204.356 143.026 204.477 142.853 204.58 142.648V141.15C204.505 140.945 204.393 140.772 204.244 140.632C204.095 140.483 203.917 140.371 203.712 140.296C203.507 140.212 203.278 140.17 203.026 140.17C202.746 140.17 202.485 140.245 202.242 140.394C202.009 140.534 201.822 140.73 201.682 140.982C201.542 141.234 201.472 141.523 201.472 141.85C201.472 142.177 201.547 142.471 201.696 142.732C201.845 142.993 202.041 143.199 202.284 143.348C202.536 143.497 202.807 143.572 203.096 143.572ZM216.556 134.696C217.2 134.696 217.774 134.78 218.278 134.948C218.782 135.107 219.202 135.34 219.538 135.648C219.884 135.947 220.145 136.311 220.322 136.74C220.5 137.16 220.588 137.636 220.588 138.168C220.588 138.588 220.523 139.008 220.392 139.428C220.271 139.848 220.066 140.231 219.776 140.576C219.496 140.921 219.123 141.201 218.656 141.416C218.19 141.621 217.611 141.724 216.92 141.724H215.464V145H213.434V134.696H216.556ZM216.906 139.764C217.214 139.764 217.471 139.713 217.676 139.61C217.882 139.507 218.04 139.377 218.152 139.218C218.274 139.059 218.358 138.896 218.404 138.728C218.46 138.551 218.488 138.387 218.488 138.238C218.488 138.126 218.47 137.986 218.432 137.818C218.404 137.641 218.339 137.463 218.236 137.286C218.134 137.109 217.975 136.959 217.76 136.838C217.555 136.717 217.275 136.656 216.92 136.656H215.464V139.764H216.906ZM218.81 141.024L221.358 145H218.992L216.388 141.08L218.81 141.024ZM225.447 145.168C224.7 145.168 224.065 145.028 223.543 144.748C223.029 144.468 222.637 144.081 222.367 143.586C222.096 143.091 221.961 142.522 221.961 141.878C221.961 141.262 222.119 140.707 222.437 140.212C222.754 139.717 223.179 139.325 223.711 139.036C224.243 138.737 224.835 138.588 225.489 138.588C226.366 138.588 227.085 138.845 227.645 139.358C228.214 139.862 228.583 140.595 228.751 141.556L223.991 143.068L223.557 142.004L227.001 140.842L226.595 141.024C226.52 140.781 226.385 140.571 226.189 140.394C226.002 140.207 225.717 140.114 225.335 140.114C225.045 140.114 224.789 140.184 224.565 140.324C224.35 140.455 224.182 140.646 224.061 140.898C223.949 141.141 223.893 141.43 223.893 141.766C223.893 142.149 223.963 142.471 224.103 142.732C224.243 142.984 224.434 143.175 224.677 143.306C224.919 143.437 225.19 143.502 225.489 143.502C225.703 143.502 225.909 143.465 226.105 143.39C226.31 143.315 226.511 143.217 226.707 143.096L227.575 144.552C227.248 144.739 226.893 144.888 226.511 145C226.137 145.112 225.783 145.168 225.447 145.168ZM234.011 145.168C233.647 145.168 233.288 145.103 232.933 144.972C232.588 144.832 232.298 144.636 232.065 144.384L232.121 143.81V147.94H230.175V138.742H231.855L232.135 139.932L231.981 139.512C232.298 139.241 232.653 139.017 233.045 138.84C233.437 138.663 233.89 138.574 234.403 138.574C234.972 138.574 235.481 138.709 235.929 138.98C236.377 139.241 236.727 139.624 236.979 140.128C237.24 140.623 237.371 141.22 237.371 141.92C237.371 142.611 237.226 143.199 236.937 143.684C236.648 144.169 236.251 144.538 235.747 144.79C235.243 145.042 234.664 145.168 234.011 145.168ZM233.619 143.628C233.936 143.628 234.226 143.558 234.487 143.418C234.758 143.278 234.972 143.082 235.131 142.83C235.299 142.569 235.383 142.275 235.383 141.948C235.383 141.603 235.308 141.304 235.159 141.052C235.019 140.791 234.823 140.59 234.571 140.45C234.328 140.301 234.058 140.226 233.759 140.226C233.498 140.226 233.264 140.263 233.059 140.338C232.863 140.403 232.686 140.506 232.527 140.646C232.378 140.777 232.247 140.945 232.135 141.15V142.648C232.21 142.844 232.317 143.017 232.457 143.166C232.597 143.315 232.765 143.432 232.961 143.516C233.166 143.591 233.386 143.628 233.619 143.628ZM238.911 133.954H240.871V145H238.911V133.954ZM242.89 138.882H244.85V145H242.89V138.882ZM242.848 136.712C242.848 136.423 242.96 136.185 243.184 135.998C243.417 135.811 243.665 135.718 243.926 135.718C244.187 135.718 244.425 135.811 244.64 135.998C244.864 136.185 244.976 136.423 244.976 136.712C244.976 137.001 244.864 137.239 244.64 137.426C244.425 137.603 244.187 137.692 243.926 137.692C243.665 137.692 243.417 137.603 243.184 137.426C242.96 137.239 242.848 137.001 242.848 136.712ZM252.062 144.454C251.792 144.669 251.451 144.841 251.04 144.972C250.639 145.103 250.242 145.168 249.85 145.168C249.15 145.168 248.539 145.042 248.016 144.79C247.503 144.529 247.102 144.16 246.812 143.684C246.532 143.199 246.392 142.615 246.392 141.934C246.392 141.253 246.546 140.674 246.854 140.198C247.162 139.713 247.564 139.344 248.058 139.092C248.562 138.84 249.09 138.714 249.64 138.714C250.191 138.714 250.667 138.789 251.068 138.938C251.479 139.087 251.829 139.283 252.118 139.526L251.166 140.786C251.036 140.683 250.854 140.581 250.62 140.478C250.396 140.366 250.13 140.31 249.822 140.31C249.552 140.31 249.304 140.38 249.08 140.52C248.856 140.66 248.679 140.851 248.548 141.094C248.418 141.337 248.352 141.617 248.352 141.934C248.352 142.233 248.422 142.508 248.562 142.76C248.702 143.012 248.894 143.213 249.136 143.362C249.388 143.502 249.682 143.572 250.018 143.572C250.233 143.572 250.429 143.544 250.606 143.488C250.793 143.423 250.952 143.334 251.082 143.222L252.062 144.454ZM256.144 145.168C255.574 145.168 255.056 145.056 254.59 144.832C254.132 144.599 253.768 144.244 253.498 143.768C253.227 143.292 253.092 142.685 253.092 141.948C253.092 141.257 253.232 140.66 253.512 140.156C253.792 139.652 254.16 139.265 254.618 138.994C255.075 138.714 255.56 138.574 256.074 138.574C256.68 138.574 257.138 138.677 257.446 138.882C257.763 139.078 258.024 139.297 258.23 139.54L258.146 139.778L258.328 138.882H260.148V145H258.188V143.67L258.342 144.09C258.323 144.09 258.267 144.146 258.174 144.258C258.08 144.361 257.94 144.487 257.754 144.636C257.576 144.776 257.352 144.897 257.082 145C256.82 145.112 256.508 145.168 256.144 145.168ZM256.704 143.572C256.937 143.572 257.147 143.539 257.334 143.474C257.52 143.399 257.684 143.297 257.824 143.166C257.964 143.026 258.085 142.853 258.188 142.648V141.15C258.113 140.945 258.001 140.772 257.852 140.632C257.702 140.483 257.525 140.371 257.32 140.296C257.114 140.212 256.886 140.17 256.634 140.17C256.354 140.17 256.092 140.245 255.85 140.394C255.616 140.534 255.43 140.73 255.29 140.982C255.15 141.234 255.08 141.523 255.08 141.85C255.08 142.177 255.154 142.471 255.304 142.732C255.453 142.993 255.649 143.199 255.892 143.348C256.144 143.497 256.414 143.572 256.704 143.572ZM262.741 136.194H264.701V138.854H266.185V140.38H264.701V145H262.741V140.38H261.789V138.854H262.741V136.194ZM267.677 138.882H269.637V145H267.677V138.882ZM267.635 136.712C267.635 136.423 267.747 136.185 267.971 135.998C268.204 135.811 268.452 135.718 268.713 135.718C268.974 135.718 269.212 135.811 269.427 135.998C269.651 136.185 269.763 136.423 269.763 136.712C269.763 137.001 269.651 137.239 269.427 137.426C269.212 137.603 268.974 137.692 268.713 137.692C268.452 137.692 268.204 137.603 267.971 137.426C267.747 137.239 267.635 137.001 267.635 136.712ZM271.179 141.864C271.179 141.239 271.324 140.679 271.613 140.184C271.912 139.689 272.327 139.302 272.859 139.022C273.391 138.733 274.003 138.588 274.693 138.588C275.393 138.588 276 138.733 276.513 139.022C277.027 139.302 277.419 139.689 277.689 140.184C277.969 140.679 278.109 141.239 278.109 141.864C278.109 142.489 277.969 143.054 277.689 143.558C277.419 144.053 277.027 144.445 276.513 144.734C276 145.023 275.384 145.168 274.665 145.168C273.993 145.168 273.391 145.037 272.859 144.776C272.337 144.515 271.926 144.137 271.627 143.642C271.329 143.147 271.179 142.555 271.179 141.864ZM273.153 141.878C273.153 142.195 273.219 142.485 273.349 142.746C273.48 142.998 273.657 143.199 273.881 143.348C274.105 143.497 274.357 143.572 274.637 143.572C274.945 143.572 275.211 143.497 275.435 143.348C275.659 143.199 275.832 142.998 275.953 142.746C276.075 142.485 276.135 142.195 276.135 141.878C276.135 141.551 276.075 141.262 275.953 141.01C275.832 140.758 275.659 140.557 275.435 140.408C275.211 140.259 274.945 140.184 274.637 140.184C274.357 140.184 274.105 140.259 273.881 140.408C273.657 140.557 273.48 140.758 273.349 141.01C273.219 141.262 273.153 141.551 273.153 141.878ZM281.432 138.882L281.586 139.974L281.558 139.876C281.772 139.493 282.076 139.185 282.468 138.952C282.86 138.709 283.34 138.588 283.91 138.588C284.488 138.588 284.969 138.761 285.352 139.106C285.744 139.442 285.944 139.881 285.954 140.422V145H283.994V141.15C283.984 140.879 283.91 140.665 283.77 140.506C283.639 140.338 283.415 140.254 283.098 140.254C282.799 140.254 282.538 140.352 282.314 140.548C282.09 140.744 281.917 141.01 281.796 141.346C281.674 141.682 281.614 142.069 281.614 142.508V145H279.654V138.882H281.432Z" fill="#ED1B24"/>
<path d="M170.776 185.42L162.964 178.364L163.566 178.7L163.608 185H161.55V174.29H161.634L169.278 181.318L168.83 181.122L168.788 174.696H170.832V185.42H170.776ZM175.739 185.168C175.17 185.168 174.652 185.056 174.185 184.832C173.728 184.599 173.364 184.244 173.093 183.768C172.823 183.292 172.687 182.685 172.687 181.948C172.687 181.257 172.827 180.66 173.107 180.156C173.387 179.652 173.756 179.265 174.213 178.994C174.671 178.714 175.156 178.574 175.669 178.574C176.276 178.574 176.733 178.677 177.041 178.882C177.359 179.078 177.62 179.297 177.825 179.54L177.741 179.778L177.923 178.882H179.743V185H177.783V183.67L177.937 184.09C177.919 184.09 177.863 184.146 177.769 184.258C177.676 184.361 177.536 184.487 177.349 184.636C177.172 184.776 176.948 184.897 176.677 185C176.416 185.112 176.103 185.168 175.739 185.168ZM176.299 183.572C176.533 183.572 176.743 183.539 176.929 183.474C177.116 183.399 177.279 183.297 177.419 183.166C177.559 183.026 177.681 182.853 177.783 182.648V181.15C177.709 180.945 177.597 180.772 177.447 180.632C177.298 180.483 177.121 180.371 176.915 180.296C176.71 180.212 176.481 180.17 176.229 180.17C175.949 180.17 175.688 180.245 175.445 180.394C175.212 180.534 175.025 180.73 174.885 180.982C174.745 181.234 174.675 181.523 174.675 181.85C174.675 182.177 174.75 182.471 174.899 182.732C175.049 182.993 175.245 183.199 175.487 183.348C175.739 183.497 176.01 183.572 176.299 183.572ZM183.541 178.882L183.695 179.96L183.667 179.876C183.91 179.465 184.213 179.148 184.577 178.924C184.941 178.691 185.38 178.574 185.893 178.574C186.229 178.574 186.523 178.621 186.775 178.714C187.036 178.807 187.256 178.947 187.433 179.134C187.61 179.311 187.732 179.545 187.797 179.834L187.727 179.848C187.988 179.465 188.301 179.157 188.665 178.924C189.038 178.691 189.426 178.574 189.827 178.574C190.434 178.574 190.914 178.747 191.269 179.092C191.633 179.428 191.82 179.867 191.829 180.408V185H189.883V181.22C189.874 180.949 189.832 180.73 189.757 180.562C189.682 180.385 189.51 180.287 189.239 180.268C188.922 180.268 188.651 180.38 188.427 180.604C188.212 180.819 188.049 181.099 187.937 181.444C187.834 181.78 187.783 182.13 187.783 182.494V185H185.823V181.22C185.814 180.949 185.762 180.73 185.669 180.562C185.585 180.385 185.408 180.287 185.137 180.268C184.829 180.268 184.568 180.38 184.353 180.604C184.148 180.819 183.989 181.094 183.877 181.43C183.774 181.766 183.723 182.111 183.723 182.466V185H181.763V178.882H183.541ZM196.859 185.168C196.112 185.168 195.477 185.028 194.955 184.748C194.441 184.468 194.049 184.081 193.779 183.586C193.508 183.091 193.373 182.522 193.373 181.878C193.373 181.262 193.531 180.707 193.849 180.212C194.166 179.717 194.591 179.325 195.123 179.036C195.655 178.737 196.247 178.588 196.901 178.588C197.778 178.588 198.497 178.845 199.057 179.358C199.626 179.862 199.995 180.595 200.163 181.556L195.403 183.068L194.969 182.004L198.413 180.842L198.007 181.024C197.932 180.781 197.797 180.571 197.601 180.394C197.414 180.207 197.129 180.114 196.747 180.114C196.457 180.114 196.201 180.184 195.977 180.324C195.762 180.455 195.594 180.646 195.473 180.898C195.361 181.141 195.305 181.43 195.305 181.766C195.305 182.149 195.375 182.471 195.515 182.732C195.655 182.984 195.846 183.175 196.089 183.306C196.331 183.437 196.602 183.502 196.901 183.502C197.115 183.502 197.321 183.465 197.517 183.39C197.722 183.315 197.923 183.217 198.119 183.096L198.987 184.552C198.66 184.739 198.305 184.888 197.923 185C197.549 185.112 197.195 185.168 196.859 185.168ZM215.142 185C215.011 185 214.815 185 214.554 185C214.302 185 214.041 185 213.77 185C213.499 185 213.266 185 213.07 185C212.883 185 212.79 185 212.79 185L208.254 178.896C208.161 178.765 208.044 178.588 207.904 178.364C207.764 178.131 207.643 177.874 207.54 177.594C207.437 177.305 207.386 177.015 207.386 176.726C207.386 176.353 207.479 175.984 207.666 175.62C207.862 175.247 208.156 174.939 208.548 174.696C208.949 174.444 209.453 174.318 210.06 174.318C210.723 174.318 211.306 174.453 211.81 174.724C212.314 174.995 212.715 175.321 213.014 175.704L211.992 177.062C211.703 176.745 211.423 176.493 211.152 176.306C210.891 176.119 210.634 176.026 210.382 176.026C210.065 176.026 209.836 176.119 209.696 176.306C209.556 176.493 209.486 176.698 209.486 176.922C209.486 177.053 209.519 177.197 209.584 177.356C209.659 177.505 209.733 177.645 209.808 177.776C209.883 177.897 209.934 177.981 209.962 178.028L215.142 185ZM209.472 180.31C209.248 180.31 209.038 180.357 208.842 180.45C208.646 180.534 208.473 180.651 208.324 180.8C208.175 180.949 208.058 181.117 207.974 181.304C207.899 181.491 207.862 181.687 207.862 181.892C207.862 182.181 207.932 182.438 208.072 182.662C208.221 182.877 208.422 183.045 208.674 183.166C208.926 183.287 209.201 183.348 209.5 183.348C209.808 183.348 210.06 183.306 210.256 183.222C210.461 183.129 210.629 183.007 210.76 182.858C210.9 182.709 211.012 182.545 211.096 182.368L212.398 183.446C212.146 183.922 211.759 184.328 211.236 184.664C210.723 185 210.051 185.168 209.22 185.168C208.576 185.168 207.993 185.033 207.47 184.762C206.947 184.491 206.532 184.118 206.224 183.642C205.916 183.166 205.762 182.62 205.762 182.004C205.762 181.537 205.865 181.108 206.07 180.716C206.285 180.324 206.569 179.983 206.924 179.694C207.279 179.405 207.675 179.176 208.114 179.008C208.553 178.831 209.001 178.737 209.458 178.728L209.472 180.31ZM212.524 178.728H214.372L212.636 183.096L211.166 182.228L212.524 178.728ZM221.378 185V174.696H224.458C225.494 174.696 226.376 174.85 227.104 175.158C227.832 175.466 228.415 175.877 228.854 176.39C229.302 176.903 229.629 177.477 229.834 178.112C230.039 178.747 230.142 179.386 230.142 180.03C230.142 180.795 230.002 181.486 229.722 182.102C229.451 182.709 229.078 183.231 228.602 183.67C228.126 184.099 227.575 184.431 226.95 184.664C226.325 184.888 225.662 185 224.962 185H221.378ZM223.408 183.04H224.612C225.125 183.04 225.592 182.975 226.012 182.844C226.432 182.704 226.791 182.503 227.09 182.242C227.398 181.981 227.631 181.654 227.79 181.262C227.958 180.861 228.042 180.403 228.042 179.89C228.042 179.218 227.93 178.672 227.706 178.252C227.491 177.823 227.221 177.491 226.894 177.258C226.577 177.025 226.25 176.866 225.914 176.782C225.578 176.689 225.293 176.642 225.06 176.642H223.408V183.04ZM234.433 185.168C233.863 185.168 233.345 185.056 232.879 184.832C232.421 184.599 232.057 184.244 231.787 183.768C231.516 183.292 231.381 182.685 231.381 181.948C231.381 181.257 231.521 180.66 231.801 180.156C232.081 179.652 232.449 179.265 232.907 178.994C233.364 178.714 233.849 178.574 234.363 178.574C234.969 178.574 235.427 178.677 235.735 178.882C236.052 179.078 236.313 179.297 236.519 179.54L236.435 179.778L236.617 178.882H238.437V185H236.477V183.67L236.631 184.09C236.612 184.09 236.556 184.146 236.463 184.258C236.369 184.361 236.229 184.487 236.043 184.636C235.865 184.776 235.641 184.897 235.371 185C235.109 185.112 234.797 185.168 234.433 185.168ZM234.993 183.572C235.226 183.572 235.436 183.539 235.623 183.474C235.809 183.399 235.973 183.297 236.113 183.166C236.253 183.026 236.374 182.853 236.477 182.648V181.15C236.402 180.945 236.29 180.772 236.141 180.632C235.991 180.483 235.814 180.371 235.609 180.296C235.403 180.212 235.175 180.17 234.923 180.17C234.643 180.17 234.381 180.245 234.139 180.394C233.905 180.534 233.719 180.73 233.579 180.982C233.439 181.234 233.369 181.523 233.369 181.85C233.369 182.177 233.443 182.471 233.593 182.732C233.742 182.993 233.938 183.199 234.181 183.348C234.433 183.497 234.703 183.572 234.993 183.572ZM241.03 176.194H242.99V178.854H244.474V180.38H242.99V185H241.03V180.38H240.078V178.854H241.03V176.194ZM248.542 185.168C247.973 185.168 247.455 185.056 246.988 184.832C246.531 184.599 246.167 184.244 245.896 183.768C245.625 183.292 245.49 182.685 245.49 181.948C245.49 181.257 245.63 180.66 245.91 180.156C246.19 179.652 246.559 179.265 247.016 178.994C247.473 178.714 247.959 178.574 248.472 178.574C249.079 178.574 249.536 178.677 249.844 178.882C250.161 179.078 250.423 179.297 250.628 179.54L250.544 179.778L250.726 178.882H252.546V185H250.586V183.67L250.74 184.09C250.721 184.09 250.665 184.146 250.572 184.258C250.479 184.361 250.339 184.487 250.152 184.636C249.975 184.776 249.751 184.897 249.48 185C249.219 185.112 248.906 185.168 248.542 185.168ZM249.102 183.572C249.335 183.572 249.545 183.539 249.732 183.474C249.919 183.399 250.082 183.297 250.222 183.166C250.362 183.026 250.483 182.853 250.586 182.648V181.15C250.511 180.945 250.399 180.772 250.25 180.632C250.101 180.483 249.923 180.371 249.718 180.296C249.513 180.212 249.284 180.17 249.032 180.17C248.752 180.17 248.491 180.245 248.248 180.394C248.015 180.534 247.828 180.73 247.688 180.982C247.548 181.234 247.478 181.523 247.478 181.85C247.478 182.177 247.553 182.471 247.702 182.732C247.851 182.993 248.047 183.199 248.29 183.348C248.542 183.497 248.813 183.572 249.102 183.572ZM268.666 185.42L260.854 178.364L261.456 178.7L261.498 185H259.44V174.29H259.524L267.168 181.318L266.72 181.122L266.678 174.696H268.722V185.42H268.666ZM270.578 181.864C270.578 181.239 270.723 180.679 271.012 180.184C271.311 179.689 271.726 179.302 272.258 179.022C272.79 178.733 273.401 178.588 274.092 178.588C274.792 178.588 275.399 178.733 275.912 179.022C276.425 179.302 276.817 179.689 277.088 180.184C277.368 180.679 277.508 181.239 277.508 181.864C277.508 182.489 277.368 183.054 277.088 183.558C276.817 184.053 276.425 184.445 275.912 184.734C275.399 185.023 274.783 185.168 274.064 185.168C273.392 185.168 272.79 185.037 272.258 184.776C271.735 184.515 271.325 184.137 271.026 183.642C270.727 183.147 270.578 182.555 270.578 181.864ZM272.552 181.878C272.552 182.195 272.617 182.485 272.748 182.746C272.879 182.998 273.056 183.199 273.28 183.348C273.504 183.497 273.756 183.572 274.036 183.572C274.344 183.572 274.61 183.497 274.834 183.348C275.058 183.199 275.231 182.998 275.352 182.746C275.473 182.485 275.534 182.195 275.534 181.878C275.534 181.551 275.473 181.262 275.352 181.01C275.231 180.758 275.058 180.557 274.834 180.408C274.61 180.259 274.344 180.184 274.036 180.184C273.756 180.184 273.504 180.259 273.28 180.408C273.056 180.557 272.879 180.758 272.748 181.01C272.617 181.262 272.552 181.551 272.552 181.878ZM281.544 185.168C280.975 185.168 280.466 185.037 280.018 184.776C279.57 184.505 279.215 184.118 278.954 183.614C278.702 183.11 278.576 182.513 278.576 181.822C278.576 181.131 278.716 180.543 278.996 180.058C279.276 179.573 279.659 179.204 280.144 178.952C280.629 178.7 281.18 178.574 281.796 178.574C282.188 178.574 282.561 178.635 282.916 178.756C283.28 178.877 283.583 179.064 283.826 179.316V179.932V173.954H285.772V185H283.812V183.81L283.966 184.23C283.649 184.491 283.294 184.715 282.902 184.902C282.51 185.079 282.057 185.168 281.544 185.168ZM282.188 183.516C282.449 183.516 282.678 183.483 282.874 183.418C283.079 183.343 283.257 183.241 283.406 183.11C283.565 182.97 283.7 182.797 283.812 182.592V181.094C283.737 180.889 283.621 180.716 283.462 180.576C283.313 180.427 283.126 180.315 282.902 180.24C282.687 180.156 282.449 180.114 282.188 180.114C281.899 180.114 281.628 180.189 281.376 180.338C281.133 180.478 280.937 180.674 280.788 180.926C280.639 181.178 280.564 181.467 280.564 181.794C280.564 182.121 280.639 182.415 280.788 182.676C280.937 182.937 281.133 183.143 281.376 183.292C281.628 183.441 281.899 183.516 282.188 183.516ZM290.798 185.168C290.052 185.168 289.417 185.028 288.894 184.748C288.381 184.468 287.989 184.081 287.718 183.586C287.448 183.091 287.312 182.522 287.312 181.878C287.312 181.262 287.471 180.707 287.788 180.212C288.106 179.717 288.53 179.325 289.062 179.036C289.594 178.737 290.187 178.588 290.84 178.588C291.718 178.588 292.436 178.845 292.996 179.358C293.566 179.862 293.934 180.595 294.102 181.556L289.342 183.068L288.908 182.004L292.352 180.842L291.946 181.024C291.872 180.781 291.736 180.571 291.54 180.394C291.354 180.207 291.069 180.114 290.686 180.114C290.397 180.114 290.14 180.184 289.916 180.324C289.702 180.455 289.534 180.646 289.412 180.898C289.3 181.141 289.244 181.43 289.244 181.766C289.244 182.149 289.314 182.471 289.454 182.732C289.594 182.984 289.786 183.175 290.028 183.306C290.271 183.437 290.542 183.502 290.84 183.502C291.055 183.502 291.26 183.465 291.456 183.39C291.662 183.315 291.862 183.217 292.058 183.096L292.926 184.552C292.6 184.739 292.245 184.888 291.862 185C291.489 185.112 291.134 185.168 290.798 185.168ZM297.515 185.126C297.011 185.126 296.539 185.037 296.101 184.86C295.671 184.683 295.307 184.435 295.009 184.118L295.821 183.04C296.119 183.311 296.395 183.507 296.647 183.628C296.908 183.74 297.141 183.796 297.347 183.796C297.505 183.796 297.645 183.782 297.767 183.754C297.897 183.717 298 183.665 298.075 183.6C298.149 183.525 298.187 183.432 298.187 183.32C298.187 183.161 298.121 183.035 297.991 182.942C297.869 182.849 297.711 182.774 297.515 182.718C297.319 182.653 297.109 182.587 296.885 182.522C296.325 182.345 295.919 182.088 295.667 181.752C295.424 181.407 295.303 181.033 295.303 180.632C295.303 180.324 295.382 180.016 295.541 179.708C295.709 179.391 295.97 179.129 296.325 178.924C296.689 178.709 297.155 178.602 297.725 178.602C298.238 178.602 298.672 178.653 299.027 178.756C299.381 178.859 299.717 179.027 300.035 179.26L299.293 180.408C299.115 180.268 298.915 180.151 298.691 180.058C298.476 179.955 298.275 179.899 298.089 179.89C297.921 179.881 297.776 179.899 297.655 179.946C297.543 179.993 297.454 180.053 297.389 180.128C297.323 180.203 297.291 180.282 297.291 180.366C297.281 180.543 297.347 180.683 297.487 180.786C297.636 180.889 297.823 180.968 298.047 181.024C298.271 181.08 298.49 181.145 298.705 181.22C299.003 181.313 299.26 181.439 299.475 181.598C299.689 181.757 299.853 181.948 299.965 182.172C300.086 182.387 300.147 182.648 300.147 182.956C300.147 183.329 300.049 183.684 299.853 184.02C299.666 184.347 299.377 184.613 298.985 184.818C298.602 185.023 298.112 185.126 297.515 185.126Z" fill="#ED1B24"/>
<path d="M172.351 222.83C172.351 223.726 172.174 224.491 171.819 225.126C171.464 225.761 170.97 226.246 170.335 226.582C169.71 226.927 168.982 227.114 168.151 227.142V225.168C168.786 225.131 169.304 224.935 169.705 224.58C170.106 224.225 170.307 223.628 170.307 222.788V214.696H172.351V222.83ZM174.219 221.864C174.219 221.239 174.363 220.679 174.653 220.184C174.951 219.689 175.367 219.302 175.899 219.022C176.431 218.733 177.042 218.588 177.733 218.588C178.433 218.588 179.039 218.733 179.553 219.022C180.066 219.302 180.458 219.689 180.729 220.184C181.009 220.679 181.149 221.239 181.149 221.864C181.149 222.489 181.009 223.054 180.729 223.558C180.458 224.053 180.066 224.445 179.553 224.734C179.039 225.023 178.423 225.168 177.705 225.168C177.033 225.168 176.431 225.037 175.899 224.776C175.376 224.515 174.965 224.137 174.667 223.642C174.368 223.147 174.219 222.555 174.219 221.864ZM176.193 221.878C176.193 222.195 176.258 222.485 176.389 222.746C176.519 222.998 176.697 223.199 176.921 223.348C177.145 223.497 177.397 223.572 177.677 223.572C177.985 223.572 178.251 223.497 178.475 223.348C178.699 223.199 178.871 222.998 178.993 222.746C179.114 222.485 179.175 222.195 179.175 221.878C179.175 221.551 179.114 221.262 178.993 221.01C178.871 220.758 178.699 220.557 178.475 220.408C178.251 220.259 177.985 220.184 177.677 220.184C177.397 220.184 177.145 220.259 176.921 220.408C176.697 220.557 176.519 220.758 176.389 221.01C176.258 221.262 176.193 221.551 176.193 221.878ZM186.711 225.168C186.197 225.168 185.763 225.084 185.409 224.916C185.063 224.739 184.76 224.51 184.499 224.23L184.653 223.81V225H182.693V213.954H184.639V219.932V219.302C184.881 219.097 185.203 218.924 185.605 218.784C186.006 218.644 186.463 218.574 186.977 218.574C187.509 218.574 187.994 218.7 188.433 218.952C188.871 219.204 189.221 219.573 189.483 220.058C189.753 220.534 189.889 221.117 189.889 221.808C189.889 222.499 189.739 223.096 189.441 223.6C189.151 224.104 188.764 224.491 188.279 224.762C187.793 225.033 187.271 225.168 186.711 225.168ZM186.277 223.516C186.566 223.516 186.832 223.441 187.075 223.292C187.327 223.143 187.527 222.937 187.677 222.676C187.826 222.415 187.901 222.121 187.901 221.794C187.901 221.467 187.826 221.178 187.677 220.926C187.527 220.674 187.327 220.478 187.075 220.338C186.832 220.189 186.566 220.114 186.277 220.114C186.025 220.114 185.787 220.156 185.563 220.24C185.348 220.315 185.161 220.427 185.003 220.576C184.853 220.716 184.737 220.889 184.653 221.094V222.592C184.765 222.797 184.895 222.97 185.045 223.11C185.203 223.241 185.385 223.343 185.591 223.418C185.796 223.483 186.025 223.516 186.277 223.516ZM204.984 225C204.853 225 204.657 225 204.396 225C204.144 225 203.882 225 203.612 225C203.341 225 203.108 225 202.912 225C202.725 225 202.632 225 202.632 225L198.096 218.896C198.002 218.765 197.886 218.588 197.746 218.364C197.606 218.131 197.484 217.874 197.382 217.594C197.279 217.305 197.228 217.015 197.228 216.726C197.228 216.353 197.321 215.984 197.508 215.62C197.704 215.247 197.998 214.939 198.39 214.696C198.791 214.444 199.295 214.318 199.902 214.318C200.564 214.318 201.148 214.453 201.652 214.724C202.156 214.995 202.557 215.321 202.856 215.704L201.834 217.062C201.544 216.745 201.264 216.493 200.994 216.306C200.732 216.119 200.476 216.026 200.224 216.026C199.906 216.026 199.678 216.119 199.538 216.306C199.398 216.493 199.328 216.698 199.328 216.922C199.328 217.053 199.36 217.197 199.426 217.356C199.5 217.505 199.575 217.645 199.65 217.776C199.724 217.897 199.776 217.981 199.804 218.028L204.984 225ZM199.314 220.31C199.09 220.31 198.88 220.357 198.684 220.45C198.488 220.534 198.315 220.651 198.166 220.8C198.016 220.949 197.9 221.117 197.816 221.304C197.741 221.491 197.704 221.687 197.704 221.892C197.704 222.181 197.774 222.438 197.914 222.662C198.063 222.877 198.264 223.045 198.516 223.166C198.768 223.287 199.043 223.348 199.342 223.348C199.65 223.348 199.902 223.306 200.098 223.222C200.303 223.129 200.471 223.007 200.602 222.858C200.742 222.709 200.854 222.545 200.938 222.368L202.24 223.446C201.988 223.922 201.6 224.328 201.078 224.664C200.564 225 199.892 225.168 199.062 225.168C198.418 225.168 197.834 225.033 197.312 224.762C196.789 224.491 196.374 224.118 196.066 223.642C195.758 223.166 195.604 222.62 195.604 222.004C195.604 221.537 195.706 221.108 195.912 220.716C196.126 220.324 196.411 219.983 196.766 219.694C197.12 219.405 197.517 219.176 197.956 219.008C198.394 218.831 198.842 218.737 199.3 218.728L199.314 220.31ZM202.366 218.728H204.214L202.478 223.096L201.008 222.228L202.366 218.728ZM210.52 214.696H217.464V216.656H214.958V225H212.928V216.656H210.52V214.696ZM220.269 225.168C219.699 225.168 219.181 225.056 218.715 224.832C218.257 224.599 217.893 224.244 217.623 223.768C217.352 223.292 217.217 222.685 217.217 221.948C217.217 221.257 217.357 220.66 217.637 220.156C217.917 219.652 218.285 219.265 218.743 218.994C219.2 218.714 219.685 218.574 220.199 218.574C220.805 218.574 221.263 218.677 221.571 218.882C221.888 219.078 222.149 219.297 222.355 219.54L222.271 219.778L222.453 218.882H224.273V225H222.313V223.67L222.467 224.09C222.448 224.09 222.392 224.146 222.299 224.258C222.205 224.361 222.065 224.487 221.879 224.636C221.701 224.776 221.477 224.897 221.207 225C220.945 225.112 220.633 225.168 220.269 225.168ZM220.829 223.572C221.062 223.572 221.272 223.539 221.459 223.474C221.645 223.399 221.809 223.297 221.949 223.166C222.089 223.026 222.21 222.853 222.313 222.648V221.15C222.238 220.945 222.126 220.772 221.977 220.632C221.827 220.483 221.65 220.371 221.445 220.296C221.239 220.212 221.011 220.17 220.759 220.17C220.479 220.17 220.217 220.245 219.975 220.394C219.741 220.534 219.555 220.73 219.415 220.982C219.275 221.234 219.205 221.523 219.205 221.85C219.205 222.177 219.279 222.471 219.429 222.732C219.578 222.993 219.774 223.199 220.017 223.348C220.269 223.497 220.539 223.572 220.829 223.572ZM228.28 225.126C227.776 225.126 227.305 225.037 226.866 224.86C226.437 224.683 226.073 224.435 225.774 224.118L226.586 223.04C226.885 223.311 227.16 223.507 227.412 223.628C227.674 223.74 227.907 223.796 228.112 223.796C228.271 223.796 228.411 223.782 228.532 223.754C228.663 223.717 228.766 223.665 228.84 223.6C228.915 223.525 228.952 223.432 228.952 223.32C228.952 223.161 228.887 223.035 228.756 222.942C228.635 222.849 228.476 222.774 228.28 222.718C228.084 222.653 227.874 222.587 227.65 222.522C227.09 222.345 226.684 222.088 226.432 221.752C226.19 221.407 226.068 221.033 226.068 220.632C226.068 220.324 226.148 220.016 226.306 219.708C226.474 219.391 226.736 219.129 227.09 218.924C227.454 218.709 227.921 218.602 228.49 218.602C229.004 218.602 229.438 218.653 229.792 218.756C230.147 218.859 230.483 219.027 230.8 219.26L230.058 220.408C229.881 220.268 229.68 220.151 229.456 220.058C229.242 219.955 229.041 219.899 228.854 219.89C228.686 219.881 228.542 219.899 228.42 219.946C228.308 219.993 228.22 220.053 228.154 220.128C228.089 220.203 228.056 220.282 228.056 220.366C228.047 220.543 228.112 220.683 228.252 220.786C228.402 220.889 228.588 220.968 228.812 221.024C229.036 221.08 229.256 221.145 229.47 221.22C229.769 221.313 230.026 221.439 230.24 221.598C230.455 221.757 230.618 221.948 230.73 222.172C230.852 222.387 230.912 222.648 230.912 222.956C230.912 223.329 230.814 223.684 230.618 224.02C230.432 224.347 230.142 224.613 229.75 224.818C229.368 225.023 228.878 225.126 228.28 225.126ZM232.554 225V213.954H234.514V225H232.554ZM236.068 220.842L238.84 225H236.558L234.78 221.962L236.068 220.842ZM233.926 223.306L233.73 221.444L237.426 218.728L238.616 219.778L233.926 223.306ZM244.371 214.696H251.315V216.656H248.809V225H246.779V216.656H244.371V214.696ZM253.882 218.882L254.064 220.562L254.022 220.31C254.2 219.946 254.442 219.638 254.75 219.386C255.058 219.125 255.362 218.924 255.66 218.784C255.968 218.644 256.202 218.574 256.36 218.574L256.262 220.534C255.805 220.478 255.413 220.553 255.086 220.758C254.76 220.963 254.508 221.234 254.33 221.57C254.153 221.906 254.064 222.251 254.064 222.606V225H252.118V218.882H253.882ZM260.231 225.168C259.662 225.168 259.144 225.056 258.677 224.832C258.22 224.599 257.856 224.244 257.585 223.768C257.315 223.292 257.179 222.685 257.179 221.948C257.179 221.257 257.319 220.66 257.599 220.156C257.879 219.652 258.248 219.265 258.705 218.994C259.163 218.714 259.648 218.574 260.161 218.574C260.768 218.574 261.225 218.677 261.533 218.882C261.851 219.078 262.112 219.297 262.317 219.54L262.233 219.778L262.415 218.882H264.235V225H262.275V223.67L262.429 224.09C262.411 224.09 262.355 224.146 262.261 224.258C262.168 224.361 262.028 224.487 261.841 224.636C261.664 224.776 261.44 224.897 261.169 225C260.908 225.112 260.595 225.168 260.231 225.168ZM260.791 223.572C261.025 223.572 261.235 223.539 261.421 223.474C261.608 223.399 261.771 223.297 261.911 223.166C262.051 223.026 262.173 222.853 262.275 222.648V221.15C262.201 220.945 262.089 220.772 261.939 220.632C261.79 220.483 261.613 220.371 261.407 220.296C261.202 220.212 260.973 220.17 260.721 220.17C260.441 220.17 260.18 220.245 259.937 220.394C259.704 220.534 259.517 220.73 259.377 220.982C259.237 221.234 259.167 221.523 259.167 221.85C259.167 222.177 259.242 222.471 259.391 222.732C259.541 222.993 259.737 223.199 259.979 223.348C260.231 223.497 260.502 223.572 260.791 223.572ZM271.449 224.454C271.178 224.669 270.838 224.841 270.427 224.972C270.026 225.103 269.629 225.168 269.237 225.168C268.537 225.168 267.926 225.042 267.403 224.79C266.89 224.529 266.488 224.16 266.199 223.684C265.919 223.199 265.779 222.615 265.779 221.934C265.779 221.253 265.933 220.674 266.241 220.198C266.549 219.713 266.95 219.344 267.445 219.092C267.949 218.84 268.476 218.714 269.027 218.714C269.578 218.714 270.054 218.789 270.455 218.938C270.866 219.087 271.216 219.283 271.505 219.526L270.553 220.786C270.422 220.683 270.24 220.581 270.007 220.478C269.783 220.366 269.517 220.31 269.209 220.31C268.938 220.31 268.691 220.38 268.467 220.52C268.243 220.66 268.066 220.851 267.935 221.094C267.804 221.337 267.739 221.617 267.739 221.934C267.739 222.233 267.809 222.508 267.949 222.76C268.089 223.012 268.28 223.213 268.523 223.362C268.775 223.502 269.069 223.572 269.405 223.572C269.62 223.572 269.816 223.544 269.993 223.488C270.18 223.423 270.338 223.334 270.469 223.222L271.449 224.454ZM272.954 225V213.954H274.914V225H272.954ZM276.468 220.842L279.24 225H276.958L275.18 221.962L276.468 220.842ZM274.326 223.306L274.13 221.444L277.826 218.728L279.016 219.778L274.326 223.306ZM283.456 225.168C282.71 225.168 282.075 225.028 281.552 224.748C281.039 224.468 280.647 224.081 280.376 223.586C280.106 223.091 279.97 222.522 279.97 221.878C279.97 221.262 280.129 220.707 280.446 220.212C280.764 219.717 281.188 219.325 281.72 219.036C282.252 218.737 282.845 218.588 283.498 218.588C284.376 218.588 285.094 218.845 285.654 219.358C286.224 219.862 286.592 220.595 286.76 221.556L282 223.068L281.566 222.004L285.01 220.842L284.604 221.024C284.53 220.781 284.394 220.571 284.198 220.394C284.012 220.207 283.727 220.114 283.344 220.114C283.055 220.114 282.798 220.184 282.574 220.324C282.36 220.455 282.192 220.646 282.07 220.898C281.958 221.141 281.902 221.43 281.902 221.766C281.902 222.149 281.972 222.471 282.112 222.732C282.252 222.984 282.444 223.175 282.686 223.306C282.929 223.437 283.2 223.502 283.498 223.502C283.713 223.502 283.918 223.465 284.114 223.39C284.32 223.315 284.52 223.217 284.716 223.096L285.584 224.552C285.258 224.739 284.903 224.888 284.52 225C284.147 225.112 283.792 225.168 283.456 225.168ZM289.949 218.882L290.131 220.562L290.089 220.31C290.266 219.946 290.509 219.638 290.817 219.386C291.125 219.125 291.428 218.924 291.727 218.784C292.035 218.644 292.268 218.574 292.427 218.574L292.329 220.534C291.871 220.478 291.479 220.553 291.153 220.758C290.826 220.963 290.574 221.234 290.397 221.57C290.219 221.906 290.131 222.251 290.131 222.606V225H288.185V218.882H289.949Z" fill="#ED1B24"/>
<path d="M1 359.5V332.5C1 321.454 9.95431 312.5 21 312.5H215C226.046 312.5 235 303.546 235 292.5V235" stroke="black" stroke-opacity="0.7"/>
</svg>
