<svg width="30" height="30" viewBox="0 0 30 30" fill="none" xmlns="http://www.w3.org/2000/svg">
<path d="M0 1.86328C0 1.54497 0.135468 1.23969 0.376603 1.01461C0.617738 0.789534 0.944788 0.663086 1.2858 0.663086H2.24244C3.87113 0.663086 4.84834 1.68565 5.40552 2.6362C5.77755 3.2699 6.04671 4.00442 6.25758 4.67013C6.31462 4.66592 6.37181 4.66379 6.42902 4.66373H27.8557C29.2786 4.66373 30.3073 5.93433 29.9164 7.21293L26.7824 17.469C26.5015 18.3889 25.907 19.1983 25.0891 19.7746C24.2712 20.351 23.2744 20.6629 22.2496 20.6631H12.0523C11.0193 20.6631 10.015 20.3465 9.19354 19.7619C8.37212 19.1773 7.77911 18.3571 7.50567 17.4274L6.20272 12.9915L4.04257 6.19357L4.04085 6.18077C3.77341 5.27342 3.5231 4.42369 3.14936 3.78999C2.79105 3.17389 2.50303 3.06347 2.24416 3.06347H1.2858C0.944788 3.06347 0.617738 2.93702 0.376603 2.71194C0.135468 2.48686 0 2.18159 0 1.86328ZM8.69718 12.409L9.9847 16.7921C10.2419 17.6594 11.0871 18.2627 12.0523 18.2627H22.2496C22.7154 18.2627 23.1685 18.121 23.5403 17.8591C23.9122 17.5972 24.1824 17.2294 24.3103 16.8113L27.2882 7.06411H7.00335L8.67318 12.3242L8.69718 12.409Z" fill="black" fill-opacity="0.7"/>
<path d="M13.5438 26.6472C13.5438 27.5365 13.1585 28.3893 12.4726 29.018C11.7867 29.6468 10.8564 30 9.8864 30C8.9164 30 7.98613 29.6468 7.30023 29.018C6.61434 28.3893 6.229 27.5365 6.229 26.6472C6.229 25.758 6.61434 24.9052 7.30023 24.2764C7.98613 23.6477 8.9164 23.2944 9.8864 23.2944C10.8564 23.2944 11.7867 23.6477 12.4726 24.2764C13.1585 24.9052 13.5438 25.758 13.5438 26.6472ZM10.8008 26.6472C10.8008 26.4249 10.7044 26.2117 10.5329 26.0545C10.3615 25.8973 10.1289 25.809 9.8864 25.809C9.6439 25.809 9.41133 25.8973 9.23986 26.0545C9.06839 26.2117 8.97205 26.4249 8.97205 26.6472C8.97205 26.8695 9.06839 27.0827 9.23986 27.2399C9.41133 27.3971 9.6439 27.4854 9.8864 27.4854C10.1289 27.4854 10.3615 27.3971 10.5329 27.2399C10.7044 27.0827 10.8008 26.8695 10.8008 26.6472Z" fill="black" fill-opacity="0.7"/>
<path d="M26.3448 26.6472C26.3448 27.5365 25.9595 28.3893 25.2736 29.018C24.5877 29.6468 23.6574 30 22.6874 30C21.7174 30 20.7872 29.6468 20.1013 29.018C19.4154 28.3893 19.03 27.5365 19.03 26.6472C19.03 25.758 19.4154 24.9052 20.1013 24.2764C20.7872 23.6477 21.7174 23.2944 22.6874 23.2944C23.6574 23.2944 24.5877 23.6477 25.2736 24.2764C25.9595 24.9052 26.3448 25.758 26.3448 26.6472ZM23.6018 26.6472C23.6018 26.4249 23.5054 26.2117 23.334 26.0545C23.1625 25.8973 22.9299 25.809 22.6874 25.809C22.4449 25.809 22.2124 25.8973 22.0409 26.0545C21.8694 26.2117 21.7731 26.4249 21.7731 26.6472C21.7731 26.8695 21.8694 27.0827 22.0409 27.2399C22.2124 27.3971 22.4449 27.4854 22.6874 27.4854C22.9299 27.4854 23.1625 27.3971 23.334 27.2399C23.5054 27.0827 23.6018 26.8695 23.6018 26.6472Z" fill="black" fill-opacity="0.7"/>
</svg>
