<svg width="32" height="32" viewBox="0 0 32 32" fill="none" xmlns="http://www.w3.org/2000/svg">
<rect x="4" y="4" width="24" height="24" rx="12" fill="black"/>
<path d="M13.8038 22.3301C19.1258 22.3301 22.0358 17.9201 22.0358 14.0981C22.0358 13.9721 22.0358 13.8461 22.0298 13.7261C22.5938 13.3181 23.0858 12.8081 23.4758 12.2261C22.9598 12.4541 22.4018 12.6101 21.8138 12.6821C22.4138 12.3221 22.8698 11.7581 23.0858 11.0801C22.5278 11.4101 21.9098 11.6501 21.2498 11.7821C20.7218 11.2181 19.9718 10.8701 19.1378 10.8701C17.5418 10.8701 16.2458 12.1661 16.2458 13.7621C16.2458 13.9901 16.2698 14.2121 16.3238 14.4221C13.9178 14.3021 11.7878 13.1501 10.3598 11.3981C10.1138 11.8241 9.96984 12.3221 9.96984 12.8501C9.96984 13.8521 10.4798 14.7401 11.2598 15.2561C10.7858 15.2441 10.3418 15.1121 9.95184 14.8961C9.95184 14.9081 9.95184 14.9201 9.95184 14.9321C9.95184 16.3361 10.9478 17.5001 12.2738 17.7701C12.0338 17.8361 11.7758 17.8721 11.5118 17.8721C11.3258 17.8721 11.1458 17.8541 10.9658 17.8181C11.3318 18.9701 12.3998 19.8041 13.6658 19.8281C12.6758 20.6021 11.4278 21.0641 10.0718 21.0641C9.83784 21.0641 9.60984 21.0521 9.38184 21.0221C10.6478 21.8501 12.1718 22.3301 13.8038 22.3301Z" fill="white"/>
<circle cx="16" cy="16" r="15.5" stroke="#ED1B24" stroke-dasharray="2 2"/>
</svg>
