<svg width="32" height="32" viewBox="0 0 32 32" fill="none" xmlns="http://www.w3.org/2000/svg">
<path d="M6 25L7.41356 20.3802C6.53964 19.0242 6.08118 17.4886 6.08596 15.9187C6.08596 10.9995 10.5559 7 16.043 7C18.7077 7 21.2101 7.92823 23.0869 9.61359C24.9685 11.299 26.0048 13.5404 26 15.923C26 20.8422 21.5301 24.8417 16.0382 24.8417H16.0334C14.3668 24.8417 12.7287 24.4653 11.2722 23.7552L6 25ZM11.5253 22.1426L11.8262 22.3051C13.0965 22.981 14.553 23.336 16.0382 23.3403H16.043C20.6036 23.3403 24.319 20.0166 24.319 15.9273C24.319 13.9468 23.4594 12.086 21.8978 10.683C20.3362 9.27994 18.254 8.50998 16.043 8.50998C11.4823 8.5057 7.76695 11.8294 7.76695 15.9187C7.76695 17.3175 8.20153 18.682 9.03247 19.8626L9.22827 20.145L8.39255 22.8783L11.5253 22.1426Z" fill="white"/>
<path d="M6.34863 24.6868L7.71444 20.2253C6.86917 18.9206 6.42504 17.4363 6.42504 15.922C6.42982 11.1739 10.7421 7.31128 16.043 7.31128C18.617 7.31128 21.0287 8.20957 22.8434 9.83504C24.6581 11.4605 25.6562 13.625 25.6562 15.9263C25.6562 20.6744 21.3391 24.537 16.043 24.537H16.0382C14.4289 24.537 12.8482 24.1734 11.4441 23.489L6.34863 24.6868Z" fill="black"/>
<path d="M6 25L7.41356 20.3802C6.53964 19.0242 6.08118 17.4886 6.08596 15.9187C6.08596 10.9995 10.5559 7 16.043 7C18.7077 7 21.2101 7.92823 23.0869 9.61359C24.9685 11.299 26.0048 13.5404 26 15.923C26 20.8422 21.5301 24.8417 16.0382 24.8417H16.0334C14.3668 24.8417 12.7287 24.4653 11.2722 23.7552L6 25ZM11.5253 22.1426L11.8262 22.3051C13.0965 22.981 14.553 23.336 16.0382 23.3403H16.043C20.6036 23.3403 24.319 20.0166 24.319 15.9273C24.319 13.9468 23.4594 12.086 21.8978 10.683C20.3362 9.27994 18.254 8.50998 16.043 8.50998C11.4823 8.5057 7.76695 11.8294 7.76695 15.9187C7.76695 17.3175 8.20153 18.682 9.03247 19.8626L9.22827 20.145L8.39255 22.8783L11.5253 22.1426Z" fill="white"/>
<path fill-rule="evenodd" clip-rule="evenodd" d="M13.5546 12.1886C13.3683 11.8164 13.1726 11.8079 12.9959 11.8036C12.8526 11.7993 12.6854 11.7993 12.5183 11.7993C12.3512 11.7993 12.0837 11.8549 11.8545 12.0774C11.6253 12.2998 10.9854 12.8388 10.9854 13.9381C10.9854 15.0332 11.8784 16.094 12.0025 16.2437C12.1267 16.3934 13.7265 18.7161 16.2528 19.6102C18.354 20.3544 18.7838 20.2047 19.2375 20.1662C19.6912 20.1277 20.7084 19.6273 20.9185 19.1054C21.1238 18.5835 21.1238 18.1387 21.0618 18.0446C20.9997 17.9505 20.8325 17.8948 20.5842 17.7836C20.3359 17.6724 19.1133 17.1334 18.8841 17.0564C18.6549 16.9837 18.4877 16.9452 18.3254 17.1677C18.1582 17.3901 17.6807 17.8906 17.5374 18.0403C17.3941 18.19 17.2461 18.2071 16.9978 18.0959C16.7494 17.9847 15.9471 17.7494 14.9968 16.988C14.2566 16.3977 13.7552 15.6662 13.6119 15.4438C13.4686 15.2214 13.5976 15.1016 13.7217 14.9904C13.8316 14.892 13.9701 14.7294 14.0942 14.6011C14.2184 14.4728 14.2614 14.3787 14.3426 14.229C14.4237 14.0793 14.3855 13.9509 14.3235 13.8397C14.2614 13.7328 13.7743 12.6292 13.5546 12.1886Z" fill="white"/>
<circle cx="16" cy="16" r="15.5" stroke="#ED1B24" stroke-dasharray="2 2"/>
</svg>
