<svg width="14" height="17" viewBox="0 0 14 17" fill="none" xmlns="http://www.w3.org/2000/svg">
<path d="M7 1.21428C7.70636 1.21428 8.39686 1.39232 8.98418 1.72589C9.5715 2.05946 10.0293 2.53357 10.2996 3.08827C10.5699 3.64297 10.6406 4.25335 10.5028 4.84222C10.365 5.43109 10.0249 5.972 9.52538 6.39655C9.02591 6.8211 8.38954 7.11022 7.69675 7.22736C7.00396 7.34449 6.28587 7.28437 5.63327 7.05461C4.98068 6.82484 4.4229 6.43575 4.03047 5.93653C3.63803 5.43731 3.42857 4.85039 3.42857 4.24998C3.42857 3.44487 3.80485 2.67272 4.47462 2.10342C5.14439 1.53411 6.0528 1.21428 7 1.21428ZM7 0C6.01109 0 5.0444 0.249257 4.22215 0.716251C3.3999 1.18325 2.75904 1.847 2.3806 2.62359C2.00217 3.40017 1.90315 4.2547 2.09608 5.07911C2.289 5.90353 2.76521 6.66081 3.46447 7.25518C4.16373 7.84955 5.05464 8.25432 6.02455 8.41831C6.99445 8.58229 7.99979 8.49813 8.91342 8.17646C9.82705 7.85479 10.6079 7.31006 11.1573 6.61115C11.7068 5.91224 12 5.09055 12 4.24998C12 3.12282 11.4732 2.04182 10.5355 1.24479C9.59785 0.447765 8.32608 0 7 0Z" fill="black" fill-opacity="0.7"/>
<path d="M14 17.0001H12.6V13.8126C12.6 13.394 12.5095 12.9795 12.3336 12.5928C12.1577 12.2061 11.8999 11.8547 11.5749 11.5587C11.2499 11.2627 10.864 11.0279 10.4394 10.8677C10.0148 10.7075 9.55963 10.6251 9.1 10.6251H4.9C3.97174 10.6251 3.0815 10.9609 2.42513 11.5587C1.76875 12.1565 1.4 12.9672 1.4 13.8126V17.0001H0V13.8126C0 12.6291 0.516249 11.494 1.43518 10.6571C2.35411 9.82025 3.60044 9.3501 4.9 9.3501H9.1C10.3996 9.3501 11.6459 9.82025 12.5648 10.6571C13.4838 11.494 14 12.6291 14 13.8126V17.0001Z" fill="black" fill-opacity="0.7"/>
</svg>
