<svg width="180" height="15" viewBox="0 0 180 15" fill="none" xmlns="http://www.w3.org/2000/svg">
<path d="M16.9115 11.038L14.106 13.8092C14.045 13.8694 13.9712 13.9174 13.8892 13.9502C13.8073 13.9831 13.7188 14 13.6294 14H0.325791C0.262314 14 0.200218 13.9829 0.147137 13.9509C0.0940557 13.9188 0.052303 13.8732 0.0270016 13.8196C0.00170006 13.766 -0.00604585 13.7067 0.00471883 13.6491C0.0154835 13.5915 0.0442859 13.5381 0.0875913 13.4953L2.89311 10.7242C2.95408 10.6639 3.02786 10.6159 3.10985 10.5831C3.19184 10.5503 3.28029 10.5333 3.3697 10.5333H16.6733C16.7368 10.5333 16.7989 10.5504 16.852 10.5825C16.905 10.6145 16.9468 10.6601 16.9721 10.7138C16.9974 10.7674 17.0051 10.8266 16.9944 10.8842C16.9836 10.9418 16.9548 10.9953 16.9115 11.038ZM14.106 5.4575C14.045 5.39729 13.9712 5.34927 13.8892 5.31644C13.8073 5.28361 13.7188 5.26666 13.6294 5.26666H0.325791C0.262314 5.26666 0.200218 5.28374 0.147137 5.3158C0.0940557 5.34785 0.052303 5.39349 0.0270016 5.44709C0.00170006 5.5007 -0.00604585 5.55994 0.00471883 5.61754C0.0154835 5.67515 0.0442859 5.7286 0.0875913 5.77133L2.89311 8.5425C2.95408 8.60271 3.02786 8.65073 3.10985 8.68356C3.19184 8.71639 3.28029 8.73334 3.3697 8.73334H16.6733C16.7367 8.73325 16.7986 8.71613 16.8516 8.6841C16.9046 8.65207 16.9463 8.60652 16.9715 8.55301C16.9968 8.4995 17.0046 8.44037 16.9939 8.38285C16.9833 8.32533 16.9546 8.27192 16.9115 8.22917L14.106 5.4575ZM0.326697 3.46666H13.6303C13.7197 3.46666 13.8082 3.44972 13.8901 3.41689C13.9721 3.38406 14.0459 3.33605 14.1069 3.27584L16.9124 0.504669C16.9557 0.461934 16.9845 0.408474 16.9953 0.350871C17.006 0.293268 16.9983 0.234026 16.973 0.18042C16.9477 0.126814 16.9059 0.0811859 16.8529 0.0491333C16.7998 0.0170807 16.7377 1.97391e-06 16.6742 0H3.3706C3.28119 1.24198e-06 3.19274 0.0169438 3.11076 0.0497742C3.02877 0.0826046 2.95499 0.130624 2.89402 0.190837L0.0884972 2.962C0.0452439 3.00468 0.0164586 3.05806 0.00566339 3.11559C-0.00513186 3.17312 0.0025351 3.2323 0.0277252 3.28587C0.0529152 3.33944 0.0945294 3.38508 0.147474 3.4172C0.200419 3.44931 0.262391 3.4665 0.325791 3.46666H0.326697Z" fill="white"/>
<path d="M28.2266 14.0542H31.023V8.63938H41.575V5.84254H31.023V3.22458H41.575V0.427734H28.2266V14.0542Z" fill="white"/>
<path d="M55.3014 0.427734H46.9715C46.1955 0.428365 45.4515 0.736899 44.9028 1.2856C44.3541 1.8343 44.0456 2.57831 44.0449 3.35429V11.1288C44.0458 11.9045 44.3543 12.6481 44.9028 13.1966C45.4514 13.745 46.1951 14.0535 46.9707 14.0542H55.3006C56.0762 14.0533 56.8197 13.7449 57.3682 13.1964C57.9166 12.648 58.2251 11.9044 58.2259 11.1288V3.35429C58.2253 2.57866 57.917 1.83494 57.3688 1.2863C56.8205 0.737655 56.077 0.42889 55.3014 0.427734V0.427734ZM55.4299 3.22458V11.2573H46.8414V3.22458H55.4299Z" fill="white"/>
<path d="M72.0881 8.90753C72.0873 9.53068 71.8394 10.1281 71.3988 10.5687C70.9581 11.0093 70.3606 11.2571 69.7374 11.2577H65.8486C65.2257 11.2567 64.6286 11.0087 64.1882 10.5682C63.7478 10.1276 63.5 9.53045 63.4992 8.90753V0.427734H60.7031V9.46285C60.7045 10.6799 61.1885 11.8468 62.049 12.7075C62.9095 13.5682 64.0762 14.0525 65.2933 14.0542H70.2912C71.5088 14.0532 72.6764 13.5693 73.5376 12.7085C74.3988 11.8477 74.8833 10.6805 74.8849 9.46285V0.427734H72.0881V8.90753Z" fill="white"/>
<path d="M88.7494 11.2573H88.2293L82.9824 1.39043C82.828 1.09943 82.5973 0.856027 82.3149 0.6864C82.0325 0.516773 81.7092 0.427345 81.3798 0.427736H79.178C78.6968 0.428366 78.2355 0.619816 77.8953 0.960091C77.5551 1.30037 77.3638 1.76168 77.3633 2.24285V14.0542H80.1593V3.22538H80.7904L86.0354 13.0919C86.1896 13.383 86.4204 13.6266 86.7028 13.7963C86.9851 13.966 87.3085 14.0555 87.6379 14.055H89.7296C90.2108 14.0546 90.6722 13.8633 91.0126 13.523C91.3529 13.1828 91.5444 12.7215 91.545 12.2403V0.427736H88.7482L88.7494 11.2573Z" fill="white"/>
<path d="M103.611 0.427734H94.0215V14.0542H103.611C104.829 14.0532 105.996 13.5693 106.857 12.7085C107.719 11.8477 108.203 10.6805 108.205 9.46285V5.02026C108.204 3.80243 107.719 2.63485 106.858 1.77382C105.997 0.912797 104.829 0.428679 103.611 0.427734V0.427734ZM96.8179 3.22458H103.056C103.679 3.22532 104.277 3.47316 104.717 3.91375C105.158 4.35434 105.406 4.9517 105.406 5.57479V8.90753C105.406 9.53062 105.158 10.128 104.717 10.5686C104.277 11.0092 103.679 11.257 103.056 11.2577H96.8179V3.22458Z" fill="white"/>
<path d="M122.496 0.427734H113.054C112.425 0.428469 111.823 0.678459 111.378 1.12285C110.934 1.56725 110.684 2.16975 110.684 2.79817V14.0542H113.48V9.6116H122.069V14.0542H124.865V2.79897C124.865 2.17058 124.615 1.56805 124.171 1.12353C123.727 0.679011 123.125 0.428784 122.496 0.427734V0.427734ZM122.07 3.22458V6.81475H113.481V3.22458H122.07Z" fill="white"/>
<path d="M127.344 3.22458H132.759V14.0542H135.555V3.22458H140.97V0.427734H127.344V3.22458Z" fill="white"/>
<path d="M146.382 0.427734H143.586V14.0542H146.382V0.427734Z" fill="white"/>
<path d="M160.417 0.427734H152.087C151.311 0.428365 150.567 0.736899 150.018 1.2856C149.469 1.8343 149.161 2.57831 149.16 3.35429V11.1288C149.161 11.9045 149.47 12.6481 150.018 13.1966C150.567 13.745 151.31 14.0535 152.086 14.0542H160.416C161.191 14.0533 161.935 13.7449 162.483 13.1964C163.032 12.648 163.34 11.9044 163.341 11.1288V3.35429C163.341 2.57866 163.032 1.83494 162.484 1.2863C161.936 0.737655 161.192 0.42889 160.417 0.427734V0.427734ZM160.545 3.22458V11.2573H151.957V3.22458H160.545Z" fill="white"/>
<path d="M177.204 0.427736V11.2565H176.684L171.437 1.39083C171.283 1.09967 171.053 0.856114 170.77 0.686401C170.488 0.516688 170.164 0.427254 169.835 0.427736H167.633C167.152 0.428366 166.691 0.619816 166.35 0.960091C166.01 1.30037 165.819 1.76168 165.818 2.24285V14.0542H168.615V3.22538H169.246L174.49 13.0919C174.645 13.3829 174.876 13.6264 175.158 13.7961C175.44 13.9658 175.764 14.0553 176.093 14.055H178.185C178.666 14.0545 179.128 13.8631 179.468 13.5229C179.808 13.1827 179.999 12.7214 180 12.2403V0.427736H177.204Z" fill="white"/>
</svg>
