<svg width="20" height="17" viewBox="0 0 20 17" fill="none" xmlns="http://www.w3.org/2000/svg">
<path d="M19.3269 13.0599L16.1913 16.3387C16.1231 16.4099 16.0407 16.4667 15.9491 16.5056C15.8574 16.5444 15.7586 16.5645 15.6586 16.5645H0.789901C0.718956 16.5645 0.649555 16.5442 0.590229 16.5063C0.530902 16.4684 0.484238 16.4144 0.455959 16.351C0.427681 16.2876 0.419024 16.2175 0.431055 16.1493C0.443086 16.0812 0.475277 16.0179 0.523677 15.9673L3.65926 12.6886C3.72741 12.6173 3.80986 12.5605 3.9015 12.5217C3.99313 12.4828 4.09199 12.4628 4.19191 12.4628H19.0607C19.1316 12.4628 19.201 12.483 19.2603 12.5209C19.3196 12.5588 19.3663 12.6128 19.3946 12.6763C19.4229 12.7397 19.4315 12.8098 19.4195 12.8779C19.4075 12.9461 19.3753 13.0093 19.3269 13.0599ZM16.1913 6.45718C16.1231 6.38594 16.0407 6.32912 15.9491 6.29028C15.8574 6.25143 15.7586 6.23139 15.6586 6.23139H0.789901C0.718956 6.23139 0.649555 6.2516 0.590229 6.28952C0.530902 6.32744 0.484238 6.38144 0.455959 6.44487C0.427681 6.50829 0.419024 6.57839 0.431055 6.64654C0.443086 6.71469 0.475277 6.77794 0.523677 6.8285L3.65926 10.1073C3.72741 10.1785 3.80986 10.2353 3.9015 10.2742C3.99313 10.313 4.09199 10.3331 4.19191 10.3331H19.0607C19.1315 10.333 19.2007 10.3127 19.2599 10.2748C19.3191 10.2369 19.3657 10.183 19.394 10.1197C19.4222 10.0564 19.4309 9.98644 19.419 9.91839C19.4071 9.85033 19.3751 9.78713 19.3269 9.73655L16.1913 6.45718ZM0.790913 4.10167H15.6597C15.7596 4.10167 15.8584 4.08163 15.9501 4.04278C16.0417 4.00394 16.1242 3.94713 16.1923 3.87589L19.3279 0.597112C19.3763 0.546549 19.4085 0.483296 19.4205 0.415142C19.4325 0.346987 19.4239 0.276894 19.3956 0.213468C19.3673 0.150043 19.3207 0.0960572 19.2613 0.0581333C19.202 0.0202095 19.1326 2.33548e-06 19.0617 0H4.19292C4.09299 1.46948e-06 3.99414 0.0200474 3.90251 0.0588916C3.81087 0.0977357 3.72842 0.154551 3.66027 0.225793L0.52469 3.50456C0.476348 3.55506 0.444176 3.61823 0.432111 3.68629C0.420046 3.75435 0.428615 3.82437 0.456768 3.88776C0.484922 3.95115 0.531432 4.00514 0.590605 4.04314C0.649779 4.08114 0.719042 4.10148 0.789901 4.10167H0.790913Z" fill="url(#paint0_linear_933_1504)"/>
<defs>
<linearGradient id="paint0_linear_933_1504" x1="-0.753211" y1="19.7111" x2="20.8328" y2="-4.60218" gradientUnits="userSpaceOnUse">
<stop offset="0.12" stop-color="#E5304F"/>
<stop offset="0.466" stop-color="#FF8A4D"/>
<stop offset="0.876" stop-color="#F2FF00"/>
</linearGradient>
</defs>
</svg>
