<svg width="156" height="15" viewBox="0 0 156 15" fill="none" xmlns="http://www.w3.org/2000/svg">
<path d="M0 14.883H2.87294V9.32005H13.7135V6.4467H2.87294V3.75714H13.7135V0.883789H0V14.883Z" fill="black"/>
<path d="M27.8163 0.883789H19.2586C18.4614 0.884437 17.697 1.20141 17.1333 1.76512C16.5696 2.32883 16.2526 3.09319 16.252 3.8904V11.8776C16.2528 12.6745 16.5698 13.4385 17.1333 14.0019C17.6969 14.5653 18.4609 14.8822 19.2578 14.883H27.8155C28.6123 14.8821 29.3762 14.5652 29.9396 14.0018C30.5031 13.4383 30.82 12.6744 30.8209 11.8776V3.8904C30.8202 3.09354 30.5035 2.32949 29.9402 1.76584C29.377 1.20219 28.6131 0.884976 27.8163 0.883789V0.883789ZM27.9483 3.75714V12.0096H19.1249V3.75714H27.9483Z" fill="black"/>
<path d="M45.0616 9.59553C45.0608 10.2357 44.8062 10.8495 44.3534 11.3021C43.9007 11.7548 43.2869 12.0094 42.6467 12.01H38.6515C38.0115 12.0089 37.3981 11.7542 36.9456 11.3016C36.4932 10.849 36.2387 10.2355 36.2378 9.59553V0.883789H33.3652V10.166C33.3666 11.4164 33.8639 12.6152 34.7479 13.4994C35.632 14.3837 36.8306 14.8812 38.0809 14.883H43.2156C44.4665 14.882 45.666 14.3848 46.5508 13.5005C47.4355 12.6162 47.9333 11.417 47.935 10.166V0.883789H45.0616V9.59553Z" fill="black"/>
<path d="M62.178 12.0096H61.6438L56.2533 1.87282C56.0947 1.57386 55.8576 1.3238 55.5675 1.14953C55.2774 0.975264 54.9453 0.883389 54.6069 0.88379H52.3448C51.8505 0.884438 51.3766 1.08112 51.0271 1.43071C50.6776 1.78029 50.481 2.25422 50.4805 2.74855V14.883H53.353V3.75796H54.0014L59.3898 13.8944C59.5482 14.1935 59.7853 14.4437 60.0754 14.618C60.3655 14.7924 60.6977 14.8843 61.0362 14.8838H63.185C63.6794 14.8834 64.1534 14.6868 64.5031 14.3373C64.8528 13.9878 65.0495 13.5138 65.0501 13.0194V0.88379H62.1768L62.178 12.0096Z" fill="black"/>
<path d="M77.4476 0.883789H67.5957V14.883H77.4476C78.6986 14.882 79.898 14.3848 80.7828 13.5005C81.6676 12.6162 82.1654 11.417 82.167 10.166V5.60193C82.1657 4.35079 81.668 3.15128 80.7832 2.2667C79.8984 1.38212 78.6988 0.88476 77.4476 0.883789V0.883789ZM70.4686 3.75714H76.8775C77.5177 3.75789 78.1313 4.01252 78.584 4.46516C79.0366 4.9178 79.2913 5.5315 79.292 6.17163V9.59553C79.2913 10.2357 79.0366 10.8494 78.584 11.302C78.1313 11.7546 77.5177 12.0093 76.8775 12.01H70.4686V3.75714Z" fill="black"/>
<path d="M96.8466 0.883789H87.1458C86.5002 0.884544 85.8813 1.14137 85.4248 1.59792C84.9683 2.05447 84.7116 2.67346 84.7109 3.31907V14.883H87.5839V10.3189H96.4073V14.883H99.2806V3.31988C99.2801 2.67431 99.0235 2.0553 98.5672 1.59862C98.1109 1.14194 97.4922 0.884868 96.8466 0.883789V0.883789ZM96.4085 3.75714V7.44551H87.5851V3.75714H96.4085Z" fill="black"/>
<path d="M101.828 3.75714H107.391V14.883H110.264V3.75714H115.827V0.883789H101.828V3.75714Z" fill="black"/>
<path d="M121.389 0.883789H118.516V14.883H121.389V0.883789Z" fill="black"/>
<path d="M135.805 0.883789H127.247C126.45 0.884437 125.685 1.20141 125.122 1.76512C124.558 2.32883 124.241 3.09319 124.24 3.8904V11.8776C124.241 12.6745 124.558 13.4385 125.122 14.0019C125.685 14.5653 126.449 14.8822 127.246 14.883H135.804C136.601 14.8821 137.364 14.5652 137.928 14.0018C138.491 13.4383 138.808 12.6744 138.809 11.8776V3.8904C138.809 3.09354 138.492 2.32949 137.929 1.76584C137.365 1.20219 136.601 0.884976 135.805 0.883789V0.883789ZM135.937 3.75714V12.0096H127.113V3.75714H135.937Z" fill="black"/>
<path d="M153.053 0.883791V12.0088H152.519L147.128 1.87323C146.97 1.57411 146.733 1.32389 146.443 1.14953C146.153 0.975176 145.82 0.883295 145.482 0.883791H143.22C142.725 0.884438 142.252 1.08112 141.902 1.43071C141.553 1.78029 141.356 2.25422 141.355 2.74855V14.883H144.228V3.75796H144.877L150.265 13.8944C150.423 14.1934 150.66 14.4435 150.951 14.6178C151.241 14.7921 151.573 14.8841 151.911 14.8838H154.06C154.555 14.8832 155.029 14.6867 155.378 14.3372C155.728 13.9877 155.924 13.5138 155.925 13.0194V0.883791H153.053Z" fill="black"/>
</svg>
