<svg width="22" height="16" viewBox="0 0 22 16" fill="none" xmlns="http://www.w3.org/2000/svg">
<path d="M10.9559 0.5C5.97596 0.5 1.72307 3.61 0 8C1.72307 12.39 5.97596 15.5 10.9559 15.5C15.9359 15.5 20.1888 12.39 21.9119 8C20.1888 3.61 15.9359 0.5 10.9559 0.5ZM10.9559 13C8.20699 13 5.97596 10.76 5.97596 8C5.97596 5.24 8.20699 3 10.9559 3C13.7049 3 15.9359 5.24 15.9359 8C15.9359 10.76 13.7049 13 10.9559 13ZM10.9559 5C9.30258 5 7.96795 6.34 7.96795 8C7.96795 9.66 9.30258 11 10.9559 11C12.6093 11 13.9439 9.66 13.9439 8C13.9439 6.34 12.6093 5 10.9559 5Z" fill="#EB2347"/>
</svg>
